<svg width="207" height="207" viewBox="0 0 207 207" fill="none" xmlns="http://www.w3.org/2000/svg">
<path d="M176.243 176.54C164.168 188.615 149.281 197.498 132.92 202.391C116.56 207.284 99.24 208.032 82.5186 204.569C65.7971 201.106 50.1989 193.541 37.1273 182.553C24.0558 171.565 13.921 157.5 7.63477 141.623C1.34859 125.746 -0.891743 108.555 1.11535 91.5971C3.12244 74.6393 9.31399 58.4464 19.1329 44.4755C28.9518 30.5046 42.0901 19.1939 57.3655 11.5612C72.641 3.9285 89.5744 0.21318 106.642 0.749557L103.407 103.704L176.243 176.54Z" fill="#3A73A8"/>
<path d="M103.407 0.69873C120.483 0.69873 137.291 4.94409 152.32 13.0529C167.348 21.1616 180.124 32.8794 189.499 47.1518C198.875 61.4242 204.554 77.8036 206.028 94.8161C207.501 111.829 204.722 128.941 197.94 144.612C191.159 160.284 180.587 174.024 167.177 184.596C153.766 195.168 137.938 202.24 121.116 205.176C104.294 208.112 87.0064 206.819 70.8079 201.415C54.6094 196.011 40.0085 186.664 28.3191 174.216L103.407 103.704L103.407 0.69873Z" fill="#D9A867"/>
<circle cx="103.407" cy="103.702" r="76.0069" fill="white"/>
<path d="M82.565 117.709C81.5517 117.709 80.4583 117.629 79.285 117.469C78.1117 117.336 76.9783 117.162 75.885 116.949C74.7917 116.736 73.8583 116.549 73.085 116.389L73.565 112.309C74.285 112.416 75.1383 112.549 76.125 112.709C77.1117 112.842 78.125 112.949 79.165 113.029C80.205 113.109 81.1517 113.149 82.005 113.149C83.365 113.149 84.445 112.802 85.245 112.109C86.045 111.389 86.445 110.349 86.445 108.989C86.445 108.056 86.2717 107.322 85.925 106.789C85.605 106.256 85.125 105.882 84.485 105.669C83.8717 105.429 83.1517 105.309 82.325 105.309C81.685 105.309 81.045 105.376 80.405 105.509C79.765 105.616 79.165 105.762 78.605 105.949C78.045 106.109 77.5917 106.282 77.245 106.469L73.645 105.909L74.285 90.869H90.805V95.709H78.605L78.085 101.589C78.4583 101.429 78.925 101.269 79.485 101.109C80.045 100.922 80.645 100.762 81.285 100.629C81.9517 100.496 82.5917 100.429 83.205 100.429C85.045 100.429 86.605 100.682 87.885 101.189C89.165 101.696 90.1383 102.536 90.805 103.709C91.4983 104.882 91.845 106.482 91.845 108.509C91.845 110.616 91.4583 112.349 90.685 113.709C89.9383 115.042 88.8717 116.042 87.485 116.709C86.125 117.376 84.485 117.709 82.565 117.709ZM104.192 117.709C103.205 117.709 102.165 117.656 101.072 117.549C100.005 117.442 98.9782 117.309 97.9916 117.149C97.0316 116.962 96.2316 116.802 95.5916 116.669L95.8316 112.389C96.4716 112.469 97.2316 112.562 98.1116 112.669C99.0182 112.776 99.9382 112.869 100.872 112.949C101.832 113.002 102.712 113.029 103.512 113.029C105.032 113.029 106.165 112.749 106.912 112.189C107.658 111.629 108.032 110.722 108.032 109.469C108.032 108.616 107.858 107.949 107.512 107.469C107.192 106.962 106.712 106.589 106.072 106.349C105.458 106.109 104.738 105.976 103.912 105.949H98.4716V101.549H103.792C104.405 101.549 104.992 101.416 105.552 101.149C106.138 100.882 106.605 100.496 106.952 99.989C107.325 99.4824 107.512 98.869 107.512 98.149C107.512 97.029 107.165 96.2424 106.472 95.789C105.805 95.309 104.712 95.069 103.192 95.069C102.392 95.069 101.552 95.109 100.672 95.189C99.7916 95.269 98.9516 95.3624 98.1516 95.469C97.3516 95.549 96.6849 95.6424 96.1516 95.749L95.9116 91.549C96.4982 91.389 97.2182 91.229 98.0716 91.069C98.9249 90.8824 99.8316 90.7357 100.792 90.629C101.752 90.4957 102.658 90.429 103.512 90.429C105.778 90.429 107.605 90.669 108.992 91.149C110.405 91.6024 111.432 92.3624 112.072 93.429C112.712 94.469 113.032 95.8424 113.032 97.549C113.032 98.4824 112.912 99.269 112.672 99.909C112.458 100.549 112.165 101.096 111.792 101.549C111.445 102.002 111.085 102.376 110.712 102.669C110.338 102.936 109.992 103.176 109.672 103.389C110.472 103.762 111.165 104.176 111.752 104.629C112.338 105.082 112.792 105.682 113.112 106.429C113.432 107.176 113.592 108.176 113.592 109.429C113.592 111.429 113.245 113.042 112.552 114.269C111.858 115.469 110.818 116.349 109.432 116.909C108.045 117.442 106.298 117.709 104.192 117.709ZM127.138 117.709C123.698 117.709 121.178 116.522 119.578 114.149C117.978 111.776 117.178 108.429 117.178 104.109C117.178 101.549 117.431 99.4024 117.938 97.669C118.471 95.909 119.205 94.509 120.138 93.469C121.098 92.4024 122.231 91.629 123.538 91.149C124.845 90.669 126.285 90.429 127.858 90.429C128.685 90.429 129.578 90.4824 130.538 90.589C131.525 90.6957 132.485 90.829 133.418 90.989C134.351 91.1224 135.138 91.2557 135.778 91.389L135.338 95.509C134.778 95.4557 134.071 95.389 133.218 95.309C132.391 95.229 131.525 95.1624 130.618 95.109C129.711 95.029 128.845 94.989 128.018 94.989C126.205 94.989 124.845 95.5624 123.938 96.709C123.031 97.829 122.551 99.4424 122.498 101.549C122.765 101.469 123.098 101.376 123.498 101.269C123.925 101.136 124.378 101.002 124.858 100.869C125.365 100.709 125.871 100.589 126.378 100.509C126.885 100.402 127.365 100.349 127.818 100.349C130.778 100.349 132.991 101.042 134.458 102.429C135.951 103.789 136.698 105.936 136.698 108.869C136.698 110.842 136.311 112.482 135.538 113.789C134.765 115.096 133.671 116.082 132.258 116.749C130.845 117.389 129.138 117.709 127.138 117.709ZM127.138 113.229C128.605 113.229 129.698 112.856 130.418 112.109C131.165 111.336 131.538 110.256 131.538 108.869C131.538 107.482 131.165 106.469 130.418 105.829C129.671 105.162 128.618 104.829 127.258 104.829C126.698 104.829 126.111 104.882 125.498 104.989C124.885 105.096 124.311 105.242 123.778 105.429C123.245 105.589 122.805 105.749 122.458 105.909C122.485 107.322 122.645 108.589 122.938 109.709C123.231 110.802 123.711 111.669 124.378 112.309C125.071 112.922 125.991 113.229 127.138 113.229Z" fill="#333333"/>
</svg>
