<svg width="440" height="471" viewBox="0 0 440 471" fill="none" xmlns="http://www.w3.org/2000/svg">
<path d="M440 0.224121H0V470.224H440V0.224121Z" fill="white"/>
<path d="M61.2548 70.8058C59.8881 70.8058 58.6548 70.5474 57.5548 70.0308C56.4548 69.5308 55.5881 68.8308 54.9548 67.9308C54.3215 67.0474 54.0048 66.0391 54.0048 64.9058C54.0048 64.5558 54.0298 64.0974 54.0798 63.5308C54.1465 62.9641 54.2215 62.3391 54.3048 61.6558C54.4048 60.9724 54.5048 60.2641 54.6048 59.5308C54.7215 58.7974 54.8298 58.1058 54.9298 57.4558L58.2298 57.9308C58.0631 59.0308 57.9131 60.0391 57.7798 60.9558C57.6465 61.8724 57.5381 62.6558 57.4548 63.3058C57.3881 63.9558 57.3548 64.4558 57.3548 64.8058C57.3548 65.4724 57.5048 66.0308 57.8048 66.4808C58.1215 66.9474 58.5715 67.2974 59.1548 67.5308C59.7381 67.7808 60.4381 67.9058 61.2548 67.9058H67.1048C68.3215 67.9058 69.2298 67.6558 69.8298 67.1558C70.4298 66.6724 70.7298 65.9724 70.7298 65.0558V53.7808L71.5548 54.5058H68.4048C67.6715 54.5058 67.0965 54.5974 66.6798 54.7808C66.2631 54.9641 65.9715 55.3058 65.8048 55.8058C65.6381 56.2891 65.5548 56.9808 65.5548 57.8808C65.5548 58.8641 65.6381 59.5974 65.8048 60.0808C65.9715 60.5474 66.2631 60.8641 66.6798 61.0308C67.0965 61.1808 67.6715 61.2558 68.4048 61.2558H70.7298V64.1558H68.4048C66.9881 64.1558 65.8215 63.9391 64.9048 63.5058C63.9881 63.0558 63.3048 62.3641 62.8548 61.4308C62.4215 60.4974 62.2048 59.3141 62.2048 57.8808C62.2048 56.5141 62.4215 55.3641 62.8548 54.4308C63.3048 53.4974 63.9881 52.7974 64.9048 52.3308C65.8215 51.8474 66.9881 51.6058 68.4048 51.6058H74.0548V65.0558C74.0548 66.2391 73.7465 67.2558 73.1298 68.1058C72.5298 68.9724 71.7048 69.6391 70.6548 70.1058C69.6215 70.5724 68.4381 70.8058 67.1048 70.8058H61.2548ZM65.2048 50.1058V47.2558H68.5548V50.1058H65.2048ZM68.6298 50.1058V47.2558H71.9798V50.1058H68.6298ZM88.6575 64.1558V61.2558H91.2825V64.1558H88.6575ZM81.9075 70.3558C81.2909 70.3558 80.6409 70.3058 79.9575 70.2058C79.2909 70.1224 78.5742 70.0058 77.8075 69.8558L78.3075 67.1808C79.1409 67.2808 79.8492 67.3558 80.4325 67.4058C81.0159 67.4558 81.5075 67.4808 81.9075 67.4808C83.1075 67.4808 83.9742 67.2641 84.5075 66.8308C85.0409 66.3974 85.3075 65.7474 85.3075 64.8808V53.9058L86.1325 54.5058H83.0075C82.3242 54.5058 81.7742 54.5891 81.3575 54.7558C80.9409 54.9058 80.6325 55.2308 80.4325 55.7308C80.2492 56.2141 80.1575 56.9558 80.1575 57.9558C80.1575 58.9058 80.2409 59.6224 80.4075 60.1058C80.5909 60.5724 80.8909 60.8808 81.3075 61.0308C81.7242 61.1808 82.2909 61.2558 83.0075 61.2558H85.3075V64.1558H83.0075C81.5909 64.1558 80.4242 63.9308 79.5075 63.4808C78.5909 63.0308 77.9075 62.3474 77.4575 61.4308C77.0242 60.5141 76.8075 59.3558 76.8075 57.9558C76.8075 56.5558 77.0242 55.3891 77.4575 54.4558C77.9075 53.5058 78.5909 52.7974 79.5075 52.3308C80.4242 51.8474 81.5909 51.6058 83.0075 51.6058H88.6575V64.8808C88.6575 66.0141 88.3742 66.9891 87.8075 67.8058C87.2575 68.6391 86.4742 69.2724 85.4575 69.7058C84.4575 70.1391 83.2742 70.3558 81.9075 70.3558ZM91.2825 64.1558V61.2558C91.4825 61.2558 91.6159 61.3891 91.6825 61.6558C91.7492 61.9058 91.7825 62.2558 91.7825 62.7058C91.7825 63.1391 91.7492 63.4891 91.6825 63.7558C91.6159 64.0224 91.4825 64.1558 91.2825 64.1558ZM105.286 64.1558V61.2558H107.911V64.1558H105.286ZM91.286 64.1558V61.2558H102.961L101.936 62.1308V53.7808L102.786 54.5058H99.636C98.9027 54.5058 98.3277 54.5974 97.911 54.7808C97.4944 54.9641 97.2027 55.3058 97.036 55.8058C96.8694 56.2891 96.786 56.9808 96.786 57.8808C96.786 58.8641 96.8694 59.5974 97.036 60.0808C97.2027 60.5474 97.4944 60.8641 97.911 61.0308C98.3277 61.1808 98.9027 61.2558 99.636 61.2558V63.8558C98.2194 63.8558 97.0527 63.6558 96.136 63.2558C95.2194 62.8558 94.536 62.2224 94.086 61.3558C93.6527 60.4724 93.436 59.3141 93.436 57.8808C93.436 56.5141 93.6527 55.3641 94.086 54.4308C94.536 53.4974 95.2194 52.7974 96.136 52.3308C97.0527 51.8474 98.2194 51.6058 99.636 51.6058H105.286V64.1558H91.286ZM91.286 64.1558C91.086 64.1558 90.9527 64.0224 90.886 63.7558C90.8194 63.4891 90.786 63.1391 90.786 62.7058C90.786 62.2558 90.8194 61.9058 90.886 61.6558C90.9527 61.3891 91.086 61.2558 91.286 61.2558V64.1558ZM107.911 64.1558V61.2558C108.111 61.2558 108.244 61.3891 108.311 61.6558C108.378 61.9058 108.411 62.2558 108.411 62.7058C108.411 63.1391 108.378 63.4891 108.311 63.7558C108.244 64.0224 108.111 64.1558 107.911 64.1558ZM97.086 50.1058V47.2558H100.436V50.1058H97.086ZM100.511 50.1058V47.2558H103.861V50.1058H100.511ZM107.912 64.1558V61.2558H118.662L117.537 62.1808V57.5558C117.537 56.5558 117.22 55.7974 116.587 55.2808C115.97 54.7641 114.987 54.5058 113.637 54.5058C113.254 54.5058 112.729 54.5391 112.062 54.6058C111.395 54.6558 110.67 54.7391 109.887 54.8558L109.562 52.2058C110.279 52.0391 111.004 51.8974 111.737 51.7808C112.487 51.6641 113.22 51.6058 113.937 51.6058C115.304 51.6058 116.504 51.8474 117.537 52.3308C118.57 52.7974 119.379 53.4724 119.962 54.3558C120.562 55.2391 120.862 56.3058 120.862 57.5558V64.1558H107.912ZM107.912 64.1558C107.712 64.1558 107.579 64.0224 107.512 63.7558C107.445 63.4891 107.412 63.1391 107.412 62.7058C107.412 62.2558 107.445 61.9058 107.512 61.6558C107.579 61.3891 107.712 61.2558 107.912 61.2558V64.1558ZM128.465 70.3558C127.848 70.3558 127.198 70.3058 126.515 70.2058C125.848 70.1224 125.132 70.0058 124.365 69.8558L124.865 67.1808C125.698 67.2808 126.407 67.3558 126.99 67.4058C127.573 67.4558 128.065 67.4808 128.465 67.4808C129.665 67.4808 130.532 67.2641 131.065 66.8308C131.598 66.3974 131.865 65.7474 131.865 64.8808V53.9058L132.69 54.5058H129.565C128.882 54.5058 128.332 54.5891 127.915 54.7558C127.498 54.9058 127.19 55.2308 126.99 55.7308C126.807 56.2141 126.715 56.9558 126.715 57.9558C126.715 58.9058 126.798 59.6224 126.965 60.1058C127.148 60.5724 127.448 60.8808 127.865 61.0308C128.282 61.1808 128.848 61.2558 129.565 61.2558H131.865V64.1558H129.565C128.148 64.1558 126.982 63.9308 126.065 63.4808C125.148 63.0308 124.465 62.3474 124.015 61.4308C123.582 60.5141 123.365 59.3558 123.365 57.9558C123.365 56.5558 123.582 55.3891 124.015 54.4558C124.465 53.5058 125.148 52.7974 126.065 52.3308C126.982 51.8474 128.148 51.6058 129.565 51.6058H135.215V64.8808C135.215 66.0141 134.932 66.9891 134.365 67.8058C133.815 68.6391 133.032 69.2724 132.015 69.7058C131.015 70.1391 129.832 70.3558 128.465 70.3558ZM151.61 64.1558C148.926 64.1558 146.885 63.6391 145.485 62.6058C144.085 61.5558 143.385 60.0058 143.385 57.9558C143.385 57.5558 143.41 57.1391 143.46 56.7058C143.51 56.2558 143.568 55.8308 143.635 55.4308C143.718 55.0141 143.793 54.6474 143.86 54.3308C143.926 54.0141 143.976 53.7808 144.01 53.6308L147.26 54.2558C147.21 54.5224 147.143 54.8641 147.06 55.2808C146.976 55.6974 146.901 56.1391 146.835 56.6058C146.768 57.0558 146.735 57.4891 146.735 57.9058C146.735 58.7724 146.918 59.4558 147.285 59.9558C147.651 60.4391 148.21 60.7808 148.96 60.9808C149.71 61.1641 150.651 61.2558 151.785 61.2558H158.46V51.6058H161.81V64.1558H151.61ZM149.085 52.5308V49.6808H152.435V52.5308H149.085ZM152.51 52.5308V49.6808H155.86V52.5308H152.51ZM168.907 64.1558V61.2558H171.757V64.1558H168.907ZM165.582 64.1558V46.4808H168.907V64.1558H165.582ZM171.757 64.1558V61.2558C171.957 61.2558 172.09 61.3891 172.157 61.6558C172.224 61.9058 172.257 62.2558 172.257 62.7058C172.257 63.1391 172.224 63.4891 172.157 63.7558C172.09 64.0224 171.957 64.1558 171.757 64.1558ZM171.755 64.1558V61.2558H176.33L174.38 62.8808V51.6058H177.73V64.1558H171.755ZM171.755 64.1558C171.555 64.1558 171.421 64.0224 171.355 63.7558C171.288 63.4891 171.255 63.1391 171.255 62.7058C171.255 62.2558 171.288 61.9058 171.355 61.6558C171.421 61.3891 171.555 61.2558 171.755 61.2558V64.1558ZM174.38 69.4808V66.6308H177.73V69.4808H174.38ZM192.393 64.1558V61.2558H195.018V64.1558H192.393ZM185.643 70.3558C185.026 70.3558 184.376 70.3058 183.693 70.2058C183.026 70.1224 182.31 70.0058 181.543 69.8558L182.043 67.1808C182.876 67.2808 183.585 67.3558 184.168 67.4058C184.751 67.4558 185.243 67.4808 185.643 67.4808C186.843 67.4808 187.71 67.2641 188.243 66.8308C188.776 66.3974 189.043 65.7474 189.043 64.8808V53.9058L189.868 54.5058H186.743C186.06 54.5058 185.51 54.5891 185.093 54.7558C184.676 54.9058 184.368 55.2308 184.168 55.7308C183.985 56.2141 183.893 56.9558 183.893 57.9558C183.893 58.9058 183.976 59.6224 184.143 60.1058C184.326 60.5724 184.626 60.8808 185.043 61.0308C185.46 61.1808 186.026 61.2558 186.743 61.2558H189.043V64.1558H186.743C185.326 64.1558 184.16 63.9308 183.243 63.4808C182.326 63.0308 181.643 62.3474 181.193 61.4308C180.76 60.5141 180.543 59.3558 180.543 57.9558C180.543 56.5558 180.76 55.3891 181.193 54.4558C181.643 53.5058 182.326 52.7974 183.243 52.3308C184.16 51.8474 185.326 51.6058 186.743 51.6058H192.393V64.8808C192.393 66.0141 192.11 66.9891 191.543 67.8058C190.993 68.6391 190.21 69.2724 189.193 69.7058C188.193 70.1391 187.01 70.3558 185.643 70.3558ZM195.018 64.1558V61.2558C195.218 61.2558 195.351 61.3891 195.418 61.6558C195.485 61.9058 195.518 62.2558 195.518 62.7058C195.518 63.1391 195.485 63.4891 195.418 63.7558C195.351 64.0224 195.218 64.1558 195.018 64.1558ZM201.196 64.1558V61.2558H203.821V64.1558H201.196ZM197.846 64.1558V46.4808H201.196V64.1558H197.846ZM195.021 64.1558V61.2558H197.846V64.1558H195.021ZM195.021 64.1558C194.821 64.1558 194.688 64.0224 194.621 63.7558C194.555 63.4891 194.521 63.1391 194.521 62.7058C194.521 62.2558 194.555 61.9058 194.621 61.6558C194.688 61.3891 194.821 61.2558 195.021 61.2558V64.1558ZM203.821 64.1558V61.2558C204.021 61.2558 204.155 61.3891 204.221 61.6558C204.288 61.9058 204.321 62.2558 204.321 62.7058C204.321 63.1391 204.288 63.4891 204.221 63.7558C204.155 64.0224 204.021 64.1558 203.821 64.1558ZM221.235 64.1558V61.2558H223.86V64.1558H221.235ZM203.81 64.1558V61.2558H221.26L218.435 63.7058V58.4558C218.435 57.5058 218.31 56.7474 218.06 56.1808C217.81 55.5974 217.444 55.1724 216.96 54.9058C216.494 54.6391 215.927 54.5058 215.26 54.5058C214.544 54.5058 213.869 54.6474 213.235 54.9308C212.602 55.2141 212.002 55.5808 211.435 56.0308C210.885 56.4808 210.377 56.9641 209.91 57.4808C209.444 57.9974 209.027 58.4974 208.66 58.9808C208.294 59.4474 207.977 59.8474 207.71 60.1808L206.96 57.7558C207.644 56.8891 208.277 56.0808 208.86 55.3308C209.46 54.5808 210.085 53.9308 210.735 53.3808C211.385 52.8141 212.102 52.3808 212.885 52.0808C213.669 51.7641 214.577 51.6058 215.61 51.6058C216.727 51.6058 217.669 51.7974 218.435 52.1808C219.219 52.5474 219.86 53.0558 220.36 53.7058C220.86 54.3558 221.219 55.0891 221.435 55.9058C221.652 56.7224 221.76 57.5724 221.76 58.4558V64.1558H203.81ZM205.535 61.2558V46.4808H208.86V61.2558H205.535ZM203.81 64.1558C203.61 64.1558 203.477 64.0224 203.41 63.7558C203.344 63.4891 203.31 63.1391 203.31 62.7058C203.31 62.2558 203.344 61.9058 203.41 61.6558C203.477 61.3891 203.61 61.2558 203.81 61.2558V64.1558ZM223.86 64.1558V61.2558C224.06 61.2558 224.194 61.3891 224.26 61.6558C224.327 61.9058 224.36 62.2558 224.36 62.7058C224.36 63.1391 224.327 63.4891 224.26 63.7558C224.194 64.0224 224.06 64.1558 223.86 64.1558ZM238.629 64.1558V61.2558H241.279V64.1558H238.629ZM223.854 64.1558V61.2558H236.829L235.304 62.5558V57.9558C235.304 57.0558 235.204 56.3558 235.004 55.8558C234.804 55.3391 234.454 54.9808 233.954 54.7808C233.471 54.5641 232.796 54.4558 231.929 54.4558C231.246 54.4558 230.571 54.5058 229.904 54.6058C229.254 54.6891 228.746 54.8058 228.379 54.9558L230.454 53.0058C230.354 53.3891 230.254 53.8724 230.154 54.4558C230.071 55.0391 229.996 55.6641 229.929 56.3308C229.863 56.9808 229.829 57.6224 229.829 58.2558C229.829 58.8391 229.854 59.4474 229.904 60.0808C229.971 60.7141 230.038 61.2724 230.104 61.7558C230.188 62.2391 230.254 62.5724 230.304 62.7558L227.129 63.6308C227.063 63.3974 226.979 63.0141 226.879 62.4808C226.779 61.9474 226.688 61.3141 226.604 60.5808C226.538 59.8474 226.504 59.0724 226.504 58.2558C226.504 57.4224 226.546 56.6224 226.629 55.8558C226.713 55.0724 226.804 54.3724 226.904 53.7558C227.021 53.1224 227.129 52.6141 227.229 52.2308C227.629 52.0808 228.254 51.9308 229.104 51.7808C229.954 51.6308 230.896 51.5558 231.929 51.5558C233.429 51.5558 234.671 51.7641 235.654 52.1808C236.654 52.5974 237.396 53.2724 237.879 54.2058C238.379 55.1391 238.629 56.3974 238.629 57.9808V64.1558H223.854ZM223.854 64.1558C223.654 64.1558 223.521 64.0224 223.454 63.7558C223.388 63.4891 223.354 63.1391 223.354 62.7058C223.354 62.2558 223.388 61.9058 223.454 61.6558C223.521 61.3891 223.654 61.2558 223.854 61.2558V64.1558ZM241.279 64.1558V61.2558C241.479 61.2558 241.613 61.3891 241.679 61.6558C241.746 61.9058 241.779 62.2558 241.779 62.7058C241.779 63.1391 241.746 63.4891 241.679 63.7558C241.613 64.0224 241.479 64.1558 241.279 64.1558ZM244.111 64.1558V46.4808H247.461V64.1558H244.111ZM241.286 64.1558V61.2558H244.111V64.1558H241.286ZM241.286 64.1558C241.086 64.1558 240.953 64.0224 240.886 63.7558C240.819 63.4891 240.786 63.1391 240.786 62.7058C240.786 62.2558 240.819 61.9058 240.886 61.6558C240.953 61.3891 241.086 61.2558 241.286 61.2558V64.1558ZM251.471 64.1558V46.4808H254.796V64.1558H251.471ZM263.158 70.3558C262.541 70.3558 261.891 70.3058 261.208 70.2058C260.541 70.1224 259.824 70.0058 259.058 69.8558L259.558 67.1808C260.391 67.2808 261.099 67.3558 261.683 67.4058C262.266 67.4558 262.758 67.4808 263.158 67.4808C264.358 67.4808 265.224 67.2641 265.758 66.8308C266.291 66.3974 266.558 65.7474 266.558 64.8808V53.9058L267.383 54.5058H264.258C263.574 54.5058 263.024 54.5891 262.608 54.7558C262.191 54.9058 261.883 55.2308 261.683 55.7308C261.499 56.2141 261.408 56.9558 261.408 57.9558C261.408 58.9058 261.491 59.6224 261.658 60.1058C261.841 60.5724 262.141 60.8808 262.558 61.0308C262.974 61.1808 263.541 61.2558 264.258 61.2558H266.558V64.1558H264.258C262.841 64.1558 261.674 63.9308 260.758 63.4808C259.841 63.0308 259.158 62.3474 258.708 61.4308C258.274 60.5141 258.058 59.3558 258.058 57.9558C258.058 56.5558 258.274 55.3891 258.708 54.4558C259.158 53.5058 259.841 52.7974 260.758 52.3308C261.674 51.8474 262.841 51.6058 264.258 51.6058H269.908V64.8808C269.908 66.0141 269.624 66.9891 269.058 67.8058C268.508 68.6391 267.724 69.2724 266.708 69.7058C265.708 70.1391 264.524 70.3558 263.158 70.3558ZM286.302 64.1558C283.619 64.1558 281.577 63.6391 280.177 62.6058C278.777 61.5558 278.077 60.0058 278.077 57.9558C278.077 57.5558 278.102 57.1391 278.152 56.7058C278.202 56.2558 278.26 55.8308 278.327 55.4308C278.41 55.0141 278.485 54.6474 278.552 54.3308C278.619 54.0141 278.669 53.7808 278.702 53.6308L281.952 54.2558C281.902 54.5224 281.835 54.8641 281.752 55.2808C281.669 55.6974 281.594 56.1391 281.527 56.6058C281.46 57.0558 281.427 57.4891 281.427 57.9058C281.427 58.7724 281.61 59.4558 281.977 59.9558C282.344 60.4391 282.902 60.7808 283.652 60.9808C284.402 61.1641 285.344 61.2558 286.477 61.2558H293.152V51.6058H296.502V64.1558H286.302ZM283.777 52.5308V49.6808H287.127V52.5308H283.777ZM287.202 52.5308V49.6808H290.552V52.5308H287.202ZM300.274 64.1558V46.4808H303.599V64.1558H300.274ZM306.861 64.1558V61.2558H315.936L313.661 63.2308V59.0308C313.661 57.8474 313.536 56.9308 313.286 56.2808C313.053 55.6308 312.653 55.1724 312.086 54.9058C311.536 54.6391 310.778 54.5058 309.811 54.5058H307.786V51.6058H309.811C311.345 51.6058 312.645 51.8558 313.711 52.3558C314.795 52.8558 315.611 53.6558 316.161 54.7558C316.728 55.8391 317.011 57.2641 317.011 59.0308V64.1558H306.861ZM331.114 64.1558V61.2558H333.739V64.1558H331.114ZM324.364 70.3558C323.747 70.3558 323.097 70.3058 322.414 70.2058C321.747 70.1224 321.03 70.0058 320.264 69.8558L320.764 67.1808C321.597 67.2808 322.305 67.3558 322.889 67.4058C323.472 67.4558 323.964 67.4808 324.364 67.4808C325.564 67.4808 326.43 67.2641 326.964 66.8308C327.497 66.3974 327.764 65.7474 327.764 64.8808V53.9058L328.589 54.5058H325.464C324.78 54.5058 324.23 54.5891 323.814 54.7558C323.397 54.9058 323.089 55.2308 322.889 55.7308C322.705 56.2141 322.614 56.9558 322.614 57.9558C322.614 58.9058 322.697 59.6224 322.864 60.1058C323.047 60.5724 323.347 60.8808 323.764 61.0308C324.18 61.1808 324.747 61.2558 325.464 61.2558H327.764V64.1558H325.464C324.047 64.1558 322.88 63.9308 321.964 63.4808C321.047 63.0308 320.364 62.3474 319.914 61.4308C319.48 60.5141 319.264 59.3558 319.264 57.9558C319.264 56.5558 319.48 55.3891 319.914 54.4558C320.364 53.5058 321.047 52.7974 321.964 52.3308C322.88 51.8474 324.047 51.6058 325.464 51.6058H331.114V64.8808C331.114 66.0141 330.83 66.9891 330.264 67.8058C329.714 68.6391 328.93 69.2724 327.914 69.7058C326.914 70.1391 325.73 70.3558 324.364 70.3558ZM333.739 64.1558V61.2558C333.939 61.2558 334.072 61.3891 334.139 61.6558C334.205 61.9058 334.239 62.2558 334.239 62.7058C334.239 63.1391 334.205 63.4891 334.139 63.7558C334.072 64.0224 333.939 64.1558 333.739 64.1558ZM333.742 64.1558V61.2558H344.492L343.367 62.1808V57.5558C343.367 56.5558 343.05 55.7974 342.417 55.2808C341.8 54.7641 340.817 54.5058 339.467 54.5058C339.084 54.5058 338.559 54.5391 337.892 54.6058C337.225 54.6558 336.5 54.7391 335.717 54.8558L335.392 52.2058C336.109 52.0391 336.834 51.8974 337.567 51.7808C338.317 51.6641 339.05 51.6058 339.767 51.6058C341.134 51.6058 342.334 51.8474 343.367 52.3308C344.4 52.7974 345.209 53.4724 345.792 54.3558C346.392 55.2391 346.692 56.3058 346.692 57.5558V64.1558H333.742ZM333.742 64.1558C333.542 64.1558 333.409 64.0224 333.342 63.7558C333.275 63.4891 333.242 63.1391 333.242 62.7058C333.242 62.2558 333.275 61.9058 333.342 61.6558C333.409 61.3891 333.542 61.2558 333.742 61.2558V64.1558ZM338.567 69.4808V66.6308H341.917V69.4808H338.567ZM361.045 64.1558V61.2558H363.67V64.1558H361.045ZM354.295 70.3558C353.679 70.3558 353.029 70.3058 352.345 70.2058C351.679 70.1224 350.962 70.0058 350.195 69.8558L350.695 67.1808C351.529 67.2808 352.237 67.3558 352.82 67.4058C353.404 67.4558 353.895 67.4808 354.295 67.4808C355.495 67.4808 356.362 67.2641 356.895 66.8308C357.429 66.3974 357.695 65.7474 357.695 64.8808V53.9058L358.52 54.5058H355.395C354.712 54.5058 354.162 54.5891 353.745 54.7558C353.329 54.9058 353.02 55.2308 352.82 55.7308C352.637 56.2141 352.545 56.9558 352.545 57.9558C352.545 58.9058 352.629 59.6224 352.795 60.1058C352.979 60.5724 353.279 60.8808 353.695 61.0308C354.112 61.1808 354.679 61.2558 355.395 61.2558H357.695V64.1558H355.395C353.979 64.1558 352.812 63.9308 351.895 63.4808C350.979 63.0308 350.295 62.3474 349.845 61.4308C349.412 60.5141 349.195 59.3558 349.195 57.9558C349.195 56.5558 349.412 55.3891 349.845 54.4558C350.295 53.5058 350.979 52.7974 351.895 52.3308C352.812 51.8474 353.979 51.6058 355.395 51.6058H361.045V64.8808C361.045 66.0141 360.762 66.9891 360.195 67.8058C359.645 68.6391 358.862 69.2724 357.845 69.7058C356.845 70.1391 355.662 70.3558 354.295 70.3558ZM363.67 64.1558V61.2558C363.87 61.2558 364.004 61.3891 364.07 61.6558C364.137 61.9058 364.17 62.2558 364.17 62.7058C364.17 63.1391 364.137 63.4891 364.07 63.7558C364.004 64.0224 363.87 64.1558 363.67 64.1558ZM378.449 64.1558V61.2558H381.099V64.1558H378.449ZM363.674 64.1558V61.2558H376.649L375.124 62.5558V57.9558C375.124 57.0558 375.024 56.3558 374.824 55.8558C374.624 55.3391 374.274 54.9808 373.774 54.7808C373.29 54.5641 372.615 54.4558 371.749 54.4558C371.065 54.4558 370.39 54.5058 369.724 54.6058C369.074 54.6891 368.565 54.8058 368.199 54.9558L370.274 53.0058C370.174 53.3891 370.074 53.8724 369.974 54.4558C369.89 55.0391 369.815 55.6641 369.749 56.3308C369.682 56.9808 369.649 57.6224 369.649 58.2558C369.649 58.8391 369.674 59.4474 369.724 60.0808C369.79 60.7141 369.857 61.2724 369.924 61.7558C370.007 62.2391 370.074 62.5724 370.124 62.7558L366.949 63.6308C366.882 63.3974 366.799 63.0141 366.699 62.4808C366.599 61.9474 366.507 61.3141 366.424 60.5808C366.357 59.8474 366.324 59.0724 366.324 58.2558C366.324 57.4224 366.365 56.6224 366.449 55.8558C366.532 55.0724 366.624 54.3724 366.724 53.7558C366.84 53.1224 366.949 52.6141 367.049 52.2308C367.449 52.0808 368.074 51.9308 368.924 51.7808C369.774 51.6308 370.715 51.5558 371.749 51.5558C373.249 51.5558 374.49 51.7641 375.474 52.1808C376.474 52.5974 377.215 53.2724 377.699 54.2058C378.199 55.1391 378.449 56.3974 378.449 57.9808V64.1558H363.674ZM363.674 64.1558C363.474 64.1558 363.34 64.0224 363.274 63.7558C363.207 63.4891 363.174 63.1391 363.174 62.7058C363.174 62.2558 363.207 61.9058 363.274 61.6558C363.34 61.3891 363.474 61.2558 363.674 61.2558V64.1558ZM381.099 64.1558V61.2558C381.299 61.2558 381.432 61.3891 381.499 61.6558C381.565 61.9058 381.599 62.2558 381.599 62.7058C381.599 63.1391 381.565 63.4891 381.499 63.7558C381.432 64.0224 381.299 64.1558 381.099 64.1558ZM383.93 64.1558V46.4808H387.28V64.1558H383.93ZM381.105 64.1558V61.2558H383.93V64.1558H381.105ZM381.105 64.1558C380.905 64.1558 380.772 64.0224 380.705 63.7558C380.639 63.4891 380.605 63.1391 380.605 62.7058C380.605 62.2558 380.639 61.9058 380.705 61.6558C380.772 61.3891 380.905 61.2558 381.105 61.2558V64.1558ZM391.29 64.1558V46.4808H394.615V64.1558H391.29ZM120.218 112.456C120.068 111.556 119.926 110.681 119.793 109.831C119.676 108.981 119.618 108.231 119.618 107.581C119.618 106.281 119.868 105.156 120.368 104.206C120.868 103.272 121.576 102.547 122.493 102.031C123.409 101.514 124.493 101.256 125.743 101.256C125.993 101.256 126.301 101.256 126.668 101.256C127.051 101.256 127.493 101.256 127.993 101.256C128.493 101.256 129.051 101.256 129.668 101.256C130.284 101.256 130.959 101.256 131.693 101.256L130.168 102.706V97.9808C130.168 97.1141 130.068 96.4308 129.868 95.9308C129.684 95.4141 129.343 95.0474 128.843 94.8308C128.359 94.6141 127.651 94.5058 126.718 94.5058C126.084 94.5058 125.434 94.5558 124.768 94.6558C124.118 94.7391 123.601 94.8558 123.218 95.0058L125.318 93.0558C125.201 93.4558 125.093 93.9558 124.993 94.5558C124.909 95.1558 124.843 95.7808 124.793 96.4308C124.743 97.0641 124.718 97.6641 124.718 98.2308C124.718 98.8474 124.743 99.4724 124.793 100.106C124.843 100.722 124.901 101.272 124.968 101.756C125.051 102.239 125.118 102.572 125.168 102.756L121.993 103.631C121.909 103.397 121.818 103.014 121.718 102.481C121.634 101.947 121.551 101.322 121.468 100.606C121.401 99.8724 121.368 99.0974 121.368 98.2808C121.368 97.4641 121.401 96.6724 121.468 95.9058C121.551 95.1224 121.651 94.4224 121.768 93.8058C121.884 93.1724 121.993 92.6641 122.093 92.2808C122.526 92.1141 123.168 91.9641 124.018 91.8308C124.868 91.6808 125.784 91.6058 126.768 91.6058C127.851 91.6058 128.776 91.7141 129.543 91.9308C130.326 92.1308 130.968 92.4224 131.468 92.8058C131.984 93.1891 132.393 93.6474 132.693 94.1808C132.993 94.6974 133.201 95.2808 133.318 95.9308C133.434 96.5808 133.493 97.2724 133.493 98.0058V104.156C132.759 104.156 131.993 104.156 131.193 104.156C130.409 104.156 129.643 104.156 128.893 104.156C128.159 104.156 127.509 104.156 126.943 104.156C126.393 104.156 125.993 104.156 125.743 104.156C125.476 104.156 125.184 104.189 124.868 104.256C124.551 104.339 124.243 104.489 123.943 104.706C123.659 104.939 123.426 105.281 123.243 105.731C123.059 106.197 122.968 106.814 122.968 107.581C122.968 108.181 123.018 108.881 123.118 109.681C123.234 110.481 123.368 111.406 123.518 112.456H120.218ZM136.719 104.156V101.456L140.494 97.5808C141.21 96.8474 141.827 96.2058 142.344 95.6558C142.86 95.0891 143.252 94.5558 143.519 94.0558C143.802 93.5558 143.944 93.0224 143.944 92.4558C143.944 91.6224 143.71 91.0641 143.244 90.7808C142.777 90.4808 142.027 90.3308 140.994 90.3308C140.577 90.3308 140.119 90.3558 139.619 90.4058C139.119 90.4558 138.635 90.5141 138.169 90.5808C137.719 90.6474 137.327 90.7141 136.994 90.7808L136.819 88.1308C137.185 88.0308 137.635 87.9224 138.169 87.8058C138.719 87.6891 139.31 87.5891 139.944 87.5058C140.594 87.4058 141.227 87.3558 141.844 87.3558C143.644 87.3558 145.019 87.7391 145.969 88.5058C146.919 89.2558 147.394 90.4224 147.394 92.0058C147.394 92.8724 147.269 93.6391 147.019 94.3058C146.785 94.9724 146.41 95.6141 145.894 96.2308C145.394 96.8308 144.727 97.4891 143.894 98.2058L140.594 101.356H147.619V104.156H136.719ZM156.085 104.431C155.018 104.431 154.093 104.289 153.31 104.006C152.527 103.706 151.877 103.231 151.36 102.581C150.86 101.914 150.477 101.047 150.21 99.9808C149.96 98.9141 149.835 97.6058 149.835 96.0558C149.835 94.4558 149.96 93.0974 150.21 91.9808C150.477 90.8641 150.868 89.9724 151.385 89.3058C151.902 88.6224 152.543 88.1308 153.31 87.8308C154.093 87.5308 155.01 87.3808 156.06 87.3808C157.143 87.3808 158.077 87.5308 158.86 87.8308C159.643 88.1308 160.285 88.6224 160.785 89.3058C161.302 89.9724 161.677 90.8641 161.91 91.9808C162.16 93.0808 162.285 94.4391 162.285 96.0558C162.285 98.1058 162.06 99.7474 161.61 100.981C161.177 102.197 160.502 103.081 159.585 103.631C158.668 104.164 157.502 104.431 156.085 104.431ZM156.085 101.531C156.552 101.531 156.952 101.456 157.285 101.306C157.635 101.139 157.927 100.856 158.16 100.456C158.393 100.056 158.56 99.4974 158.66 98.7808C158.777 98.0641 158.835 97.1558 158.835 96.0558C158.835 94.8891 158.777 93.9308 158.66 93.1808C158.56 92.4308 158.402 91.8474 158.185 91.4308C157.968 90.9974 157.685 90.6974 157.335 90.5308C156.985 90.3474 156.568 90.2558 156.085 90.2558C155.602 90.2558 155.185 90.3474 154.835 90.5308C154.485 90.6974 154.193 90.9891 153.96 91.4058C153.743 91.8224 153.577 92.4141 153.46 93.1808C153.343 93.9308 153.285 94.8974 153.285 96.0808C153.285 97.1808 153.343 98.0891 153.46 98.8058C153.593 99.5224 153.777 100.081 154.01 100.481C154.243 100.864 154.527 101.139 154.86 101.306C155.21 101.456 155.618 101.531 156.085 101.531ZM164.502 104.156V101.456L168.277 97.5808C168.993 96.8474 169.61 96.2058 170.127 95.6558C170.643 95.0891 171.035 94.5558 171.302 94.0558C171.585 93.5558 171.727 93.0224 171.727 92.4558C171.727 91.6224 171.493 91.0641 171.027 90.7808C170.56 90.4808 169.81 90.3308 168.777 90.3308C168.36 90.3308 167.902 90.3558 167.402 90.4058C166.902 90.4558 166.418 90.5141 165.952 90.5808C165.502 90.6474 165.11 90.7141 164.777 90.7808L164.602 88.1308C164.968 88.0308 165.418 87.9224 165.952 87.8058C166.502 87.6891 167.093 87.5891 167.727 87.5058C168.377 87.4058 169.01 87.3558 169.627 87.3558C171.427 87.3558 172.802 87.7391 173.752 88.5058C174.702 89.2558 175.177 90.4224 175.177 92.0058C175.177 92.8724 175.052 93.6391 174.802 94.3058C174.568 94.9724 174.193 95.6141 173.677 96.2308C173.177 96.8308 172.51 97.4891 171.677 98.2058L168.377 101.356H175.402V104.156H164.502ZM183.593 104.431C182.977 104.431 182.327 104.397 181.643 104.331C180.977 104.264 180.335 104.181 179.718 104.081C179.118 103.964 178.618 103.864 178.218 103.781L178.368 101.106C178.768 101.156 179.243 101.214 179.793 101.281C180.36 101.347 180.935 101.406 181.518 101.456C182.118 101.489 182.668 101.506 183.168 101.506C184.118 101.506 184.827 101.331 185.293 100.981C185.76 100.631 185.993 100.064 185.993 99.2808C185.993 98.7474 185.885 98.3308 185.668 98.0308C185.468 97.7141 185.168 97.4808 184.768 97.3308C184.385 97.1808 183.935 97.0974 183.418 97.0808H180.018V94.3308H183.343C183.727 94.3308 184.093 94.2474 184.443 94.0808C184.81 93.9141 185.102 93.6724 185.318 93.3558C185.552 93.0391 185.668 92.6558 185.668 92.2058C185.668 91.5058 185.452 91.0141 185.018 90.7308C184.602 90.4308 183.918 90.2808 182.968 90.2808C182.468 90.2808 181.943 90.3058 181.393 90.3558C180.843 90.4058 180.318 90.4641 179.818 90.5308C179.318 90.5808 178.902 90.6391 178.568 90.7058L178.418 88.0808C178.785 87.9808 179.235 87.8808 179.768 87.7808C180.302 87.6641 180.868 87.5724 181.468 87.5058C182.068 87.4224 182.635 87.3808 183.168 87.3808C184.585 87.3808 185.727 87.5308 186.593 87.8308C187.477 88.1141 188.118 88.5891 188.518 89.2558C188.918 89.9058 189.118 90.7641 189.118 91.8308C189.118 92.4141 189.043 92.9058 188.893 93.3058C188.76 93.7058 188.577 94.0474 188.343 94.3308C188.127 94.6141 187.902 94.8474 187.668 95.0308C187.435 95.1974 187.218 95.3474 187.018 95.4808C187.518 95.7141 187.952 95.9724 188.318 96.2558C188.685 96.5391 188.968 96.9141 189.168 97.3808C189.368 97.8474 189.468 98.4724 189.468 99.2558C189.468 100.506 189.252 101.514 188.818 102.281C188.385 103.031 187.735 103.581 186.868 103.931C186.002 104.264 184.91 104.431 183.593 104.431ZM197.854 112.456C197.704 111.556 197.563 110.681 197.429 109.831C197.313 108.981 197.254 108.231 197.254 107.581C197.254 106.281 197.504 105.156 198.004 104.206C198.504 103.272 199.213 102.547 200.129 102.031C201.046 101.514 202.129 101.256 203.379 101.256C203.629 101.256 203.938 101.256 204.304 101.256C204.688 101.256 205.129 101.256 205.629 101.256C206.129 101.256 206.688 101.256 207.304 101.256C207.921 101.256 208.596 101.256 209.329 101.256L207.804 102.706V97.9808C207.804 97.1141 207.704 96.4308 207.504 95.9308C207.321 95.4141 206.979 95.0474 206.479 94.8308C205.996 94.6141 205.288 94.5058 204.354 94.5058C203.721 94.5058 203.071 94.5558 202.404 94.6558C201.754 94.7391 201.238 94.8558 200.854 95.0058L202.954 93.0558C202.838 93.4558 202.729 93.9558 202.629 94.5558C202.546 95.1558 202.479 95.7808 202.429 96.4308C202.379 97.0641 202.354 97.6641 202.354 98.2308C202.354 98.8474 202.379 99.4724 202.429 100.106C202.479 100.722 202.538 101.272 202.604 101.756C202.688 102.239 202.754 102.572 202.804 102.756L199.629 103.631C199.546 103.397 199.454 103.014 199.354 102.481C199.271 101.947 199.188 101.322 199.104 100.606C199.038 99.8724 199.004 99.0974 199.004 98.2808C199.004 97.4641 199.038 96.6724 199.104 95.9058C199.188 95.1224 199.288 94.4224 199.404 93.8058C199.521 93.1724 199.629 92.6641 199.729 92.2808C200.163 92.1141 200.804 91.9641 201.654 91.8308C202.504 91.6808 203.421 91.6058 204.404 91.6058C205.488 91.6058 206.413 91.7141 207.179 91.9308C207.963 92.1308 208.604 92.4224 209.104 92.8058C209.621 93.1891 210.029 93.6474 210.329 94.1808C210.629 94.6974 210.838 95.2808 210.954 95.9308C211.071 96.5808 211.129 97.2724 211.129 98.0058V104.156C210.396 104.156 209.629 104.156 208.829 104.156C208.046 104.156 207.279 104.156 206.529 104.156C205.796 104.156 205.146 104.156 204.579 104.156C204.029 104.156 203.629 104.156 203.379 104.156C203.113 104.156 202.821 104.189 202.504 104.256C202.188 104.339 201.879 104.489 201.579 104.706C201.296 104.939 201.063 105.281 200.879 105.731C200.696 106.197 200.604 106.814 200.604 107.581C200.604 108.181 200.654 108.881 200.754 109.681C200.871 110.481 201.004 111.406 201.154 112.456H197.854ZM218.455 104.156V101.256H221.305V104.156H218.455ZM215.13 104.156V86.4808H218.455V104.156H215.13ZM221.305 104.156V101.256C221.505 101.256 221.639 101.389 221.705 101.656C221.772 101.906 221.805 102.256 221.805 102.706C221.805 103.139 221.772 103.489 221.705 103.756C221.639 104.022 221.505 104.156 221.305 104.156ZM221.303 104.156V101.256H226.603C227.32 101.256 228.011 101.122 228.678 100.856C229.345 100.572 229.953 100.206 230.503 99.7558C231.07 99.2891 231.561 98.7808 231.978 98.2308C232.411 97.6641 232.745 97.0891 232.978 96.5058C233.228 95.9224 233.353 95.3724 233.353 94.8558V93.2558L234.953 95.9058C234.086 95.4391 233.203 95.0891 232.303 94.8558C231.403 94.6224 230.545 94.5058 229.728 94.5058C228.928 94.5058 228.07 94.6224 227.153 94.8558C226.253 95.0891 225.378 95.4391 224.528 95.9058L226.128 93.2558V94.8558C226.128 95.3724 226.245 95.9224 226.478 96.5058C226.728 97.0891 227.061 97.6641 227.478 98.2308C227.895 98.7808 228.386 99.2891 228.953 99.7558C229.52 100.206 230.136 100.572 230.803 100.856C231.47 101.122 232.153 101.256 232.853 101.256H238.003V104.156H233.903C232.603 104.156 231.386 103.947 230.253 103.531C229.12 103.114 228.095 102.564 227.178 101.881C226.261 101.181 225.47 100.422 224.803 99.6058C224.153 98.7724 223.653 97.9474 223.303 97.1308C222.953 96.2974 222.778 95.5391 222.778 94.8558V93.4308C223.495 93.0308 224.253 92.6974 225.053 92.4308C225.87 92.1641 226.678 91.9641 227.478 91.8308C228.295 91.6808 229.045 91.6058 229.728 91.6058C230.428 91.6058 231.178 91.6808 231.978 91.8308C232.778 91.9641 233.578 92.1641 234.378 92.4308C235.195 92.6974 235.961 93.0308 236.678 93.4308V94.8558C236.678 95.5391 236.503 96.2974 236.153 97.1308C235.803 97.9474 235.295 98.7724 234.628 99.6058C233.978 100.422 233.195 101.181 232.278 101.881C231.361 102.564 230.336 103.114 229.203 103.531C228.07 103.947 226.853 104.156 225.553 104.156H221.303ZM221.303 104.156C221.103 104.156 220.97 104.022 220.903 103.756C220.836 103.489 220.803 103.139 220.803 102.706C220.803 102.256 220.836 101.906 220.903 101.656C220.97 101.389 221.103 101.256 221.303 101.256V104.156ZM238.003 104.156V101.256C238.203 101.256 238.336 101.389 238.403 101.656C238.47 101.906 238.503 102.256 238.503 102.706C238.503 103.139 238.47 103.489 238.403 103.756C238.336 104.022 238.203 104.156 238.003 104.156ZM240.827 104.156V86.4808H244.177V104.156H240.827ZM238.002 104.156V101.256H240.827V104.156H238.002ZM238.002 104.156C237.802 104.156 237.669 104.022 237.602 103.756C237.536 103.489 237.502 103.139 237.502 102.706C237.502 102.256 237.536 101.906 237.602 101.656C237.669 101.389 237.802 101.256 238.002 101.256V104.156ZM258.581 104.156C257.165 104.156 255.998 103.931 255.081 103.481C254.165 103.031 253.481 102.347 253.031 101.431C252.598 100.514 252.381 99.3558 252.381 97.9558C252.381 96.5558 252.598 95.3891 253.031 94.4558C253.481 93.5058 254.165 92.7974 255.081 92.3308C255.998 91.8474 257.165 91.6058 258.581 91.6058H264.231V102.581H260.881V93.7808L261.706 94.5058H258.581C257.898 94.5058 257.348 94.5891 256.931 94.7558C256.515 94.9058 256.206 95.2308 256.006 95.7308C255.823 96.2141 255.731 96.9558 255.731 97.9558C255.731 98.9058 255.815 99.6224 255.981 100.106C256.165 100.572 256.465 100.881 256.881 101.031C257.298 101.181 257.865 101.256 258.581 101.256H266.856V104.156H258.581ZM266.856 104.156V101.256C267.056 101.256 267.19 101.389 267.256 101.656C267.323 101.906 267.356 102.256 267.356 102.706C267.356 103.139 267.323 103.489 267.256 103.756C267.19 104.022 267.056 104.156 266.856 104.156ZM255.531 90.1058V87.2558H258.881V90.1058H255.531ZM258.956 90.1058V87.2558H262.306V90.1058H258.956ZM274.16 104.156V101.256H277.285V104.156H274.16ZM277.285 104.156V101.256C277.485 101.256 277.618 101.389 277.685 101.656C277.751 101.906 277.785 102.256 277.785 102.706C277.785 103.139 277.751 103.489 277.685 103.756C277.618 104.022 277.485 104.156 277.285 104.156ZM266.86 104.156V101.256H272.785L270.835 102.881V91.6058H274.16V104.156H266.86ZM266.86 104.156C266.66 104.156 266.526 104.022 266.46 103.756C266.393 103.489 266.36 103.139 266.36 102.706C266.36 102.256 266.393 101.906 266.46 101.656C266.526 101.389 266.66 101.256 266.86 101.256V104.156ZM267.86 109.356V106.506H271.21V109.356H267.86ZM271.285 109.356V106.506H274.635V109.356H271.285ZM292.085 104.156V101.256H294.71V104.156H292.085ZM277.285 104.156V101.256H289.835L288.735 102.156V98.7558C288.735 97.8891 288.643 97.1974 288.46 96.6808C288.276 96.1641 287.993 95.7891 287.61 95.5558C287.243 95.3224 286.776 95.2058 286.21 95.2058H280.735L278.66 92.2058L279.935 89.8058C280.085 89.5224 280.251 89.2141 280.435 88.8808C280.618 88.5474 280.86 88.1474 281.16 87.6808C281.46 87.2141 281.843 86.6308 282.31 85.9308L285.11 87.5058C284.676 88.1558 284.326 88.6974 284.06 89.1308C283.793 89.5474 283.568 89.9141 283.385 90.2308C283.201 90.5474 283.035 90.8641 282.885 91.1808L281.885 93.0558L281.385 92.3058H286.21C287.276 92.3058 288.185 92.4808 288.935 92.8308C289.685 93.1808 290.285 93.6641 290.735 94.2808C291.201 94.8974 291.543 95.5891 291.76 96.3558C291.976 97.1224 292.085 97.9224 292.085 98.7558V104.156H277.285ZM277.285 104.156C277.085 104.156 276.951 104.022 276.885 103.756C276.818 103.489 276.785 103.139 276.785 102.706C276.785 102.256 276.818 101.906 276.885 101.656C276.951 101.389 277.085 101.256 277.285 101.256V104.156ZM294.71 104.156V101.256C294.91 101.256 295.043 101.389 295.11 101.656C295.176 101.906 295.21 102.256 295.21 102.706C295.21 103.139 295.176 103.489 295.11 103.756C295.043 104.022 294.91 104.156 294.71 104.156ZM300.891 104.156V101.256H303.516V104.156H300.891ZM297.541 104.156V86.4808H300.891V104.156H297.541ZM294.716 104.156V101.256H297.541V104.156H294.716ZM294.716 104.156C294.516 104.156 294.383 104.022 294.316 103.756C294.25 103.489 294.216 103.139 294.216 102.706C294.216 102.256 294.25 101.906 294.316 101.656C294.383 101.389 294.516 101.256 294.716 101.256V104.156ZM303.516 104.156V101.256C303.716 101.256 303.85 101.389 303.916 101.656C303.983 101.906 304.016 102.256 304.016 102.706C304.016 103.139 303.983 103.489 303.916 103.756C303.85 104.022 303.716 104.156 303.516 104.156ZM318.28 104.156V101.256H320.93V104.156H318.28ZM303.505 104.156V101.256H316.48L314.955 102.556V97.9558C314.955 97.0558 314.855 96.3558 314.655 95.8558C314.455 95.3391 314.105 94.9808 313.605 94.7808C313.122 94.5641 312.447 94.4558 311.58 94.4558C310.897 94.4558 310.222 94.5058 309.555 94.6058C308.905 94.6891 308.397 94.8058 308.03 94.9558L310.105 93.0058C310.005 93.3891 309.905 93.8724 309.805 94.4558C309.722 95.0391 309.647 95.6641 309.58 96.3308C309.514 96.9808 309.48 97.6224 309.48 98.2558C309.48 98.8391 309.505 99.4474 309.555 100.081C309.622 100.714 309.689 101.272 309.755 101.756C309.839 102.239 309.905 102.572 309.955 102.756L306.78 103.631C306.714 103.397 306.63 103.014 306.53 102.481C306.43 101.947 306.339 101.314 306.255 100.581C306.189 99.8474 306.155 99.0724 306.155 98.2558C306.155 97.4224 306.197 96.6224 306.28 95.8558C306.364 95.0724 306.455 94.3724 306.555 93.7558C306.672 93.1224 306.78 92.6141 306.88 92.2308C307.28 92.0808 307.905 91.9308 308.755 91.7808C309.605 91.6308 310.547 91.5558 311.58 91.5558C313.08 91.5558 314.322 91.7641 315.305 92.1808C316.305 92.5974 317.047 93.2724 317.53 94.2058C318.03 95.1391 318.28 96.3974 318.28 97.9808V104.156H303.505ZM303.505 104.156C303.305 104.156 303.172 104.022 303.105 103.756C303.039 103.489 303.005 103.139 303.005 102.706C303.005 102.256 303.039 101.906 303.105 101.656C303.172 101.389 303.305 101.256 303.505 101.256V104.156ZM320.93 104.156V101.256C321.13 101.256 321.264 101.389 321.33 101.656C321.397 101.906 321.43 102.256 321.43 102.706C321.43 103.139 321.397 103.489 321.33 103.756C321.264 104.022 321.13 104.156 320.93 104.156ZM323.762 104.156V86.4808H327.112V104.156H323.762ZM320.937 104.156V101.256H323.762V104.156H320.937ZM320.937 104.156C320.737 104.156 320.604 104.022 320.537 103.756C320.47 103.489 320.437 103.139 320.437 102.706C320.437 102.256 320.47 101.906 320.537 101.656C320.604 101.389 320.737 101.256 320.937 101.256V104.156ZM331.121 104.156V86.4808H334.446V104.156H331.121Z" fill="#C6822A"/>
<path d="M158.054 137.706V128.396H158.95V137.608C158.95 140.436 157.48 141.5 155.702 141.5C153.994 141.5 152.384 140.562 152.384 137.65C152.384 136.656 152.51 135.732 152.734 134.878L153.658 134.696C153.406 135.648 153.28 136.614 153.28 137.566C153.28 140.142 154.61 140.786 155.828 140.786C157.004 140.786 158.054 140.058 158.054 137.706ZM161.789 138.266V128.396H162.685V137.552H164.323V138.266H161.789ZM164.107 138.266V137.552H167.047V131.686H167.929V138.266H164.107ZM167.789 140.352C167.789 140.688 167.509 140.968 167.173 140.968C166.837 140.968 166.571 140.702 166.571 140.352C166.571 140.016 166.837 139.736 167.173 139.736C167.509 139.736 167.789 140.002 167.789 140.352ZM165.899 140.352C165.899 140.688 165.633 140.968 165.283 140.968C164.947 140.968 164.681 140.702 164.681 140.352C164.681 140.016 164.947 139.736 165.283 139.736C165.633 139.736 165.899 140.002 165.899 140.352ZM170.019 141.892C169.445 141.892 168.829 141.794 168.367 141.64L168.507 140.884C168.997 141.066 169.557 141.178 170.103 141.178C171.419 141.178 172.231 140.52 172.231 138.462V131.686H173.113V138.336C173.113 140.478 172.301 141.892 170.019 141.892ZM185.261 131.686V137.762C185.261 140.268 184.015 141.5 181.747 141.5C180.039 141.5 178.415 140.562 178.415 137.65C178.415 136.656 178.541 135.732 178.765 134.878L179.689 134.696C179.437 135.648 179.311 136.614 179.311 137.566C179.311 140.142 180.655 140.786 181.859 140.786C183.273 140.786 184.365 140.058 184.365 137.804V131.686H185.261ZM181.915 132.764C181.579 132.764 181.299 132.498 181.299 132.148C181.299 131.812 181.579 131.532 181.915 131.532C182.251 131.532 182.531 131.798 182.531 132.148C182.531 132.484 182.251 132.764 181.915 132.764ZM189.747 141.822C188.655 141.822 187.521 141.584 187.521 141.584L187.591 140.8C187.591 140.8 188.837 141.108 189.873 141.108C191.441 141.108 192.729 140.506 192.729 138.7V138.266H191.105C188.431 138.266 187.465 136.992 187.465 134.976C187.465 133.142 188.613 131.546 190.881 131.546C192.337 131.546 193.611 132.036 193.611 132.036V137.552H195.277V138.266H193.611V138.7C193.611 140.142 192.687 141.822 189.747 141.822ZM192.729 137.552V132.624C192.729 132.624 191.945 132.26 190.769 132.26C189.299 132.26 188.389 133.282 188.389 134.878C188.389 136.698 189.215 137.552 191.259 137.552H192.729ZM195.06 138.266V137.552H197.174V131.686H198.07V137.552H200.408V138.266H195.06ZM196.852 140.352C196.852 140.688 196.586 140.968 196.236 140.968C195.9 140.968 195.634 140.702 195.634 140.352C195.634 140.016 195.9 139.736 196.236 139.736C196.586 139.736 196.852 140.002 196.852 140.352ZM198.742 140.352C198.742 140.688 198.462 140.968 198.126 140.968C197.79 140.968 197.524 140.702 197.524 140.352C197.524 140.016 197.79 139.736 198.126 139.736C198.462 139.736 198.742 140.002 198.742 140.352ZM200.214 138.266V137.552H202.328V128.396H203.21V137.552H204.862V138.266H200.214ZM209.964 138.266C207.892 138.266 207.108 137.664 206.66 136.782C206.492 137.608 205.764 138.266 204.588 138.266H204.378V137.552C205.386 137.552 206.156 137.146 206.156 134.976C206.156 133.142 207.318 131.546 209.558 131.546C211.434 131.546 212.442 132.61 212.442 134.626V137.552H213.996V138.266H209.964ZM211.56 137.552V134.836C211.56 132.96 210.776 132.26 209.46 132.26C207.99 132.26 207.08 133.282 207.08 134.892C207.08 136.698 207.906 137.552 209.95 137.552H211.56ZM213.791 138.266V137.552H215.905V128.396H216.787V138.266H213.791ZM219.662 138.266V128.396H220.558V137.552H222.196V138.266H219.662ZM221.98 138.266V137.552H224.094V131.686H224.99V138.266H221.98ZM223.674 140.982C223.338 140.982 223.058 140.716 223.058 140.366C223.058 140.03 223.338 139.75 223.674 139.75C224.01 139.75 224.29 140.016 224.29 140.366C224.29 140.702 224.01 140.982 223.674 140.982ZM233.716 141.892C231.07 141.892 230.006 140.828 230.006 139.526C230.006 137.86 231.952 137.09 233.646 136.25C232.736 135.354 231.77 134.388 230.384 133.898L230.454 133.296C231.532 132.456 233.086 131.518 234.514 131.518C236.292 131.518 237.02 132.54 237.02 133.618C237.02 134.906 236.068 135.718 234.906 136.376C235.662 137.048 236.474 137.552 237.51 137.552H238.322V138.266H237.356C236.012 138.266 235.088 137.594 234.178 136.754C232.582 137.566 230.902 138.21 230.902 139.47C230.902 140.436 231.742 141.178 233.828 141.178C234.892 141.178 236.096 140.982 236.096 140.982L236.152 141.668C236.152 141.668 234.892 141.892 233.716 141.892ZM231.294 133.534C232.554 134.01 233.464 135.004 234.374 135.872C235.368 135.326 236.138 134.696 236.138 133.744C236.138 132.918 235.634 132.218 234.416 132.218C233.31 132.218 231.994 133.03 231.294 133.534ZM234.22 129.936C233.884 129.936 233.604 129.67 233.604 129.32C233.604 128.984 233.884 128.704 234.22 128.704C234.556 128.704 234.836 128.97 234.836 129.32C234.836 129.656 234.556 129.936 234.22 129.936ZM238.113 138.266V137.552H240.227V128.396H241.109V138.266H238.113ZM243.984 138.266V128.396H244.88V137.552H246.518V138.266H243.984ZM246.302 138.266V137.552H248.416V131.686H249.312V137.552H250.978V138.266H246.302ZM247.996 140.982C247.66 140.982 247.38 140.716 247.38 140.366C247.38 140.03 247.66 139.75 247.996 139.75C248.332 139.75 248.612 140.016 248.612 140.366C248.612 140.702 248.332 140.982 247.996 140.982ZM256.079 138.266C254.007 138.266 253.223 137.664 252.775 136.782C252.607 137.608 251.879 138.266 250.703 138.266H250.493V137.552C251.501 137.552 252.271 137.146 252.271 134.976C252.271 133.142 253.433 131.546 255.673 131.546C257.549 131.546 258.557 132.61 258.557 134.626V137.552H260.111V138.266H256.079ZM257.675 137.552V134.836C257.675 132.96 256.891 132.26 255.575 132.26C254.105 132.26 253.195 133.282 253.195 134.892C253.195 136.698 254.021 137.552 256.065 137.552H257.675ZM259.906 138.266V137.552H262.02V128.396H262.902V138.266H259.906ZM265.777 138.266V128.396H266.673V138.266H265.777ZM275.484 141.892C272.838 141.892 271.774 140.828 271.774 139.526C271.774 137.86 273.72 137.09 275.414 136.25C274.504 135.354 273.538 134.388 272.152 133.898L272.222 133.296C273.3 132.456 274.854 131.518 276.282 131.518C278.06 131.518 278.788 132.54 278.788 133.618C278.788 134.906 277.836 135.718 276.674 136.376C277.43 137.048 278.242 137.552 279.278 137.552H280.09V138.266H279.124C277.78 138.266 276.856 137.594 275.946 136.754C274.35 137.566 272.67 138.21 272.67 139.47C272.67 140.436 273.51 141.178 275.596 141.178C276.66 141.178 277.864 140.982 277.864 140.982L277.92 141.668C277.92 141.668 276.66 141.892 275.484 141.892ZM273.062 133.534C274.322 134.01 275.232 135.004 276.142 135.872C277.136 135.326 277.906 134.696 277.906 133.744C277.906 132.918 277.402 132.218 276.184 132.218C275.078 132.218 273.762 133.03 273.062 133.534ZM279.88 138.266V137.552H281.994V131.686H282.89V137.552H285.228V138.266H279.88ZM281.672 140.352C281.672 140.688 281.406 140.968 281.056 140.968C280.72 140.968 280.454 140.702 280.454 140.352C280.454 140.016 280.72 139.736 281.056 139.736C281.406 139.736 281.672 140.002 281.672 140.352ZM283.562 140.352C283.562 140.688 283.282 140.968 282.946 140.968C282.61 140.968 282.344 140.702 282.344 140.352C282.344 140.016 282.61 139.736 282.946 139.736C283.282 139.736 283.562 140.002 283.562 140.352ZM290.341 138.266C288.269 138.266 287.485 137.664 287.037 136.782C286.869 137.608 286.141 138.266 284.965 138.266H284.755V137.552C285.763 137.552 286.533 137.146 286.533 134.976C286.533 133.142 287.695 131.546 289.935 131.546C291.811 131.546 292.819 132.61 292.819 134.626V137.552H294.373V138.266H290.341ZM291.937 137.552V134.836C291.937 132.96 291.153 132.26 289.837 132.26C288.367 132.26 287.457 133.282 287.457 134.892C287.457 136.698 288.283 137.552 290.327 137.552H291.937ZM294.167 138.266V137.552H300.201C300.285 136.95 300.327 136.39 300.327 135.844C300.327 133.478 299.515 132.358 297.023 132.358C296.477 132.358 296.043 132.386 295.511 132.456V131.756C295.917 131.7 296.477 131.644 297.093 131.644C300.131 131.644 301.209 133.072 301.209 135.732C301.209 136.39 301.153 137.258 300.985 138.266H294.167ZM297.471 140.982C297.135 140.982 296.855 140.716 296.855 140.366C296.855 140.03 297.135 139.75 297.471 139.75C297.807 139.75 298.087 140.016 298.087 140.366C298.087 140.702 297.807 140.982 297.471 140.982Z" fill="#163029"/>
<path d="M56.5963 189.184H383.404L407.616 249.184H32.3838L56.5963 189.184Z" fill="#EBEFF8"/>
<path d="M56.5963 267.252L32.3838 327.252H407.616L383.404 267.252H56.5963Z" fill="#EBEFF8"/>
<path d="M56.5963 346.252L32.3838 406.252H407.616L383.404 346.252H56.5963Z" fill="#EBEFF8"/>
<path d="M142.04 226.184C139.893 226.184 138.26 225.77 137.14 224.944C136.02 224.104 135.46 222.864 135.46 221.224C135.46 220.904 135.48 220.57 135.52 220.224C135.56 219.864 135.607 219.524 135.66 219.204C135.727 218.87 135.787 218.577 135.84 218.324C135.893 218.07 135.933 217.884 135.96 217.764L138.56 218.264C138.52 218.477 138.467 218.75 138.4 219.084C138.333 219.417 138.273 219.77 138.22 220.144C138.167 220.504 138.14 220.85 138.14 221.184C138.14 221.877 138.287 222.424 138.58 222.824C138.873 223.21 139.32 223.484 139.92 223.644C140.52 223.79 141.273 223.864 142.18 223.864H147.52V216.144H150.2V226.184H142.04ZM140.02 216.884V214.604H142.7V216.884H140.02ZM142.76 216.884V214.604H145.44V216.884H142.76ZM153.218 226.184V212.044H155.878V226.184H153.218ZM158.488 226.184V223.864H165.748L163.928 225.444V222.084C163.928 221.137 163.828 220.404 163.628 219.884C163.441 219.364 163.121 218.997 162.668 218.784C162.228 218.57 161.621 218.464 160.848 218.464H159.228V216.144H160.848C162.074 216.144 163.114 216.344 163.968 216.744C164.834 217.144 165.488 217.784 165.928 218.664C166.381 219.53 166.608 220.67 166.608 222.084V226.184H158.488ZM177.889 226.184V223.864H179.989V226.184H177.889ZM172.489 231.144C171.996 231.144 171.476 231.104 170.929 231.024C170.396 230.957 169.823 230.864 169.209 230.744L169.609 228.604C170.276 228.684 170.843 228.744 171.309 228.784C171.776 228.824 172.169 228.844 172.489 228.844C173.449 228.844 174.143 228.67 174.569 228.324C174.996 227.977 175.209 227.457 175.209 226.764V217.984L175.869 218.464H173.369C172.823 218.464 172.383 218.53 172.049 218.664C171.716 218.784 171.469 219.044 171.309 219.444C171.163 219.83 171.089 220.424 171.089 221.224C171.089 221.984 171.156 222.557 171.289 222.944C171.436 223.317 171.676 223.564 172.009 223.684C172.343 223.804 172.796 223.864 173.369 223.864H175.209V226.184H173.369C172.236 226.184 171.303 226.004 170.569 225.644C169.836 225.284 169.289 224.737 168.929 224.004C168.583 223.27 168.409 222.344 168.409 221.224C168.409 220.104 168.583 219.17 168.929 218.424C169.289 217.664 169.836 217.097 170.569 216.724C171.303 216.337 172.236 216.144 173.369 216.144H177.889V226.764C177.889 227.67 177.663 228.45 177.209 229.104C176.769 229.77 176.143 230.277 175.329 230.624C174.529 230.97 173.583 231.144 172.489 231.144ZM179.989 226.184V223.864C180.149 223.864 180.256 223.97 180.309 224.184C180.363 224.384 180.389 224.664 180.389 225.024C180.389 225.37 180.363 225.65 180.309 225.864C180.256 226.077 180.149 226.184 179.989 226.184ZM179.992 226.184V223.864H188.592L187.692 224.604V220.904C187.692 220.104 187.439 219.497 186.932 219.084C186.439 218.67 185.652 218.464 184.572 218.464C184.266 218.464 183.846 218.49 183.312 218.544C182.779 218.584 182.199 218.65 181.572 218.744L181.312 216.624C181.886 216.49 182.466 216.377 183.052 216.284C183.652 216.19 184.239 216.144 184.812 216.144C185.906 216.144 186.866 216.337 187.692 216.724C188.519 217.097 189.166 217.637 189.632 218.344C190.112 219.05 190.352 219.904 190.352 220.904V226.184H179.992ZM179.992 226.184C179.832 226.184 179.726 226.077 179.672 225.864C179.619 225.65 179.592 225.37 179.592 225.024C179.592 224.664 179.619 224.384 179.672 224.184C179.726 223.97 179.832 223.864 179.992 223.864V226.184ZM183.852 230.444V228.164H186.532V230.444H183.852ZM201.835 226.184V223.864H203.935V226.184H201.835ZM196.435 231.144C195.941 231.144 195.421 231.104 194.875 231.024C194.341 230.957 193.768 230.864 193.155 230.744L193.555 228.604C194.221 228.684 194.788 228.744 195.255 228.784C195.721 228.824 196.115 228.844 196.435 228.844C197.395 228.844 198.088 228.67 198.515 228.324C198.941 227.977 199.155 227.457 199.155 226.764V217.984L199.815 218.464H197.315C196.768 218.464 196.328 218.53 195.995 218.664C195.661 218.784 195.415 219.044 195.255 219.444C195.108 219.83 195.035 220.424 195.035 221.224C195.035 221.984 195.101 222.557 195.235 222.944C195.381 223.317 195.621 223.564 195.955 223.684C196.288 223.804 196.741 223.864 197.315 223.864H199.155V226.184H197.315C196.181 226.184 195.248 226.004 194.515 225.644C193.781 225.284 193.235 224.737 192.875 224.004C192.528 223.27 192.355 222.344 192.355 221.224C192.355 220.104 192.528 219.17 192.875 218.424C193.235 217.664 193.781 217.097 194.515 216.724C195.248 216.337 196.181 216.144 197.315 216.144H201.835V226.764C201.835 227.67 201.608 228.45 201.155 229.104C200.715 229.77 200.088 230.277 199.275 230.624C198.475 230.97 197.528 231.144 196.435 231.144ZM203.935 226.184V223.864C204.095 223.864 204.201 223.97 204.255 224.184C204.308 224.384 204.335 224.664 204.335 225.024C204.335 225.37 204.308 225.65 204.255 225.864C204.201 226.077 204.095 226.184 203.935 226.184ZM215.758 226.184V223.864H217.878V226.184H215.758ZM203.938 226.184V223.864H214.318L213.098 224.904V221.224C213.098 220.504 213.018 219.944 212.858 219.544C212.698 219.13 212.418 218.844 212.018 218.684C211.631 218.51 211.091 218.424 210.398 218.424C209.851 218.424 209.311 218.464 208.778 218.544C208.258 218.61 207.851 218.704 207.558 218.824L209.217 217.264C209.138 217.57 209.058 217.957 208.978 218.424C208.911 218.89 208.851 219.39 208.798 219.924C208.744 220.444 208.718 220.957 208.718 221.464C208.718 221.93 208.738 222.417 208.778 222.924C208.831 223.43 208.884 223.877 208.938 224.264C209.004 224.65 209.058 224.917 209.098 225.064L206.558 225.764C206.504 225.577 206.438 225.27 206.358 224.844C206.278 224.417 206.204 223.91 206.138 223.324C206.084 222.737 206.058 222.117 206.058 221.464C206.058 220.797 206.091 220.157 206.158 219.544C206.224 218.917 206.298 218.357 206.378 217.864C206.471 217.357 206.558 216.95 206.638 216.644C206.958 216.524 207.458 216.404 208.138 216.284C208.818 216.164 209.571 216.104 210.398 216.104C211.598 216.104 212.591 216.27 213.378 216.604C214.178 216.937 214.771 217.477 215.158 218.224C215.558 218.97 215.758 219.977 215.758 221.244V226.184H203.938ZM203.938 226.184C203.777 226.184 203.671 226.077 203.617 225.864C203.564 225.65 203.537 225.37 203.537 225.024C203.537 224.664 203.564 224.384 203.617 224.184C203.671 223.97 203.777 223.864 203.938 223.864V226.184ZM217.878 226.184V223.864C218.038 223.864 218.144 223.97 218.198 224.184C218.251 224.384 218.278 224.664 218.278 225.024C218.278 225.37 218.251 225.65 218.198 225.864C218.144 226.077 218.038 226.184 217.878 226.184ZM220.143 226.184V212.044H222.823V226.184H220.143ZM217.883 226.184V223.864H220.143V226.184H217.883ZM217.883 226.184C217.723 226.184 217.616 226.077 217.563 225.864C217.509 225.65 217.483 225.37 217.483 225.024C217.483 224.664 217.509 224.384 217.563 224.184C217.616 223.97 217.723 223.864 217.883 223.864V226.184ZM226.03 226.184V212.044H228.69V226.184H226.03Z" fill="#3A73A8"/>
<path d="M146.142 305.184C143.995 305.184 142.362 304.77 141.242 303.944C140.122 303.104 139.562 301.864 139.562 300.224C139.562 299.904 139.582 299.57 139.622 299.224C139.662 298.864 139.708 298.524 139.762 298.204C139.828 297.87 139.888 297.577 139.942 297.324C139.995 297.07 140.035 296.884 140.062 296.764L142.662 297.264C142.622 297.477 142.568 297.75 142.502 298.084C142.435 298.417 142.375 298.77 142.322 299.144C142.268 299.504 142.242 299.85 142.242 300.184C142.242 300.877 142.388 301.424 142.682 301.824C142.975 302.21 143.422 302.484 144.022 302.644C144.622 302.79 145.375 302.864 146.282 302.864H151.622V295.144H154.302V305.184H146.142ZM144.122 295.884V293.604H146.802V295.884H144.122ZM146.862 295.884V293.604H149.542V295.884H146.862ZM159.98 305.184V302.864H162.26V305.184H159.98ZM157.32 305.184V291.044H159.98V305.184H157.32ZM162.26 305.184V302.864C162.42 302.864 162.526 302.97 162.58 303.184C162.633 303.384 162.66 303.664 162.66 304.024C162.66 304.37 162.633 304.65 162.58 304.864C162.526 305.077 162.42 305.184 162.26 305.184ZM162.258 305.184V302.864H165.918L164.358 304.164V295.144H167.038V305.184H162.258ZM162.258 305.184C162.098 305.184 161.991 305.077 161.938 304.864C161.884 304.65 161.858 304.37 161.858 304.024C161.858 303.664 161.884 303.384 161.938 303.184C161.991 302.97 162.098 302.864 162.258 302.864V305.184ZM164.358 309.444V307.164H167.038V309.444H164.358ZM178.768 305.184V302.864H180.868V305.184H178.768ZM173.368 310.144C172.875 310.144 172.355 310.104 171.808 310.024C171.275 309.957 170.702 309.864 170.088 309.744L170.488 307.604C171.155 307.684 171.722 307.744 172.188 307.784C172.655 307.824 173.048 307.844 173.368 307.844C174.328 307.844 175.022 307.67 175.448 307.324C175.875 306.977 176.088 306.457 176.088 305.764V296.984L176.748 297.464H174.248C173.702 297.464 173.262 297.53 172.928 297.664C172.595 297.784 172.348 298.044 172.188 298.444C172.042 298.83 171.968 299.424 171.968 300.224C171.968 300.984 172.035 301.557 172.168 301.944C172.315 302.317 172.555 302.564 172.888 302.684C173.222 302.804 173.675 302.864 174.248 302.864H176.088V305.184H174.248C173.115 305.184 172.182 305.004 171.448 304.644C170.715 304.284 170.168 303.737 169.808 303.004C169.462 302.27 169.288 301.344 169.288 300.224C169.288 299.104 169.462 298.17 169.808 297.424C170.168 296.664 170.715 296.097 171.448 295.724C172.182 295.337 173.115 295.144 174.248 295.144H178.768V305.764C178.768 306.67 178.542 307.45 178.088 308.104C177.648 308.77 177.022 309.277 176.208 309.624C175.408 309.97 174.462 310.144 173.368 310.144ZM180.868 305.184V302.864C181.028 302.864 181.135 302.97 181.188 303.184C181.242 303.384 181.268 303.664 181.268 304.024C181.268 304.37 181.242 304.65 181.188 304.864C181.135 305.077 181.028 305.184 180.868 305.184ZM185.811 305.184V302.864H187.911V305.184H185.811ZM183.131 305.184V291.044H185.811V305.184H183.131ZM180.871 305.184V302.864H183.131V305.184H180.871ZM180.871 305.184C180.711 305.184 180.604 305.077 180.551 304.864C180.498 304.65 180.471 304.37 180.471 304.024C180.471 303.664 180.498 303.384 180.551 303.184C180.604 302.97 180.711 302.864 180.871 302.864V305.184ZM187.911 305.184V302.864C188.071 302.864 188.178 302.97 188.231 303.184C188.284 303.384 188.311 303.664 188.311 304.024C188.311 304.37 188.284 304.65 188.231 304.864C188.178 305.077 188.071 305.184 187.911 305.184ZM201.842 305.184V302.864H203.942V305.184H201.842ZM187.902 305.184V302.864H201.862L199.602 304.824V300.624C199.602 299.864 199.502 299.257 199.302 298.804C199.102 298.337 198.809 297.997 198.422 297.784C198.049 297.57 197.596 297.464 197.062 297.464C196.489 297.464 195.949 297.577 195.442 297.804C194.936 298.03 194.456 298.324 194.002 298.684C193.562 299.044 193.156 299.43 192.782 299.844C192.409 300.257 192.076 300.657 191.782 301.044C191.489 301.417 191.236 301.737 191.022 302.004L190.422 300.064C190.969 299.37 191.476 298.724 191.942 298.124C192.422 297.524 192.922 297.004 193.442 296.564C193.962 296.11 194.536 295.764 195.162 295.524C195.789 295.27 196.516 295.144 197.342 295.144C198.236 295.144 198.989 295.297 199.602 295.604C200.229 295.897 200.742 296.304 201.142 296.824C201.542 297.344 201.829 297.93 202.002 298.584C202.176 299.237 202.262 299.917 202.262 300.624V305.184H187.902ZM189.282 302.864V291.044H191.942V302.864H189.282ZM187.902 305.184C187.742 305.184 187.636 305.077 187.582 304.864C187.529 304.65 187.502 304.37 187.502 304.024C187.502 303.664 187.529 303.384 187.582 303.184C187.636 302.97 187.742 302.864 187.902 302.864V305.184ZM203.942 305.184V302.864C204.102 302.864 204.209 302.97 204.262 303.184C204.316 303.384 204.342 303.664 204.342 304.024C204.342 304.37 204.316 304.65 204.262 304.864C204.209 305.077 204.102 305.184 203.942 305.184ZM215.758 305.184V302.864H217.878V305.184H215.758ZM203.938 305.184V302.864H214.318L213.098 303.904V300.224C213.098 299.504 213.018 298.944 212.858 298.544C212.698 298.13 212.418 297.844 212.018 297.684C211.631 297.51 211.091 297.424 210.398 297.424C209.851 297.424 209.311 297.464 208.778 297.544C208.258 297.61 207.851 297.704 207.558 297.824L209.217 296.264C209.138 296.57 209.058 296.957 208.978 297.424C208.911 297.89 208.851 298.39 208.798 298.924C208.744 299.444 208.718 299.957 208.718 300.464C208.718 300.93 208.738 301.417 208.778 301.924C208.831 302.43 208.884 302.877 208.938 303.264C209.004 303.65 209.058 303.917 209.098 304.064L206.558 304.764C206.504 304.577 206.438 304.27 206.358 303.844C206.278 303.417 206.204 302.91 206.138 302.324C206.084 301.737 206.058 301.117 206.058 300.464C206.058 299.797 206.091 299.157 206.158 298.544C206.224 297.917 206.298 297.357 206.378 296.864C206.471 296.357 206.558 295.95 206.638 295.644C206.958 295.524 207.458 295.404 208.138 295.284C208.818 295.164 209.571 295.104 210.398 295.104C211.598 295.104 212.591 295.27 213.378 295.604C214.178 295.937 214.771 296.477 215.158 297.224C215.558 297.97 215.758 298.977 215.758 300.244V305.184H203.938ZM203.938 305.184C203.777 305.184 203.671 305.077 203.617 304.864C203.564 304.65 203.537 304.37 203.537 304.024C203.537 303.664 203.564 303.384 203.617 303.184C203.671 302.97 203.777 302.864 203.938 302.864V305.184ZM217.878 305.184V302.864C218.038 302.864 218.144 302.97 218.198 303.184C218.251 303.384 218.278 303.664 218.278 304.024C218.278 304.37 218.251 304.65 218.198 304.864C218.144 305.077 218.038 305.184 217.878 305.184ZM220.143 305.184V291.044H222.823V305.184H220.143ZM217.883 305.184V302.864H220.143V305.184H217.883ZM217.883 305.184C217.723 305.184 217.616 305.077 217.563 304.864C217.509 304.65 217.483 304.37 217.483 304.024C217.483 303.664 217.509 303.384 217.563 303.184C217.616 302.97 217.723 302.864 217.883 302.864V305.184ZM226.03 305.184V291.044H228.69V305.184H226.03Z" fill="#3A73A8"/>
<path d="M108.155 384.184C107.021 384.184 106.088 384.004 105.355 383.644C104.621 383.284 104.075 382.737 103.715 382.004C103.368 381.27 103.195 380.344 103.195 379.224C103.195 378.104 103.368 377.17 103.715 376.424C104.075 375.664 104.621 375.097 105.355 374.724C106.088 374.337 107.021 374.144 108.155 374.144H112.675V382.924H109.995V375.884L110.655 376.464H108.155C107.608 376.464 107.168 376.53 106.835 376.664C106.501 376.784 106.255 377.044 106.095 377.444C105.948 377.83 105.875 378.424 105.875 379.224C105.875 379.984 105.941 380.557 106.075 380.944C106.221 381.317 106.461 381.564 106.795 381.684C107.128 381.804 107.581 381.864 108.155 381.864H114.775V384.184H108.155ZM114.775 384.184V381.864C114.935 381.864 115.041 381.97 115.095 382.184C115.148 382.384 115.175 382.664 115.175 383.024C115.175 383.37 115.148 383.65 115.095 383.864C115.041 384.077 114.935 384.184 114.775 384.184ZM105.715 372.944V370.664H108.395V372.944H105.715ZM108.455 372.944V370.664H111.135V372.944H108.455ZM120.617 384.184V381.864H123.117V384.184H120.617ZM123.117 384.184V381.864C123.277 381.864 123.384 381.97 123.437 382.184C123.491 382.384 123.517 382.664 123.517 383.024C123.517 383.37 123.491 383.65 123.437 383.864C123.384 384.077 123.277 384.184 123.117 384.184ZM114.777 384.184V381.864H119.517L117.957 383.164V374.144H120.617V384.184H114.777ZM114.777 384.184C114.617 384.184 114.511 384.077 114.457 383.864C114.404 383.65 114.377 383.37 114.377 383.024C114.377 382.664 114.404 382.384 114.457 382.184C114.511 381.97 114.617 381.864 114.777 381.864V384.184ZM115.577 388.344V386.064H118.257V388.344H115.577ZM118.317 388.344V386.064H120.997V388.344H118.317ZM134.957 384.184V381.864H137.057V384.184H134.957ZM123.117 384.184V381.864H133.157L132.277 382.584V379.864C132.277 379.17 132.204 378.617 132.057 378.204C131.911 377.79 131.684 377.49 131.377 377.304C131.084 377.117 130.711 377.024 130.257 377.024H125.877L124.217 374.624L125.237 372.704C125.357 372.477 125.491 372.23 125.637 371.964C125.784 371.697 125.977 371.377 126.217 371.004C126.457 370.63 126.764 370.164 127.137 369.604L129.377 370.864C129.031 371.384 128.751 371.817 128.537 372.164C128.324 372.497 128.144 372.79 127.997 373.044C127.851 373.297 127.717 373.55 127.597 373.804L126.797 375.304L126.397 374.704H130.257C131.111 374.704 131.837 374.844 132.437 375.124C133.037 375.404 133.517 375.79 133.877 376.284C134.251 376.777 134.524 377.33 134.697 377.944C134.871 378.557 134.957 379.197 134.957 379.864V384.184H123.117ZM123.117 384.184C122.957 384.184 122.851 384.077 122.797 383.864C122.744 383.65 122.717 383.37 122.717 383.024C122.717 382.664 122.744 382.384 122.797 382.184C122.851 381.97 122.957 381.864 123.117 381.864V384.184ZM137.057 384.184V381.864C137.217 381.864 137.324 381.97 137.377 382.184C137.431 382.384 137.457 382.664 137.457 383.024C137.457 383.37 137.431 383.65 137.377 383.864C137.324 384.077 137.217 384.184 137.057 384.184ZM142.003 384.184V381.864H144.103V384.184H142.003ZM139.323 384.184V370.044H142.003V384.184H139.323ZM137.062 384.184V381.864H139.323V384.184H137.062ZM137.062 384.184C136.902 384.184 136.796 384.077 136.742 383.864C136.689 383.65 136.662 383.37 136.662 383.024C136.662 382.664 136.689 382.384 136.742 382.184C136.796 381.97 136.902 381.864 137.062 381.864V384.184ZM144.103 384.184V381.864C144.263 381.864 144.369 381.97 144.423 382.184C144.476 382.384 144.503 382.664 144.503 383.024C144.503 383.37 144.476 383.65 144.423 383.864C144.369 384.077 144.263 384.184 144.103 384.184ZM155.914 384.184V381.864H158.034V384.184H155.914ZM144.094 384.184V381.864H154.474L153.254 382.904V379.224C153.254 378.504 153.174 377.944 153.014 377.544C152.854 377.13 152.574 376.844 152.174 376.684C151.787 376.51 151.247 376.424 150.554 376.424C150.007 376.424 149.467 376.464 148.934 376.544C148.414 376.61 148.007 376.704 147.714 376.824L149.374 375.264C149.294 375.57 149.214 375.957 149.134 376.424C149.067 376.89 149.007 377.39 148.954 377.924C148.9 378.444 148.874 378.957 148.874 379.464C148.874 379.93 148.894 380.417 148.934 380.924C148.987 381.43 149.04 381.877 149.094 382.264C149.16 382.65 149.214 382.917 149.254 383.064L146.714 383.764C146.66 383.577 146.594 383.27 146.514 382.844C146.434 382.417 146.36 381.91 146.294 381.324C146.24 380.737 146.214 380.117 146.214 379.464C146.214 378.797 146.247 378.157 146.314 377.544C146.38 376.917 146.454 376.357 146.534 375.864C146.627 375.357 146.714 374.95 146.794 374.644C147.114 374.524 147.614 374.404 148.294 374.284C148.974 374.164 149.727 374.104 150.554 374.104C151.754 374.104 152.747 374.27 153.534 374.604C154.334 374.937 154.927 375.477 155.314 376.224C155.714 376.97 155.914 377.977 155.914 379.244V384.184H144.094ZM144.094 384.184C143.934 384.184 143.827 384.077 143.774 383.864C143.72 383.65 143.694 383.37 143.694 383.024C143.694 382.664 143.72 382.384 143.774 382.184C143.827 381.97 143.934 381.864 144.094 381.864V384.184ZM158.034 384.184V381.864C158.194 381.864 158.3 381.97 158.354 382.184C158.407 382.384 158.434 382.664 158.434 383.024C158.434 383.37 158.407 383.65 158.354 383.864C158.3 384.077 158.194 384.184 158.034 384.184ZM160.299 384.184V370.044H162.979V384.184H160.299ZM158.039 384.184V381.864H160.299V384.184H158.039ZM158.039 384.184C157.879 384.184 157.772 384.077 157.719 383.864C157.666 383.65 157.639 383.37 157.639 383.024C157.639 382.664 157.666 382.384 157.719 382.184C157.772 381.97 157.879 381.864 158.039 381.864V384.184ZM166.187 384.184V370.044H168.847V384.184H166.187ZM181.612 389.504C180.518 389.504 179.532 389.297 178.652 388.884C177.772 388.484 177.078 387.924 176.572 387.204C176.065 386.497 175.812 385.69 175.812 384.784C175.812 384.504 175.832 384.137 175.872 383.684C175.925 383.23 175.985 382.73 176.052 382.184C176.132 381.637 176.212 381.07 176.292 380.484C176.385 379.897 176.472 379.344 176.552 378.824L179.192 379.204C179.058 380.084 178.938 380.89 178.832 381.624C178.725 382.357 178.638 382.984 178.572 383.504C178.518 384.024 178.492 384.424 178.492 384.704C178.492 385.237 178.612 385.684 178.852 386.044C179.105 386.417 179.465 386.697 179.932 386.884C180.398 387.084 180.958 387.184 181.612 387.184H186.292C187.265 387.184 187.992 386.984 188.472 386.584C188.952 386.197 189.192 385.637 189.192 384.904V375.884L189.852 376.464H187.332C186.745 376.464 186.285 376.537 185.952 376.684C185.618 376.83 185.385 377.104 185.252 377.504C185.118 377.89 185.052 378.444 185.052 379.164C185.052 379.95 185.118 380.537 185.252 380.924C185.385 381.297 185.618 381.55 185.952 381.684C186.285 381.804 186.745 381.864 187.332 381.864H189.192V384.184H187.332C186.198 384.184 185.265 384.01 184.532 383.664C183.798 383.304 183.252 382.75 182.892 382.004C182.545 381.257 182.372 380.31 182.372 379.164C182.372 378.07 182.545 377.15 182.892 376.404C183.252 375.657 183.798 375.097 184.532 374.724C185.265 374.337 186.198 374.144 187.332 374.144H191.852V384.904C191.852 385.85 191.605 386.664 191.112 387.344C190.632 388.037 189.972 388.57 189.132 388.944C188.305 389.317 187.358 389.504 186.292 389.504H181.612ZM184.772 372.944V370.664H187.452V372.944H184.772ZM187.512 372.944V370.664H190.192V372.944H187.512ZM203.534 384.184V381.864H205.634V384.184H203.534ZM198.134 389.144C197.641 389.144 197.121 389.104 196.574 389.024C196.041 388.957 195.467 388.864 194.854 388.744L195.254 386.604C195.921 386.684 196.487 386.744 196.954 386.784C197.421 386.824 197.814 386.844 198.134 386.844C199.094 386.844 199.787 386.67 200.214 386.324C200.641 385.977 200.854 385.457 200.854 384.764V375.984L201.514 376.464H199.014C198.467 376.464 198.027 376.53 197.694 376.664C197.361 376.784 197.114 377.044 196.954 377.444C196.807 377.83 196.734 378.424 196.734 379.224C196.734 379.984 196.801 380.557 196.934 380.944C197.081 381.317 197.321 381.564 197.654 381.684C197.987 381.804 198.441 381.864 199.014 381.864H200.854V384.184H199.014C197.881 384.184 196.947 384.004 196.214 383.644C195.481 383.284 194.934 382.737 194.574 382.004C194.227 381.27 194.054 380.344 194.054 379.224C194.054 378.104 194.227 377.17 194.574 376.424C194.934 375.664 195.481 375.097 196.214 374.724C196.947 374.337 197.881 374.144 199.014 374.144H203.534V384.764C203.534 385.67 203.307 386.45 202.854 387.104C202.414 387.77 201.787 388.277 200.974 388.624C200.174 388.97 199.227 389.144 198.134 389.144ZM205.634 384.184V381.864C205.794 381.864 205.901 381.97 205.954 382.184C206.007 382.384 206.034 382.664 206.034 383.024C206.034 383.37 206.007 383.65 205.954 383.864C205.901 384.077 205.794 384.184 205.634 384.184ZM216.837 384.184V381.864H218.937V384.184H216.837ZM205.637 384.184V381.864H214.977L214.157 382.564V375.884L214.837 376.464H212.317C211.73 376.464 211.27 376.537 210.937 376.684C210.603 376.83 210.37 377.104 210.237 377.504C210.103 377.89 210.037 378.444 210.037 379.164C210.037 379.95 210.103 380.537 210.237 380.924C210.37 381.297 210.603 381.55 210.937 381.684C211.27 381.804 211.73 381.864 212.317 381.864V383.944C211.183 383.944 210.25 383.784 209.517 383.464C208.783 383.144 208.237 382.637 207.877 381.944C207.53 381.237 207.357 380.31 207.357 379.164C207.357 378.07 207.53 377.15 207.877 376.404C208.237 375.657 208.783 375.097 209.517 374.724C210.25 374.337 211.183 374.144 212.317 374.144H216.837V384.184H205.637ZM205.637 384.184C205.477 384.184 205.37 384.077 205.317 383.864C205.263 383.65 205.237 383.37 205.237 383.024C205.237 382.664 205.263 382.384 205.317 382.184C205.37 381.97 205.477 381.864 205.637 381.864V384.184ZM218.937 384.184V381.864C219.097 381.864 219.203 381.97 219.257 382.184C219.31 382.384 219.337 382.664 219.337 383.024C219.337 383.37 219.31 383.65 219.257 383.864C219.203 384.077 219.097 384.184 218.937 384.184ZM210.277 372.944V370.664H212.957V372.944H210.277ZM213.017 372.944V370.664H215.697V372.944H213.017ZM218.938 384.184V381.864H227.538L226.638 382.604V378.904C226.638 378.104 226.384 377.497 225.878 377.084C225.384 376.67 224.598 376.464 223.518 376.464C223.211 376.464 222.791 376.49 222.258 376.544C221.724 376.584 221.144 376.65 220.518 376.744L220.257 374.624C220.831 374.49 221.411 374.377 221.998 374.284C222.598 374.19 223.184 374.144 223.758 374.144C224.851 374.144 225.811 374.337 226.638 374.724C227.464 375.097 228.111 375.637 228.578 376.344C229.058 377.05 229.298 377.904 229.298 378.904V384.184H218.938ZM218.938 384.184C218.777 384.184 218.671 384.077 218.617 383.864C218.564 383.65 218.537 383.37 218.537 383.024C218.537 382.664 218.564 382.384 218.617 382.184C218.671 381.97 218.777 381.864 218.938 381.864V384.184Z" fill="#3A73A8"/>
<path d="M253.99 229.252V213.892L249.31 216.592L247.93 213.622L254.5 209.452H258.07V229.252H253.99ZM262.95 232.702L264.03 225.022H268.41L266.25 232.702H262.95ZM277.711 229.582L273.751 228.622L280.231 213.982V213.202H271.621V209.452H284.431V213.922L277.711 229.582ZM296.271 229.252V225.952H287.271V222.952L291.771 209.452H296.391L291.381 222.502H296.271L296.511 217.402L300.351 217.342V222.502H302.181V225.952H300.351V229.252H296.271ZM311.26 229.582C309.92 229.582 308.67 229.422 307.51 229.102C306.37 228.782 305.45 228.222 304.75 227.422C304.05 226.622 303.7 225.522 303.7 224.122C303.7 223.122 303.82 222.322 304.06 221.722C304.32 221.122 304.68 220.612 305.14 220.192C305.6 219.772 306.15 219.372 306.79 218.992C305.83 218.472 305.13 217.872 304.69 217.192C304.25 216.512 304.03 215.552 304.03 214.312C304.03 213.092 304.33 212.102 304.93 211.342C305.55 210.582 306.4 210.022 307.48 209.662C308.58 209.302 309.84 209.122 311.26 209.122C312.68 209.122 313.94 209.292 315.04 209.632C316.16 209.972 317.03 210.532 317.65 211.312C318.29 212.072 318.61 213.082 318.61 214.342C318.61 215.622 318.39 216.592 317.95 217.252C317.51 217.892 316.77 218.482 315.73 219.022C316.43 219.342 317.01 219.712 317.47 220.132C317.95 220.532 318.31 221.032 318.55 221.632C318.79 222.232 318.91 223.002 318.91 223.942C318.91 225.402 318.56 226.542 317.86 227.362C317.16 228.182 316.23 228.762 315.07 229.102C313.93 229.422 312.66 229.582 311.26 229.582ZM311.26 226.312C311.96 226.312 312.57 226.232 313.09 226.072C313.63 225.892 314.04 225.602 314.32 225.202C314.62 224.782 314.77 224.212 314.77 223.492C314.77 222.932 314.66 222.472 314.44 222.112C314.24 221.732 313.95 221.422 313.57 221.182C313.21 220.942 312.81 220.752 312.37 220.612H310.12C309.42 220.832 308.86 221.182 308.44 221.662C308.04 222.122 307.84 222.762 307.84 223.582C307.84 224.242 307.98 224.772 308.26 225.172C308.56 225.572 308.97 225.862 309.49 226.042C310.01 226.222 310.6 226.312 311.26 226.312ZM310.12 217.582H312.37C313.03 217.322 313.55 216.982 313.93 216.562C314.31 216.142 314.5 215.592 314.5 214.912C314.5 214.012 314.22 213.362 313.66 212.962C313.12 212.562 312.33 212.362 311.29 212.362C310.27 212.362 309.49 212.562 308.95 212.962C308.41 213.362 308.14 214.002 308.14 214.882C308.14 215.582 308.31 216.142 308.65 216.562C308.99 216.982 309.48 217.322 310.12 217.582Z" fill="#3A73A8"/>
<path d="M253.99 308.252V292.892L249.31 295.592L247.93 292.622L254.5 288.452H258.07V308.252H253.99ZM262.95 311.702L264.03 304.022H268.41L266.25 311.702H262.95ZM278.131 308.252V292.892L273.451 295.592L272.071 292.622L278.641 288.452H282.211V308.252H278.131ZM294.591 308.582C293.251 308.582 292.001 308.422 290.841 308.102C289.701 307.782 288.781 307.222 288.081 306.422C287.381 305.622 287.031 304.522 287.031 303.122C287.031 302.122 287.151 301.322 287.391 300.722C287.651 300.122 288.011 299.612 288.471 299.192C288.931 298.772 289.481 298.372 290.121 297.992C289.161 297.472 288.461 296.872 288.021 296.192C287.581 295.512 287.361 294.552 287.361 293.312C287.361 292.092 287.661 291.102 288.261 290.342C288.881 289.582 289.731 289.022 290.811 288.662C291.911 288.302 293.171 288.122 294.591 288.122C296.011 288.122 297.271 288.292 298.371 288.632C299.491 288.972 300.361 289.532 300.981 290.312C301.621 291.072 301.941 292.082 301.941 293.342C301.941 294.622 301.721 295.592 301.281 296.252C300.841 296.892 300.101 297.482 299.061 298.022C299.761 298.342 300.341 298.712 300.801 299.132C301.281 299.532 301.641 300.032 301.881 300.632C302.121 301.232 302.241 302.002 302.241 302.942C302.241 304.402 301.891 305.542 301.191 306.362C300.491 307.182 299.561 307.762 298.401 308.102C297.261 308.422 295.991 308.582 294.591 308.582ZM294.591 305.312C295.291 305.312 295.901 305.232 296.421 305.072C296.961 304.892 297.371 304.602 297.651 304.202C297.951 303.782 298.101 303.212 298.101 302.492C298.101 301.932 297.991 301.472 297.771 301.112C297.571 300.732 297.281 300.422 296.901 300.182C296.541 299.942 296.141 299.752 295.701 299.612H293.451C292.751 299.832 292.191 300.182 291.771 300.662C291.371 301.122 291.171 301.762 291.171 302.582C291.171 303.242 291.311 303.772 291.591 304.172C291.891 304.572 292.301 304.862 292.821 305.042C293.341 305.222 293.931 305.312 294.591 305.312ZM293.451 296.582H295.701C296.361 296.322 296.881 295.982 297.261 295.562C297.641 295.142 297.831 294.592 297.831 293.912C297.831 293.012 297.551 292.362 296.991 291.962C296.451 291.562 295.661 291.362 294.621 291.362C293.601 291.362 292.821 291.562 292.281 291.962C291.741 292.362 291.471 293.002 291.471 293.882C291.471 294.582 291.641 295.142 291.981 295.562C292.321 295.982 292.811 296.322 293.451 296.582ZM311.47 308.252V292.892L306.79 295.592L305.41 292.622L311.98 288.452H315.55V308.252H311.47Z" fill="#3A73A8"/>
<path d="M253.96 387.582C253.2 387.582 252.38 387.522 251.5 387.402C250.62 387.302 249.77 387.172 248.95 387.012C248.13 386.852 247.43 386.712 246.85 386.592L247.21 383.532C247.75 383.612 248.39 383.712 249.13 383.832C249.87 383.932 250.63 384.012 251.41 384.072C252.19 384.132 252.9 384.162 253.54 384.162C254.56 384.162 255.37 383.902 255.97 383.382C256.57 382.842 256.87 382.062 256.87 381.042C256.87 380.342 256.74 379.792 256.48 379.392C256.24 378.992 255.88 378.712 255.4 378.552C254.94 378.372 254.4 378.282 253.78 378.282C253.3 378.282 252.82 378.332 252.34 378.432C251.86 378.512 251.41 378.622 250.99 378.762C250.57 378.882 250.23 379.012 249.97 379.152L247.27 378.732L247.75 367.452H260.14V371.082H250.99L250.6 375.492C250.88 375.372 251.23 375.252 251.65 375.132C252.07 374.992 252.52 374.872 253 374.772C253.5 374.672 253.98 374.622 254.44 374.622C255.82 374.622 256.99 374.812 257.95 375.192C258.91 375.572 259.64 376.202 260.14 377.082C260.66 377.962 260.92 379.162 260.92 380.682C260.92 382.262 260.63 383.562 260.05 384.582C259.49 385.582 258.69 386.332 257.65 386.832C256.63 387.332 255.4 387.582 253.96 387.582ZM270.72 387.582C268.14 387.582 266.25 386.692 265.05 384.912C263.85 383.132 263.25 380.622 263.25 377.382C263.25 375.462 263.44 373.852 263.82 372.552C264.22 371.232 264.77 370.182 265.47 369.402C266.19 368.602 267.04 368.022 268.02 367.662C269 367.302 270.08 367.122 271.26 367.122C271.88 367.122 272.55 367.162 273.27 367.242C274.01 367.322 274.73 367.422 275.43 367.542C276.13 367.642 276.72 367.742 277.2 367.842L276.87 370.932C276.45 370.892 275.92 370.842 275.28 370.782C274.66 370.722 274.01 370.672 273.33 370.632C272.65 370.572 272 370.542 271.38 370.542C270.02 370.542 269 370.972 268.32 371.832C267.64 372.672 267.28 373.882 267.24 375.462C267.44 375.402 267.69 375.332 267.99 375.252C268.31 375.152 268.65 375.052 269.01 374.952C269.39 374.832 269.77 374.742 270.15 374.682C270.53 374.602 270.89 374.562 271.23 374.562C273.45 374.562 275.11 375.082 276.21 376.122C277.33 377.142 277.89 378.752 277.89 380.952C277.89 382.432 277.6 383.662 277.02 384.642C276.44 385.622 275.62 386.362 274.56 386.862C273.5 387.342 272.22 387.582 270.72 387.582ZM270.72 384.222C271.82 384.222 272.64 383.942 273.18 383.382C273.74 382.802 274.02 381.992 274.02 380.952C274.02 379.912 273.74 379.152 273.18 378.672C272.62 378.172 271.83 377.922 270.81 377.922C270.39 377.922 269.95 377.962 269.49 378.042C269.03 378.122 268.6 378.232 268.2 378.372C267.8 378.492 267.47 378.612 267.21 378.732C267.23 379.792 267.35 380.742 267.57 381.582C267.79 382.402 268.15 383.052 268.65 383.532C269.17 383.992 269.86 384.222 270.72 384.222ZM286.91 387.582L282.95 386.622L289.43 371.982V371.202H280.82V367.452H293.63V371.922L286.91 387.582Z" fill="#3A73A8"/>
</svg>
