<svg width="556" height="471" viewBox="0 0 556 471" fill="none" xmlns="http://www.w3.org/2000/svg">
<path d="M555.474 0.583984H0.149414V470.584H555.474V0.583984Z" fill="white"/>
<path d="M208.077 50.167V37.617H211.402V48.892L209.452 47.267H214.527V50.167H208.077ZM202.802 43.017V40.092H208.077V43.017H202.802ZM195.602 56.367C194.152 56.367 192.852 56.1003 191.702 55.567C190.569 55.0503 189.677 54.3253 189.027 53.392C188.377 52.4587 188.052 51.4003 188.052 50.217C188.052 49.8837 188.077 49.442 188.127 48.892C188.177 48.342 188.244 47.7253 188.327 47.042C188.427 46.3587 188.527 45.667 188.627 44.967C188.744 44.2503 188.852 43.5587 188.952 42.892L192.252 43.342C192.069 44.4587 191.911 45.4837 191.777 46.417C191.661 47.3337 191.569 48.117 191.502 48.767C191.436 49.417 191.402 49.892 191.402 50.192C191.402 50.8587 191.569 51.4337 191.902 51.917C192.236 52.4003 192.711 52.7753 193.327 53.042C193.961 53.3253 194.719 53.467 195.602 53.467C196.519 53.467 197.261 53.3337 197.827 53.067C198.394 52.8003 198.802 52.4337 199.052 51.967C199.319 51.5003 199.452 50.9753 199.452 50.392V37.617H202.802V50.392C202.802 51.592 202.486 52.642 201.852 53.542C201.236 54.442 200.386 55.1337 199.302 55.617C198.219 56.117 196.986 56.367 195.602 56.367ZM193.777 36.717V33.867H197.127V36.717H193.777ZM214.527 50.167V47.267C214.611 47.267 214.686 47.3003 214.752 47.367C214.819 47.4337 214.869 47.5337 214.902 47.667C214.936 47.8003 214.961 47.9587 214.977 48.142C215.011 48.3087 215.027 48.5003 215.027 48.717C215.027 48.9337 215.011 49.1337 214.977 49.317C214.961 49.5003 214.936 49.6587 214.902 49.792C214.869 49.9087 214.819 50.0003 214.752 50.067C214.686 50.1337 214.611 50.167 214.527 50.167ZM205.877 55.492V52.642H209.102V55.492H205.877ZM210.427 55.492V52.642H213.652V55.492H210.427ZM214.518 50.167V47.267H220.443L218.493 48.892V37.617H221.818V50.167H214.518ZM214.518 50.167C214.418 50.167 214.343 50.1337 214.293 50.067C214.226 50.0003 214.176 49.9087 214.143 49.792C214.093 49.6587 214.06 49.5003 214.043 49.317C214.026 49.1337 214.018 48.9337 214.018 48.717C214.018 48.417 214.035 48.167 214.068 47.967C214.101 47.7503 214.16 47.5837 214.243 47.467C214.31 47.3337 214.401 47.267 214.518 47.267V50.167ZM215.418 55.492V52.642H218.643V55.492H215.418ZM219.968 55.492V52.642H223.193V55.492H219.968ZM224.649 50.167V47.267H233.724L231.449 49.242V45.042C231.449 43.8587 231.324 42.942 231.074 42.292C230.841 41.642 230.441 41.1837 229.874 40.917C229.324 40.6503 228.566 40.517 227.599 40.517H225.574V37.617H227.599C229.132 37.617 230.432 37.867 231.499 38.367C232.582 38.867 233.399 39.667 233.949 40.767C234.516 41.8503 234.799 43.2753 234.799 45.042V50.167H224.649ZM248.901 50.167V47.267H251.526V50.167H248.901ZM242.151 56.367C241.535 56.367 240.885 56.317 240.201 56.217C239.535 56.1337 238.818 56.017 238.051 55.867L238.551 53.192C239.385 53.292 240.093 53.367 240.676 53.417C241.26 53.467 241.751 53.492 242.151 53.492C243.351 53.492 244.218 53.2753 244.751 52.842C245.285 52.4087 245.551 51.7587 245.551 50.892V39.917L246.376 40.517H243.251C242.568 40.517 242.018 40.6003 241.601 40.767C241.185 40.917 240.876 41.242 240.676 41.742C240.493 42.2253 240.401 42.967 240.401 43.967C240.401 44.917 240.485 45.6337 240.651 46.117C240.835 46.5837 241.135 46.892 241.551 47.042C241.968 47.192 242.535 47.267 243.251 47.267H245.551V50.167H243.251C241.835 50.167 240.668 49.942 239.751 49.492C238.835 49.042 238.151 48.3587 237.701 47.442C237.268 46.5253 237.051 45.367 237.051 43.967C237.051 42.567 237.268 41.4003 237.701 40.467C238.151 39.517 238.835 38.8087 239.751 38.342C240.668 37.8587 241.835 37.617 243.251 37.617H248.901V50.892C248.901 52.0253 248.618 53.0003 248.051 53.817C247.501 54.6503 246.718 55.2837 245.701 55.717C244.701 56.1503 243.518 56.367 242.151 56.367ZM251.526 50.167V47.267C251.626 47.267 251.701 47.3003 251.751 47.367C251.818 47.4337 251.868 47.5337 251.901 47.667C251.951 47.8003 251.985 47.9587 252.001 48.142C252.018 48.3087 252.026 48.5003 252.026 48.717C252.026 48.9337 252.018 49.1337 252.001 49.317C251.985 49.5003 251.951 49.6587 251.901 49.792C251.868 49.9087 251.818 50.0003 251.751 50.067C251.701 50.1337 251.626 50.167 251.526 50.167ZM251.53 50.167V47.267H256.83C257.546 47.267 258.238 47.1337 258.905 46.867C259.571 46.5837 260.18 46.217 260.73 45.767C261.296 45.3003 261.788 44.792 262.205 44.242C262.638 43.6753 262.971 43.1003 263.205 42.517C263.455 41.9337 263.58 41.3837 263.58 40.867V39.267L265.18 41.917C264.313 41.4503 263.43 41.1003 262.53 40.867C261.63 40.6337 260.771 40.517 259.955 40.517C259.155 40.517 258.296 40.6337 257.38 40.867C256.48 41.1003 255.605 41.4503 254.755 41.917L256.355 39.267V40.867C256.355 41.3837 256.471 41.9337 256.705 42.517C256.955 43.1003 257.288 43.6753 257.705 44.242C258.121 44.792 258.613 45.3003 259.18 45.767C259.746 46.217 260.363 46.5837 261.03 46.867C261.696 47.1337 262.38 47.267 263.08 47.267H268.23V50.167H264.13C262.83 50.167 261.613 49.9587 260.48 49.542C259.346 49.1253 258.321 48.5753 257.405 47.892C256.488 47.192 255.696 46.4337 255.03 45.617C254.38 44.7837 253.88 43.9587 253.53 43.142C253.18 42.3087 253.005 41.5503 253.005 40.867V39.442C253.721 39.042 254.48 38.7087 255.28 38.442C256.096 38.1753 256.905 37.9753 257.705 37.842C258.521 37.692 259.271 37.617 259.955 37.617C260.655 37.617 261.405 37.692 262.205 37.842C263.005 37.9753 263.805 38.1753 264.605 38.442C265.421 38.7087 266.188 39.042 266.905 39.442V40.867C266.905 41.5503 266.73 42.3087 266.38 43.142C266.03 43.9587 265.521 44.7837 264.855 45.617C264.205 46.4337 263.421 47.192 262.505 47.892C261.588 48.5753 260.563 49.1253 259.43 49.542C258.296 49.9587 257.08 50.167 255.78 50.167H251.53ZM251.53 50.167C251.43 50.167 251.355 50.1337 251.305 50.067C251.238 50.0003 251.188 49.9087 251.155 49.792C251.105 49.6587 251.071 49.5003 251.055 49.317C251.038 49.1337 251.03 48.9337 251.03 48.717C251.03 48.417 251.046 48.167 251.08 47.967C251.113 47.7503 251.171 47.5837 251.255 47.467C251.321 47.3337 251.413 47.267 251.53 47.267V50.167ZM268.23 50.167V47.267C268.33 47.267 268.413 47.3003 268.48 47.367C268.546 47.4337 268.596 47.5337 268.63 47.667C268.663 47.8003 268.688 47.9587 268.705 48.142C268.721 48.3087 268.73 48.5003 268.73 48.717C268.73 48.9337 268.721 49.1337 268.705 49.317C268.688 49.5003 268.663 49.6587 268.63 49.792C268.596 49.9087 268.546 50.0003 268.48 50.067C268.413 50.1337 268.33 50.167 268.23 50.167ZM289.204 50.167V47.267H291.854V50.167H289.204ZM268.229 50.167C268.129 50.167 268.054 50.1337 268.004 50.067C267.937 50.0003 267.887 49.9087 267.854 49.792C267.804 49.6587 267.771 49.5003 267.754 49.317C267.737 49.1337 267.729 48.9337 267.729 48.717C267.729 48.417 267.746 48.167 267.779 47.967C267.812 47.7503 267.871 47.5837 267.954 47.467C268.021 47.3337 268.112 47.267 268.229 47.267V50.167ZM282.929 50.167C282.246 50.167 281.562 50.042 280.879 49.792C280.212 49.5253 279.596 49.1337 279.029 48.617L281.079 46.492C281.412 46.7587 281.721 46.9587 282.004 47.092C282.304 47.2087 282.612 47.267 282.929 47.267H287.604L285.879 48.842V43.292C285.879 43.0253 285.846 42.6253 285.779 42.092C285.729 41.542 285.646 40.9253 285.529 40.242C285.429 39.542 285.304 38.8337 285.154 38.117L288.454 37.617C288.571 38.217 288.679 38.892 288.779 39.642C288.896 40.3753 288.996 41.0753 289.079 41.742C289.162 42.392 289.204 42.9087 289.204 43.292V50.167H282.929ZM268.229 50.167V47.267H271.879L271.129 48.042V40.167H274.479V50.167H268.229ZM274.479 50.167V47.267H276.504C277.037 47.267 277.446 47.192 277.729 47.042C278.012 46.8753 278.204 46.5503 278.304 46.067C278.421 45.567 278.479 44.8253 278.479 43.842V38.917H281.829V43.842C281.829 45.3253 281.637 46.5337 281.254 47.467C280.887 48.4003 280.312 49.0837 279.529 49.517C278.746 49.9503 277.737 50.167 276.504 50.167H274.479ZM291.854 50.167V47.267C291.937 47.267 292.012 47.3003 292.079 47.367C292.146 47.4337 292.196 47.5337 292.229 47.667C292.262 47.8003 292.287 47.9587 292.304 48.142C292.337 48.3087 292.354 48.5003 292.354 48.717C292.354 48.9337 292.337 49.1337 292.304 49.317C292.287 49.5003 292.262 49.6587 292.229 49.792C292.196 49.9087 292.146 50.0003 292.079 50.067C292.012 50.1337 291.937 50.167 291.854 50.167ZM294.687 50.167V32.492H298.037V50.167H294.687ZM291.862 50.167V47.267H294.687V50.167H291.862ZM291.862 50.167C291.762 50.167 291.687 50.1337 291.637 50.067C291.57 50.0003 291.52 49.9087 291.487 49.792C291.437 49.6587 291.403 49.5003 291.387 49.317C291.37 49.1337 291.362 48.9337 291.362 48.717C291.362 48.417 291.378 48.167 291.412 47.967C291.445 47.7503 291.503 47.5837 291.587 47.467C291.653 47.3337 291.745 47.267 291.862 47.267V50.167ZM302.046 50.167V32.492H305.371V50.167H302.046ZM320.278 50.167C318.861 50.167 317.694 49.942 316.778 49.492C315.861 49.042 315.178 48.3587 314.728 47.442C314.294 46.5253 314.078 45.367 314.078 43.967C314.078 42.567 314.294 41.4003 314.728 40.467C315.178 39.517 315.861 38.8087 316.778 38.342C317.694 37.8587 318.861 37.617 320.278 37.617H325.928V48.592H322.578V39.792L323.403 40.517H320.278C319.594 40.517 319.044 40.6003 318.628 40.767C318.211 40.917 317.903 41.242 317.703 41.742C317.519 42.2253 317.428 42.967 317.428 43.967C317.428 44.917 317.511 45.6337 317.678 46.117C317.861 46.5837 318.161 46.892 318.578 47.042C318.994 47.192 319.561 47.267 320.278 47.267H328.553V50.167H320.278ZM328.553 50.167V47.267C328.653 47.267 328.728 47.3003 328.778 47.367C328.844 47.4337 328.894 47.5337 328.928 47.667C328.978 47.8003 329.011 47.9587 329.028 48.142C329.044 48.3087 329.053 48.5003 329.053 48.717C329.053 48.9337 329.044 49.1337 329.028 49.317C329.011 49.5003 328.978 49.6587 328.928 49.792C328.894 49.9087 328.844 50.0003 328.778 50.067C328.728 50.1337 328.653 50.167 328.553 50.167ZM316.553 35.317V32.467H319.778V35.317H316.553ZM321.103 35.317V32.467H324.328V35.317H321.103ZM334.531 50.167V47.267H337.156V50.167H334.531ZM328.556 50.167C328.456 50.167 328.381 50.1337 328.331 50.067C328.264 50.0003 328.214 49.9087 328.181 49.792C328.131 49.6587 328.098 49.5003 328.081 49.317C328.064 49.1337 328.056 48.9337 328.056 48.717C328.056 48.417 328.073 48.167 328.106 47.967C328.139 47.7503 328.198 47.5837 328.281 47.467C328.348 47.3337 328.439 47.267 328.556 47.267V50.167ZM328.556 50.167V47.267H333.131L331.181 48.892V37.617H334.531V50.167H328.556ZM337.156 50.167V47.267C337.256 47.267 337.339 47.3003 337.406 47.367C337.473 47.4337 337.523 47.5337 337.556 47.667C337.589 47.8003 337.614 47.9587 337.631 48.142C337.648 48.3087 337.656 48.5003 337.656 48.717C337.656 48.9337 337.648 49.1337 337.631 49.317C337.614 49.5003 337.589 49.6587 337.556 49.792C337.523 49.9087 337.473 50.0003 337.406 50.067C337.339 50.1337 337.256 50.167 337.156 50.167ZM331.181 55.492V52.642H334.531V55.492H331.181ZM358.125 50.167V47.267H360.775V50.167H358.125ZM337.15 50.167C337.05 50.167 336.975 50.1337 336.925 50.067C336.858 50.0003 336.808 49.9087 336.775 49.792C336.725 49.6587 336.692 49.5003 336.675 49.317C336.658 49.1337 336.65 48.9337 336.65 48.717C336.65 48.417 336.667 48.167 336.7 47.967C336.733 47.7503 336.792 47.5837 336.875 47.467C336.942 47.3337 337.033 47.267 337.15 47.267V50.167ZM351.85 50.167C351.167 50.167 350.483 50.042 349.8 49.792C349.133 49.5253 348.517 49.1337 347.95 48.617L350 46.492C350.333 46.7587 350.642 46.9587 350.925 47.092C351.225 47.2087 351.533 47.267 351.85 47.267H356.525L354.8 48.842V43.292C354.8 43.0253 354.767 42.6253 354.7 42.092C354.65 41.542 354.567 40.9253 354.45 40.242C354.35 39.542 354.225 38.8337 354.075 38.117L357.375 37.617C357.492 38.217 357.6 38.892 357.7 39.642C357.817 40.3753 357.917 41.0753 358 41.742C358.083 42.392 358.125 42.9087 358.125 43.292V50.167H351.85ZM337.15 50.167V47.267H340.8L340.05 48.042V40.167H343.4V50.167H337.15ZM343.4 50.167V47.267H345.425C345.958 47.267 346.367 47.192 346.65 47.042C346.933 46.8753 347.125 46.5503 347.225 46.067C347.342 45.567 347.4 44.8253 347.4 43.842V38.917H350.75V43.842C350.75 45.3253 350.558 46.5337 350.175 47.467C349.808 48.4003 349.233 49.0837 348.45 49.517C347.667 49.9503 346.658 50.167 345.425 50.167H343.4ZM360.775 50.167V47.267C360.858 47.267 360.933 47.3003 361 47.367C361.067 47.4337 361.117 47.5337 361.15 47.667C361.183 47.8003 361.208 47.9587 361.225 48.142C361.258 48.3087 361.275 48.5003 361.275 48.717C361.275 48.9337 361.258 49.1337 361.225 49.317C361.208 49.5003 361.183 49.6587 361.15 49.792C361.117 49.9087 361.067 50.0003 361 50.067C360.933 50.1337 360.858 50.167 360.775 50.167ZM360.783 50.167V47.267H365.358L363.408 48.892V37.617H366.758V50.167H360.783ZM360.783 50.167C360.683 50.167 360.608 50.1337 360.558 50.067C360.491 50.0003 360.441 49.9087 360.408 49.792C360.358 49.6587 360.324 49.5003 360.308 49.317C360.291 49.1337 360.283 48.9337 360.283 48.717C360.283 48.417 360.299 48.167 360.333 47.967C360.366 47.7503 360.424 47.5837 360.508 47.467C360.574 47.3337 360.666 47.267 360.783 47.267V50.167ZM363.408 35.317V32.467H366.758V35.317H363.408ZM123.466 90.167C122.324 90.167 121.359 90.0177 120.57 89.719C119.791 89.4203 119.199 88.9777 118.794 88.391C118.399 87.8043 118.202 87.0737 118.202 86.199C118.202 85.943 118.218 85.6763 118.25 85.399C118.282 85.111 118.319 84.839 118.362 84.583C118.415 84.3163 118.463 84.0817 118.506 83.879C118.548 83.6763 118.58 83.527 118.602 83.431L120.682 83.831C120.65 84.0017 120.607 84.2203 120.554 84.487C120.5 84.7537 120.452 85.0363 120.41 85.335C120.367 85.623 120.346 85.9003 120.346 86.167C120.346 86.583 120.41 86.9297 120.538 87.207C120.676 87.4843 120.879 87.7083 121.146 87.879C121.412 88.039 121.748 88.151 122.154 88.215C122.559 88.279 123.034 88.311 123.578 88.311H127.85V82.135H129.994V90.167H123.466ZM121.626 81.799V79.975H123.69V81.799H121.626ZM124.538 81.799V79.975H126.602V81.799H124.538ZM132.408 90.167V78.855H134.536V90.167H132.408ZM144.207 90.167V88.311H145.887V90.167H144.207ZM139.887 94.135C139.493 94.135 139.077 94.103 138.639 94.039C138.213 93.9857 137.754 93.911 137.263 93.815L137.583 92.103C138.117 92.167 138.57 92.215 138.943 92.247C139.317 92.279 139.631 92.295 139.887 92.295C140.655 92.295 141.21 92.1563 141.551 91.879C141.893 91.6017 142.063 91.1857 142.063 90.631V83.607L142.591 83.991H140.591C140.154 83.991 139.802 84.0443 139.535 84.151C139.269 84.247 139.071 84.455 138.943 84.775C138.826 85.0843 138.767 85.559 138.767 86.199C138.767 86.807 138.821 87.2657 138.927 87.575C139.045 87.8737 139.237 88.071 139.503 88.167C139.77 88.263 140.133 88.311 140.591 88.311H142.063V90.167H140.591C139.685 90.167 138.938 90.023 138.351 89.735C137.765 89.447 137.327 89.0097 137.039 88.423C136.762 87.8363 136.623 87.095 136.623 86.199C136.623 85.303 136.762 84.5563 137.039 83.959C137.327 83.351 137.765 82.8977 138.351 82.599C138.938 82.2897 139.685 82.135 140.591 82.135H144.207V90.631C144.207 91.3563 144.026 91.9803 143.663 92.503C143.311 93.0363 142.81 93.4417 142.159 93.719C141.519 93.9963 140.762 94.135 139.887 94.135ZM145.887 90.167V88.311C145.951 88.311 145.999 88.3323 146.031 88.375C146.074 88.4177 146.106 88.4817 146.127 88.567C146.159 88.6523 146.181 88.7537 146.191 88.871C146.202 88.9777 146.207 89.1003 146.207 89.239C146.207 89.3777 146.202 89.5057 146.191 89.623C146.181 89.7403 146.159 89.8417 146.127 89.927C146.106 90.0017 146.074 90.0603 146.031 90.103C145.999 90.1457 145.951 90.167 145.887 90.167ZM149.714 90.167V88.311H151.394V90.167H149.714ZM145.89 90.167C145.826 90.167 145.778 90.1457 145.746 90.103C145.703 90.0603 145.671 90.0017 145.65 89.927C145.618 89.8417 145.596 89.7403 145.586 89.623C145.575 89.5057 145.57 89.3777 145.57 89.239C145.57 89.047 145.58 88.887 145.602 88.759C145.623 88.6203 145.66 88.5137 145.714 88.439C145.756 88.3537 145.815 88.311 145.89 88.311V90.167ZM145.89 90.167V88.311H148.818L147.57 89.351V82.135H149.714V90.167H145.89ZM151.394 90.167V88.311C151.458 88.311 151.511 88.3323 151.554 88.375C151.596 88.4177 151.628 88.4817 151.65 88.567C151.671 88.6523 151.687 88.7537 151.698 88.871C151.708 88.9777 151.714 89.1003 151.714 89.239C151.714 89.3777 151.708 89.5057 151.698 89.623C151.687 89.7403 151.671 89.8417 151.65 89.927C151.628 90.0017 151.596 90.0603 151.554 90.103C151.511 90.1457 151.458 90.167 151.394 90.167ZM147.57 80.663V78.839H149.714V80.663H147.57ZM160.798 90.167C160.36 90.167 159.923 90.087 159.486 89.927C159.059 89.7563 158.664 89.5057 158.302 89.175L159.614 87.815C159.827 87.9857 160.024 88.1137 160.206 88.199C160.398 88.2737 160.595 88.311 160.798 88.311H163.79L162.686 89.319V85.767C162.686 85.5963 162.664 85.3403 162.622 84.999C162.59 84.647 162.536 84.2523 162.462 83.815C162.398 83.367 162.318 82.9137 162.222 82.455L164.334 82.135C164.408 82.519 164.478 82.951 164.542 83.431C164.616 83.9003 164.68 84.3483 164.734 84.775C164.787 85.191 164.814 85.5217 164.814 85.767V90.167H160.798ZM151.39 90.167V88.311H153.726L153.246 88.807V83.767H155.39V90.167H151.39ZM155.39 90.167V88.311H156.686C157.027 88.311 157.288 88.263 157.47 88.167C157.651 88.0603 157.774 87.8523 157.838 87.543C157.912 87.223 157.95 86.7483 157.95 86.119V82.967H160.094V86.119C160.094 87.0683 159.971 87.8417 159.726 88.439C159.491 89.0363 159.123 89.4737 158.622 89.751C158.12 90.0283 157.475 90.167 156.686 90.167H155.39ZM151.39 90.167C151.326 90.167 151.278 90.1457 151.246 90.103C151.203 90.0603 151.171 90.0017 151.15 89.927C151.118 89.8417 151.096 89.7403 151.086 89.623C151.075 89.5057 151.07 89.3777 151.07 89.239C151.07 89.047 151.08 88.887 151.102 88.759C151.123 88.6203 151.16 88.5137 151.214 88.439C151.256 88.3537 151.315 88.311 151.39 88.311V90.167ZM176.685 93.287L176.989 95.015C176.509 95.111 176.05 95.1857 175.613 95.239C175.186 95.303 174.77 95.335 174.365 95.335C173.501 95.335 172.744 95.1963 172.093 94.919C171.453 94.6417 170.952 94.2363 170.589 93.703C170.237 93.1803 170.061 92.5563 170.061 91.831C170.061 91.1803 170.2 90.6043 170.477 90.103C170.754 89.591 171.149 89.1697 171.661 88.839C172.173 88.5083 172.765 88.2843 173.437 88.167L173.613 88.039C173.922 87.9323 174.242 87.7937 174.573 87.623C174.904 87.4417 175.218 87.2283 175.517 86.983C175.826 86.7377 176.098 86.471 176.333 86.183C176.568 85.8843 176.754 85.5697 176.893 85.239C177.042 84.9083 177.117 84.567 177.117 84.215V83.191L178.141 84.887C177.586 84.5883 177.016 84.3643 176.429 84.215C175.853 84.0657 175.309 83.991 174.797 83.991C174.274 83.991 173.725 84.0657 173.149 84.215C172.573 84.3643 172.008 84.5883 171.453 84.887L172.477 83.191V84.215C172.477 84.5457 172.552 84.8977 172.701 85.271C172.861 85.6443 173.074 86.0123 173.341 86.375C173.608 86.727 173.922 87.0523 174.285 87.351C174.648 87.639 175.042 87.8737 175.469 88.055C175.896 88.2257 176.333 88.311 176.781 88.311H180.013V90.167H177.469C176.637 90.167 175.858 90.0337 175.133 89.767C174.408 89.5003 173.752 89.1483 173.165 88.711C172.578 88.263 172.072 87.7777 171.645 87.255C171.229 86.7217 170.909 86.1937 170.685 85.671C170.461 85.1377 170.349 84.6523 170.349 84.215V83.303C170.808 83.047 171.293 82.8337 171.805 82.663C172.328 82.4923 172.845 82.3643 173.357 82.279C173.869 82.183 174.349 82.135 174.797 82.135C175.245 82.135 175.725 82.183 176.237 82.279C176.749 82.3643 177.261 82.4923 177.773 82.663C178.296 82.8337 178.786 83.047 179.245 83.303V84.215C179.245 84.759 179.128 85.287 178.893 85.799C178.658 86.3003 178.338 86.7697 177.933 87.207C177.538 87.6443 177.09 88.039 176.589 88.391C176.088 88.743 175.57 89.0363 175.037 89.271C174.952 89.3137 174.829 89.3723 174.669 89.447C174.509 89.511 174.338 89.5803 174.157 89.655C173.986 89.719 173.837 89.7777 173.709 89.831C173.581 89.8737 173.501 89.9057 173.469 89.927C173.256 90.023 173.053 90.151 172.861 90.311C172.669 90.4817 172.509 90.6897 172.381 90.935C172.264 91.1803 172.205 91.4843 172.205 91.847C172.205 92.3803 172.381 92.7857 172.733 93.063C173.096 93.351 173.64 93.495 174.365 93.495C174.621 93.495 174.936 93.4737 175.309 93.431C175.693 93.399 176.152 93.351 176.685 93.287ZM180.013 90.167V88.311C180.077 88.311 180.125 88.3323 180.157 88.375C180.2 88.4177 180.232 88.4817 180.253 88.567C180.285 88.6523 180.306 88.7537 180.317 88.871C180.328 88.9777 180.333 89.1003 180.333 89.239C180.333 89.3777 180.328 89.5057 180.317 89.623C180.306 89.7403 180.285 89.8417 180.253 89.927C180.232 90.0017 180.2 90.0603 180.157 90.103C180.125 90.1457 180.077 90.167 180.013 90.167ZM180.015 90.167V88.311H182.943L181.695 89.351V82.135H183.839V90.167H180.015ZM180.015 90.167C179.951 90.167 179.903 90.1457 179.871 90.103C179.828 90.0603 179.796 90.0017 179.775 89.927C179.743 89.8417 179.721 89.7403 179.711 89.623C179.7 89.5057 179.695 89.3777 179.695 89.239C179.695 89.047 179.705 88.887 179.727 88.759C179.748 88.6203 179.785 88.5137 179.839 88.439C179.881 88.3537 179.94 88.311 180.015 88.311V90.167ZM181.695 93.575V91.751H183.839V93.575H181.695ZM185.607 94.135C185.468 94.135 185.319 94.1297 185.159 94.119C184.999 94.1083 184.834 94.0923 184.663 94.071L184.743 92.247C184.914 92.2577 185.074 92.2683 185.223 92.279C185.383 92.2897 185.5 92.295 185.575 92.295C185.991 92.295 186.322 92.1297 186.567 91.799C186.823 91.4683 186.951 91.0043 186.951 90.407V82.135H189.095V90.407C189.095 91.1323 188.946 91.7777 188.647 92.343C188.359 92.9083 187.954 93.3457 187.431 93.655C186.908 93.975 186.3 94.135 185.607 94.135ZM191.611 90.167V78.855H193.739V90.167H191.611ZM191.707 77.575C191.504 77.3297 191.35 77.095 191.243 76.871C191.136 76.647 191.083 76.407 191.083 76.151C191.083 75.7883 191.179 75.463 191.371 75.175C191.563 74.8763 191.814 74.647 192.123 74.487C192.432 74.3163 192.774 74.231 193.147 74.231C193.35 74.231 193.558 74.2577 193.771 74.311C193.984 74.3643 194.166 74.4443 194.315 74.551L193.771 75.527C193.675 75.4737 193.579 75.4417 193.483 75.431C193.398 75.4097 193.307 75.399 193.211 75.399C192.955 75.399 192.758 75.4683 192.619 75.607C192.48 75.735 192.411 75.911 192.411 76.135C192.411 76.263 192.438 76.3857 192.491 76.503C192.544 76.6203 192.624 76.7483 192.731 76.887L191.707 77.575ZM190.731 77.703V76.535H194.603V77.703H190.731ZM202.383 90.167V88.311H204.447V90.167H202.383ZM199.279 94.135C199.14 94.135 198.991 94.1297 198.831 94.119C198.671 94.1083 198.506 94.0923 198.335 94.071L198.415 92.247C198.586 92.2577 198.746 92.2683 198.895 92.279C199.055 92.2897 199.172 92.295 199.247 92.295C199.663 92.295 199.994 92.1297 200.239 91.799C200.495 91.4683 200.623 91.0043 200.623 90.407V82.135H202.767V90.407C202.767 91.1323 202.618 91.7777 202.319 92.343C202.031 92.9083 201.626 93.3457 201.103 93.655C200.58 93.975 199.972 94.135 199.279 94.135ZM204.447 90.167V88.311C204.511 88.311 204.559 88.3323 204.591 88.375C204.634 88.4177 204.666 88.4817 204.687 88.567C204.719 88.6523 204.74 88.7537 204.751 88.871C204.762 88.9777 204.767 89.1003 204.767 89.239C204.767 89.3777 204.762 89.5057 204.751 89.623C204.74 89.7403 204.719 89.8417 204.687 89.927C204.666 90.0017 204.634 90.0603 204.591 90.103C204.559 90.1457 204.511 90.167 204.447 90.167ZM204.452 90.167V88.311H211.332L210.612 88.903V85.943C210.612 85.303 210.409 84.8177 210.004 84.487C209.609 84.1563 208.98 83.991 208.116 83.991C207.871 83.991 207.535 84.0123 207.108 84.055C206.681 84.087 206.217 84.1403 205.716 84.215L205.508 82.519C205.967 82.4123 206.431 82.3217 206.9 82.247C207.38 82.1723 207.849 82.135 208.308 82.135C209.183 82.135 209.951 82.2897 210.612 82.599C211.273 82.8977 211.791 83.3297 212.164 83.895C212.548 84.4603 212.74 85.143 212.74 85.943V90.167H204.452ZM204.452 90.167C204.388 90.167 204.34 90.1457 204.308 90.103C204.265 90.0603 204.233 90.0017 204.212 89.927C204.18 89.8417 204.159 89.7403 204.148 89.623C204.137 89.5057 204.132 89.3777 204.132 89.239C204.132 89.047 204.143 88.887 204.164 88.759C204.185 88.6203 204.223 88.5137 204.276 88.439C204.319 88.3537 204.377 88.311 204.452 88.311V90.167ZM207.22 80.871V79.047H209.364V80.871H207.22ZM215.142 90.167V78.855H217.27V90.167H215.142ZM214.502 77.703L213.654 77.063L214.502 75.799H215.734C215.883 75.9163 216.059 76.007 216.262 76.071C216.465 76.135 216.673 76.167 216.886 76.167C217.099 76.167 217.302 76.135 217.494 76.071C217.697 76.007 217.867 75.9163 218.006 75.799L218.678 76.279C218.55 76.4923 218.385 76.695 218.182 76.887C217.99 77.0683 217.761 77.2177 217.494 77.335C217.227 77.4417 216.918 77.495 216.566 77.495C216.31 77.495 216.065 77.463 215.83 77.399C215.595 77.3243 215.382 77.2177 215.19 77.079L214.502 77.703ZM227.722 94.135C227.029 94.135 226.383 94.0337 225.786 93.831C225.199 93.639 224.687 93.367 224.25 93.015C223.813 92.6737 223.466 92.263 223.21 91.783C222.965 91.3137 222.842 90.8017 222.842 90.247C222.842 90.0443 222.858 89.783 222.89 89.463C222.922 89.143 222.965 88.775 223.018 88.359C223.082 87.943 223.151 87.5003 223.226 87.031L225.338 87.319C225.231 87.991 225.146 88.5883 225.082 89.111C225.018 89.6337 224.986 90.0017 224.986 90.215C224.986 90.6203 225.098 90.9777 225.322 91.287C225.546 91.5963 225.861 91.8363 226.266 92.007C226.682 92.1883 227.167 92.279 227.722 92.279H232.25C232.943 92.279 233.461 92.103 233.802 91.751C234.143 91.399 234.314 90.887 234.314 90.215V89.607H236.442V90.215C236.442 90.983 236.271 91.6603 235.93 92.247C235.589 92.8337 235.103 93.2923 234.474 93.623C233.855 93.9643 233.114 94.135 232.25 94.135H227.722ZM233.61 90.167C233.119 90.167 232.645 90.1137 232.186 90.007C231.738 89.9003 231.311 89.7083 230.906 89.431L232.122 87.895C232.293 88.0123 232.442 88.103 232.57 88.167C232.709 88.2203 232.858 88.2577 233.018 88.279C233.189 88.3003 233.386 88.311 233.61 88.311H237.146V90.167H233.61ZM237.146 90.167V88.311C237.199 88.311 237.247 88.3323 237.29 88.375C237.333 88.4177 237.365 88.4817 237.386 88.567C237.407 88.6523 237.423 88.7537 237.434 88.871C237.455 88.9777 237.466 89.1003 237.466 89.239C237.466 89.3777 237.455 89.5057 237.434 89.623C237.423 89.7403 237.407 89.8417 237.386 89.927C237.365 90.0017 237.333 90.0603 237.29 90.103C237.247 90.1457 237.199 90.167 237.146 90.167ZM227.178 97.431V95.607H229.242V97.431H227.178ZM230.09 97.431V95.607H232.154V97.431H230.09ZM233.593 90.167V88.311H241.065L240.409 88.871V83.527L240.953 83.991H238.937C238.467 83.991 238.099 84.0497 237.833 84.167C237.566 84.2843 237.379 84.503 237.273 84.823C237.166 85.1323 237.113 85.575 237.113 86.151C237.113 86.7803 237.166 87.2497 237.273 87.559C237.379 87.8577 237.566 88.0603 237.833 88.167C238.099 88.263 238.467 88.311 238.937 88.311V89.975C238.03 89.975 237.283 89.847 236.697 89.591C236.11 89.335 235.673 88.9297 235.385 88.375C235.107 87.8097 234.969 87.0683 234.969 86.151C234.969 85.2763 235.107 84.5403 235.385 83.943C235.673 83.3457 236.11 82.8977 236.697 82.599C237.283 82.2897 238.03 82.135 238.937 82.135H242.553V90.167H233.593ZM233.593 90.167C233.529 90.167 233.481 90.1457 233.449 90.103C233.406 90.0603 233.374 90.0017 233.353 89.927C233.321 89.8417 233.299 89.7403 233.289 89.623C233.278 89.5057 233.273 89.3777 233.273 89.239C233.273 89.047 233.283 88.887 233.305 88.759C233.326 88.6203 233.363 88.5137 233.417 88.439C233.459 88.3537 233.518 88.311 233.593 88.311V90.167ZM238.089 80.663V78.839H240.233V80.663H238.089ZM251.763 90.167C250.857 90.167 250.11 90.023 249.523 89.735C248.937 89.447 248.499 89.0097 248.211 88.423C247.934 87.8363 247.795 87.095 247.795 86.199C247.795 85.303 247.934 84.5563 248.211 83.959C248.499 83.351 248.937 82.8977 249.523 82.599C250.11 82.2897 250.857 82.135 251.763 82.135H255.379V89.159H253.235V83.527L253.763 83.991H251.763C251.326 83.991 250.974 84.0443 250.707 84.151C250.441 84.247 250.243 84.455 250.115 84.775C249.998 85.0843 249.939 85.559 249.939 86.199C249.939 86.807 249.993 87.2657 250.099 87.575C250.217 87.8737 250.409 88.071 250.675 88.167C250.942 88.263 251.305 88.311 251.763 88.311H257.059V90.167H251.763ZM257.059 90.167V88.311C257.123 88.311 257.171 88.3323 257.203 88.375C257.246 88.4177 257.278 88.4817 257.299 88.567C257.331 88.6523 257.353 88.7537 257.363 88.871C257.374 88.9777 257.379 89.1003 257.379 89.239C257.379 89.3777 257.374 89.5057 257.363 89.623C257.353 89.7403 257.331 89.8417 257.299 89.927C257.278 90.0017 257.246 90.0603 257.203 90.103C257.171 90.1457 257.123 90.167 257.059 90.167ZM249.379 80.663V78.839H251.443V80.663H249.379ZM252.291 80.663V78.839H254.355V80.663H252.291ZM257.062 90.167V88.311H265.094L264.39 88.887V86.711C264.39 86.1563 264.331 85.7137 264.214 85.383C264.096 85.0523 263.915 84.8123 263.67 84.663C263.435 84.5137 263.136 84.439 262.774 84.439H259.27L257.942 82.519L258.758 80.983C258.854 80.8017 258.96 80.6043 259.078 80.391C259.195 80.1777 259.35 79.9217 259.542 79.623C259.734 79.3243 259.979 78.951 260.278 78.503L262.07 79.511C261.792 79.927 261.568 80.2737 261.398 80.551C261.227 80.8177 261.083 81.0523 260.966 81.255C260.848 81.4577 260.742 81.6603 260.646 81.863L260.006 83.063L259.686 82.583H262.774C263.456 82.583 264.038 82.695 264.518 82.919C264.998 83.143 265.382 83.4523 265.67 83.847C265.968 84.2417 266.187 84.6843 266.326 85.175C266.464 85.6657 266.534 86.1777 266.534 86.711V90.167H257.062ZM257.062 90.167C256.998 90.167 256.95 90.1457 256.918 90.103C256.875 90.0603 256.843 90.0017 256.822 89.927C256.79 89.8417 256.768 89.7403 256.758 89.623C256.747 89.5057 256.742 89.3777 256.742 89.239C256.742 89.047 256.752 88.887 256.774 88.759C256.795 88.6203 256.832 88.5137 256.886 88.439C256.928 88.3537 256.987 88.311 257.062 88.311V90.167ZM286.248 90.167V88.311H287.944V90.167H286.248ZM287.944 90.167V88.311C287.997 88.311 288.045 88.3323 288.088 88.375C288.13 88.4177 288.162 88.4817 288.184 88.567C288.205 88.6523 288.221 88.7537 288.232 88.871C288.253 88.9777 288.264 89.1003 288.264 89.239C288.264 89.3777 288.253 89.5057 288.232 89.623C288.221 89.7403 288.205 89.8417 288.184 89.927C288.162 90.0017 288.13 90.0603 288.088 90.103C288.045 90.1457 287.997 90.167 287.944 90.167ZM268.248 94.135C268.109 94.135 267.96 94.1297 267.8 94.119C267.64 94.1083 267.474 94.0923 267.304 94.071L267.384 92.247C267.554 92.2577 267.714 92.2683 267.864 92.279C268.024 92.2897 268.141 92.295 268.216 92.295C268.632 92.295 268.962 92.1297 269.208 91.799C269.464 91.4683 269.592 91.0043 269.592 90.407V82.135H271.736V90.407C271.736 91.1323 271.586 91.7777 271.288 92.343C271 92.9083 270.594 93.3457 270.072 93.655C269.549 93.975 268.941 94.135 268.248 94.135ZM282.648 90.167C282.21 90.167 281.778 90.087 281.352 89.927C280.925 89.7563 280.525 89.5057 280.152 89.175L281.48 87.815C281.682 87.9857 281.88 88.1137 282.072 88.199C282.264 88.2737 282.456 88.311 282.648 88.311H285.656L284.536 89.319V85.767C284.536 85.5963 284.514 85.3403 284.472 84.999C284.44 84.647 284.392 84.2523 284.328 83.815C284.264 83.367 284.184 82.9137 284.088 82.455L286.184 82.135C286.258 82.519 286.333 82.951 286.408 83.431C286.482 83.9003 286.541 84.3483 286.584 84.775C286.637 85.191 286.664 85.5217 286.664 85.767V90.167H282.648ZM271.736 85.591V83.719H275.096V85.591H271.736ZM275.096 90.167V82.135H277.24V90.167H275.096ZM277.24 90.167V88.311H278.536C278.877 88.311 279.138 88.263 279.32 88.167C279.501 88.0603 279.629 87.8523 279.704 87.543C279.778 87.223 279.816 86.7483 279.816 86.119V82.967H281.96V86.119C281.96 87.0683 281.837 87.8417 281.592 88.439C281.346 89.0363 280.973 89.4737 280.472 89.751C279.97 90.0283 279.325 90.167 278.536 90.167H277.24ZM279.96 78.215V76.615H281.816V78.215H279.96ZM278.408 80.663V78.839H280.472V80.663H278.408ZM281.32 80.663V78.839H283.384V80.663H281.32ZM289.745 90.167V78.855H291.889V90.167H289.745ZM287.937 90.167V88.311H289.745V90.167H287.937ZM287.937 90.167C287.873 90.167 287.825 90.1457 287.793 90.103C287.75 90.0603 287.718 90.0017 287.697 89.927C287.665 89.8417 287.643 89.7403 287.633 89.623C287.622 89.5057 287.617 89.3777 287.617 89.239C287.617 89.047 287.627 88.887 287.649 88.759C287.67 88.6203 287.707 88.5137 287.761 88.439C287.803 88.3537 287.862 88.311 287.937 88.311V90.167ZM294.455 90.167V78.855H296.583V90.167H294.455ZM307.035 94.135C306.341 94.135 305.696 94.0337 305.099 93.831C304.512 93.639 304 93.367 303.563 93.015C303.125 92.6737 302.779 92.263 302.523 91.783C302.277 91.3137 302.155 90.8017 302.155 90.247C302.155 90.0443 302.171 89.783 302.203 89.463C302.235 89.143 302.277 88.775 302.331 88.359C302.395 87.943 302.464 87.5003 302.539 87.031L304.651 87.319C304.544 87.991 304.459 88.5883 304.395 89.111C304.331 89.6337 304.299 90.0017 304.299 90.215C304.299 90.6203 304.411 90.9777 304.635 91.287C304.859 91.5963 305.173 91.8363 305.579 92.007C305.995 92.1883 306.48 92.279 307.035 92.279H311.563C312.256 92.279 312.773 92.103 313.115 91.751C313.456 91.399 313.627 90.887 313.627 90.215V89.607H315.755V90.215C315.755 90.983 315.584 91.6603 315.243 92.247C314.901 92.8337 314.416 93.2923 313.787 93.623C313.168 93.9643 312.427 94.135 311.563 94.135H307.035ZM312.923 90.167C312.432 90.167 311.957 90.1137 311.499 90.007C311.051 89.9003 310.624 89.7083 310.219 89.431L311.435 87.895C311.605 88.0123 311.755 88.103 311.883 88.167C312.021 88.2203 312.171 88.2577 312.331 88.279C312.501 88.3003 312.699 88.311 312.923 88.311H316.459V90.167H312.923ZM316.459 90.167V88.311C316.512 88.311 316.56 88.3323 316.603 88.375C316.645 88.4177 316.677 88.4817 316.699 88.567C316.72 88.6523 316.736 88.7537 316.747 88.871C316.768 88.9777 316.779 89.1003 316.779 89.239C316.779 89.3777 316.768 89.5057 316.747 89.623C316.736 89.7403 316.72 89.8417 316.699 89.927C316.677 90.0017 316.645 90.0603 316.603 90.103C316.56 90.1457 316.512 90.167 316.459 90.167ZM306.491 97.431V95.607H308.555V97.431H306.491ZM309.403 97.431V95.607H311.467V97.431H309.403ZM325.412 90.167V88.311H327.092V90.167H325.412ZM316.452 90.167C316.388 90.167 316.34 90.1457 316.308 90.103C316.265 90.0603 316.233 90.0017 316.212 89.927C316.18 89.8417 316.159 89.7403 316.148 89.623C316.137 89.5057 316.132 89.3777 316.132 89.239C316.132 89.047 316.143 88.887 316.164 88.759C316.185 88.6203 316.223 88.5137 316.276 88.439C316.319 88.3537 316.377 88.311 316.452 88.311V90.167ZM316.452 90.167V88.311H323.924L323.268 88.871V83.527L323.812 83.991H321.796C321.327 83.991 320.959 84.0497 320.692 84.167C320.425 84.2843 320.239 84.503 320.132 84.823C320.025 85.1323 319.972 85.575 319.972 86.151C319.972 86.7803 320.025 87.2497 320.132 87.559C320.239 87.8577 320.425 88.0603 320.692 88.167C320.959 88.263 321.327 88.311 321.796 88.311V89.975C320.889 89.975 320.143 89.847 319.556 89.591C318.969 89.335 318.532 88.9297 318.244 88.375C317.967 87.8097 317.828 87.0683 317.828 86.151C317.828 85.2763 317.967 84.5403 318.244 83.943C318.532 83.3457 318.969 82.8977 319.556 82.599C320.143 82.2897 320.889 82.135 321.796 82.135H325.412V90.167H316.452ZM327.092 90.167V88.311C327.156 88.311 327.209 88.3323 327.252 88.375C327.295 88.4177 327.327 88.4817 327.348 88.567C327.369 88.6523 327.385 88.7537 327.396 88.871C327.407 88.9777 327.412 89.1003 327.412 89.239C327.412 89.3777 327.407 89.5057 327.396 89.623C327.385 89.7403 327.369 89.8417 327.348 89.927C327.327 90.0017 327.295 90.0603 327.252 90.103C327.209 90.1457 327.156 90.167 327.092 90.167ZM320.948 80.663V78.839H323.092V80.663H320.948ZM327.093 90.167V88.311H338.261L336.453 89.879V86.519C336.453 85.911 336.373 85.4257 336.213 85.063C336.053 84.6897 335.818 84.4177 335.509 84.247C335.21 84.0763 334.847 83.991 334.421 83.991C333.962 83.991 333.53 84.0817 333.125 84.263C332.719 84.4443 332.335 84.679 331.973 84.967C331.621 85.255 331.295 85.5643 330.997 85.895C330.698 86.2257 330.431 86.5457 330.197 86.855C329.962 87.1537 329.759 87.4097 329.589 87.623L329.109 86.071C329.546 85.5163 329.951 84.999 330.325 84.519C330.709 84.039 331.109 83.623 331.525 83.271C331.941 82.9083 332.399 82.631 332.901 82.439C333.402 82.2363 333.983 82.135 334.645 82.135C335.359 82.135 335.962 82.2577 336.453 82.503C336.954 82.7377 337.365 83.063 337.685 83.479C338.005 83.895 338.234 84.3643 338.373 84.887C338.511 85.4097 338.581 85.9537 338.581 86.519V90.167H327.093ZM328.197 88.311V78.855H330.325V88.311H328.197ZM327.093 90.167C327.029 90.167 326.981 90.1457 326.949 90.103C326.906 90.0603 326.874 90.0017 326.853 89.927C326.821 89.8417 326.799 89.7403 326.789 89.623C326.778 89.5057 326.773 89.3777 326.773 89.239C326.773 89.047 326.783 88.887 326.805 88.759C326.826 88.6203 326.863 88.5137 326.917 88.439C326.959 88.3537 327.018 88.311 327.093 88.311V90.167ZM332.821 80.663V78.839H334.965V80.663H332.821ZM347.926 90.167V88.311H349.606V90.167H347.926ZM343.606 94.135C343.211 94.135 342.795 94.103 342.358 94.039C341.931 93.9857 341.473 93.911 340.982 93.815L341.302 92.103C341.835 92.167 342.289 92.215 342.662 92.247C343.035 92.279 343.35 92.295 343.606 92.295C344.374 92.295 344.929 92.1563 345.27 91.879C345.611 91.6017 345.782 91.1857 345.782 90.631V83.607L346.31 83.991H344.31C343.873 83.991 343.521 84.0443 343.254 84.151C342.987 84.247 342.79 84.455 342.662 84.775C342.545 85.0843 342.486 85.559 342.486 86.199C342.486 86.807 342.539 87.2657 342.646 87.575C342.763 87.8737 342.955 88.071 343.222 88.167C343.489 88.263 343.851 88.311 344.31 88.311H345.782V90.167H344.31C343.403 90.167 342.657 90.023 342.07 89.735C341.483 89.447 341.046 89.0097 340.758 88.423C340.481 87.8363 340.342 87.095 340.342 86.199C340.342 85.303 340.481 84.5563 340.758 83.959C341.046 83.351 341.483 82.8977 342.07 82.599C342.657 82.2897 343.403 82.135 344.31 82.135H347.926V90.631C347.926 91.3563 347.745 91.9803 347.382 92.503C347.03 93.0363 346.529 93.4417 345.878 93.719C345.238 93.9963 344.481 94.135 343.606 94.135ZM349.606 90.167V88.311C349.67 88.311 349.718 88.3323 349.75 88.375C349.793 88.4177 349.825 88.4817 349.846 88.567C349.878 88.6523 349.899 88.7537 349.91 88.871C349.921 88.9777 349.926 89.1003 349.926 89.239C349.926 89.3777 349.921 89.5057 349.91 89.623C349.899 89.7403 349.878 89.8417 349.846 89.927C349.825 90.0017 349.793 90.0603 349.75 90.103C349.718 90.1457 349.67 90.167 349.606 90.167ZM349.608 90.167V88.311H357.912L356.936 89.143V86.199C356.936 85.623 356.872 85.175 356.744 84.855C356.616 84.5243 356.392 84.295 356.072 84.167C355.763 84.0283 355.331 83.959 354.776 83.959C354.339 83.959 353.907 83.991 353.48 84.055C353.064 84.1083 352.739 84.183 352.504 84.279L353.832 83.031C353.768 83.2763 353.704 83.5857 353.64 83.959C353.587 84.3323 353.539 84.7323 353.496 85.159C353.454 85.575 353.432 85.9857 353.432 86.391C353.432 86.7643 353.448 87.1537 353.48 87.559C353.523 87.9643 353.566 88.3217 353.608 88.631C353.662 88.9403 353.704 89.1537 353.736 89.271L351.704 89.831C351.662 89.6817 351.608 89.4363 351.544 89.095C351.48 88.7537 351.422 88.3483 351.368 87.879C351.326 87.4097 351.304 86.9137 351.304 86.391C351.304 85.8577 351.331 85.3457 351.384 84.855C351.438 84.3537 351.496 83.9057 351.56 83.511C351.635 83.1057 351.704 82.7803 351.768 82.535C352.024 82.439 352.424 82.343 352.968 82.247C353.512 82.151 354.115 82.103 354.776 82.103C355.736 82.103 356.531 82.2363 357.16 82.503C357.8 82.7697 358.275 83.2017 358.584 83.799C358.904 84.3963 359.064 85.2017 359.064 86.215V90.167H349.608ZM349.608 90.167C349.544 90.167 349.496 90.1457 349.464 90.103C349.422 90.0603 349.39 90.0017 349.368 89.927C349.336 89.8417 349.315 89.7403 349.304 89.623C349.294 89.5057 349.288 89.3777 349.288 89.239C349.288 89.047 349.299 88.887 349.32 88.759C349.342 88.6203 349.379 88.5137 349.432 88.439C349.475 88.3537 349.534 88.311 349.608 88.311V90.167ZM378.151 90.167V78.855H380.295V90.167H378.151ZM376.343 90.167V88.311H378.151V90.167H376.343ZM376.343 90.167C376.279 90.167 376.226 90.1457 376.183 90.103C376.151 90.0603 376.119 90.0017 376.087 89.927C376.066 89.8417 376.05 89.7403 376.039 89.623C376.028 89.5057 376.023 89.3777 376.023 89.239C376.023 89.047 376.034 88.887 376.055 88.759C376.076 88.6203 376.108 88.5137 376.151 88.439C376.204 88.3537 376.268 88.311 376.343 88.311V90.167ZM369.191 94.135C368.498 94.135 367.852 94.0337 367.255 93.831C366.668 93.639 366.156 93.367 365.719 93.015C365.282 92.6737 364.935 92.263 364.679 91.783C364.434 91.3137 364.311 90.8017 364.311 90.247C364.311 90.0443 364.327 89.783 364.359 89.463C364.391 89.143 364.434 88.775 364.487 88.359C364.551 87.943 364.62 87.5003 364.695 87.031L366.807 87.319C366.7 87.991 366.615 88.5883 366.551 89.111C366.487 89.6337 366.455 90.0017 366.455 90.215C366.455 90.6203 366.567 90.9777 366.791 91.287C367.015 91.5963 367.33 91.8363 367.735 92.007C368.151 92.1883 368.636 92.279 369.191 92.279H373.719C374.412 92.279 374.93 92.103 375.271 91.751C375.612 91.399 375.783 90.887 375.783 90.215V89.607H377.911V90.215C377.911 90.983 377.74 91.6603 377.399 92.247C377.058 92.8337 376.572 93.2923 375.943 93.623C375.324 93.9643 374.583 94.135 373.719 94.135H369.191ZM375.079 90.167C374.588 90.167 374.114 90.1137 373.655 90.007C373.207 89.9003 372.78 89.7083 372.375 89.431L373.591 87.895C373.762 88.0123 373.911 88.103 374.039 88.167C374.178 88.2203 374.327 88.2577 374.487 88.279C374.658 88.3003 374.855 88.311 375.079 88.311H378.615V90.167H375.079ZM378.615 90.167V88.311C378.668 88.311 378.716 88.3323 378.759 88.375C378.802 88.4177 378.834 88.4817 378.855 88.567C378.876 88.6523 378.892 88.7537 378.903 88.871C378.924 88.9777 378.935 89.1003 378.935 89.239C378.935 89.3777 378.924 89.5057 378.903 89.623C378.892 89.7403 378.876 89.8417 378.855 89.927C378.834 90.0017 378.802 90.0603 378.759 90.103C378.716 90.1457 378.668 90.167 378.615 90.167ZM368.647 97.431V95.607H370.711V97.431H368.647ZM371.559 97.431V95.607H373.623V97.431H371.559ZM384.989 90.167V88.311H386.813V90.167H384.989ZM382.861 90.167V78.855H384.989V90.167H382.861ZM386.813 90.167V88.311C386.877 88.311 386.925 88.3323 386.957 88.375C387 88.4177 387.032 88.4817 387.053 88.567C387.085 88.6523 387.106 88.7537 387.117 88.871C387.128 88.9777 387.133 89.1003 387.133 89.239C387.133 89.3777 387.128 89.5057 387.117 89.623C387.106 89.7403 387.085 89.8417 387.053 89.927C387.032 90.0017 387 90.0603 386.957 90.103C386.925 90.1457 386.877 90.167 386.813 90.167ZM396.268 90.167V88.311H397.964V90.167H396.268ZM386.812 90.167C386.748 90.167 386.7 90.1457 386.668 90.103C386.625 90.0603 386.593 90.0017 386.572 89.927C386.54 89.8417 386.518 89.7403 386.508 89.623C386.497 89.5057 386.492 89.3777 386.492 89.239C386.492 89.047 386.502 88.887 386.524 88.759C386.545 88.6203 386.582 88.5137 386.636 88.439C386.678 88.3537 386.737 88.311 386.812 88.311V90.167ZM386.812 90.167V88.311H395.116L394.14 89.143V86.199C394.14 85.623 394.076 85.175 393.948 84.855C393.82 84.5243 393.596 84.295 393.276 84.167C392.966 84.0283 392.534 83.959 391.98 83.959C391.542 83.959 391.11 83.991 390.684 84.055C390.268 84.1083 389.942 84.183 389.708 84.279L391.036 83.031C390.972 83.2763 390.908 83.5857 390.844 83.959C390.79 84.3323 390.742 84.7323 390.7 85.159C390.657 85.575 390.636 85.9857 390.636 86.391C390.636 86.7643 390.652 87.1537 390.684 87.559C390.726 87.9643 390.769 88.3217 390.812 88.631C390.865 88.9403 390.908 89.1537 390.94 89.271L388.908 89.831C388.865 89.6817 388.812 89.4363 388.748 89.095C388.684 88.7537 388.625 88.3483 388.572 87.879C388.529 87.4097 388.508 86.9137 388.508 86.391C388.508 85.8577 388.534 85.3457 388.588 84.855C388.641 84.3537 388.7 83.9057 388.764 83.511C388.838 83.1057 388.908 82.7803 388.972 82.535C389.228 82.439 389.628 82.343 390.172 82.247C390.716 82.151 391.318 82.103 391.98 82.103C392.94 82.103 393.734 82.2363 394.364 82.503C395.004 82.7697 395.478 83.2017 395.788 83.799C396.108 84.3963 396.268 85.2017 396.268 86.215V90.167H386.812ZM397.964 90.167V88.311C398.017 88.311 398.065 88.3323 398.108 88.375C398.15 88.4177 398.182 88.4817 398.204 88.567C398.225 88.6523 398.241 88.7537 398.252 88.871C398.273 88.9777 398.284 89.1003 398.284 89.239C398.284 89.3777 398.273 89.5057 398.252 89.623C398.241 89.7403 398.225 89.8417 398.204 89.927C398.182 90.0017 398.15 90.0603 398.108 90.103C398.065 90.1457 398.017 90.167 397.964 90.167ZM397.968 90.167V88.311H404.848L404.128 88.903V85.943C404.128 85.303 403.925 84.8177 403.52 84.487C403.125 84.1563 402.496 83.991 401.632 83.991C401.386 83.991 401.05 84.0123 400.624 84.055C400.197 84.087 399.733 84.1403 399.232 84.215L399.024 82.519C399.482 82.4123 399.946 82.3217 400.416 82.247C400.896 82.1723 401.365 82.135 401.824 82.135C402.698 82.135 403.466 82.2897 404.128 82.599C404.789 82.8977 405.306 83.3297 405.68 83.895C406.064 84.4603 406.256 85.143 406.256 85.943V90.167H397.968ZM397.968 90.167C397.904 90.167 397.856 90.1457 397.824 90.103C397.781 90.0603 397.749 90.0017 397.728 89.927C397.696 89.8417 397.674 89.7403 397.664 89.623C397.653 89.5057 397.648 89.3777 397.648 89.239C397.648 89.047 397.658 88.887 397.68 88.759C397.701 88.6203 397.738 88.5137 397.792 88.439C397.834 88.3537 397.893 88.311 397.968 88.311V90.167ZM401.056 93.575V91.751H403.2V93.575H401.056ZM408.658 90.167V78.855H410.786V90.167H408.658ZM408.754 94.951C408.551 94.7057 408.396 94.471 408.29 94.247C408.183 94.023 408.13 93.783 408.13 93.527C408.13 93.1643 408.226 92.8337 408.418 92.535C408.61 92.247 408.86 92.0177 409.17 91.847C409.479 91.687 409.82 91.607 410.194 91.607C410.396 91.607 410.604 91.6337 410.818 91.687C411.031 91.7403 411.212 91.8203 411.362 91.927L410.818 92.903C410.722 92.8497 410.626 92.8123 410.53 92.791C410.444 92.7803 410.354 92.775 410.258 92.775C410.002 92.775 409.804 92.839 409.666 92.967C409.527 93.1057 409.458 93.287 409.458 93.511C409.458 93.639 409.484 93.7617 409.538 93.879C409.591 93.9963 409.671 94.1243 409.778 94.263L408.754 94.951ZM407.778 95.079V93.911H411.65V95.079H407.778ZM425.798 90.167V88.311H427.478V90.167H425.798ZM421.19 94.135C420.262 94.135 419.43 93.9643 418.694 93.623C417.968 93.2923 417.398 92.8283 416.982 92.231C416.566 91.6337 416.358 90.9563 416.358 90.199C416.358 89.9857 416.374 89.703 416.406 89.351C416.438 88.999 416.48 88.6043 416.534 88.167C416.598 87.7297 416.662 87.287 416.726 86.839C416.8 86.3803 416.87 85.9377 416.934 85.511L419.046 85.799C418.928 86.5137 418.827 87.1697 418.742 87.767C418.667 88.3537 418.608 88.855 418.566 89.271C418.523 89.687 418.502 89.991 418.502 90.183C418.502 90.6097 418.608 90.9777 418.822 91.287C419.035 91.5963 419.339 91.8363 419.734 92.007C420.139 92.1883 420.624 92.279 421.19 92.279C421.776 92.279 422.251 92.1937 422.614 92.023C422.976 91.8523 423.238 91.6177 423.398 91.319C423.568 91.0203 423.654 90.6843 423.654 90.311V82.135H425.798V90.311C425.798 91.079 425.595 91.751 425.19 92.327C424.795 92.903 424.251 93.3457 423.558 93.655C422.864 93.975 422.075 94.135 421.19 94.135ZM427.478 90.167V88.311C427.542 88.311 427.59 88.3323 427.622 88.375C427.664 88.4177 427.696 88.4817 427.718 88.567C427.75 88.6523 427.771 88.7537 427.782 88.871C427.792 88.9777 427.798 89.1003 427.798 89.239C427.798 89.3777 427.792 89.5057 427.782 89.623C427.771 89.7403 427.75 89.8417 427.718 89.927C427.696 90.0017 427.664 90.0603 427.622 90.103C427.59 90.1457 427.542 90.167 427.478 90.167ZM420.022 81.559V79.735H422.166V81.559H420.022ZM427.483 90.167V88.311H435.787L434.811 89.143V86.199C434.811 85.623 434.747 85.175 434.619 84.855C434.491 84.5243 434.267 84.295 433.947 84.167C433.638 84.0283 433.206 83.959 432.651 83.959C432.214 83.959 431.782 83.991 431.355 84.055C430.939 84.1083 430.614 84.183 430.379 84.279L431.707 83.031C431.643 83.2763 431.579 83.5857 431.515 83.959C431.462 84.3323 431.414 84.7323 431.371 85.159C431.329 85.575 431.307 85.9857 431.307 86.391C431.307 86.7643 431.323 87.1537 431.355 87.559C431.398 87.9643 431.441 88.3217 431.483 88.631C431.537 88.9403 431.579 89.1537 431.611 89.271L429.579 89.831C429.537 89.6817 429.483 89.4363 429.419 89.095C429.355 88.7537 429.297 88.3483 429.243 87.879C429.201 87.4097 429.179 86.9137 429.179 86.391C429.179 85.8577 429.206 85.3457 429.259 84.855C429.313 84.3537 429.371 83.9057 429.435 83.511C429.51 83.1057 429.579 82.7803 429.643 82.535C429.899 82.439 430.299 82.343 430.843 82.247C431.387 82.151 431.99 82.103 432.651 82.103C433.611 82.103 434.406 82.2363 435.035 82.503C435.675 82.7697 436.15 83.2017 436.459 83.799C436.779 84.3963 436.939 85.2017 436.939 86.215V90.167H427.483ZM427.483 90.167C427.419 90.167 427.371 90.1457 427.339 90.103C427.297 90.0603 427.265 90.0017 427.243 89.927C427.211 89.8417 427.19 89.7403 427.179 89.623C427.169 89.5057 427.163 89.3777 427.163 89.239C427.163 89.047 427.174 88.887 427.195 88.759C427.217 88.6203 427.254 88.5137 427.307 88.439C427.35 88.3537 427.409 88.311 427.483 88.311V90.167Z" fill="#333333"/>
<path d="M446.788 173.281L446.036 173.089L449.044 161.665L449.812 161.873L446.788 173.281ZM445.476 166.929C444.804 166.929 444.308 166.732 443.988 166.337C443.668 165.943 443.508 165.308 443.508 164.433C443.508 163.569 443.668 162.945 443.988 162.561C444.308 162.177 444.804 161.985 445.476 161.985C445.935 161.985 446.308 162.071 446.596 162.241C446.884 162.401 447.097 162.663 447.236 163.025C447.375 163.388 447.444 163.857 447.444 164.433C447.444 165.308 447.284 165.943 446.964 166.337C446.644 166.732 446.148 166.929 445.476 166.929ZM445.476 165.761C445.625 165.761 445.743 165.724 445.828 165.649C445.913 165.564 445.972 165.425 446.004 165.233C446.047 165.031 446.068 164.764 446.068 164.433C446.068 164.103 446.047 163.847 446.004 163.665C445.972 163.473 445.913 163.34 445.828 163.265C445.743 163.18 445.625 163.137 445.476 163.137C445.327 163.137 445.209 163.18 445.124 163.265C445.039 163.34 444.98 163.473 444.948 163.665C444.916 163.847 444.9 164.103 444.9 164.433C444.9 164.764 444.916 165.031 444.948 165.233C444.98 165.425 445.039 165.564 445.124 165.649C445.209 165.724 445.327 165.761 445.476 165.761ZM450.404 172.865C449.721 172.865 449.22 172.668 448.9 172.273C448.58 171.868 448.42 171.233 448.42 170.369C448.42 169.495 448.58 168.865 448.9 168.481C449.22 168.097 449.721 167.905 450.404 167.905C450.852 167.905 451.22 167.991 451.508 168.161C451.796 168.332 452.009 168.599 452.148 168.961C452.297 169.324 452.372 169.793 452.372 170.369C452.372 171.233 452.207 171.868 451.876 172.273C451.556 172.668 451.065 172.865 450.404 172.865ZM450.404 171.697C450.543 171.697 450.655 171.66 450.74 171.585C450.836 171.5 450.9 171.361 450.932 171.169C450.964 170.967 450.98 170.7 450.98 170.369C450.98 170.028 450.964 169.767 450.932 169.585C450.9 169.393 450.841 169.265 450.756 169.201C450.671 169.127 450.553 169.089 450.404 169.089C450.244 169.089 450.121 169.127 450.036 169.201C449.951 169.265 449.892 169.393 449.86 169.585C449.828 169.767 449.812 170.028 449.812 170.369C449.812 170.7 449.828 170.967 449.86 171.169C449.903 171.361 449.967 171.5 450.052 171.585C450.137 171.66 450.255 171.697 450.404 171.697ZM457.278 172.865C455.902 172.865 454.894 172.391 454.254 171.441C453.614 170.492 453.294 169.153 453.294 167.425C453.294 166.401 453.395 165.543 453.598 164.849C453.811 164.145 454.104 163.585 454.478 163.169C454.862 162.743 455.315 162.433 455.838 162.241C456.36 162.049 456.936 161.953 457.566 161.953C457.896 161.953 458.254 161.975 458.638 162.017C459.032 162.06 459.416 162.113 459.79 162.177C460.163 162.231 460.478 162.284 460.734 162.337L460.558 163.985C460.334 163.964 460.051 163.937 459.71 163.905C459.379 163.873 459.032 163.847 458.67 163.825C458.307 163.793 457.96 163.777 457.63 163.777C456.904 163.777 456.36 164.007 455.998 164.465C455.635 164.913 455.443 165.559 455.422 166.401C455.528 166.369 455.662 166.332 455.822 166.289C455.992 166.236 456.174 166.183 456.366 166.129C456.568 166.065 456.771 166.017 456.974 165.985C457.176 165.943 457.368 165.921 457.55 165.921C458.734 165.921 459.619 166.199 460.206 166.753C460.803 167.297 461.102 168.156 461.102 169.329C461.102 170.119 460.947 170.775 460.638 171.297C460.328 171.82 459.891 172.215 459.326 172.481C458.76 172.737 458.078 172.865 457.278 172.865ZM457.278 171.073C457.864 171.073 458.302 170.924 458.59 170.625C458.888 170.316 459.038 169.884 459.038 169.329C459.038 168.775 458.888 168.369 458.59 168.113C458.291 167.847 457.87 167.713 457.326 167.713C457.102 167.713 456.867 167.735 456.622 167.777C456.376 167.82 456.147 167.879 455.934 167.953C455.72 168.017 455.544 168.081 455.406 168.145C455.416 168.711 455.48 169.217 455.598 169.665C455.715 170.103 455.907 170.449 456.174 170.705C456.451 170.951 456.819 171.073 457.278 171.073ZM466.12 172.865C465.715 172.865 465.278 172.833 464.808 172.769C464.339 172.716 463.886 172.647 463.448 172.561C463.011 172.476 462.638 172.401 462.328 172.337L462.52 170.705C462.808 170.748 463.15 170.801 463.544 170.865C463.939 170.919 464.344 170.961 464.76 170.993C465.176 171.025 465.555 171.041 465.896 171.041C466.44 171.041 466.872 170.903 467.192 170.625C467.512 170.337 467.672 169.921 467.672 169.377C467.672 169.004 467.603 168.711 467.464 168.497C467.336 168.284 467.144 168.135 466.888 168.049C466.643 167.953 466.355 167.905 466.024 167.905C465.768 167.905 465.512 167.932 465.256 167.985C465 168.028 464.76 168.087 464.536 168.161C464.312 168.225 464.131 168.295 463.992 168.369L462.552 168.145L462.808 162.129H469.416L469.416 164.065H464.536L464.328 166.417C464.478 166.353 464.664 166.289 464.888 166.225C465.112 166.151 465.352 166.087 465.608 166.033C465.875 165.98 466.131 165.953 466.376 165.953C467.112 165.953 467.736 166.055 468.248 166.257C468.76 166.46 469.15 166.796 469.416 167.265C469.694 167.735 469.832 168.375 469.832 169.185C469.832 170.028 469.678 170.721 469.368 171.265C469.07 171.799 468.643 172.199 468.088 172.465C467.544 172.732 466.888 172.865 466.12 172.865Z" fill="#333333"/>
<path d="M327.788 189.946L327.036 189.754L330.044 178.33L330.812 178.538L327.788 189.946ZM326.476 183.594C325.804 183.594 325.308 183.397 324.988 183.002C324.668 182.608 324.508 181.973 324.508 181.098C324.508 180.234 324.668 179.61 324.988 179.226C325.308 178.842 325.804 178.65 326.476 178.65C326.935 178.65 327.308 178.736 327.596 178.906C327.884 179.066 328.097 179.328 328.236 179.69C328.375 180.053 328.444 180.522 328.444 181.098C328.444 181.973 328.284 182.608 327.964 183.002C327.644 183.397 327.148 183.594 326.476 183.594ZM326.476 182.426C326.625 182.426 326.743 182.389 326.828 182.314C326.913 182.229 326.972 182.09 327.004 181.898C327.047 181.696 327.068 181.429 327.068 181.098C327.068 180.768 327.047 180.512 327.004 180.33C326.972 180.138 326.913 180.005 326.828 179.93C326.743 179.845 326.625 179.802 326.476 179.802C326.327 179.802 326.209 179.845 326.124 179.93C326.039 180.005 325.98 180.138 325.948 180.33C325.916 180.512 325.9 180.768 325.9 181.098C325.9 181.429 325.916 181.696 325.948 181.898C325.98 182.09 326.039 182.229 326.124 182.314C326.209 182.389 326.327 182.426 326.476 182.426ZM331.404 189.53C330.721 189.53 330.22 189.333 329.9 188.938C329.58 188.533 329.42 187.898 329.42 187.034C329.42 186.16 329.58 185.53 329.9 185.146C330.22 184.762 330.721 184.57 331.404 184.57C331.852 184.57 332.22 184.656 332.508 184.826C332.796 184.997 333.009 185.264 333.148 185.626C333.297 185.989 333.372 186.458 333.372 187.034C333.372 187.898 333.207 188.533 332.876 188.938C332.556 189.333 332.065 189.53 331.404 189.53ZM331.404 188.362C331.543 188.362 331.655 188.325 331.74 188.25C331.836 188.165 331.9 188.026 331.932 187.834C331.964 187.632 331.98 187.365 331.98 187.034C331.98 186.693 331.964 186.432 331.932 186.25C331.9 186.058 331.841 185.93 331.756 185.866C331.671 185.792 331.553 185.754 331.404 185.754C331.244 185.754 331.121 185.792 331.036 185.866C330.951 185.93 330.892 186.058 330.86 186.25C330.828 186.432 330.812 186.693 330.812 187.034C330.812 187.365 330.828 187.632 330.86 187.834C330.903 188.026 330.967 188.165 331.052 188.25C331.137 188.325 331.255 188.362 331.404 188.362ZM338.278 189.53C336.902 189.53 335.894 189.056 335.254 188.106C334.614 187.157 334.294 185.818 334.294 184.09C334.294 183.066 334.395 182.208 334.598 181.514C334.811 180.81 335.104 180.25 335.478 179.834C335.862 179.408 336.315 179.098 336.838 178.906C337.36 178.714 337.936 178.618 338.566 178.618C338.896 178.618 339.254 178.64 339.638 178.682C340.032 178.725 340.416 178.778 340.79 178.842C341.163 178.896 341.478 178.949 341.734 179.002L341.558 180.65C341.334 180.629 341.051 180.602 340.71 180.57C340.379 180.538 340.032 180.512 339.67 180.49C339.307 180.458 338.96 180.442 338.63 180.442C337.904 180.442 337.36 180.672 336.998 181.13C336.635 181.578 336.443 182.224 336.422 183.066C336.528 183.034 336.662 182.997 336.822 182.954C336.992 182.901 337.174 182.848 337.366 182.794C337.568 182.73 337.771 182.682 337.974 182.65C338.176 182.608 338.368 182.586 338.55 182.586C339.734 182.586 340.619 182.864 341.206 183.418C341.803 183.962 342.102 184.821 342.102 185.994C342.102 186.784 341.947 187.44 341.638 187.962C341.328 188.485 340.891 188.88 340.326 189.146C339.76 189.402 339.078 189.53 338.278 189.53ZM338.278 187.738C338.864 187.738 339.302 187.589 339.59 187.29C339.888 186.981 340.038 186.549 340.038 185.994C340.038 185.44 339.888 185.034 339.59 184.778C339.291 184.512 338.87 184.378 338.326 184.378C338.102 184.378 337.867 184.4 337.622 184.442C337.376 184.485 337.147 184.544 336.934 184.618C336.72 184.682 336.544 184.746 336.406 184.81C336.416 185.376 336.48 185.882 336.598 186.33C336.715 186.768 336.907 187.114 337.174 187.37C337.451 187.616 337.819 187.738 338.278 187.738ZM346.88 189.53C346.486 189.53 346.07 189.509 345.632 189.466C345.206 189.424 344.795 189.37 344.4 189.306C344.016 189.232 343.696 189.168 343.44 189.114L343.536 187.402C343.792 187.434 344.096 187.472 344.448 187.514C344.811 187.557 345.179 187.594 345.552 187.626C345.936 187.648 346.288 187.658 346.608 187.658C347.216 187.658 347.67 187.546 347.968 187.322C348.267 187.098 348.416 186.736 348.416 186.234C348.416 185.893 348.347 185.626 348.208 185.434C348.08 185.232 347.888 185.082 347.632 184.986C347.387 184.89 347.099 184.837 346.768 184.826H344.592L344.592 183.066H346.72C346.966 183.066 347.2 183.013 347.424 182.906C347.659 182.8 347.846 182.645 347.984 182.442C348.134 182.24 348.208 181.994 348.208 181.706C348.208 181.258 348.07 180.944 347.792 180.762C347.526 180.57 347.088 180.474 346.48 180.474C346.16 180.474 345.824 180.49 345.472 180.522C345.12 180.554 344.784 180.592 344.464 180.634C344.144 180.666 343.878 180.704 343.664 180.746L343.568 179.066C343.803 179.002 344.091 178.938 344.432 178.874C344.774 178.8 345.136 178.741 345.52 178.698C345.904 178.645 346.267 178.618 346.608 178.618C347.515 178.618 348.246 178.714 348.8 178.906C349.366 179.088 349.776 179.392 350.032 179.818C350.288 180.234 350.416 180.784 350.416 181.466C350.416 181.84 350.368 182.154 350.272 182.41C350.187 182.666 350.07 182.885 349.92 183.066C349.782 183.248 349.638 183.397 349.488 183.514C349.339 183.621 349.2 183.717 349.072 183.802C349.392 183.952 349.67 184.117 349.904 184.298C350.139 184.48 350.32 184.72 350.448 185.018C350.576 185.317 350.64 185.717 350.64 186.218C350.64 187.018 350.502 187.664 350.224 188.154C349.947 188.634 349.531 188.986 348.976 189.21C348.422 189.424 347.723 189.53 346.88 189.53Z" fill="#333333"/>
<path d="M422.812 189.354L422.812 402.188L492.812 402.187L492.812 189.354L422.812 189.354Z" fill="#062E4A"/>
<path d="M302.812 198.068L302.812 402.188L372.812 402.187L372.812 198.068L302.812 198.068Z" fill="#062E4A"/>
<path d="M206.788 234.084L206.036 233.892L209.044 222.468L209.812 222.676L206.788 234.084ZM205.476 227.732C204.804 227.732 204.308 227.535 203.988 227.14C203.668 226.746 203.508 226.111 203.508 225.236C203.508 224.372 203.668 223.748 203.988 223.364C204.308 222.98 204.804 222.788 205.476 222.788C205.935 222.788 206.308 222.874 206.596 223.044C206.884 223.204 207.097 223.466 207.236 223.828C207.375 224.191 207.444 224.66 207.444 225.236C207.444 226.111 207.284 226.746 206.964 227.14C206.644 227.535 206.148 227.732 205.476 227.732ZM205.476 226.564C205.625 226.564 205.743 226.527 205.828 226.452C205.913 226.367 205.972 226.228 206.004 226.036C206.047 225.834 206.068 225.567 206.068 225.236C206.068 224.906 206.047 224.65 206.004 224.468C205.972 224.276 205.913 224.143 205.828 224.068C205.743 223.983 205.625 223.94 205.476 223.94C205.327 223.94 205.209 223.983 205.124 224.068C205.039 224.143 204.98 224.276 204.948 224.468C204.916 224.65 204.9 224.906 204.9 225.236C204.9 225.567 204.916 225.834 204.948 226.036C204.98 226.228 205.039 226.367 205.124 226.452C205.209 226.527 205.327 226.564 205.476 226.564ZM210.404 233.668C209.721 233.668 209.22 233.471 208.9 233.076C208.58 232.671 208.42 232.036 208.42 231.172C208.42 230.298 208.58 229.668 208.9 229.284C209.22 228.9 209.721 228.708 210.404 228.708C210.852 228.708 211.22 228.794 211.508 228.964C211.796 229.135 212.009 229.402 212.148 229.764C212.297 230.127 212.372 230.596 212.372 231.172C212.372 232.036 212.207 232.671 211.876 233.076C211.556 233.471 211.065 233.668 210.404 233.668ZM210.404 232.5C210.543 232.5 210.655 232.463 210.74 232.388C210.836 232.303 210.9 232.164 210.932 231.972C210.964 231.77 210.98 231.503 210.98 231.172C210.98 230.831 210.964 230.57 210.932 230.388C210.9 230.196 210.841 230.068 210.756 230.004C210.671 229.93 210.553 229.892 210.404 229.892C210.244 229.892 210.121 229.93 210.036 230.004C209.951 230.068 209.892 230.196 209.86 230.388C209.828 230.57 209.812 230.831 209.812 231.172C209.812 231.503 209.828 231.77 209.86 231.972C209.903 232.164 209.967 232.303 210.052 232.388C210.137 232.463 210.255 232.5 210.404 232.5ZM217.23 233.668C216.824 233.668 216.387 233.636 215.918 233.572C215.448 233.519 214.995 233.45 214.558 233.364C214.12 233.279 213.747 233.204 213.438 233.14L213.63 231.508C213.918 231.551 214.259 231.604 214.654 231.668C215.048 231.722 215.454 231.764 215.87 231.796C216.286 231.828 216.664 231.844 217.006 231.844C217.55 231.844 217.982 231.706 218.302 231.428C218.622 231.14 218.782 230.724 218.782 230.18C218.782 229.807 218.712 229.514 218.574 229.3C218.446 229.087 218.254 228.938 217.998 228.852C217.752 228.756 217.464 228.708 217.134 228.708C216.878 228.708 216.622 228.735 216.366 228.788C216.11 228.831 215.87 228.89 215.646 228.964C215.422 229.028 215.24 229.098 215.102 229.172L213.662 228.948L213.918 222.932H220.526L220.526 224.868H215.646L215.438 227.22C215.587 227.156 215.774 227.092 215.998 227.028C216.222 226.954 216.462 226.89 216.718 226.836C216.984 226.783 217.24 226.756 217.486 226.756C218.222 226.756 218.846 226.858 219.358 227.06C219.87 227.263 220.259 227.599 220.526 228.068C220.803 228.538 220.942 229.178 220.942 229.988C220.942 230.831 220.787 231.524 220.478 232.068C220.179 232.602 219.752 233.002 219.198 233.268C218.654 233.535 217.998 233.668 217.23 233.668ZM226.12 233.668C225.715 233.668 225.278 233.636 224.808 233.572C224.339 233.519 223.886 233.45 223.448 233.364C223.011 233.279 222.638 233.204 222.328 233.14L222.52 231.508C222.808 231.551 223.15 231.604 223.544 231.668C223.939 231.722 224.344 231.764 224.76 231.796C225.176 231.828 225.555 231.844 225.896 231.844C226.44 231.844 226.872 231.706 227.192 231.428C227.512 231.14 227.672 230.724 227.672 230.18C227.672 229.807 227.603 229.514 227.464 229.3C227.336 229.087 227.144 228.938 226.888 228.852C226.643 228.756 226.355 228.708 226.024 228.708C225.768 228.708 225.512 228.735 225.256 228.788C225 228.831 224.76 228.89 224.536 228.964C224.312 229.028 224.131 229.098 223.992 229.172L222.552 228.948L222.808 222.932H229.416L229.416 224.868H224.536L224.328 227.22C224.478 227.156 224.664 227.092 224.888 227.028C225.112 226.954 225.352 226.89 225.608 226.836C225.875 226.783 226.131 226.756 226.376 226.756C227.112 226.756 227.736 226.858 228.248 227.06C228.76 227.263 229.15 227.599 229.416 228.068C229.694 228.538 229.832 229.178 229.832 229.988C229.832 230.831 229.678 231.524 229.368 232.068C229.07 232.602 228.643 233.002 228.088 233.268C227.544 233.535 226.888 233.668 226.12 233.668Z" fill="#333333"/>
<path d="M87.288 251.004L86.536 250.812L89.544 239.388L90.312 239.596L87.288 251.004ZM85.976 244.652C85.304 244.652 84.808 244.455 84.488 244.06C84.168 243.665 84.008 243.031 84.008 242.156C84.008 241.292 84.168 240.668 84.488 240.284C84.808 239.9 85.304 239.708 85.976 239.708C86.4347 239.708 86.808 239.793 87.096 239.964C87.384 240.124 87.5974 240.385 87.736 240.748C87.8747 241.111 87.944 241.58 87.944 242.156C87.944 243.031 87.784 243.665 87.464 244.06C87.144 244.455 86.648 244.652 85.976 244.652ZM85.976 243.484C86.1254 243.484 86.2427 243.447 86.328 243.372C86.4134 243.287 86.472 243.148 86.504 242.956C86.5467 242.753 86.568 242.487 86.568 242.156C86.568 241.825 86.5467 241.569 86.504 241.388C86.472 241.196 86.4134 241.063 86.328 240.988C86.2427 240.903 86.1254 240.86 85.976 240.86C85.8267 240.86 85.7094 240.903 85.624 240.988C85.5387 241.063 85.48 241.196 85.448 241.388C85.416 241.569 85.4 241.825 85.4 242.156C85.4 242.487 85.416 242.753 85.448 242.956C85.48 243.148 85.5387 243.287 85.624 243.372C85.7094 243.447 85.8267 243.484 85.976 243.484ZM90.904 250.588C90.2214 250.588 89.72 250.391 89.4 249.996C89.08 249.591 88.92 248.956 88.92 248.092C88.92 247.217 89.08 246.588 89.4 246.204C89.72 245.82 90.2214 245.628 90.904 245.628C91.352 245.628 91.72 245.713 92.008 245.884C92.296 246.055 92.5094 246.321 92.648 246.684C92.7974 247.047 92.872 247.516 92.872 248.092C92.872 248.956 92.7067 249.591 92.376 249.996C92.056 250.391 91.5654 250.588 90.904 250.588ZM90.904 249.42C91.0427 249.42 91.1547 249.383 91.24 249.308C91.336 249.223 91.4 249.084 91.432 248.892C91.464 248.689 91.48 248.423 91.48 248.092C91.48 247.751 91.464 247.489 91.432 247.308C91.4 247.116 91.3414 246.988 91.256 246.924C91.1707 246.849 91.0534 246.812 90.904 246.812C90.744 246.812 90.6214 246.849 90.536 246.924C90.4507 246.988 90.392 247.116 90.36 247.308C90.328 247.489 90.312 247.751 90.312 248.092C90.312 248.423 90.328 248.689 90.36 248.892C90.4027 249.084 90.4667 249.223 90.552 249.308C90.6374 249.383 90.7547 249.42 90.904 249.42ZM98.5298 250.412L98.5298 248.652H93.7298L93.7298 247.052L96.1298 239.852H98.5938L95.9218 246.812H98.5298L98.6578 244.092L100.706 244.06L100.706 246.812H101.682L101.682 248.652H100.706L100.706 250.412H98.5298ZM106.524 250.588C105.81 250.588 105.143 250.503 104.524 250.332C103.916 250.161 103.426 249.863 103.052 249.436C102.679 249.009 102.492 248.423 102.492 247.676C102.492 247.143 102.556 246.716 102.684 246.396C102.823 246.076 103.015 245.804 103.26 245.58C103.506 245.356 103.799 245.143 104.14 244.94C103.628 244.663 103.255 244.343 103.02 243.98C102.786 243.617 102.668 243.105 102.668 242.444C102.668 241.793 102.828 241.265 103.148 240.86C103.479 240.455 103.932 240.156 104.508 239.964C105.095 239.772 105.767 239.676 106.524 239.676C107.282 239.676 107.954 239.767 108.54 239.948C109.138 240.129 109.602 240.428 109.932 240.844C110.274 241.249 110.444 241.788 110.444 242.46C110.444 243.143 110.327 243.66 110.092 244.012C109.858 244.353 109.463 244.668 108.908 244.956C109.282 245.127 109.591 245.324 109.836 245.548C110.092 245.761 110.284 246.028 110.412 246.348C110.54 246.668 110.604 247.079 110.604 247.58C110.604 248.359 110.418 248.967 110.044 249.404C109.671 249.841 109.175 250.151 108.556 250.332C107.948 250.503 107.271 250.588 106.524 250.588ZM106.524 248.844C106.898 248.844 107.223 248.801 107.5 248.716C107.788 248.62 108.007 248.465 108.156 248.252C108.316 248.028 108.396 247.724 108.396 247.34C108.396 247.041 108.338 246.796 108.22 246.604C108.114 246.401 107.959 246.236 107.756 246.108C107.564 245.98 107.351 245.879 107.116 245.804H105.916C105.543 245.921 105.244 246.108 105.02 246.364C104.807 246.609 104.7 246.951 104.7 247.388C104.7 247.74 104.775 248.023 104.924 248.236C105.084 248.449 105.303 248.604 105.58 248.7C105.858 248.796 106.172 248.844 106.524 248.844ZM105.916 244.188H107.116C107.468 244.049 107.746 243.868 107.948 243.644C108.151 243.42 108.252 243.127 108.252 242.764C108.252 242.284 108.103 241.937 107.804 241.724C107.516 241.511 107.095 241.404 106.54 241.404C105.996 241.404 105.58 241.511 105.292 241.724C105.004 241.937 104.86 242.279 104.86 242.748C104.86 243.121 104.951 243.42 105.132 243.644C105.314 243.868 105.575 244.049 105.916 244.188Z" fill="#333333"/>
<path d="M182.812 242.543L182.812 402.188L252.812 402.187L252.812 242.543L182.812 242.543Z" fill="#062E4A"/>
<path d="M62.8115 261.082L62.8115 402.188L132.812 402.187L132.812 261.082L62.8115 261.082Z" fill="#062E4A"/>
<line x1="0.149414" y1="401.807" x2="555.474" y2="401.807" stroke="#EBEFF8" stroke-width="4"/>
<path d="M77.265 441.972L77.265 439.812L80.285 436.712C80.8583 436.126 81.3516 435.612 81.765 435.172C82.1783 434.719 82.4916 434.292 82.705 433.892C82.9316 433.492 83.045 433.066 83.045 432.612C83.045 431.946 82.8583 431.499 82.485 431.272C82.1116 431.032 81.5116 430.912 80.685 430.912C80.3516 430.912 79.985 430.932 79.585 430.972C79.185 431.012 78.7983 431.059 78.425 431.112C78.065 431.166 77.7516 431.219 77.485 431.272L77.345 429.152C77.6383 429.072 77.9983 428.986 78.425 428.892C78.865 428.799 79.3383 428.719 79.845 428.652C80.365 428.572 80.8716 428.532 81.365 428.532C82.805 428.532 83.905 428.839 84.665 429.452C85.425 430.052 85.805 430.986 85.805 432.252C85.805 432.946 85.705 433.559 85.505 434.092C85.3183 434.626 85.0183 435.139 84.605 435.632C84.205 436.112 83.6716 436.639 83.005 437.212L80.365 439.732H85.985L85.985 441.972H77.265ZM92.7582 442.192C91.9049 442.192 91.1649 442.079 90.5382 441.852C89.9116 441.612 89.3916 441.232 88.9782 440.712C88.5782 440.179 88.2716 439.486 88.0582 438.632C87.8582 437.779 87.7582 436.732 87.7582 435.492C87.7582 434.212 87.8582 433.126 88.0582 432.232C88.2716 431.339 88.5849 430.626 88.9982 430.092C89.4116 429.546 89.9249 429.152 90.5382 428.912C91.1649 428.672 91.8982 428.552 92.7382 428.552C93.6049 428.552 94.3516 428.672 94.9782 428.912C95.6049 429.152 96.1182 429.546 96.5182 430.092C96.9316 430.626 97.2316 431.339 97.4182 432.232C97.6182 433.112 97.7182 434.199 97.7182 435.492C97.7182 437.132 97.5382 438.446 97.1782 439.432C96.8316 440.406 96.2916 441.112 95.5582 441.552C94.8249 441.979 93.8916 442.192 92.7582 442.192ZM92.7582 439.872C93.1316 439.872 93.4516 439.812 93.7182 439.692C93.9982 439.559 94.2316 439.332 94.4182 439.012C94.6049 438.692 94.7382 438.246 94.8182 437.672C94.9116 437.099 94.9582 436.372 94.9582 435.492C94.9582 434.559 94.9116 433.792 94.8182 433.192C94.7382 432.592 94.6116 432.126 94.4382 431.792C94.2649 431.446 94.0382 431.206 93.7582 431.072C93.4782 430.926 93.1449 430.852 92.7582 430.852C92.3716 430.852 92.0382 430.926 91.7582 431.072C91.4782 431.206 91.2449 431.439 91.0582 431.772C90.8849 432.106 90.7516 432.579 90.6582 433.192C90.5649 433.792 90.5182 434.566 90.5182 435.512C90.5182 436.392 90.5649 437.119 90.6582 437.692C90.7649 438.266 90.9116 438.712 91.0982 439.032C91.2849 439.339 91.5116 439.559 91.7782 439.692C92.0582 439.812 92.3849 439.872 92.7582 439.872ZM99.4915 441.972L99.4915 439.812L102.512 436.712C103.085 436.126 103.578 435.612 103.992 435.172C104.405 434.719 104.718 434.292 104.932 433.892C105.158 433.492 105.272 433.066 105.272 432.612C105.272 431.946 105.085 431.499 104.712 431.272C104.338 431.032 103.738 430.912 102.912 430.912C102.578 430.912 102.212 430.932 101.812 430.972C101.412 431.012 101.025 431.059 100.652 431.112C100.292 431.166 99.9782 431.219 99.7115 431.272L99.5715 429.152C99.8649 429.072 100.225 428.986 100.652 428.892C101.092 428.799 101.565 428.719 102.072 428.652C102.592 428.572 103.098 428.532 103.592 428.532C105.032 428.532 106.132 428.839 106.892 429.452C107.652 430.052 108.032 430.986 108.032 432.252C108.032 432.946 107.932 433.559 107.732 434.092C107.545 434.626 107.245 435.139 106.832 435.632C106.432 436.112 105.898 436.639 105.232 437.212L102.592 439.732H108.212L108.212 441.972H99.4915ZM114.985 442.192C114.131 442.192 113.391 442.079 112.765 441.852C112.138 441.612 111.618 441.232 111.205 440.712C110.805 440.179 110.498 439.486 110.285 438.632C110.085 437.779 109.985 436.732 109.985 435.492C109.985 434.212 110.085 433.126 110.285 432.232C110.498 431.339 110.811 430.626 111.225 430.092C111.638 429.546 112.151 429.152 112.765 428.912C113.391 428.672 114.125 428.552 114.965 428.552C115.831 428.552 116.578 428.672 117.205 428.912C117.831 429.152 118.345 429.546 118.745 430.092C119.158 430.626 119.458 431.339 119.645 432.232C119.845 433.112 119.945 434.199 119.945 435.492C119.945 437.132 119.765 438.446 119.405 439.432C119.058 440.406 118.518 441.112 117.785 441.552C117.051 441.979 116.118 442.192 114.985 442.192ZM114.985 439.872C115.358 439.872 115.678 439.812 115.945 439.692C116.225 439.559 116.458 439.332 116.645 439.012C116.831 438.692 116.965 438.246 117.045 437.672C117.138 437.099 117.185 436.372 117.185 435.492C117.185 434.559 117.138 433.792 117.045 433.192C116.965 432.592 116.838 432.126 116.665 431.792C116.491 431.446 116.265 431.206 115.985 431.072C115.705 430.926 115.371 430.852 114.985 430.852C114.598 430.852 114.265 430.926 113.985 431.072C113.705 431.206 113.471 431.439 113.285 431.772C113.111 432.106 112.978 432.579 112.885 433.192C112.791 433.792 112.745 434.566 112.745 435.512C112.745 436.392 112.791 437.119 112.885 437.692C112.991 438.266 113.138 438.712 113.325 439.032C113.511 439.339 113.738 439.559 114.005 439.692C114.285 439.812 114.611 439.872 114.985 439.872Z" fill="#3A73A8"/>
<path d="M198.806 441.972L198.806 439.812L201.826 436.712C202.399 436.126 202.893 435.612 203.306 435.172C203.719 434.719 204.033 434.292 204.246 433.892C204.473 433.492 204.586 433.066 204.586 432.612C204.586 431.946 204.399 431.499 204.026 431.272C203.653 431.032 203.053 430.912 202.226 430.912C201.893 430.912 201.526 430.932 201.126 430.972C200.726 431.012 200.339 431.059 199.966 431.112C199.606 431.166 199.293 431.219 199.026 431.272L198.886 429.152C199.179 429.072 199.539 428.986 199.966 428.892C200.406 428.799 200.879 428.719 201.386 428.652C201.906 428.572 202.413 428.532 202.906 428.532C204.346 428.532 205.446 428.839 206.206 429.452C206.966 430.052 207.346 430.986 207.346 432.252C207.346 432.946 207.246 433.559 207.046 434.092C206.859 434.626 206.559 435.139 206.146 435.632C205.746 436.112 205.213 436.639 204.546 437.212L201.906 439.732H207.526L207.526 441.972H198.806ZM214.299 442.192C213.446 442.192 212.706 442.079 212.079 441.852C211.453 441.612 210.933 441.232 210.519 440.712C210.119 440.179 209.813 439.486 209.599 438.632C209.399 437.779 209.299 436.732 209.299 435.492C209.299 434.212 209.399 433.126 209.599 432.232C209.813 431.339 210.126 430.626 210.539 430.092C210.953 429.546 211.466 429.152 212.079 428.912C212.706 428.672 213.439 428.552 214.279 428.552C215.146 428.552 215.893 428.672 216.519 428.912C217.146 429.152 217.659 429.546 218.059 430.092C218.473 430.626 218.773 431.339 218.959 432.232C219.159 433.112 219.259 434.199 219.259 435.492C219.259 437.132 219.079 438.446 218.719 439.432C218.373 440.406 217.833 441.112 217.099 441.552C216.366 441.979 215.433 442.192 214.299 442.192ZM214.299 439.872C214.673 439.872 214.993 439.812 215.259 439.692C215.539 439.559 215.773 439.332 215.959 439.012C216.146 438.692 216.279 438.246 216.359 437.672C216.453 437.099 216.499 436.372 216.499 435.492C216.499 434.559 216.453 433.792 216.359 433.192C216.279 432.592 216.153 432.126 215.979 431.792C215.806 431.446 215.579 431.206 215.299 431.072C215.019 430.926 214.686 430.852 214.299 430.852C213.913 430.852 213.579 430.926 213.299 431.072C213.019 431.206 212.786 431.439 212.599 431.772C212.426 432.106 212.293 432.579 212.199 433.192C212.106 433.792 212.059 434.566 212.059 435.512C212.059 436.392 212.106 437.119 212.199 437.692C212.306 438.266 212.453 438.712 212.639 439.032C212.826 439.339 213.053 439.559 213.319 439.692C213.599 439.812 213.926 439.872 214.299 439.872ZM221.033 441.972L221.033 439.812L224.053 436.712C224.626 436.126 225.119 435.612 225.533 435.172C225.946 434.719 226.259 434.292 226.473 433.892C226.699 433.492 226.813 433.066 226.813 432.612C226.813 431.946 226.626 431.499 226.253 431.272C225.879 431.032 225.279 430.912 224.453 430.912C224.119 430.912 223.753 430.932 223.353 430.972C222.953 431.012 222.566 431.059 222.193 431.112C221.833 431.166 221.519 431.219 221.253 431.272L221.113 429.152C221.406 429.072 221.766 428.986 222.193 428.892C222.633 428.799 223.106 428.719 223.613 428.652C224.133 428.572 224.639 428.532 225.133 428.532C226.573 428.532 227.673 428.839 228.433 429.452C229.193 430.052 229.573 430.986 229.573 432.252C229.573 432.946 229.473 433.559 229.273 434.092C229.086 434.626 228.786 435.139 228.373 435.632C227.973 436.112 227.439 436.639 226.773 437.212L224.133 439.732H229.753L229.753 441.972H221.033ZM236.626 441.972L236.626 431.732L233.506 433.532L232.586 431.552L236.966 428.772H239.346L239.346 441.972H236.626Z" fill="#3A73A8"/>
<path d="M316.265 441.972L316.265 439.812L319.285 436.712C319.858 436.126 320.352 435.612 320.765 435.172C321.178 434.719 321.492 434.292 321.705 433.892C321.932 433.492 322.045 433.066 322.045 432.612C322.045 431.946 321.858 431.499 321.485 431.272C321.112 431.032 320.512 430.912 319.685 430.912C319.352 430.912 318.985 430.932 318.585 430.972C318.185 431.012 317.798 431.059 317.425 431.112C317.065 431.166 316.752 431.219 316.485 431.272L316.345 429.152C316.638 429.072 316.998 428.986 317.425 428.892C317.865 428.799 318.338 428.719 318.845 428.652C319.365 428.572 319.872 428.532 320.365 428.532C321.805 428.532 322.905 428.839 323.665 429.452C324.425 430.052 324.805 430.986 324.805 432.252C324.805 432.946 324.705 433.559 324.505 434.092C324.318 434.626 324.018 435.139 323.605 435.632C323.205 436.112 322.672 436.639 322.005 437.212L319.365 439.732H324.985L324.985 441.972H316.265ZM331.758 442.192C330.905 442.192 330.165 442.079 329.538 441.852C328.912 441.612 328.392 441.232 327.978 440.712C327.578 440.179 327.272 439.486 327.058 438.632C326.858 437.779 326.758 436.732 326.758 435.492C326.758 434.212 326.858 433.126 327.058 432.232C327.272 431.339 327.585 430.626 327.998 430.092C328.412 429.546 328.925 429.152 329.538 428.912C330.165 428.672 330.898 428.552 331.738 428.552C332.605 428.552 333.352 428.672 333.978 428.912C334.605 429.152 335.118 429.546 335.518 430.092C335.932 430.626 336.232 431.339 336.418 432.232C336.618 433.112 336.718 434.199 336.718 435.492C336.718 437.132 336.538 438.446 336.178 439.432C335.832 440.406 335.292 441.112 334.558 441.552C333.825 441.979 332.892 442.192 331.758 442.192ZM331.758 439.872C332.132 439.872 332.452 439.812 332.718 439.692C332.998 439.559 333.232 439.332 333.418 439.012C333.605 438.692 333.738 438.246 333.818 437.672C333.912 437.099 333.958 436.372 333.958 435.492C333.958 434.559 333.912 433.792 333.818 433.192C333.738 432.592 333.612 432.126 333.438 431.792C333.265 431.446 333.038 431.206 332.758 431.072C332.478 430.926 332.145 430.852 331.758 430.852C331.372 430.852 331.038 430.926 330.758 431.072C330.478 431.206 330.245 431.439 330.058 431.772C329.885 432.106 329.752 432.579 329.658 433.192C329.565 433.792 329.518 434.566 329.518 435.512C329.518 436.392 329.565 437.119 329.658 437.692C329.765 438.266 329.912 438.712 330.098 439.032C330.285 439.339 330.512 439.559 330.778 439.692C331.058 439.812 331.385 439.872 331.758 439.872ZM338.492 441.972L338.492 439.812L341.512 436.712C342.085 436.126 342.578 435.612 342.992 435.172C343.405 434.719 343.718 434.292 343.932 433.892C344.158 433.492 344.272 433.066 344.272 432.612C344.272 431.946 344.085 431.499 343.712 431.272C343.338 431.032 342.738 430.912 341.912 430.912C341.578 430.912 341.212 430.932 340.812 430.972C340.412 431.012 340.025 431.059 339.652 431.112C339.292 431.166 338.978 431.219 338.712 431.272L338.572 429.152C338.865 429.072 339.225 428.986 339.652 428.892C340.092 428.799 340.565 428.719 341.072 428.652C341.592 428.572 342.098 428.532 342.592 428.532C344.032 428.532 345.132 428.839 345.892 429.452C346.652 430.052 347.032 430.986 347.032 432.252C347.032 432.946 346.932 433.559 346.732 434.092C346.545 434.626 346.245 435.139 345.832 435.632C345.432 436.112 344.898 436.639 344.232 437.212L341.592 439.732H347.212L347.212 441.972H338.492ZM349.605 441.972L349.605 439.812L352.625 436.712C353.198 436.126 353.691 435.612 354.105 435.172C354.518 434.719 354.831 434.292 355.045 433.892C355.271 433.492 355.385 433.066 355.385 432.612C355.385 431.946 355.198 431.499 354.825 431.272C354.451 431.032 353.851 430.912 353.025 430.912C352.691 430.912 352.325 430.932 351.925 430.972C351.525 431.012 351.138 431.059 350.765 431.112C350.405 431.166 350.091 431.219 349.825 431.272L349.685 429.152C349.978 429.072 350.338 428.986 350.765 428.892C351.205 428.799 351.678 428.719 352.185 428.652C352.705 428.572 353.211 428.532 353.705 428.532C355.145 428.532 356.245 428.839 357.005 429.452C357.765 430.052 358.145 430.986 358.145 432.252C358.145 432.946 358.045 433.559 357.845 434.092C357.658 434.626 357.358 435.139 356.945 435.632C356.545 436.112 356.011 436.639 355.345 437.212L352.705 439.732H358.325L358.325 441.972H349.605Z" fill="#3A73A8"/>
<path d="M438.265 441.972L438.265 439.812L441.285 436.712C441.858 436.126 442.352 435.612 442.765 435.172C443.178 434.719 443.492 434.292 443.705 433.892C443.932 433.492 444.045 433.066 444.045 432.612C444.045 431.946 443.858 431.499 443.485 431.272C443.112 431.032 442.512 430.912 441.685 430.912C441.352 430.912 440.985 430.932 440.585 430.972C440.185 431.012 439.798 431.059 439.425 431.112C439.065 431.166 438.752 431.219 438.485 431.272L438.345 429.152C438.638 429.072 438.998 428.986 439.425 428.892C439.865 428.799 440.338 428.719 440.845 428.652C441.365 428.572 441.872 428.532 442.365 428.532C443.805 428.532 444.905 428.839 445.665 429.452C446.425 430.052 446.805 430.986 446.805 432.252C446.805 432.946 446.705 433.559 446.505 434.092C446.318 434.626 446.018 435.139 445.605 435.632C445.205 436.112 444.672 436.639 444.005 437.212L441.365 439.732H446.985L446.985 441.972H438.265ZM453.758 442.192C452.905 442.192 452.165 442.079 451.538 441.852C450.912 441.612 450.392 441.232 449.978 440.712C449.578 440.179 449.272 439.486 449.058 438.632C448.858 437.779 448.758 436.732 448.758 435.492C448.758 434.212 448.858 433.126 449.058 432.232C449.272 431.339 449.585 430.626 449.998 430.092C450.412 429.546 450.925 429.152 451.538 428.912C452.165 428.672 452.898 428.552 453.738 428.552C454.605 428.552 455.352 428.672 455.978 428.912C456.605 429.152 457.118 429.546 457.518 430.092C457.932 430.626 458.232 431.339 458.418 432.232C458.618 433.112 458.718 434.199 458.718 435.492C458.718 437.132 458.538 438.446 458.178 439.432C457.832 440.406 457.292 441.112 456.558 441.552C455.825 441.979 454.892 442.192 453.758 442.192ZM453.758 439.872C454.132 439.872 454.452 439.812 454.718 439.692C454.998 439.559 455.232 439.332 455.418 439.012C455.605 438.692 455.738 438.246 455.818 437.672C455.912 437.099 455.958 436.372 455.958 435.492C455.958 434.559 455.912 433.792 455.818 433.192C455.738 432.592 455.612 432.126 455.438 431.792C455.265 431.446 455.038 431.206 454.758 431.072C454.478 430.926 454.145 430.852 453.758 430.852C453.372 430.852 453.038 430.926 452.758 431.072C452.478 431.206 452.245 431.439 452.058 431.772C451.885 432.106 451.752 432.579 451.658 433.192C451.565 433.792 451.518 434.566 451.518 435.512C451.518 436.392 451.565 437.119 451.658 437.692C451.765 438.266 451.912 438.712 452.098 439.032C452.285 439.339 452.512 439.559 452.778 439.692C453.058 439.812 453.385 439.872 453.758 439.872ZM460.492 441.972L460.492 439.812L463.512 436.712C464.085 436.126 464.578 435.612 464.992 435.172C465.405 434.719 465.718 434.292 465.932 433.892C466.158 433.492 466.272 433.066 466.272 432.612C466.272 431.946 466.085 431.499 465.712 431.272C465.338 431.032 464.738 430.912 463.912 430.912C463.578 430.912 463.212 430.932 462.812 430.972C462.412 431.012 462.025 431.059 461.652 431.112C461.292 431.166 460.978 431.219 460.712 431.272L460.572 429.152C460.865 429.072 461.225 428.986 461.652 428.892C462.092 428.799 462.565 428.719 463.072 428.652C463.592 428.572 464.098 428.532 464.592 428.532C466.032 428.532 467.132 428.839 467.892 429.452C468.652 430.052 469.032 430.986 469.032 432.252C469.032 432.946 468.932 433.559 468.732 434.092C468.545 434.626 468.245 435.139 467.832 435.632C467.432 436.112 466.898 436.639 466.232 437.212L463.592 439.732H469.212L469.212 441.972H460.492ZM475.765 442.192C475.271 442.192 474.751 442.166 474.205 442.112C473.671 442.059 473.158 441.992 472.665 441.912C472.185 441.819 471.785 441.739 471.465 441.672L471.585 439.532C471.905 439.572 472.285 439.619 472.725 439.672C473.178 439.726 473.638 439.772 474.105 439.812C474.585 439.839 475.025 439.852 475.425 439.852C476.185 439.852 476.751 439.712 477.125 439.432C477.498 439.152 477.685 438.699 477.685 438.072C477.685 437.646 477.598 437.312 477.425 437.072C477.265 436.819 477.025 436.632 476.705 436.512C476.398 436.392 476.038 436.326 475.625 436.312H472.905L472.905 434.112H475.565C475.871 434.112 476.165 434.046 476.445 433.912C476.738 433.779 476.971 433.586 477.145 433.332C477.331 433.079 477.425 432.772 477.425 432.412C477.425 431.852 477.251 431.459 476.905 431.232C476.571 430.992 476.025 430.872 475.265 430.872C474.865 430.872 474.445 430.892 474.005 430.932C473.565 430.972 473.145 431.019 472.745 431.072C472.345 431.112 472.011 431.159 471.745 431.212L471.625 429.112C471.918 429.032 472.278 428.952 472.705 428.872C473.131 428.779 473.585 428.706 474.065 428.652C474.545 428.586 474.998 428.552 475.425 428.552C476.558 428.552 477.471 428.672 478.165 428.912C478.871 429.139 479.385 429.519 479.705 430.052C480.025 430.572 480.185 431.259 480.185 432.112C480.185 432.579 480.125 432.972 480.005 433.292C479.898 433.612 479.751 433.886 479.565 434.112C479.391 434.339 479.211 434.526 479.025 434.672C478.838 434.806 478.665 434.926 478.505 435.032C478.905 435.219 479.251 435.426 479.545 435.652C479.838 435.879 480.065 436.179 480.225 436.552C480.385 436.926 480.465 437.426 480.465 438.052C480.465 439.052 480.291 439.859 479.945 440.472C479.598 441.072 479.078 441.512 478.385 441.792C477.691 442.059 476.818 442.192 475.765 442.192Z" fill="#3A73A8"/>
</svg>
