<svg width="1131" height="558" viewBox="0 0 1131 558" fill="none" xmlns="http://www.w3.org/2000/svg">
<path d="M1130.59 0.317383H0.586914V557.286H1130.59V0.317383Z" fill="white"/>
<line x1="0.586914" y1="424.437" x2="1130.59" y2="424.436" stroke="#EBEFF8" stroke-width="4"/>
<path d="M974.47 195.938L974.47 187.746L971.974 189.186L971.238 187.602L974.742 185.378H976.646L976.646 195.938H974.47ZM982.833 196.114C982.513 196.114 982.156 196.093 981.761 196.05C981.377 196.007 980.998 195.959 980.625 195.906C980.262 195.842 979.948 195.783 979.681 195.73L979.857 194.066C980.081 194.098 980.358 194.135 980.689 194.178C981.03 194.21 981.382 194.237 981.745 194.258C982.108 194.279 982.449 194.29 982.769 194.29C983.526 194.29 984.081 194.071 984.433 193.634C984.796 193.197 984.988 192.535 985.009 191.65C984.785 191.735 984.54 191.815 984.273 191.89C984.017 191.965 983.761 192.023 983.505 192.066C983.26 192.109 983.036 192.13 982.833 192.13C981.681 192.13 980.806 191.858 980.209 191.314C979.622 190.77 979.329 189.917 979.329 188.754C979.329 187.986 979.484 187.341 979.793 186.818C980.113 186.285 980.556 185.885 981.121 185.618C981.697 185.341 982.369 185.202 983.137 185.202C984.065 185.202 984.822 185.421 985.409 185.858C986.006 186.285 986.444 186.903 986.721 187.714C986.998 188.525 987.137 189.501 987.137 190.642C987.137 191.698 987.03 192.578 986.817 193.282C986.614 193.986 986.326 194.546 985.953 194.962C985.58 195.378 985.126 195.677 984.593 195.858C984.07 196.029 983.484 196.114 982.833 196.114ZM983.057 190.354C983.281 190.354 983.516 190.333 983.761 190.29C984.006 190.237 984.241 190.178 984.465 190.114C984.689 190.039 984.876 189.975 985.025 189.922C985.014 189.335 984.95 188.823 984.833 188.386C984.716 187.949 984.518 187.607 984.241 187.362C983.974 187.117 983.606 186.994 983.137 186.994C982.582 186.994 982.15 187.154 981.841 187.474C981.542 187.794 981.393 188.221 981.393 188.754C981.393 189.309 981.532 189.714 981.809 189.97C982.097 190.226 982.513 190.354 983.057 190.354ZM992.028 196.114L989.916 195.602L993.372 187.794L993.372 187.378H988.78L988.78 185.378H995.612L995.612 187.762L992.028 196.114Z" fill="#333333"/>
<path d="M963.232 464.602L963.232 462.442L966.252 459.342C966.825 458.755 967.319 458.242 967.732 457.802C968.145 457.349 968.459 456.922 968.672 456.522C968.899 456.122 969.012 455.695 969.012 455.242C969.012 454.575 968.825 454.129 968.452 453.902C968.079 453.662 967.479 453.542 966.652 453.542C966.319 453.542 965.952 453.562 965.552 453.602C965.152 453.642 964.765 453.689 964.392 453.742C964.032 453.795 963.719 453.849 963.452 453.902L963.312 451.782C963.605 451.702 963.965 451.615 964.392 451.522C964.832 451.429 965.305 451.349 965.812 451.282C966.332 451.202 966.839 451.162 967.332 451.162C968.772 451.162 969.872 451.469 970.632 452.082C971.392 452.682 971.772 453.615 971.772 454.882C971.772 455.575 971.672 456.189 971.472 456.722C971.285 457.255 970.985 457.769 970.572 458.262C970.172 458.742 969.639 459.269 968.972 459.842L966.332 462.362H971.952L971.952 464.602H963.232ZM978.725 464.822C977.872 464.822 977.132 464.709 976.505 464.482C975.879 464.242 975.359 463.862 974.945 463.342C974.545 462.809 974.239 462.115 974.025 461.262C973.825 460.409 973.725 459.362 973.725 458.122C973.725 456.842 973.825 455.755 974.025 454.862C974.239 453.969 974.552 453.255 974.965 452.722C975.379 452.175 975.892 451.782 976.505 451.542C977.132 451.302 977.865 451.182 978.705 451.182C979.572 451.182 980.319 451.302 980.945 451.542C981.572 451.782 982.085 452.175 982.485 452.722C982.899 453.255 983.199 453.969 983.385 454.862C983.585 455.742 983.685 456.829 983.685 458.122C983.685 459.762 983.505 461.075 983.145 462.062C982.799 463.035 982.259 463.742 981.525 464.182C980.792 464.609 979.859 464.822 978.725 464.822ZM978.725 462.502C979.099 462.502 979.419 462.442 979.685 462.322C979.965 462.189 980.199 461.962 980.385 461.642C980.572 461.322 980.705 460.875 980.785 460.302C980.879 459.729 980.925 459.002 980.925 458.122C980.925 457.189 980.879 456.422 980.785 455.822C980.705 455.222 980.579 454.755 980.405 454.422C980.232 454.075 980.005 453.835 979.725 453.702C979.445 453.555 979.112 453.482 978.725 453.482C978.339 453.482 978.005 453.555 977.725 453.702C977.445 453.835 977.212 454.069 977.025 454.402C976.852 454.735 976.719 455.209 976.625 455.822C976.532 456.422 976.485 457.195 976.485 458.142C976.485 459.022 976.532 459.749 976.625 460.322C976.732 460.895 976.879 461.342 977.065 461.662C977.252 461.969 977.479 462.189 977.745 462.322C978.025 462.442 978.352 462.502 978.725 462.502ZM985.459 464.602L985.459 462.442L988.479 459.342C989.052 458.755 989.545 458.242 989.959 457.802C990.372 457.349 990.685 456.922 990.899 456.522C991.125 456.122 991.239 455.695 991.239 455.242C991.239 454.575 991.052 454.129 990.679 453.902C990.305 453.662 989.705 453.542 988.879 453.542C988.545 453.542 988.179 453.562 987.779 453.602C987.379 453.642 986.992 453.689 986.619 453.742C986.259 453.795 985.945 453.849 985.679 453.902L985.539 451.782C985.832 451.702 986.192 451.615 986.619 451.522C987.059 451.429 987.532 451.349 988.039 451.282C988.559 451.202 989.065 451.162 989.559 451.162C990.999 451.162 992.099 451.469 992.859 452.082C993.619 452.682 993.999 453.615 993.999 454.882C993.999 455.575 993.899 456.189 993.699 456.722C993.512 457.255 993.212 457.769 992.799 458.262C992.399 458.742 991.865 459.269 991.199 459.842L988.559 462.362H994.179L994.179 464.602H985.459ZM1000.73 464.822C1000.24 464.822 999.718 464.795 999.172 464.742C998.638 464.689 998.125 464.622 997.632 464.542C997.152 464.449 996.752 464.369 996.432 464.302L996.552 462.162C996.872 462.202 997.252 462.249 997.692 462.302C998.145 462.355 998.605 462.402 999.072 462.442C999.552 462.469 999.992 462.482 1000.39 462.482C1001.15 462.482 1001.72 462.342 1002.09 462.062C1002.47 461.782 1002.65 461.329 1002.65 460.702C1002.65 460.275 1002.57 459.942 1002.39 459.702C1002.23 459.449 1001.99 459.262 1001.67 459.142C1001.37 459.022 1001.01 458.955 1000.59 458.942H997.872L997.872 456.742H1000.53C1000.84 456.742 1001.13 456.675 1001.41 456.542C1001.71 456.409 1001.94 456.215 1002.11 455.962C1002.3 455.709 1002.39 455.402 1002.39 455.042C1002.39 454.482 1002.22 454.089 1001.87 453.862C1001.54 453.622 1000.99 453.502 1000.23 453.502C999.832 453.502 999.412 453.522 998.972 453.562C998.532 453.602 998.112 453.649 997.712 453.702C997.312 453.742 996.978 453.789 996.712 453.842L996.592 451.742C996.885 451.662 997.245 451.582 997.672 451.502C998.098 451.409 998.552 451.335 999.032 451.282C999.512 451.215 999.965 451.182 1000.39 451.182C1001.53 451.182 1002.44 451.302 1003.13 451.542C1003.84 451.769 1004.35 452.149 1004.67 452.682C1004.99 453.202 1005.15 453.889 1005.15 454.742C1005.15 455.209 1005.09 455.602 1004.97 455.922C1004.87 456.242 1004.72 456.515 1004.53 456.742C1004.36 456.969 1004.18 457.155 1003.99 457.302C1003.81 457.435 1003.63 457.555 1003.47 457.662C1003.87 457.849 1004.22 458.055 1004.51 458.282C1004.81 458.509 1005.03 458.809 1005.19 459.182C1005.35 459.555 1005.43 460.055 1005.43 460.682C1005.43 461.682 1005.26 462.489 1004.91 463.102C1004.57 463.702 1004.05 464.142 1003.35 464.422C1002.66 464.689 1001.79 464.822 1000.73 464.822Z" fill="#3A73A8"/>
<path d="M292.83 464.602L292.83 462.442L295.85 459.342C296.423 458.755 296.916 458.242 297.33 457.802C297.743 457.349 298.056 456.922 298.27 456.522C298.496 456.122 298.61 455.695 298.61 455.242C298.61 454.575 298.423 454.129 298.05 453.902C297.676 453.662 297.076 453.542 296.25 453.542C295.916 453.542 295.55 453.562 295.15 453.602C294.75 453.642 294.363 453.689 293.99 453.742C293.63 453.795 293.316 453.849 293.05 453.902L292.91 451.782C293.203 451.702 293.563 451.615 293.99 451.522C294.43 451.429 294.903 451.349 295.41 451.282C295.93 451.202 296.436 451.162 296.93 451.162C298.37 451.162 299.47 451.469 300.23 452.082C300.99 452.682 301.37 453.615 301.37 454.882C301.37 455.575 301.27 456.189 301.07 456.722C300.883 457.255 300.583 457.769 300.17 458.262C299.77 458.742 299.236 459.269 298.57 459.842L295.93 462.362H301.55L301.55 464.602H292.83ZM308.323 464.822C307.47 464.822 306.73 464.709 306.103 464.482C305.476 464.242 304.956 463.862 304.543 463.342C304.143 462.809 303.836 462.115 303.623 461.262C303.423 460.409 303.323 459.362 303.323 458.122C303.323 456.842 303.423 455.755 303.623 454.862C303.836 453.969 304.15 453.255 304.563 452.722C304.976 452.175 305.49 451.782 306.103 451.542C306.73 451.302 307.463 451.182 308.303 451.182C309.17 451.182 309.916 451.302 310.543 451.542C311.17 451.782 311.683 452.175 312.083 452.722C312.496 453.255 312.796 453.969 312.983 454.862C313.183 455.742 313.283 456.829 313.283 458.122C313.283 459.762 313.103 461.075 312.743 462.062C312.396 463.035 311.856 463.742 311.123 464.182C310.39 464.609 309.456 464.822 308.323 464.822ZM308.323 462.502C308.696 462.502 309.016 462.442 309.283 462.322C309.563 462.189 309.796 461.962 309.983 461.642C310.17 461.322 310.303 460.875 310.383 460.302C310.476 459.729 310.523 459.002 310.523 458.122C310.523 457.189 310.476 456.422 310.383 455.822C310.303 455.222 310.176 454.755 310.003 454.422C309.83 454.075 309.603 453.835 309.323 453.702C309.043 453.555 308.71 453.482 308.323 453.482C307.936 453.482 307.603 453.555 307.323 453.702C307.043 453.835 306.81 454.069 306.623 454.402C306.45 454.735 306.316 455.209 306.223 455.822C306.13 456.422 306.083 457.195 306.083 458.142C306.083 459.022 306.13 459.749 306.223 460.322C306.33 460.895 306.476 461.342 306.663 461.662C306.85 461.969 307.076 462.189 307.343 462.322C307.623 462.442 307.95 462.502 308.323 462.502ZM319.536 464.602L319.536 454.362L316.416 456.162L315.496 454.182L319.876 451.402H322.256L322.256 464.602H319.536ZM329.989 464.822C329.589 464.822 329.143 464.795 328.649 464.742C328.169 464.689 327.696 464.629 327.229 464.562C326.776 464.482 326.383 464.409 326.049 464.342L326.269 462.262C326.549 462.302 326.896 462.349 327.309 462.402C327.736 462.442 328.176 462.475 328.629 462.502C329.083 462.529 329.509 462.542 329.909 462.542C330.856 462.542 331.549 462.269 331.989 461.722C332.443 461.175 332.683 460.349 332.709 459.242C332.429 459.349 332.123 459.449 331.789 459.542C331.469 459.635 331.149 459.709 330.829 459.762C330.523 459.815 330.243 459.842 329.989 459.842C328.549 459.842 327.456 459.502 326.709 458.822C325.976 458.142 325.609 457.075 325.609 455.622C325.609 454.662 325.803 453.855 326.189 453.202C326.589 452.535 327.143 452.035 327.849 451.702C328.569 451.355 329.409 451.182 330.369 451.182C331.529 451.182 332.476 451.455 333.209 452.002C333.956 452.535 334.503 453.309 334.849 454.322C335.196 455.335 335.369 456.555 335.369 457.982C335.369 459.302 335.236 460.402 334.969 461.282C334.716 462.162 334.356 462.862 333.889 463.382C333.423 463.902 332.856 464.275 332.189 464.502C331.536 464.715 330.803 464.822 329.989 464.822ZM330.269 457.622C330.549 457.622 330.843 457.595 331.149 457.542C331.456 457.475 331.749 457.402 332.029 457.322C332.309 457.229 332.543 457.149 332.729 457.082C332.716 456.349 332.636 455.709 332.489 455.162C332.343 454.615 332.096 454.189 331.749 453.882C331.416 453.575 330.956 453.422 330.369 453.422C329.676 453.422 329.136 453.622 328.749 454.022C328.376 454.422 328.189 454.955 328.189 455.622C328.189 456.315 328.363 456.822 328.709 457.142C329.069 457.462 329.589 457.622 330.269 457.622Z" fill="#3A73A8"/>
<path d="M125.849 464.602L125.849 462.442L128.869 459.342C129.442 458.755 129.936 458.242 130.349 457.802C130.762 457.349 131.076 456.922 131.289 456.522C131.516 456.122 131.629 455.695 131.629 455.242C131.629 454.575 131.442 454.129 131.069 453.902C130.696 453.662 130.096 453.542 129.269 453.542C128.936 453.542 128.569 453.562 128.169 453.602C127.769 453.642 127.382 453.689 127.009 453.742C126.649 453.795 126.336 453.849 126.069 453.902L125.929 451.782C126.222 451.702 126.582 451.615 127.009 451.522C127.449 451.429 127.922 451.349 128.429 451.282C128.949 451.202 129.456 451.162 129.949 451.162C131.389 451.162 132.489 451.469 133.249 452.082C134.009 452.682 134.389 453.615 134.389 454.882C134.389 455.575 134.289 456.189 134.089 456.722C133.902 457.255 133.602 457.769 133.189 458.262C132.789 458.742 132.256 459.269 131.589 459.842L128.949 462.362H134.569L134.569 464.602H125.849ZM141.342 464.822C140.489 464.822 139.749 464.709 139.122 464.482C138.496 464.242 137.976 463.862 137.562 463.342C137.162 462.809 136.856 462.115 136.642 461.262C136.442 460.409 136.342 459.362 136.342 458.122C136.342 456.842 136.442 455.755 136.642 454.862C136.856 453.969 137.169 453.255 137.582 452.722C137.996 452.175 138.509 451.782 139.122 451.542C139.749 451.302 140.482 451.182 141.322 451.182C142.189 451.182 142.936 451.302 143.562 451.542C144.189 451.782 144.702 452.175 145.102 452.722C145.516 453.255 145.816 453.969 146.002 454.862C146.202 455.742 146.302 456.829 146.302 458.122C146.302 459.762 146.122 461.075 145.762 462.062C145.416 463.035 144.876 463.742 144.142 464.182C143.409 464.609 142.476 464.822 141.342 464.822ZM141.342 462.502C141.716 462.502 142.036 462.442 142.302 462.322C142.582 462.189 142.816 461.962 143.002 461.642C143.189 461.322 143.322 460.875 143.402 460.302C143.496 459.729 143.542 459.002 143.542 458.122C143.542 457.189 143.496 456.422 143.402 455.822C143.322 455.222 143.196 454.755 143.022 454.422C142.849 454.075 142.622 453.835 142.342 453.702C142.062 453.555 141.729 453.482 141.342 453.482C140.956 453.482 140.622 453.555 140.342 453.702C140.062 453.835 139.829 454.069 139.642 454.402C139.469 454.735 139.336 455.209 139.242 455.822C139.149 456.422 139.102 457.195 139.102 458.142C139.102 459.022 139.149 459.749 139.242 460.322C139.349 460.895 139.496 461.342 139.682 461.662C139.869 461.969 140.096 462.189 140.362 462.322C140.642 462.442 140.969 462.502 141.342 462.502ZM152.556 464.602L152.556 454.362L149.436 456.162L148.516 454.182L152.896 451.402H155.276L155.276 464.602H152.556ZM163.529 464.822C162.636 464.822 161.802 464.715 161.029 464.502C160.269 464.289 159.656 463.915 159.189 463.382C158.722 462.849 158.489 462.115 158.489 461.182C158.489 460.515 158.569 459.982 158.729 459.582C158.902 459.182 159.142 458.842 159.449 458.562C159.756 458.282 160.122 458.015 160.549 457.762C159.909 457.415 159.442 457.015 159.149 456.562C158.856 456.109 158.709 455.469 158.709 454.642C158.709 453.829 158.909 453.169 159.309 452.662C159.722 452.155 160.289 451.782 161.009 451.542C161.742 451.302 162.582 451.182 163.529 451.182C164.476 451.182 165.316 451.295 166.049 451.522C166.796 451.749 167.376 452.122 167.789 452.642C168.216 453.149 168.429 453.822 168.429 454.662C168.429 455.515 168.282 456.162 167.989 456.602C167.696 457.029 167.202 457.422 166.509 457.782C166.976 457.995 167.362 458.242 167.669 458.522C167.989 458.789 168.229 459.122 168.389 459.522C168.549 459.922 168.629 460.435 168.629 461.062C168.629 462.035 168.396 462.795 167.929 463.342C167.462 463.889 166.842 464.275 166.069 464.502C165.309 464.715 164.462 464.822 163.529 464.822ZM163.529 462.642C163.996 462.642 164.402 462.589 164.749 462.482C165.109 462.362 165.382 462.169 165.569 461.902C165.769 461.622 165.869 461.242 165.869 460.762C165.869 460.389 165.796 460.082 165.649 459.842C165.516 459.589 165.322 459.382 165.069 459.222C164.829 459.062 164.562 458.935 164.269 458.842H162.769C162.302 458.989 161.929 459.222 161.649 459.542C161.382 459.849 161.249 460.275 161.249 460.822C161.249 461.262 161.342 461.615 161.529 461.882C161.729 462.149 162.002 462.342 162.349 462.462C162.696 462.582 163.089 462.642 163.529 462.642ZM162.769 456.822H164.269C164.709 456.649 165.056 456.422 165.309 456.142C165.562 455.862 165.689 455.495 165.689 455.042C165.689 454.442 165.502 454.009 165.129 453.742C164.769 453.475 164.242 453.342 163.549 453.342C162.869 453.342 162.349 453.475 161.989 453.742C161.629 454.009 161.449 454.435 161.449 455.022C161.449 455.489 161.562 455.862 161.789 456.142C162.016 456.422 162.342 456.649 162.769 456.822Z" fill="#3A73A8"/>
<path d="M460.9 464.602L460.9 462.442L463.92 459.342C464.493 458.755 464.987 458.242 465.4 457.802C465.813 457.349 466.127 456.922 466.34 456.522C466.567 456.122 466.68 455.695 466.68 455.242C466.68 454.575 466.493 454.129 466.12 453.902C465.747 453.662 465.147 453.542 464.32 453.542C463.987 453.542 463.62 453.562 463.22 453.602C462.82 453.642 462.433 453.689 462.06 453.742C461.7 453.795 461.387 453.849 461.12 453.902L460.98 451.782C461.273 451.702 461.633 451.615 462.06 451.522C462.5 451.429 462.973 451.349 463.48 451.282C464 451.202 464.507 451.162 465 451.162C466.44 451.162 467.54 451.469 468.3 452.082C469.06 452.682 469.44 453.615 469.44 454.882C469.44 455.575 469.34 456.189 469.14 456.722C468.953 457.255 468.653 457.769 468.24 458.262C467.84 458.742 467.307 459.269 466.64 459.842L464 462.362H469.62L469.62 464.602H460.9ZM476.393 464.822C475.54 464.822 474.8 464.709 474.173 464.482C473.547 464.242 473.027 463.862 472.613 463.342C472.213 462.809 471.907 462.115 471.693 461.262C471.493 460.409 471.393 459.362 471.393 458.122C471.393 456.842 471.493 455.755 471.693 454.862C471.907 453.969 472.22 453.255 472.633 452.722C473.047 452.175 473.56 451.782 474.173 451.542C474.8 451.302 475.533 451.182 476.373 451.182C477.24 451.182 477.987 451.302 478.613 451.542C479.24 451.782 479.753 452.175 480.153 452.722C480.567 453.255 480.867 453.969 481.053 454.862C481.253 455.742 481.353 456.829 481.353 458.122C481.353 459.762 481.173 461.075 480.813 462.062C480.467 463.035 479.927 463.742 479.193 464.182C478.46 464.609 477.527 464.822 476.393 464.822ZM476.393 462.502C476.767 462.502 477.087 462.442 477.353 462.322C477.633 462.189 477.867 461.962 478.053 461.642C478.24 461.322 478.373 460.875 478.453 460.302C478.547 459.729 478.593 459.002 478.593 458.122C478.593 457.189 478.547 456.422 478.453 455.822C478.373 455.222 478.247 454.755 478.073 454.422C477.9 454.075 477.673 453.835 477.393 453.702C477.113 453.555 476.78 453.482 476.393 453.482C476.007 453.482 475.673 453.555 475.393 453.702C475.113 453.835 474.88 454.069 474.693 454.402C474.52 454.735 474.387 455.209 474.293 455.822C474.2 456.422 474.153 457.195 474.153 458.142C474.153 459.022 474.2 459.749 474.293 460.322C474.4 460.895 474.547 461.342 474.733 461.662C474.92 461.969 475.147 462.189 475.413 462.322C475.693 462.442 476.02 462.502 476.393 462.502ZM483.126 464.602L483.126 462.442L486.146 459.342C486.72 458.755 487.213 458.242 487.626 457.802C488.04 457.349 488.353 456.922 488.566 456.522C488.793 456.122 488.906 455.695 488.906 455.242C488.906 454.575 488.72 454.129 488.346 453.902C487.973 453.662 487.373 453.542 486.546 453.542C486.213 453.542 485.846 453.562 485.446 453.602C485.046 453.642 484.66 453.689 484.286 453.742C483.926 453.795 483.613 453.849 483.346 453.902L483.206 451.782C483.5 451.702 483.86 451.615 484.286 451.522C484.726 451.429 485.2 451.349 485.706 451.282C486.226 451.202 486.733 451.162 487.226 451.162C488.666 451.162 489.766 451.469 490.526 452.082C491.286 452.682 491.666 453.615 491.666 454.882C491.666 455.575 491.566 456.189 491.366 456.722C491.18 457.255 490.88 457.769 490.466 458.262C490.066 458.742 489.533 459.269 488.866 459.842L486.226 462.362H491.846L491.846 464.602H483.126ZM498.62 464.822C497.766 464.822 497.026 464.709 496.4 464.482C495.773 464.242 495.253 463.862 494.84 463.342C494.44 462.809 494.133 462.115 493.92 461.262C493.72 460.409 493.62 459.362 493.62 458.122C493.62 456.842 493.72 455.755 493.92 454.862C494.133 453.969 494.446 453.255 494.86 452.722C495.273 452.175 495.786 451.782 496.4 451.542C497.026 451.302 497.76 451.182 498.6 451.182C499.466 451.182 500.213 451.302 500.84 451.542C501.466 451.782 501.98 452.175 502.38 452.722C502.793 453.255 503.093 453.969 503.28 454.862C503.48 455.742 503.58 456.829 503.58 458.122C503.58 459.762 503.4 461.075 503.04 462.062C502.693 463.035 502.153 463.742 501.42 464.182C500.686 464.609 499.753 464.822 498.62 464.822ZM498.62 462.502C498.993 462.502 499.313 462.442 499.58 462.322C499.86 462.189 500.093 461.962 500.28 461.642C500.466 461.322 500.6 460.875 500.68 460.302C500.773 459.729 500.82 459.002 500.82 458.122C500.82 457.189 500.773 456.422 500.68 455.822C500.6 455.222 500.473 454.755 500.3 454.422C500.126 454.075 499.9 453.835 499.62 453.702C499.34 453.555 499.006 453.482 498.62 453.482C498.233 453.482 497.9 453.555 497.62 453.702C497.34 453.835 497.106 454.069 496.92 454.402C496.746 454.735 496.613 455.209 496.52 455.822C496.426 456.422 496.38 457.195 496.38 458.142C496.38 459.022 496.426 459.749 496.52 460.322C496.626 460.895 496.773 461.342 496.96 461.662C497.146 461.969 497.373 462.189 497.64 462.322C497.92 462.442 498.246 462.502 498.62 462.502Z" fill="#3A73A8"/>
<path d="M630.024 464.602L630.024 462.442L633.044 459.342C633.617 458.755 634.111 458.242 634.524 457.802C634.937 457.349 635.251 456.922 635.464 456.522C635.691 456.122 635.804 455.695 635.804 455.242C635.804 454.575 635.617 454.129 635.244 453.902C634.871 453.662 634.271 453.542 633.444 453.542C633.111 453.542 632.744 453.562 632.344 453.602C631.944 453.642 631.557 453.689 631.184 453.742C630.824 453.795 630.511 453.849 630.244 453.902L630.104 451.782C630.397 451.702 630.757 451.615 631.184 451.522C631.624 451.429 632.097 451.349 632.604 451.282C633.124 451.202 633.631 451.162 634.124 451.162C635.564 451.162 636.664 451.469 637.424 452.082C638.184 452.682 638.564 453.615 638.564 454.882C638.564 455.575 638.464 456.189 638.264 456.722C638.077 457.255 637.777 457.769 637.364 458.262C636.964 458.742 636.431 459.269 635.764 459.842L633.124 462.362H638.744L638.744 464.602H630.024ZM645.517 464.822C644.664 464.822 643.924 464.709 643.297 464.482C642.671 464.242 642.151 463.862 641.737 463.342C641.337 462.809 641.031 462.115 640.817 461.262C640.617 460.409 640.517 459.362 640.517 458.122C640.517 456.842 640.617 455.755 640.817 454.862C641.031 453.969 641.344 453.255 641.757 452.722C642.171 452.175 642.684 451.782 643.297 451.542C643.924 451.302 644.657 451.182 645.497 451.182C646.364 451.182 647.111 451.302 647.737 451.542C648.364 451.782 648.877 452.175 649.277 452.722C649.691 453.255 649.991 453.969 650.177 454.862C650.377 455.742 650.477 456.829 650.477 458.122C650.477 459.762 650.297 461.075 649.937 462.062C649.591 463.035 649.051 463.742 648.317 464.182C647.584 464.609 646.651 464.822 645.517 464.822ZM645.517 462.502C645.891 462.502 646.211 462.442 646.477 462.322C646.757 462.189 646.991 461.962 647.177 461.642C647.364 461.322 647.497 460.875 647.577 460.302C647.671 459.729 647.717 459.002 647.717 458.122C647.717 457.189 647.671 456.422 647.577 455.822C647.497 455.222 647.371 454.755 647.197 454.422C647.024 454.075 646.797 453.835 646.517 453.702C646.237 453.555 645.904 453.482 645.517 453.482C645.131 453.482 644.797 453.555 644.517 453.702C644.237 453.835 644.004 454.069 643.817 454.402C643.644 454.735 643.511 455.209 643.417 455.822C643.324 456.422 643.277 457.195 643.277 458.142C643.277 459.022 643.324 459.749 643.417 460.322C643.524 460.895 643.671 461.342 643.857 461.662C644.044 461.969 644.271 462.189 644.537 462.322C644.817 462.442 645.144 462.502 645.517 462.502ZM652.25 464.602L652.25 462.442L655.27 459.342C655.844 458.755 656.337 458.242 656.75 457.802C657.164 457.349 657.477 456.922 657.69 456.522C657.917 456.122 658.03 455.695 658.03 455.242C658.03 454.575 657.844 454.129 657.47 453.902C657.097 453.662 656.497 453.542 655.67 453.542C655.337 453.542 654.97 453.562 654.57 453.602C654.17 453.642 653.784 453.689 653.41 453.742C653.05 453.795 652.737 453.849 652.47 453.902L652.33 451.782C652.624 451.702 652.984 451.615 653.41 451.522C653.85 451.429 654.324 451.349 654.83 451.282C655.35 451.202 655.857 451.162 656.35 451.162C657.79 451.162 658.89 451.469 659.65 452.082C660.41 452.682 660.79 453.615 660.79 454.882C660.79 455.575 660.69 456.189 660.49 456.722C660.304 457.255 660.004 457.769 659.59 458.262C659.19 458.742 658.657 459.269 657.99 459.842L655.35 462.362H660.97L660.97 464.602H652.25ZM667.844 464.602L667.844 454.362L664.724 456.162L663.804 454.182L668.184 451.402H670.564L670.564 464.602H667.844Z" fill="#3A73A8"/>
<path d="M793.468 464.602L793.468 462.442L796.488 459.342C797.062 458.755 797.555 458.242 797.968 457.802C798.382 457.349 798.695 456.922 798.908 456.522C799.135 456.122 799.248 455.695 799.248 455.242C799.248 454.575 799.062 454.129 798.688 453.902C798.315 453.662 797.715 453.542 796.888 453.542C796.555 453.542 796.188 453.562 795.788 453.602C795.388 453.642 795.002 453.689 794.628 453.742C794.268 453.795 793.955 453.849 793.688 453.902L793.548 451.782C793.842 451.702 794.202 451.615 794.628 451.522C795.068 451.429 795.542 451.349 796.048 451.282C796.568 451.202 797.075 451.162 797.568 451.162C799.008 451.162 800.108 451.469 800.868 452.082C801.628 452.682 802.008 453.615 802.008 454.882C802.008 455.575 801.908 456.189 801.708 456.722C801.522 457.255 801.222 457.769 800.808 458.262C800.408 458.742 799.875 459.269 799.208 459.842L796.568 462.362H802.188L802.188 464.602H793.468ZM808.962 464.822C808.108 464.822 807.368 464.709 806.742 464.482C806.115 464.242 805.595 463.862 805.182 463.342C804.782 462.809 804.475 462.115 804.262 461.262C804.062 460.409 803.962 459.362 803.962 458.122C803.962 456.842 804.062 455.755 804.262 454.862C804.475 453.969 804.788 453.255 805.202 452.722C805.615 452.175 806.128 451.782 806.742 451.542C807.368 451.302 808.102 451.182 808.942 451.182C809.808 451.182 810.555 451.302 811.182 451.542C811.808 451.782 812.322 452.175 812.722 452.722C813.135 453.255 813.435 453.969 813.622 454.862C813.822 455.742 813.922 456.829 813.922 458.122C813.922 459.762 813.742 461.075 813.382 462.062C813.035 463.035 812.495 463.742 811.762 464.182C811.028 464.609 810.095 464.822 808.962 464.822ZM808.962 462.502C809.335 462.502 809.655 462.442 809.922 462.322C810.202 462.189 810.435 461.962 810.622 461.642C810.808 461.322 810.942 460.875 811.022 460.302C811.115 459.729 811.162 459.002 811.162 458.122C811.162 457.189 811.115 456.422 811.022 455.822C810.942 455.222 810.815 454.755 810.642 454.422C810.468 454.075 810.242 453.835 809.962 453.702C809.682 453.555 809.348 453.482 808.962 453.482C808.575 453.482 808.242 453.555 807.962 453.702C807.682 453.835 807.448 454.069 807.262 454.402C807.088 454.735 806.955 455.209 806.862 455.822C806.768 456.422 806.722 457.195 806.722 458.142C806.722 459.022 806.768 459.749 806.862 460.322C806.968 460.895 807.115 461.342 807.302 461.662C807.488 461.969 807.715 462.189 807.982 462.322C808.262 462.442 808.588 462.502 808.962 462.502ZM815.695 464.602L815.695 462.442L818.715 459.342C819.288 458.755 819.782 458.242 820.195 457.802C820.608 457.349 820.922 456.922 821.135 456.522C821.362 456.122 821.475 455.695 821.475 455.242C821.475 454.575 821.288 454.129 820.915 453.902C820.542 453.662 819.942 453.542 819.115 453.542C818.782 453.542 818.415 453.562 818.015 453.602C817.615 453.642 817.228 453.689 816.855 453.742C816.495 453.795 816.182 453.849 815.915 453.902L815.775 451.782C816.068 451.702 816.428 451.615 816.855 451.522C817.295 451.429 817.768 451.349 818.275 451.282C818.795 451.202 819.302 451.162 819.795 451.162C821.235 451.162 822.335 451.469 823.095 452.082C823.855 452.682 824.235 453.615 824.235 454.882C824.235 455.575 824.135 456.189 823.935 456.722C823.748 457.255 823.448 457.769 823.035 458.262C822.635 458.742 822.102 459.269 821.435 459.842L818.795 462.362H824.415L824.415 464.602H815.695ZM826.808 464.602L826.808 462.442L829.828 459.342C830.401 458.755 830.895 458.242 831.308 457.802C831.721 457.349 832.035 456.922 832.248 456.522C832.475 456.122 832.588 455.695 832.588 455.242C832.588 454.575 832.401 454.129 832.028 453.902C831.655 453.662 831.055 453.542 830.228 453.542C829.895 453.542 829.528 453.562 829.128 453.602C828.728 453.642 828.341 453.689 827.968 453.742C827.608 453.795 827.295 453.849 827.028 453.902L826.888 451.782C827.181 451.702 827.541 451.615 827.968 451.522C828.408 451.429 828.881 451.349 829.388 451.282C829.908 451.202 830.415 451.162 830.908 451.162C832.348 451.162 833.448 451.469 834.208 452.082C834.968 452.682 835.348 453.615 835.348 454.882C835.348 455.575 835.248 456.189 835.048 456.722C834.861 457.255 834.561 457.769 834.148 458.262C833.748 458.742 833.215 459.269 832.548 459.842L829.908 462.362H835.528L835.528 464.602H826.808Z" fill="#3A73A8"/>
<path d="M805.324 203.603L805.324 195.411L802.828 196.851L802.092 195.267L805.596 193.043H807.5L807.5 203.603H805.324ZM813.687 203.779C813.367 203.779 813.009 203.758 812.615 203.715C812.231 203.673 811.852 203.625 811.479 203.571C811.116 203.507 810.801 203.449 810.535 203.395L810.711 201.731C810.935 201.763 811.212 201.801 811.543 201.843C811.884 201.875 812.236 201.902 812.599 201.923C812.961 201.945 813.303 201.955 813.623 201.955C814.38 201.955 814.935 201.737 815.287 201.299C815.649 200.862 815.841 200.201 815.863 199.315C815.639 199.401 815.393 199.481 815.127 199.555C814.871 199.63 814.615 199.689 814.359 199.731C814.113 199.774 813.889 199.795 813.687 199.795C812.535 199.795 811.66 199.523 811.063 198.979C810.476 198.435 810.183 197.582 810.183 196.419C810.183 195.651 810.337 195.006 810.647 194.483C810.967 193.95 811.409 193.55 811.975 193.283C812.551 193.006 813.223 192.867 813.991 192.867C814.919 192.867 815.676 193.086 816.263 193.523C816.86 193.95 817.297 194.569 817.575 195.379C817.852 196.19 817.991 197.166 817.991 198.307C817.991 199.363 817.884 200.243 817.671 200.947C817.468 201.651 817.18 202.211 816.807 202.627C816.433 203.043 815.98 203.342 815.447 203.523C814.924 203.694 814.337 203.779 813.687 203.779ZM813.911 198.019C814.135 198.019 814.369 197.998 814.615 197.955C814.86 197.902 815.095 197.843 815.319 197.779C815.543 197.705 815.729 197.641 815.879 197.587C815.868 197.001 815.804 196.489 815.687 196.051C815.569 195.614 815.372 195.273 815.095 195.027C814.828 194.782 814.46 194.659 813.991 194.659C813.436 194.659 813.004 194.819 812.695 195.139C812.396 195.459 812.247 195.886 812.247 196.419C812.247 196.974 812.385 197.379 812.663 197.635C812.951 197.891 813.367 198.019 813.911 198.019ZM823.889 203.603L823.889 201.843H819.089L819.089 200.243L821.489 193.043H823.953L821.281 200.003H823.889L824.017 197.283L826.065 197.251L826.065 200.003H827.041L827.041 201.843H826.065L826.065 203.603H823.889Z" fill="#333333"/>
<path d="M639 370.245L639 368.517L641.416 366.037C641.874 365.567 642.269 365.157 642.6 364.805C642.93 364.442 643.181 364.101 643.352 363.781C643.533 363.461 643.624 363.119 643.624 362.757C643.624 362.223 643.474 361.866 643.176 361.685C642.877 361.493 642.397 361.397 641.736 361.397C641.469 361.397 641.176 361.413 640.856 361.445C640.536 361.477 640.226 361.514 639.928 361.557C639.64 361.599 639.389 361.642 639.176 361.685L639.064 359.989C639.298 359.925 639.586 359.855 639.928 359.781C640.28 359.706 640.658 359.642 641.064 359.589C641.48 359.525 641.885 359.493 642.28 359.493C643.432 359.493 644.312 359.738 644.92 360.229C645.528 360.709 645.832 361.455 645.832 362.469C645.832 363.023 645.752 363.514 645.592 363.941C645.442 364.367 645.202 364.778 644.872 365.173C644.552 365.557 644.125 365.978 643.592 366.437L641.48 368.453H645.976L645.976 370.245H639ZM651.362 370.421C650.648 370.421 649.981 370.335 649.362 370.165C648.754 369.994 648.264 369.695 647.89 369.269C647.517 368.842 647.33 368.255 647.33 367.509C647.33 366.975 647.394 366.549 647.522 366.229C647.661 365.909 647.853 365.637 648.098 365.413C648.344 365.189 648.637 364.975 648.978 364.773C648.466 364.495 648.093 364.175 647.858 363.813C647.624 363.45 647.506 362.938 647.506 362.277C647.506 361.626 647.666 361.098 647.986 360.693C648.317 360.287 648.77 359.989 649.346 359.797C649.933 359.605 650.605 359.509 651.362 359.509C652.12 359.509 652.792 359.599 653.378 359.781C653.976 359.962 654.44 360.261 654.77 360.677C655.112 361.082 655.282 361.621 655.282 362.293C655.282 362.975 655.165 363.493 654.93 363.845C654.696 364.186 654.301 364.501 653.746 364.789C654.12 364.959 654.429 365.157 654.674 365.381C654.93 365.594 655.122 365.861 655.25 366.181C655.378 366.501 655.442 366.911 655.442 367.413C655.442 368.191 655.256 368.799 654.882 369.237C654.509 369.674 654.013 369.983 653.394 370.165C652.786 370.335 652.109 370.421 651.362 370.421ZM651.362 368.677C651.736 368.677 652.061 368.634 652.338 368.549C652.626 368.453 652.845 368.298 652.994 368.085C653.154 367.861 653.234 367.557 653.234 367.173C653.234 366.874 653.176 366.629 653.058 366.437C652.952 366.234 652.797 366.069 652.594 365.941C652.402 365.813 652.189 365.711 651.954 365.637H650.754C650.381 365.754 650.082 365.941 649.858 366.197C649.645 366.442 649.538 366.783 649.538 367.221C649.538 367.573 649.613 367.855 649.762 368.069C649.922 368.282 650.141 368.437 650.418 368.533C650.696 368.629 651.01 368.677 651.362 368.677ZM650.754 364.021H651.954C652.306 363.882 652.584 363.701 652.786 363.477C652.989 363.253 653.09 362.959 653.09 362.597C653.09 362.117 652.941 361.77 652.642 361.557C652.354 361.343 651.933 361.237 651.378 361.237C650.834 361.237 650.418 361.343 650.13 361.557C649.842 361.77 649.698 362.111 649.698 362.581C649.698 362.954 649.789 363.253 649.97 363.477C650.152 363.701 650.413 363.882 650.754 364.021Z" fill="#333333"/>
<path d="M470.054 103.51L470.054 101.782L472.47 99.302C472.929 98.8327 473.324 98.422 473.654 98.07C473.985 97.7073 474.236 97.366 474.406 97.046C474.588 96.726 474.678 96.3847 474.678 96.022C474.678 95.4887 474.529 95.1313 474.23 94.95C473.932 94.758 473.452 94.662 472.79 94.662C472.524 94.662 472.23 94.678 471.91 94.71C471.59 94.742 471.281 94.7793 470.982 94.822C470.694 94.8647 470.444 94.9073 470.23 94.95L470.118 93.254C470.353 93.19 470.641 93.1207 470.982 93.046C471.334 92.9713 471.713 92.9073 472.118 92.854C472.534 92.79 472.94 92.758 473.334 92.758C474.486 92.758 475.366 93.0033 475.974 93.494C476.582 93.974 476.886 94.7207 476.886 95.734C476.886 96.2887 476.806 96.7793 476.646 97.206C476.497 97.6327 476.257 98.0433 475.926 98.438C475.606 98.822 475.18 99.2433 474.646 99.702L472.534 101.718H477.03L477.03 103.51H470.054ZM483.313 103.51L483.313 101.75H478.513L478.513 100.15L480.913 92.95H483.377L480.705 99.91H483.313L483.441 97.19L485.489 97.158L485.489 99.91H486.465L486.465 101.75H485.489L485.489 103.51H483.313ZM491.196 103.686L489.084 103.174L492.54 95.366L492.54 94.95H487.948L487.948 92.95H494.78L494.78 95.334L491.196 103.686Z" fill="#333333"/>
<path d="M311.412 305.177L309.3 304.665L312.756 296.857L312.756 296.441H308.164L308.164 294.441H314.996L314.996 296.825L311.412 305.177ZM321.311 305.001L321.311 303.241H316.511L316.511 301.641L318.911 294.441H321.375L318.703 301.401H321.311L321.439 298.681L323.487 298.649L323.487 301.401H324.463L324.463 303.241H323.487L323.487 305.001H321.311Z" fill="#333333"/>
<path d="M142.412 300.916L140.3 300.404L143.756 292.596L143.756 292.18H139.164L139.164 290.18H145.996L145.996 292.564L142.412 300.916ZM152.311 300.74L152.311 298.98H147.511L147.511 297.38L149.911 290.18H152.375L149.703 297.14H152.311L152.439 294.42L154.487 294.388L154.487 297.14H155.463L155.463 298.98H154.487L154.487 300.74H152.311Z" fill="#333333"/>
<path d="M947.379 203.603L947.379 426.437L1017.38 426.437L1017.38 203.603L947.379 203.603Z" fill="#062E4A"/>
<path d="M611.946 392.271L611.946 426.437L681.946 426.437L681.946 392.271L611.946 392.271Z" fill="#062E4A"/>
<path d="M448.946 112.561L448.946 426.437L518.946 426.437L518.946 112.561L448.946 112.561Z" fill="#062E4A"/>
<path d="M780.132 216.813L780.132 426.437L850.132 426.437L850.132 216.813L780.132 216.813Z" fill="#062E4A"/>
<path d="M278.946 314.053L278.946 426.437L348.946 426.437L348.946 314.053L278.946 314.053Z" fill="#062E4A"/>
<path d="M113.946 314.053L113.946 426.437L183.946 426.437L183.946 314.053L113.946 314.053Z" fill="#062E4A"/>
<path d="M145.229 376.05L144.571 375.882L147.203 365.886L147.875 366.068L145.229 376.05ZM144.081 370.492C143.689 370.492 143.363 370.418 143.101 370.268C142.849 370.11 142.663 369.872 142.541 369.554C142.42 369.228 142.359 368.812 142.359 368.308C142.359 367.804 142.42 367.394 142.541 367.076C142.672 366.759 142.863 366.53 143.115 366.39C143.377 366.241 143.699 366.166 144.081 366.166C144.483 366.166 144.809 366.241 145.061 366.39C145.313 366.53 145.5 366.759 145.621 367.076C145.743 367.394 145.803 367.804 145.803 368.308C145.803 368.812 145.743 369.228 145.621 369.554C145.5 369.872 145.313 370.11 145.061 370.268C144.809 370.418 144.483 370.492 144.081 370.492ZM144.081 369.47C144.212 369.47 144.315 369.438 144.389 369.372C144.464 369.298 144.515 369.176 144.543 369.008C144.581 368.831 144.599 368.598 144.599 368.308C144.599 368.019 144.581 367.795 144.543 367.636C144.515 367.468 144.464 367.352 144.389 367.286C144.315 367.212 144.212 367.174 144.081 367.174C143.951 367.174 143.848 367.212 143.773 367.286C143.699 367.352 143.647 367.468 143.619 367.636C143.591 367.795 143.577 368.019 143.577 368.308C143.577 368.598 143.591 368.831 143.619 369.008C143.647 369.176 143.699 369.298 143.773 369.372C143.848 369.438 143.951 369.47 144.081 369.47ZM148.393 375.686C147.992 375.686 147.661 375.612 147.399 375.462C147.147 375.304 146.961 375.066 146.839 374.748C146.718 374.422 146.657 374.006 146.657 373.502C146.657 372.998 146.718 372.588 146.839 372.27C146.97 371.953 147.161 371.72 147.413 371.57C147.675 371.421 148.001 371.346 148.393 371.346C148.785 371.346 149.107 371.421 149.359 371.57C149.611 371.72 149.798 371.953 149.919 372.27C150.05 372.588 150.115 372.998 150.115 373.502C150.115 374.006 150.05 374.422 149.919 374.748C149.798 375.066 149.611 375.304 149.359 375.462C149.107 375.612 148.785 375.686 148.393 375.686ZM148.393 374.664C148.515 374.664 148.613 374.632 148.687 374.566C148.771 374.492 148.827 374.37 148.855 374.202C148.883 374.025 148.897 373.792 148.897 373.502C148.897 373.204 148.883 372.975 148.855 372.816C148.827 372.648 148.776 372.536 148.701 372.48C148.627 372.415 148.524 372.382 148.393 372.382C148.253 372.382 148.146 372.415 148.071 372.48C147.997 372.536 147.945 372.648 147.917 372.816C147.889 372.975 147.875 373.204 147.875 373.502C147.875 373.792 147.889 374.025 147.917 374.202C147.955 374.37 148.011 374.492 148.085 374.566C148.16 374.632 148.263 374.664 148.393 374.664ZM150.698 368.014L150.698 367.384H153.806L153.806 368.014H150.698ZM150.698 375.616L150.698 374.986H153.806L153.806 375.616H150.698ZM154.156 375.686C153.811 375.686 153.447 375.668 153.064 375.63C152.691 375.593 152.331 375.546 151.986 375.49C151.65 375.425 151.37 375.369 151.146 375.322L151.23 373.824C151.454 373.852 151.72 373.885 152.028 373.922C152.345 373.96 152.667 373.992 152.994 374.02C153.33 374.039 153.638 374.048 153.918 374.048C154.45 374.048 154.847 373.95 155.108 373.754C155.369 373.558 155.5 373.241 155.5 372.802C155.5 372.504 155.439 372.27 155.318 372.102C155.206 371.925 155.038 371.794 154.814 371.71C154.599 371.626 154.347 371.58 154.058 371.57H152.154L152.154 370.03H154.016C154.231 370.03 154.436 369.984 154.632 369.89C154.837 369.797 155.001 369.662 155.122 369.484C155.253 369.307 155.318 369.092 155.318 368.84C155.318 368.448 155.197 368.173 154.954 368.014C154.721 367.846 154.338 367.762 153.806 367.762C153.526 367.762 153.232 367.776 152.924 367.804C152.616 367.832 152.322 367.865 152.042 367.902C151.762 367.93 151.529 367.963 151.342 368L151.258 366.53C151.463 366.474 151.715 366.418 152.014 366.362C152.313 366.297 152.63 366.246 152.966 366.208C153.302 366.162 153.619 366.138 153.918 366.138C154.711 366.138 155.351 366.222 155.836 366.39C156.331 366.549 156.69 366.815 156.914 367.188C157.138 367.552 157.25 368.033 157.25 368.63C157.25 368.957 157.208 369.232 157.124 369.456C157.049 369.68 156.947 369.872 156.816 370.03C156.695 370.189 156.569 370.32 156.438 370.422C156.307 370.516 156.186 370.6 156.074 370.674C156.354 370.805 156.597 370.95 156.802 371.108C157.007 371.267 157.166 371.477 157.278 371.738C157.39 372 157.446 372.35 157.446 372.788C157.446 373.488 157.325 374.053 157.082 374.482C156.839 374.902 156.475 375.21 155.99 375.406C155.505 375.593 154.893 375.686 154.156 375.686ZM162.845 375.532L162.845 373.992H158.645L158.645 372.592L160.745 366.292H162.901L160.563 372.382H162.845L162.957 370.002L164.749 369.974L164.749 372.382H165.603L165.603 373.992H164.749L164.749 375.532H162.845Z" fill="#FFFCFC"/>
<path d="M307.229 392.999L306.571 392.831L309.203 382.835L309.875 383.017L307.229 392.999ZM306.081 387.441C305.689 387.441 305.363 387.366 305.101 387.217C304.849 387.058 304.663 386.82 304.541 386.503C304.42 386.176 304.359 385.761 304.359 385.257C304.359 384.753 304.42 384.342 304.541 384.025C304.672 383.708 304.863 383.479 305.115 383.339C305.377 383.19 305.699 383.115 306.081 383.115C306.483 383.115 306.809 383.19 307.061 383.339C307.313 383.479 307.5 383.708 307.621 384.025C307.743 384.342 307.803 384.753 307.803 385.257C307.803 385.761 307.743 386.176 307.621 386.503C307.5 386.82 307.313 387.058 307.061 387.217C306.809 387.366 306.483 387.441 306.081 387.441ZM306.081 386.419C306.212 386.419 306.315 386.386 306.389 386.321C306.464 386.246 306.515 386.125 306.543 385.957C306.581 385.78 306.599 385.546 306.599 385.257C306.599 384.968 306.581 384.744 306.543 384.585C306.515 384.417 306.464 384.3 306.389 384.235C306.315 384.16 306.212 384.123 306.081 384.123C305.951 384.123 305.848 384.16 305.773 384.235C305.699 384.3 305.647 384.417 305.619 384.585C305.591 384.744 305.577 384.968 305.577 385.257C305.577 385.546 305.591 385.78 305.619 385.957C305.647 386.125 305.699 386.246 305.773 386.321C305.848 386.386 305.951 386.419 306.081 386.419ZM310.393 392.635C309.992 392.635 309.661 392.56 309.399 392.411C309.147 392.252 308.961 392.014 308.839 391.697C308.718 391.37 308.657 390.955 308.657 390.451C308.657 389.947 308.718 389.536 308.839 389.219C308.97 388.902 309.161 388.668 309.413 388.519C309.675 388.37 310.001 388.295 310.393 388.295C310.785 388.295 311.107 388.37 311.359 388.519C311.611 388.668 311.798 388.902 311.919 389.219C312.05 389.536 312.115 389.947 312.115 390.451C312.115 390.955 312.05 391.37 311.919 391.697C311.798 392.014 311.611 392.252 311.359 392.411C311.107 392.56 310.785 392.635 310.393 392.635ZM310.393 391.613C310.515 391.613 310.613 391.58 310.687 391.515C310.771 391.44 310.827 391.319 310.855 391.151C310.883 390.974 310.897 390.74 310.897 390.451C310.897 390.152 310.883 389.924 310.855 389.765C310.827 389.597 310.776 389.485 310.701 389.429C310.627 389.364 310.524 389.331 310.393 389.331C310.253 389.331 310.146 389.364 310.071 389.429C309.997 389.485 309.945 389.597 309.917 389.765C309.889 389.924 309.875 390.152 309.875 390.451C309.875 390.74 309.889 390.974 309.917 391.151C309.955 391.319 310.011 391.44 310.085 391.515C310.16 391.58 310.263 391.613 310.393 391.613ZM312.698 384.963L312.698 384.333H315.806L315.806 384.963H312.698ZM312.698 392.565L312.698 391.935H315.806L315.806 392.565H312.698ZM313.244 392.481L313.244 390.969L315.358 388.799C315.759 388.388 316.105 388.029 316.394 387.721C316.683 387.404 316.903 387.105 317.052 386.825C317.211 386.545 317.29 386.246 317.29 385.929C317.29 385.462 317.159 385.15 316.898 384.991C316.637 384.823 316.217 384.739 315.638 384.739C315.405 384.739 315.148 384.753 314.868 384.781C314.588 384.809 314.317 384.842 314.056 384.879C313.804 384.916 313.585 384.954 313.398 384.991L313.3 383.507C313.505 383.451 313.757 383.39 314.056 383.325C314.364 383.26 314.695 383.204 315.05 383.157C315.414 383.101 315.769 383.073 316.114 383.073C317.122 383.073 317.892 383.288 318.424 383.717C318.956 384.137 319.222 384.79 319.222 385.677C319.222 386.162 319.152 386.592 319.012 386.965C318.881 387.338 318.671 387.698 318.382 388.043C318.102 388.379 317.729 388.748 317.262 389.149L315.414 390.913H319.348L319.348 392.481H313.244ZM324.187 392.635C323.385 392.635 322.727 392.448 322.213 392.075C321.7 391.702 321.317 391.16 321.065 390.451C320.823 389.742 320.701 388.883 320.701 387.875C320.701 386.979 320.79 386.228 320.967 385.621C321.154 385.005 321.411 384.515 321.737 384.151C322.073 383.778 322.47 383.507 322.927 383.339C323.385 383.171 323.889 383.087 324.439 383.087C324.729 383.087 325.041 383.106 325.377 383.143C325.723 383.18 326.059 383.227 326.385 383.283C326.712 383.33 326.987 383.376 327.211 383.423L327.057 384.865C326.861 384.846 326.614 384.823 326.315 384.795C326.026 384.767 325.723 384.744 325.405 384.725C325.088 384.697 324.785 384.683 324.495 384.683C323.861 384.683 323.385 384.884 323.067 385.285C322.75 385.677 322.582 386.242 322.563 386.979C322.657 386.951 322.773 386.918 322.913 386.881C323.063 386.834 323.221 386.788 323.389 386.741C323.567 386.685 323.744 386.643 323.921 386.615C324.099 386.578 324.267 386.559 324.425 386.559C325.461 386.559 326.236 386.802 326.749 387.287C327.272 387.763 327.533 388.514 327.533 389.541C327.533 390.232 327.398 390.806 327.127 391.263C326.857 391.72 326.474 392.066 325.979 392.299C325.485 392.523 324.887 392.635 324.187 392.635ZM324.187 391.067C324.701 391.067 325.083 390.936 325.335 390.675C325.597 390.404 325.727 390.026 325.727 389.541C325.727 389.056 325.597 388.701 325.335 388.477C325.074 388.244 324.705 388.127 324.229 388.127C324.033 388.127 323.828 388.146 323.613 388.183C323.399 388.22 323.198 388.272 323.011 388.337C322.825 388.393 322.671 388.449 322.549 388.505C322.559 389 322.615 389.443 322.717 389.835C322.82 390.218 322.988 390.521 323.221 390.745C323.464 390.96 323.786 391.067 324.187 391.067Z" fill="#FFFCFC"/>
<path d="M473.34 185.07L472.682 184.902L475.314 174.906L475.986 175.088L473.34 185.07ZM472.192 179.512C471.8 179.512 471.473 179.437 471.212 179.288C470.96 179.129 470.773 178.891 470.652 178.574C470.53 178.247 470.47 177.832 470.47 177.328C470.47 176.824 470.53 176.413 470.652 176.096C470.782 175.779 470.974 175.55 471.226 175.41C471.487 175.261 471.809 175.186 472.192 175.186C472.593 175.186 472.92 175.261 473.172 175.41C473.424 175.55 473.61 175.779 473.732 176.096C473.853 176.413 473.914 176.824 473.914 177.328C473.914 177.832 473.853 178.247 473.732 178.574C473.61 178.891 473.424 179.129 473.172 179.288C472.92 179.437 472.593 179.512 472.192 179.512ZM472.192 178.49C472.322 178.49 472.425 178.457 472.5 178.392C472.574 178.317 472.626 178.196 472.654 178.028C472.691 177.851 472.71 177.617 472.71 177.328C472.71 177.039 472.691 176.815 472.654 176.656C472.626 176.488 472.574 176.371 472.5 176.306C472.425 176.231 472.322 176.194 472.192 176.194C472.061 176.194 471.958 176.231 471.884 176.306C471.809 176.371 471.758 176.488 471.73 176.656C471.702 176.815 471.688 177.039 471.688 177.328C471.688 177.617 471.702 177.851 471.73 178.028C471.758 178.196 471.809 178.317 471.884 178.392C471.958 178.457 472.061 178.49 472.192 178.49ZM476.504 184.706C476.102 184.706 475.771 184.631 475.51 184.482C475.258 184.323 475.071 184.085 474.95 183.768C474.828 183.441 474.768 183.026 474.768 182.522C474.768 182.018 474.828 181.607 474.95 181.29C475.08 180.973 475.272 180.739 475.524 180.59C475.785 180.441 476.112 180.366 476.504 180.366C476.896 180.366 477.218 180.441 477.47 180.59C477.722 180.739 477.908 180.973 478.03 181.29C478.16 181.607 478.226 182.018 478.226 182.522C478.226 183.026 478.16 183.441 478.03 183.768C477.908 184.085 477.722 184.323 477.47 184.482C477.218 184.631 476.896 184.706 476.504 184.706ZM476.504 183.684C476.625 183.684 476.723 183.651 476.798 183.586C476.882 183.511 476.938 183.39 476.966 183.222C476.994 183.045 477.008 182.811 477.008 182.522C477.008 182.223 476.994 181.995 476.966 181.836C476.938 181.668 476.886 181.556 476.812 181.5C476.737 181.435 476.634 181.402 476.504 181.402C476.364 181.402 476.256 181.435 476.182 181.5C476.107 181.556 476.056 181.668 476.028 181.836C476 181.995 475.986 182.223 475.986 182.522C475.986 182.811 476 183.045 476.028 183.222C476.065 183.39 476.121 183.511 476.196 183.586C476.27 183.651 476.373 183.684 476.504 183.684ZM478.808 177.034L478.808 176.404H481.916L481.916 177.034H478.808ZM478.808 184.636L478.808 184.006H481.916L481.916 184.636H478.808ZM482.49 184.552L482.49 177.384L480.306 178.644L479.662 177.258L482.728 175.312H484.394L484.394 184.552H482.49ZM490.046 184.706C489.7 184.706 489.336 184.687 488.954 184.65C488.58 184.613 488.221 184.566 487.876 184.51C487.54 184.445 487.26 184.389 487.036 184.342L487.12 182.844C487.344 182.872 487.61 182.905 487.918 182.942C488.235 182.979 488.557 183.012 488.884 183.04C489.22 183.059 489.528 183.068 489.808 183.068C490.34 183.068 490.736 182.97 490.998 182.774C491.259 182.578 491.39 182.261 491.39 181.822C491.39 181.523 491.329 181.29 491.208 181.122C491.096 180.945 490.928 180.814 490.704 180.73C490.489 180.646 490.237 180.599 489.948 180.59H488.044L488.044 179.05H489.906C490.12 179.05 490.326 179.003 490.522 178.91C490.727 178.817 490.89 178.681 491.012 178.504C491.142 178.327 491.208 178.112 491.208 177.86C491.208 177.468 491.086 177.193 490.844 177.034C490.61 176.866 490.228 176.782 489.696 176.782C489.416 176.782 489.122 176.796 488.814 176.824C488.506 176.852 488.212 176.885 487.932 176.922C487.652 176.95 487.418 176.983 487.232 177.02L487.148 175.55C487.353 175.494 487.605 175.438 487.904 175.382C488.202 175.317 488.52 175.265 488.856 175.228C489.192 175.181 489.509 175.158 489.808 175.158C490.601 175.158 491.24 175.242 491.726 175.41C492.22 175.569 492.58 175.835 492.804 176.208C493.028 176.572 493.14 177.053 493.14 177.65C493.14 177.977 493.098 178.252 493.014 178.476C492.939 178.7 492.836 178.891 492.706 179.05C492.584 179.209 492.458 179.339 492.328 179.442C492.197 179.535 492.076 179.619 491.964 179.694C492.244 179.825 492.486 179.969 492.692 180.128C492.897 180.287 493.056 180.497 493.168 180.758C493.28 181.019 493.336 181.369 493.336 181.808C493.336 182.508 493.214 183.073 492.972 183.502C492.729 183.922 492.365 184.23 491.88 184.426C491.394 184.613 490.783 184.706 490.046 184.706ZM498.035 184.706C497.68 184.706 497.298 184.678 496.887 184.622C496.476 184.575 496.08 184.515 495.697 184.44C495.314 184.365 494.988 184.3 494.717 184.244L494.885 182.816C495.137 182.853 495.436 182.9 495.781 182.956C496.126 183.003 496.481 183.04 496.845 183.068C497.209 183.096 497.54 183.11 497.839 183.11C498.315 183.11 498.693 182.989 498.973 182.746C499.253 182.494 499.393 182.13 499.393 181.654C499.393 181.327 499.332 181.071 499.211 180.884C499.099 180.697 498.931 180.567 498.707 180.492C498.492 180.408 498.24 180.366 497.951 180.366C497.727 180.366 497.503 180.389 497.279 180.436C497.055 180.473 496.845 180.525 496.649 180.59C496.453 180.646 496.294 180.707 496.173 180.772L494.913 180.576L495.137 175.312H500.919L500.919 177.006H496.649L496.467 179.064C496.598 179.008 496.761 178.952 496.957 178.896C497.153 178.831 497.363 178.775 497.587 178.728C497.82 178.681 498.044 178.658 498.259 178.658C498.903 178.658 499.449 178.747 499.897 178.924C500.345 179.101 500.686 179.395 500.919 179.806C501.162 180.217 501.283 180.777 501.283 181.486C501.283 182.223 501.148 182.83 500.877 183.306C500.616 183.773 500.242 184.123 499.757 184.356C499.281 184.589 498.707 184.706 498.035 184.706Z" fill="#FFFCFC"/>
<path d="M640.229 413.05L639.571 412.882L642.203 402.886L642.875 403.068L640.229 413.05ZM639.081 407.492C638.689 407.492 638.363 407.418 638.101 407.268C637.849 407.11 637.663 406.872 637.541 406.554C637.42 406.228 637.359 405.812 637.359 405.308C637.359 404.804 637.42 404.394 637.541 404.076C637.672 403.759 637.863 403.53 638.115 403.39C638.377 403.241 638.699 403.166 639.081 403.166C639.483 403.166 639.809 403.241 640.061 403.39C640.313 403.53 640.5 403.759 640.621 404.076C640.743 404.394 640.803 404.804 640.803 405.308C640.803 405.812 640.743 406.228 640.621 406.554C640.5 406.872 640.313 407.11 640.061 407.268C639.809 407.418 639.483 407.492 639.081 407.492ZM639.081 406.47C639.212 406.47 639.315 406.438 639.389 406.372C639.464 406.298 639.515 406.176 639.543 406.008C639.581 405.831 639.599 405.598 639.599 405.308C639.599 405.019 639.581 404.795 639.543 404.636C639.515 404.468 639.464 404.352 639.389 404.286C639.315 404.212 639.212 404.174 639.081 404.174C638.951 404.174 638.848 404.212 638.773 404.286C638.699 404.352 638.647 404.468 638.619 404.636C638.591 404.795 638.577 405.019 638.577 405.308C638.577 405.598 638.591 405.831 638.619 406.008C638.647 406.176 638.699 406.298 638.773 406.372C638.848 406.438 638.951 406.47 639.081 406.47ZM643.393 412.686C642.992 412.686 642.661 412.612 642.399 412.462C642.147 412.304 641.961 412.066 641.839 411.748C641.718 411.422 641.657 411.006 641.657 410.502C641.657 409.998 641.718 409.588 641.839 409.27C641.97 408.953 642.161 408.72 642.413 408.57C642.675 408.421 643.001 408.346 643.393 408.346C643.785 408.346 644.107 408.421 644.359 408.57C644.611 408.72 644.798 408.953 644.919 409.27C645.05 409.588 645.115 409.998 645.115 410.502C645.115 411.006 645.05 411.422 644.919 411.748C644.798 412.066 644.611 412.304 644.359 412.462C644.107 412.612 643.785 412.686 643.393 412.686ZM643.393 411.664C643.515 411.664 643.613 411.632 643.687 411.566C643.771 411.492 643.827 411.37 643.855 411.202C643.883 411.025 643.897 410.792 643.897 410.502C643.897 410.204 643.883 409.975 643.855 409.816C643.827 409.648 643.776 409.536 643.701 409.48C643.627 409.415 643.524 409.382 643.393 409.382C643.253 409.382 643.146 409.415 643.071 409.48C642.997 409.536 642.945 409.648 642.917 409.816C642.889 409.975 642.875 410.204 642.875 410.502C642.875 410.792 642.889 411.025 642.917 411.202C642.955 411.37 643.011 411.492 643.085 411.566C643.16 411.632 643.263 411.664 643.393 411.664ZM645.698 405.014L645.698 404.384H648.806L648.806 405.014H645.698ZM645.698 412.616L645.698 411.986H648.806L648.806 412.616H645.698ZM649.38 412.532L649.38 405.364L647.196 406.624L646.552 405.238L649.618 403.292H651.284L651.284 412.532H649.38ZM656.697 412.686C656.417 412.686 656.105 412.668 655.759 412.63C655.423 412.593 655.092 412.551 654.765 412.504C654.448 412.448 654.173 412.397 653.939 412.35L654.093 410.894C654.289 410.922 654.532 410.955 654.821 410.992C655.12 411.02 655.428 411.044 655.745 411.062C656.063 411.081 656.361 411.09 656.641 411.09C657.304 411.09 657.789 410.899 658.097 410.516C658.415 410.134 658.583 409.555 658.601 408.78C658.405 408.855 658.191 408.925 657.957 408.99C657.733 409.056 657.509 409.107 657.285 409.144C657.071 409.182 656.875 409.2 656.697 409.2C655.689 409.2 654.924 408.962 654.401 408.486C653.888 408.01 653.631 407.264 653.631 406.246C653.631 405.574 653.767 405.01 654.037 404.552C654.317 404.086 654.705 403.736 655.199 403.502C655.703 403.26 656.291 403.138 656.963 403.138C657.775 403.138 658.438 403.33 658.951 403.712C659.474 404.086 659.857 404.627 660.099 405.336C660.342 406.046 660.463 406.9 660.463 407.898C660.463 408.822 660.37 409.592 660.183 410.208C660.006 410.824 659.754 411.314 659.427 411.678C659.101 412.042 658.704 412.304 658.237 412.462C657.78 412.612 657.267 412.686 656.697 412.686ZM656.893 407.646C657.089 407.646 657.295 407.628 657.509 407.59C657.724 407.544 657.929 407.492 658.125 407.436C658.321 407.371 658.485 407.315 658.615 407.268C658.606 406.755 658.55 406.307 658.447 405.924C658.345 405.542 658.172 405.243 657.929 405.028C657.696 404.814 657.374 404.706 656.963 404.706C656.478 404.706 656.1 404.846 655.829 405.126C655.568 405.406 655.437 405.78 655.437 406.246C655.437 406.732 655.559 407.086 655.801 407.31C656.053 407.534 656.417 407.646 656.893 407.646Z" fill="#FFFCFC"/>
<path d="M804.34 116.054L803.682 115.886L806.314 105.89L806.986 106.072L804.34 116.054ZM803.192 110.496C802.8 110.496 802.473 110.421 802.212 110.272C801.96 110.113 801.773 109.875 801.652 109.558C801.53 109.231 801.47 108.816 801.47 108.312C801.47 107.808 801.53 107.397 801.652 107.08C801.782 106.762 801.974 106.534 802.226 106.394C802.487 106.244 802.809 106.17 803.192 106.17C803.593 106.17 803.92 106.244 804.172 106.394C804.424 106.534 804.61 106.762 804.732 107.08C804.853 107.397 804.914 107.808 804.914 108.312C804.914 108.816 804.853 109.231 804.732 109.558C804.61 109.875 804.424 110.113 804.172 110.272C803.92 110.421 803.593 110.496 803.192 110.496ZM803.192 109.474C803.322 109.474 803.425 109.441 803.5 109.376C803.574 109.301 803.626 109.18 803.654 109.012C803.691 108.834 803.71 108.601 803.71 108.312C803.71 108.022 803.691 107.798 803.654 107.64C803.626 107.472 803.574 107.355 803.5 107.29C803.425 107.215 803.322 107.178 803.192 107.178C803.061 107.178 802.958 107.215 802.884 107.29C802.809 107.355 802.758 107.472 802.73 107.64C802.702 107.798 802.688 108.022 802.688 108.312C802.688 108.601 802.702 108.834 802.73 109.012C802.758 109.18 802.809 109.301 802.884 109.376C802.958 109.441 803.061 109.474 803.192 109.474ZM807.504 115.69C807.102 115.69 806.771 115.615 806.51 115.466C806.258 115.307 806.071 115.069 805.95 114.752C805.828 114.425 805.768 114.01 805.768 113.506C805.768 113.002 805.828 112.591 805.95 112.274C806.08 111.956 806.272 111.723 806.524 111.574C806.785 111.424 807.112 111.35 807.504 111.35C807.896 111.35 808.218 111.424 808.47 111.574C808.722 111.723 808.908 111.956 809.03 112.274C809.16 112.591 809.226 113.002 809.226 113.506C809.226 114.01 809.16 114.425 809.03 114.752C808.908 115.069 808.722 115.307 808.47 115.466C808.218 115.615 807.896 115.69 807.504 115.69ZM807.504 114.668C807.625 114.668 807.723 114.635 807.798 114.57C807.882 114.495 807.938 114.374 807.966 114.206C807.994 114.028 808.008 113.795 808.008 113.506C808.008 113.207 807.994 112.978 807.966 112.82C807.938 112.652 807.886 112.54 807.812 112.484C807.737 112.418 807.634 112.386 807.504 112.386C807.364 112.386 807.256 112.418 807.182 112.484C807.107 112.54 807.056 112.652 807.028 112.82C807 112.978 806.986 113.207 806.986 113.506C806.986 113.795 807 114.028 807.028 114.206C807.065 114.374 807.121 114.495 807.196 114.57C807.27 114.635 807.373 114.668 807.504 114.668ZM813.49 115.536L813.49 108.368L811.306 109.628L810.662 108.242L813.728 106.296H815.394L815.394 115.536H813.49ZM821.074 115.69L819.226 115.242L822.25 108.41L822.25 108.046H818.232L818.232 106.296H824.21L824.21 108.382L821.074 115.69ZM828.587 115.69C828.307 115.69 827.994 115.671 827.649 115.634C827.313 115.596 826.982 115.554 826.655 115.508C826.338 115.452 826.062 115.4 825.829 115.354L825.983 113.898C826.179 113.926 826.422 113.958 826.711 113.996C827.01 114.024 827.318 114.047 827.635 114.066C827.952 114.084 828.251 114.094 828.531 114.094C829.194 114.094 829.679 113.902 829.987 113.52C830.304 113.137 830.472 112.558 830.491 111.784C830.295 111.858 830.08 111.928 829.847 111.994C829.623 112.059 829.399 112.11 829.175 112.148C828.96 112.185 828.764 112.204 828.587 112.204C827.579 112.204 826.814 111.966 826.291 111.49C825.778 111.014 825.521 110.267 825.521 109.25C825.521 108.578 825.656 108.013 825.927 107.556C826.207 107.089 826.594 106.739 827.089 106.506C827.593 106.263 828.181 106.142 828.853 106.142C829.665 106.142 830.328 106.333 830.841 106.716C831.364 107.089 831.746 107.63 831.989 108.34C832.232 109.049 832.353 109.903 832.353 110.902C832.353 111.826 832.26 112.596 832.073 113.212C831.896 113.828 831.644 114.318 831.317 114.682C830.99 115.046 830.594 115.307 830.127 115.466C829.67 115.615 829.156 115.69 828.587 115.69ZM828.783 110.65C828.979 110.65 829.184 110.631 829.399 110.594C829.614 110.547 829.819 110.496 830.015 110.44C830.211 110.374 830.374 110.318 830.505 110.272C830.496 109.758 830.44 109.31 830.337 108.928C830.234 108.545 830.062 108.246 829.819 108.032C829.586 107.817 829.264 107.71 828.853 107.71C828.368 107.71 827.99 107.85 827.719 108.13C827.458 108.41 827.327 108.783 827.327 109.25C827.327 109.735 827.448 110.09 827.691 110.314C827.943 110.538 828.307 110.65 828.783 110.65Z" fill="#6B95BD"/>
<path d="M972.34 116.054L971.682 115.886L974.314 105.89L974.986 106.072L972.34 116.054ZM971.192 110.496C970.8 110.496 970.473 110.421 970.212 110.272C969.96 110.113 969.773 109.875 969.652 109.558C969.53 109.231 969.47 108.816 969.47 108.312C969.47 107.808 969.53 107.397 969.652 107.08C969.782 106.762 969.974 106.534 970.226 106.394C970.487 106.244 970.809 106.17 971.192 106.17C971.593 106.17 971.92 106.244 972.172 106.394C972.424 106.534 972.61 106.762 972.732 107.08C972.853 107.397 972.914 107.808 972.914 108.312C972.914 108.816 972.853 109.231 972.732 109.558C972.61 109.875 972.424 110.113 972.172 110.272C971.92 110.421 971.593 110.496 971.192 110.496ZM971.192 109.474C971.322 109.474 971.425 109.441 971.5 109.376C971.574 109.301 971.626 109.18 971.654 109.012C971.691 108.834 971.71 108.601 971.71 108.312C971.71 108.022 971.691 107.798 971.654 107.64C971.626 107.472 971.574 107.355 971.5 107.29C971.425 107.215 971.322 107.178 971.192 107.178C971.061 107.178 970.958 107.215 970.884 107.29C970.809 107.355 970.758 107.472 970.73 107.64C970.702 107.798 970.688 108.022 970.688 108.312C970.688 108.601 970.702 108.834 970.73 109.012C970.758 109.18 970.809 109.301 970.884 109.376C970.958 109.441 971.061 109.474 971.192 109.474ZM975.504 115.69C975.102 115.69 974.771 115.615 974.51 115.466C974.258 115.307 974.071 115.069 973.95 114.752C973.828 114.425 973.768 114.01 973.768 113.506C973.768 113.002 973.828 112.591 973.95 112.274C974.08 111.956 974.272 111.723 974.524 111.574C974.785 111.424 975.112 111.35 975.504 111.35C975.896 111.35 976.218 111.424 976.47 111.574C976.722 111.723 976.908 111.956 977.03 112.274C977.16 112.591 977.226 113.002 977.226 113.506C977.226 114.01 977.16 114.425 977.03 114.752C976.908 115.069 976.722 115.307 976.47 115.466C976.218 115.615 975.896 115.69 975.504 115.69ZM975.504 114.668C975.625 114.668 975.723 114.635 975.798 114.57C975.882 114.495 975.938 114.374 975.966 114.206C975.994 114.028 976.008 113.795 976.008 113.506C976.008 113.207 975.994 112.978 975.966 112.82C975.938 112.652 975.886 112.54 975.812 112.484C975.737 112.418 975.634 112.386 975.504 112.386C975.364 112.386 975.256 112.418 975.182 112.484C975.107 112.54 975.056 112.652 975.028 112.82C975 112.978 974.986 113.207 974.986 113.506C974.986 113.795 975 114.028 975.028 114.206C975.065 114.374 975.121 114.495 975.196 114.57C975.27 114.635 975.373 114.668 975.504 114.668ZM978.354 115.536L978.354 114.024L980.468 111.854C980.87 111.443 981.215 111.084 981.504 110.776C981.794 110.458 982.013 110.16 982.162 109.88C982.321 109.6 982.4 109.301 982.4 108.984C982.4 108.517 982.27 108.204 982.008 108.046C981.747 107.878 981.327 107.794 980.748 107.794C980.515 107.794 980.258 107.808 979.978 107.836C979.698 107.864 979.428 107.896 979.166 107.934C978.914 107.971 978.695 108.008 978.508 108.046L978.41 106.562C978.616 106.506 978.868 106.445 979.166 106.38C979.474 106.314 979.806 106.258 980.16 106.212C980.524 106.156 980.879 106.128 981.224 106.128C982.232 106.128 983.002 106.342 983.534 106.772C984.066 107.192 984.332 107.845 984.332 108.732C984.332 109.217 984.262 109.646 984.122 110.02C983.992 110.393 983.782 110.752 983.492 111.098C983.212 111.434 982.839 111.802 982.372 112.204L980.524 113.968H984.458L984.458 115.536H978.354ZM989.2 115.69C988.602 115.69 988.084 115.61 987.646 115.452C987.207 115.284 986.843 115.018 986.554 114.654C986.274 114.28 986.059 113.795 985.91 113.198C985.77 112.6 985.7 111.868 985.7 111C985.7 110.104 985.77 109.343 985.91 108.718C986.059 108.092 986.278 107.593 986.568 107.22C986.857 106.837 987.216 106.562 987.646 106.394C988.084 106.226 988.598 106.142 989.186 106.142C989.792 106.142 990.315 106.226 990.754 106.394C991.192 106.562 991.552 106.837 991.832 107.22C992.121 107.593 992.331 108.092 992.462 108.718C992.602 109.334 992.672 110.094 992.672 111C992.672 112.148 992.546 113.067 992.294 113.758C992.051 114.439 991.673 114.934 991.16 115.242C990.646 115.54 989.993 115.69 989.2 115.69ZM989.2 114.066C989.461 114.066 989.685 114.024 989.872 113.94C990.068 113.846 990.231 113.688 990.362 113.464C990.492 113.24 990.586 112.927 990.642 112.526C990.707 112.124 990.74 111.616 990.74 111C990.74 110.346 990.707 109.81 990.642 109.39C990.586 108.97 990.497 108.643 990.376 108.41C990.254 108.167 990.096 107.999 989.9 107.906C989.704 107.803 989.47 107.752 989.2 107.752C988.929 107.752 988.696 107.803 988.5 107.906C988.304 107.999 988.14 108.162 988.01 108.396C987.888 108.629 987.795 108.96 987.73 109.39C987.664 109.81 987.632 110.351 987.632 111.014C987.632 111.63 987.664 112.138 987.73 112.54C987.804 112.941 987.907 113.254 988.038 113.478C988.168 113.692 988.327 113.846 988.514 113.94C988.71 114.024 988.938 114.066 989.2 114.066ZM996.853 115.69L995.005 115.242L998.029 108.41L998.029 108.046H994.011L994.011 106.296H999.989L999.989 108.382L996.853 115.69Z" fill="#6B95BD"/>
<path d="M377.886 517.821C377.093 517.821 376.44 517.695 375.926 517.443C375.413 517.191 375.03 516.808 374.778 516.295C374.536 515.781 374.414 515.133 374.414 514.349C374.414 513.565 374.536 512.911 374.778 512.389C375.03 511.857 375.413 511.46 375.926 511.199C376.44 510.928 377.093 510.793 377.886 510.793H381.05L381.05 516.939H379.174L379.174 512.011L379.636 512.417H377.886C377.504 512.417 377.196 512.463 376.962 512.557C376.729 512.641 376.556 512.823 376.444 513.103C376.342 513.373 376.29 513.789 376.29 514.349C376.29 514.881 376.337 515.282 376.43 515.553C376.533 515.814 376.701 515.987 376.934 516.071C377.168 516.155 377.485 516.197 377.886 516.197H382.52L382.52 517.821H377.886ZM382.52 517.821L382.52 516.197C382.632 516.197 382.707 516.271 382.744 516.421C382.782 516.561 382.8 516.757 382.8 517.009C382.8 517.251 382.782 517.447 382.744 517.597C382.707 517.746 382.632 517.821 382.52 517.821ZM376.178 509.953L376.178 508.357H378.054L378.054 509.953H376.178ZM378.096 509.953L378.096 508.357H379.972L379.972 509.953H378.096ZM386.61 517.821L386.61 516.197H388.36L388.36 517.821H386.61ZM388.36 517.821L388.36 516.197C388.472 516.197 388.547 516.271 388.584 516.421C388.622 516.561 388.64 516.757 388.64 517.009C388.64 517.251 388.622 517.447 388.584 517.597C388.547 517.746 388.472 517.821 388.36 517.821ZM382.522 517.821L382.522 516.197H385.84L384.748 517.107L384.748 510.793H386.61L386.61 517.821H382.522ZM382.522 517.821C382.41 517.821 382.336 517.746 382.298 517.597C382.261 517.447 382.242 517.251 382.242 517.009C382.242 516.757 382.261 516.561 382.298 516.421C382.336 516.271 382.41 516.197 382.522 516.197L382.522 517.821ZM383.082 520.733L383.082 519.137H384.958L384.958 520.733H383.082ZM385 520.733L385 519.137H386.876L386.876 520.733H385ZM391.818 517.821L391.818 516.197H393.288L393.288 517.821H391.818ZM389.942 517.821L389.942 507.923H391.818L391.818 517.821H389.942ZM388.36 517.821L388.36 516.197H389.942L389.942 517.821H388.36ZM388.36 517.821C388.248 517.821 388.174 517.746 388.136 517.597C388.099 517.447 388.08 517.251 388.08 517.009C388.08 516.757 388.099 516.561 388.136 516.421C388.174 516.271 388.248 516.197 388.36 516.197L388.36 517.821ZM393.288 517.821L393.288 516.197C393.4 516.197 393.475 516.271 393.512 516.421C393.55 516.561 393.568 516.757 393.568 517.009C393.568 517.251 393.55 517.447 393.512 517.597C393.475 517.746 393.4 517.821 393.288 517.821ZM397.37 517.821L397.37 516.197H399.12L399.12 517.821H397.37ZM399.12 517.821L399.12 516.197C399.232 516.197 399.307 516.271 399.344 516.421C399.382 516.561 399.4 516.757 399.4 517.009C399.4 517.251 399.382 517.447 399.344 517.597C399.307 517.746 399.232 517.821 399.12 517.821ZM393.282 517.821L393.282 516.197H396.6L395.508 517.107L395.508 510.793H397.37L397.37 517.821H393.282ZM393.282 517.821C393.17 517.821 393.096 517.746 393.058 517.597C393.021 517.447 393.002 517.251 393.002 517.009C393.002 516.757 393.021 516.561 393.058 516.421C393.096 516.271 393.17 516.197 393.282 516.197L393.282 517.821ZM393.842 520.733L393.842 519.137H395.718L395.718 520.733H393.842ZM395.76 520.733L395.76 519.137H397.636L397.636 520.733H395.76ZM399.12 517.821L399.12 516.197H402.088C402.489 516.197 402.877 516.122 403.25 515.973C403.623 515.814 403.964 515.609 404.272 515.357C404.589 515.095 404.865 514.811 405.098 514.503C405.341 514.185 405.527 513.863 405.658 513.537C405.798 513.21 405.868 512.902 405.868 512.613L405.868 511.717L406.764 513.201C406.279 512.939 405.784 512.743 405.28 512.613C404.776 512.482 404.295 512.417 403.838 512.417C403.39 512.417 402.909 512.482 402.396 512.613C401.892 512.743 401.402 512.939 400.926 513.201L401.822 511.717L401.822 512.613C401.822 512.902 401.887 513.21 402.018 513.537C402.158 513.863 402.345 514.185 402.578 514.503C402.811 514.811 403.087 515.095 403.404 515.357C403.721 515.609 404.067 515.814 404.44 515.973C404.813 516.122 405.196 516.197 405.588 516.197H408.472L408.472 517.821H406.176C405.448 517.821 404.767 517.704 404.132 517.471C403.497 517.237 402.923 516.929 402.41 516.547C401.897 516.155 401.453 515.73 401.08 515.273C400.716 514.806 400.436 514.344 400.24 513.887C400.044 513.42 399.946 512.995 399.946 512.613L399.946 511.815C400.347 511.591 400.772 511.404 401.22 511.255C401.677 511.105 402.13 510.993 402.578 510.919C403.035 510.835 403.455 510.793 403.838 510.793C404.23 510.793 404.65 510.835 405.098 510.919C405.546 510.993 405.994 511.105 406.442 511.255C406.899 511.404 407.329 511.591 407.73 511.815L407.73 512.613C407.73 512.995 407.632 513.42 407.436 513.887C407.24 514.344 406.955 514.806 406.582 515.273C406.218 515.73 405.779 516.155 405.266 516.547C404.753 516.929 404.179 517.237 403.544 517.471C402.909 517.704 402.228 517.821 401.5 517.821H399.12ZM399.12 517.821C399.008 517.821 398.933 517.746 398.896 517.597C398.859 517.447 398.84 517.251 398.84 517.009C398.84 516.757 398.859 516.561 398.896 516.421C398.933 516.271 399.008 516.197 399.12 516.197L399.12 517.821ZM408.472 517.821L408.472 516.197C408.584 516.197 408.659 516.271 408.696 516.421C408.733 516.561 408.752 516.757 408.752 517.009C408.752 517.251 408.733 517.447 408.696 517.597C408.659 517.746 408.584 517.821 408.472 517.821ZM402.872 509.505L402.872 507.909H404.748L404.748 509.505H402.872ZM420.218 517.821L420.218 516.197H421.702L421.702 517.821H420.218ZM416.704 517.821C416.321 517.821 415.938 517.751 415.556 517.611C415.182 517.461 414.837 517.242 414.52 516.953L415.668 515.763C415.854 515.912 416.027 516.024 416.186 516.099C416.354 516.164 416.526 516.197 416.704 516.197H419.322L418.356 517.079L418.356 513.971C418.356 513.821 418.337 513.597 418.3 513.299C418.272 512.991 418.225 512.645 418.16 512.263C418.104 511.871 418.034 511.474 417.95 511.073L419.798 510.793C419.863 511.129 419.924 511.507 419.98 511.927C420.045 512.337 420.101 512.729 420.148 513.103C420.194 513.467 420.218 513.756 420.218 513.971L420.218 517.821H416.704ZM408.472 517.821L408.472 516.197H410.516L410.096 516.631L410.096 512.221H411.972L411.972 517.821H408.472ZM411.972 517.821L411.972 516.197H413.106C413.404 516.197 413.633 516.155 413.792 516.071C413.95 515.977 414.058 515.795 414.114 515.525C414.179 515.245 414.212 514.829 414.212 514.279L414.212 511.521H416.088L416.088 514.279C416.088 515.109 415.98 515.786 415.766 516.309C415.56 516.831 415.238 517.214 414.8 517.457C414.361 517.699 413.796 517.821 413.106 517.821H411.972ZM408.472 517.821C408.36 517.821 408.285 517.746 408.248 517.597C408.21 517.447 408.192 517.251 408.192 517.009C408.192 516.757 408.21 516.561 408.248 516.421C408.285 516.271 408.36 516.197 408.472 516.197L408.472 517.821ZM421.702 517.821L421.702 516.197C421.814 516.197 421.888 516.271 421.926 516.421C421.963 516.561 421.982 516.757 421.982 517.009C421.982 517.251 421.963 517.447 421.926 517.597C421.888 517.746 421.814 517.821 421.702 517.821ZM414.352 507.363L414.352 505.963H415.976L415.976 507.363H414.352ZM412.994 509.505L412.994 507.909H414.8L414.8 509.505H412.994ZM415.542 509.505L415.542 507.909H417.348L417.348 509.505H415.542ZM425.794 517.821L425.794 516.197H427.544L427.544 517.821H425.794ZM427.544 517.821L427.544 516.197C427.656 516.197 427.731 516.271 427.768 516.421C427.805 516.561 427.824 516.757 427.824 517.009C427.824 517.251 427.805 517.447 427.768 517.597C427.731 517.746 427.656 517.821 427.544 517.821ZM421.706 517.821L421.706 516.197H425.024L423.932 517.107L423.932 510.793H425.794L425.794 517.821H421.706ZM421.706 517.821C421.594 517.821 421.519 517.746 421.482 517.597C421.445 517.447 421.426 517.251 421.426 517.009C421.426 516.757 421.445 516.561 421.482 516.421C421.519 516.271 421.594 516.197 421.706 516.197L421.706 517.821ZM422.266 509.953L422.266 508.357H424.142L424.142 509.953H422.266ZM424.184 509.953L424.184 508.357H426.06L426.06 509.953H424.184ZM429.126 517.821L429.126 507.923H431.002L431.002 517.821H429.126ZM427.544 517.821L427.544 516.197H429.126L429.126 517.821H427.544ZM427.544 517.821C427.432 517.821 427.357 517.746 427.32 517.597C427.283 517.447 427.264 517.251 427.264 517.009C427.264 516.757 427.283 516.561 427.32 516.421C427.357 516.271 427.432 516.197 427.544 516.197L427.544 517.821ZM433.247 517.821L433.247 507.923H435.109L435.109 517.821H433.247ZM444.591 517.821C443.088 517.821 441.945 517.531 441.161 516.953C440.377 516.365 439.985 515.497 439.985 514.349C439.985 514.125 439.999 513.891 440.027 513.649C440.055 513.397 440.087 513.159 440.125 512.935C440.171 512.701 440.213 512.496 440.251 512.319C440.288 512.141 440.316 512.011 440.335 511.927L442.155 512.277C442.127 512.426 442.089 512.617 442.043 512.851C441.996 513.084 441.954 513.331 441.917 513.593C441.879 513.845 441.861 514.087 441.861 514.321C441.861 514.806 441.963 515.189 442.169 515.469C442.374 515.739 442.687 515.931 443.107 516.043C443.527 516.145 444.054 516.197 444.689 516.197H448.427L448.427 510.793H450.303L450.303 517.821H444.591ZM443.177 511.311L443.177 509.715H445.053L445.053 511.311H443.177ZM445.095 511.311L445.095 509.715H446.971L446.971 511.311H445.095ZM454.277 517.821L454.277 516.197H455.873L455.873 517.821H454.277ZM452.415 517.821L452.415 507.923H454.277L454.277 517.821H452.415ZM455.873 517.821L455.873 516.197C455.985 516.197 456.06 516.271 456.097 516.421C456.135 516.561 456.153 516.757 456.153 517.009C456.153 517.251 456.135 517.447 456.097 517.597C456.06 517.746 455.985 517.821 455.873 517.821ZM459.96 517.821L459.96 516.197H461.71L461.71 517.821H459.96ZM461.71 517.821L461.71 516.197C461.822 516.197 461.897 516.271 461.934 516.421C461.971 516.561 461.99 516.757 461.99 517.009C461.99 517.251 461.971 517.447 461.934 517.597C461.897 517.746 461.822 517.821 461.71 517.821ZM455.872 517.821L455.872 516.197H459.19L458.098 517.107L458.098 510.793H459.96L459.96 517.821H455.872ZM455.872 517.821C455.76 517.821 455.685 517.746 455.648 517.597C455.611 517.447 455.592 517.251 455.592 517.009C455.592 516.757 455.611 516.561 455.648 516.421C455.685 516.271 455.76 516.197 455.872 516.197L455.872 517.821ZM456.432 520.733L456.432 519.137H458.308L458.308 520.733H456.432ZM458.35 520.733L458.35 519.137H460.226L460.226 520.733H458.35ZM465.168 517.821L465.168 516.197H466.638L466.638 517.821H465.168ZM463.292 517.821L463.292 507.923H465.168L465.168 517.821H463.292ZM461.71 517.821L461.71 516.197H463.292L463.292 517.821H461.71ZM461.71 517.821C461.598 517.821 461.523 517.746 461.486 517.597C461.449 517.447 461.43 517.251 461.43 517.009C461.43 516.757 461.449 516.561 461.486 516.421C461.523 516.271 461.598 516.197 461.71 516.197L461.71 517.821ZM466.638 517.821L466.638 516.197C466.75 516.197 466.825 516.271 466.862 516.421C466.899 516.561 466.918 516.757 466.918 517.009C466.918 517.251 466.899 517.447 466.862 517.597C466.825 517.746 466.75 517.821 466.638 517.821ZM474.906 517.821L474.906 516.197H476.39L476.39 517.821H474.906ZM466.632 517.821L466.632 516.197H473.898L473.044 516.925L473.044 514.349C473.044 513.845 472.988 513.453 472.876 513.173C472.764 512.883 472.568 512.683 472.288 512.571C472.017 512.449 471.639 512.389 471.154 512.389C470.771 512.389 470.393 512.417 470.02 512.473C469.656 512.519 469.371 512.585 469.166 512.669L470.328 511.577C470.272 511.791 470.216 512.062 470.16 512.389C470.113 512.715 470.071 513.065 470.034 513.439C469.997 513.803 469.978 514.162 469.978 514.517C469.978 514.843 469.992 515.184 470.02 515.539C470.057 515.893 470.095 516.206 470.132 516.477C470.179 516.747 470.216 516.934 470.244 517.037L468.466 517.527C468.429 517.396 468.382 517.181 468.326 516.883C468.27 516.584 468.219 516.229 468.172 515.819C468.135 515.408 468.116 514.974 468.116 514.517C468.116 514.05 468.139 513.602 468.186 513.173C468.233 512.734 468.284 512.342 468.34 511.997C468.405 511.642 468.466 511.357 468.522 511.143C468.746 511.059 469.096 510.975 469.572 510.891C470.048 510.807 470.575 510.765 471.154 510.765C471.994 510.765 472.689 510.881 473.24 511.115C473.8 511.348 474.215 511.726 474.486 512.249C474.766 512.771 474.906 513.476 474.906 514.363L474.906 517.821H466.632ZM466.632 517.821C466.52 517.821 466.445 517.746 466.408 517.597C466.371 517.447 466.352 517.251 466.352 517.009C466.352 516.757 466.371 516.561 466.408 516.421C466.445 516.271 466.52 516.197 466.632 516.197L466.632 517.821ZM476.39 517.821L476.39 516.197C476.502 516.197 476.577 516.271 476.614 516.421C476.651 516.561 476.67 516.757 476.67 517.009C476.67 517.251 476.651 517.447 476.614 517.597C476.577 517.746 476.502 517.821 476.39 517.821ZM476.394 517.821L476.394 516.197H479.362C479.763 516.197 480.15 516.122 480.524 515.973C480.897 515.814 481.238 515.609 481.546 515.357C481.863 515.095 482.138 514.811 482.372 514.503C482.614 514.185 482.801 513.863 482.932 513.537C483.072 513.21 483.142 512.902 483.142 512.613L483.142 511.717L484.038 513.201C483.552 512.939 483.058 512.743 482.554 512.613C482.05 512.482 481.569 512.417 481.112 512.417C480.664 512.417 480.183 512.482 479.67 512.613C479.166 512.743 478.676 512.939 478.2 513.201L479.096 511.717L479.096 512.613C479.096 512.902 479.161 513.21 479.292 513.537C479.432 513.863 479.618 514.185 479.852 514.503C480.085 514.811 480.36 515.095 480.678 515.357C480.995 515.609 481.34 515.814 481.714 515.973C482.087 516.122 482.47 516.197 482.862 516.197H485.746L485.746 517.821H483.45C482.722 517.821 482.04 517.704 481.406 517.471C480.771 517.237 480.197 516.929 479.684 516.547C479.17 516.155 478.727 515.73 478.354 515.273C477.99 514.806 477.71 514.344 477.514 513.887C477.318 513.42 477.22 512.995 477.22 512.613L477.22 511.815C477.621 511.591 478.046 511.404 478.494 511.255C478.951 511.105 479.404 510.993 479.852 510.919C480.309 510.835 480.729 510.793 481.112 510.793C481.504 510.793 481.924 510.835 482.372 510.919C482.82 510.993 483.268 511.105 483.716 511.255C484.173 511.404 484.602 511.591 485.004 511.815L485.004 512.613C485.004 512.995 484.906 513.42 484.71 513.887C484.514 514.344 484.229 514.806 483.856 515.273C483.492 515.73 483.053 516.155 482.54 516.547C482.026 516.929 481.452 517.237 480.818 517.471C480.183 517.704 479.502 517.821 478.774 517.821H476.394ZM476.394 517.821C476.282 517.821 476.207 517.746 476.17 517.597C476.132 517.447 476.114 517.251 476.114 517.009C476.114 516.757 476.132 516.561 476.17 516.421C476.207 516.271 476.282 516.197 476.394 516.197L476.394 517.821ZM485.746 517.821L485.746 516.197C485.858 516.197 485.932 516.271 485.97 516.421C486.007 516.561 486.026 516.757 486.026 517.009C486.026 517.251 486.007 517.447 485.97 517.597C485.932 517.746 485.858 517.821 485.746 517.821ZM487.327 517.821L487.327 507.923H489.203L489.203 517.821H487.327ZM485.745 517.821L485.745 516.197H487.327L487.327 517.821H485.745ZM485.745 517.821C485.633 517.821 485.558 517.746 485.521 517.597C485.484 517.447 485.465 517.251 485.465 517.009C485.465 516.757 485.484 516.561 485.521 516.421C485.558 516.271 485.633 516.197 485.745 516.197L485.745 517.821ZM491.448 517.821L491.448 507.923H493.31L493.31 517.821H491.448ZM506.446 517.821L506.446 516.197H507.916L507.916 517.821H506.446ZM502.414 521.293C501.602 521.293 500.874 521.143 500.23 520.845C499.595 520.555 499.096 520.149 498.732 519.627C498.368 519.104 498.186 518.511 498.186 517.849C498.186 517.662 498.2 517.415 498.228 517.107C498.256 516.799 498.293 516.453 498.34 516.071C498.396 515.688 498.452 515.301 498.508 514.909C498.573 514.507 498.634 514.12 498.69 513.747L500.538 513.999C500.435 514.624 500.347 515.198 500.272 515.721C500.207 516.234 500.155 516.673 500.118 517.037C500.081 517.401 500.062 517.667 500.062 517.835C500.062 518.208 500.155 518.53 500.342 518.801C500.529 519.071 500.795 519.281 501.14 519.431C501.495 519.589 501.919 519.669 502.414 519.669C502.927 519.669 503.343 519.594 503.66 519.445C503.977 519.295 504.206 519.09 504.346 518.829C504.495 518.567 504.57 518.273 504.57 517.947L504.57 510.793H506.446L506.446 517.947C506.446 518.619 506.269 519.207 505.914 519.711C505.569 520.215 505.093 520.602 504.486 520.873C503.879 521.153 503.189 521.293 502.414 521.293ZM507.916 517.821L507.916 516.197C508.028 516.197 508.103 516.271 508.14 516.421C508.177 516.561 508.196 516.757 508.196 517.009C508.196 517.251 508.177 517.447 508.14 517.597C508.103 517.746 508.028 517.821 507.916 517.821ZM501.392 510.289L501.392 508.693H503.268L503.268 510.289H501.392ZM507.921 517.821L507.921 516.197H515.187L514.333 516.925L514.333 514.349C514.333 513.845 514.277 513.453 514.165 513.173C514.053 512.883 513.857 512.683 513.577 512.571C513.306 512.449 512.928 512.389 512.443 512.389C512.06 512.389 511.682 512.417 511.309 512.473C510.945 512.519 510.66 512.585 510.455 512.669L511.617 511.577C511.561 511.791 511.505 512.062 511.449 512.389C511.402 512.715 511.36 513.065 511.323 513.439C511.286 513.803 511.267 514.162 511.267 514.517C511.267 514.843 511.281 515.184 511.309 515.539C511.346 515.893 511.384 516.206 511.421 516.477C511.468 516.747 511.505 516.934 511.533 517.037L509.755 517.527C509.718 517.396 509.671 517.181 509.615 516.883C509.559 516.584 509.508 516.229 509.461 515.819C509.424 515.408 509.405 514.974 509.405 514.517C509.405 514.05 509.428 513.602 509.475 513.173C509.522 512.734 509.573 512.342 509.629 511.997C509.694 511.642 509.755 511.357 509.811 511.143C510.035 511.059 510.385 510.975 510.861 510.891C511.337 510.807 511.864 510.765 512.443 510.765C513.283 510.765 513.978 510.881 514.529 511.115C515.089 511.348 515.504 511.726 515.775 512.249C516.055 512.771 516.195 513.476 516.195 514.363L516.195 517.821H507.921ZM507.921 517.821C507.809 517.821 507.734 517.746 507.697 517.597C507.66 517.447 507.641 517.251 507.641 517.009C507.641 516.757 507.66 516.561 507.697 516.421C507.734 516.271 507.809 516.197 507.921 516.197L507.921 517.821ZM526.47 517.821L526.47 516.197H527.94L527.94 517.821H526.47ZM520.786 517.821L520.786 516.197H525.868L524.594 517.303L524.594 514.951C524.594 514.288 524.524 513.775 524.384 513.411C524.253 513.047 524.029 512.79 523.712 512.641C523.404 512.491 522.979 512.417 522.438 512.417H521.304L521.304 510.793H522.438C523.296 510.793 524.024 510.933 524.622 511.213C525.228 511.493 525.686 511.941 525.994 512.557C526.311 513.163 526.47 513.961 526.47 514.951L526.47 517.821H520.786ZM527.94 517.821L527.94 516.197C528.052 516.197 528.126 516.271 528.164 516.421C528.201 516.561 528.22 516.757 528.22 517.009C528.22 517.251 528.201 517.447 528.164 517.597C528.126 517.746 528.052 517.821 527.94 517.821ZM535.777 517.821L535.777 516.197H537.247L537.247 517.821H535.777ZM527.937 517.821L527.937 516.197H534.475L533.901 516.687L533.901 512.011L534.377 512.417H532.613C532.202 512.417 531.88 512.468 531.647 512.571C531.413 512.673 531.25 512.865 531.157 513.145C531.063 513.415 531.017 513.803 531.017 514.307C531.017 514.857 531.063 515.268 531.157 515.539C531.25 515.8 531.413 515.977 531.647 516.071C531.88 516.155 532.202 516.197 532.613 516.197L532.613 517.653C531.819 517.653 531.166 517.541 530.653 517.317C530.139 517.093 529.757 516.738 529.505 516.253C529.262 515.758 529.141 515.109 529.141 514.307C529.141 513.541 529.262 512.897 529.505 512.375C529.757 511.852 530.139 511.46 530.653 511.199C531.166 510.928 531.819 510.793 532.613 510.793H535.777L535.777 517.821H527.937ZM527.937 517.821C527.825 517.821 527.75 517.746 527.713 517.597C527.675 517.447 527.657 517.251 527.657 517.009C527.657 516.757 527.675 516.561 527.713 516.421C527.75 516.271 527.825 516.197 527.937 516.197L527.937 517.821ZM537.247 517.821L537.247 516.197C537.359 516.197 537.433 516.271 537.471 516.421C537.508 516.561 537.527 516.757 537.527 517.009C537.527 517.251 537.508 517.447 537.471 517.597C537.433 517.746 537.359 517.821 537.247 517.821ZM531.185 509.953L531.185 508.357H533.061L533.061 509.953H531.185ZM533.103 509.953L533.103 508.357H534.979L534.979 509.953H533.103ZM540.593 517.821L540.593 516.197H542.063L542.063 517.821H540.593ZM537.247 517.821L537.247 516.197H539.809L538.717 517.107L538.717 510.793H540.593L540.593 517.821H537.247ZM537.247 517.821C537.135 517.821 537.06 517.746 537.023 517.597C536.986 517.447 536.967 517.251 536.967 517.009C536.967 516.757 536.986 516.561 537.023 516.421C537.06 516.271 537.135 516.197 537.247 516.197L537.247 517.821ZM542.063 517.821L542.063 516.197C542.175 516.197 542.25 516.271 542.287 516.421C542.324 516.561 542.343 516.757 542.343 517.009C542.343 517.251 542.324 517.447 542.287 517.597C542.25 517.746 542.175 517.821 542.063 517.821ZM538.717 509.505L538.717 507.909H540.593L540.593 509.505H538.717ZM543.642 517.821L543.642 507.923H545.518L545.518 517.821H543.642ZM542.06 517.821L542.06 516.197H543.642L543.642 517.821H542.06ZM542.06 517.821C541.948 517.821 541.873 517.746 541.836 517.597C541.798 517.447 541.78 517.251 541.78 517.009C541.78 516.757 541.798 516.561 541.836 516.421C541.873 516.271 541.948 516.197 542.06 516.197L542.06 517.821ZM547.763 517.821L547.763 507.923H549.625L549.625 517.821H547.763Z" fill="#333333"/>
<rect x="560.892" y="502.821" width="20" height="20" fill="#062E4A"/>
<path d="M613.716 521.293C613.109 521.293 612.544 521.204 612.022 521.027C611.508 520.859 611.06 520.621 610.678 520.313C610.295 520.014 609.992 519.655 609.768 519.235C609.553 518.824 609.446 518.376 609.446 517.891C609.446 517.713 609.46 517.485 609.488 517.205C609.516 516.925 609.553 516.603 609.6 516.239C609.656 515.875 609.716 515.487 609.782 515.077L611.63 515.329C611.536 515.917 611.462 516.439 611.406 516.897C611.35 517.354 611.322 517.676 611.322 517.863C611.322 518.217 611.42 518.53 611.616 518.801C611.812 519.071 612.087 519.281 612.442 519.431C612.806 519.589 613.23 519.669 613.716 519.669H617.678C618.284 519.669 618.737 519.515 619.036 519.207C619.334 518.908 619.484 518.451 619.484 517.835C619.484 517.527 619.432 517.289 619.33 517.121C619.227 516.943 619.045 516.794 618.784 516.673C618.522 516.542 618.144 516.402 617.65 516.253C617.09 516.075 616.6 515.907 616.18 515.749C615.76 515.59 615.414 515.417 615.144 515.231C614.873 515.035 614.668 514.801 614.528 514.531C614.397 514.26 614.332 513.919 614.332 513.509C614.332 512.893 614.467 512.389 614.738 511.997C615.008 511.595 615.396 511.297 615.9 511.101C616.404 510.895 617.001 510.793 617.692 510.793C618.009 510.793 618.387 510.816 618.826 510.863C619.264 510.909 619.848 510.984 620.576 511.087L620.366 512.641C619.694 512.566 619.143 512.51 618.714 512.473C618.284 512.435 617.92 512.417 617.622 512.417C617.108 512.417 616.74 512.501 616.516 512.669C616.301 512.827 616.194 513.075 616.194 513.411C616.194 513.663 616.278 513.868 616.446 514.027C616.623 514.176 616.866 514.297 617.174 514.391C617.482 514.484 617.827 514.591 618.21 514.713C618.891 514.918 619.465 515.147 619.932 515.399C620.398 515.651 620.748 515.973 620.982 516.365C621.224 516.747 621.346 517.247 621.346 517.863C621.346 518.535 621.196 519.127 620.898 519.641C620.599 520.154 620.174 520.555 619.624 520.845C619.082 521.143 618.434 521.293 617.678 521.293H613.716ZM613.478 524.233L613.478 522.637H615.354L615.354 524.233H613.478ZM615.396 524.233L615.396 522.637H617.272L617.272 524.233H615.396ZM628.432 517.821L628.432 516.197H629.902L629.902 517.821H628.432ZM622.748 517.821L622.748 516.197H627.83L626.556 517.303L626.556 514.951C626.556 514.288 626.486 513.775 626.346 513.411C626.216 513.047 625.992 512.79 625.674 512.641C625.366 512.491 624.942 512.417 624.4 512.417H623.266L623.266 510.793H624.4C625.259 510.793 625.987 510.933 626.584 511.213C627.191 511.493 627.648 511.941 627.956 512.557C628.274 513.163 628.432 513.961 628.432 514.951L628.432 517.821H622.748ZM629.902 517.821L629.902 516.197C630.014 516.197 630.089 516.271 630.126 516.421C630.164 516.561 630.182 516.757 630.182 517.009C630.182 517.251 630.164 517.447 630.126 517.597C630.089 517.746 630.014 517.821 629.902 517.821ZM637.739 517.821L637.739 516.197H639.209L639.209 517.821H637.739ZM629.899 517.821L629.899 516.197H636.437L635.863 516.687L635.863 512.011L636.339 512.417H634.575C634.165 512.417 633.843 512.468 633.609 512.571C633.376 512.673 633.213 512.865 633.119 513.145C633.026 513.415 632.979 513.803 632.979 514.307C632.979 514.857 633.026 515.268 633.119 515.539C633.213 515.8 633.376 515.977 633.609 516.071C633.843 516.155 634.165 516.197 634.575 516.197L634.575 517.653C633.782 517.653 633.129 517.541 632.615 517.317C632.102 517.093 631.719 516.738 631.467 516.253C631.225 515.758 631.103 515.109 631.103 514.307C631.103 513.541 631.225 512.897 631.467 512.375C631.719 511.852 632.102 511.46 632.615 511.199C633.129 510.928 633.782 510.793 634.575 510.793H637.739L637.739 517.821H629.899ZM629.899 517.821C629.787 517.821 629.713 517.746 629.675 517.597C629.638 517.447 629.619 517.251 629.619 517.009C629.619 516.757 629.638 516.561 629.675 516.421C629.713 516.271 629.787 516.197 629.899 516.197L629.899 517.821ZM639.209 517.821L639.209 516.197C639.321 516.197 639.396 516.271 639.433 516.421C639.471 516.561 639.489 516.757 639.489 517.009C639.489 517.251 639.471 517.447 639.433 517.597C639.396 517.746 639.321 517.821 639.209 517.821ZM633.147 509.953L633.147 508.357H635.023L635.023 509.953H633.147ZM635.065 509.953L635.065 508.357H636.941L636.941 509.953H635.065ZM642.556 517.821L642.556 516.197H644.026L644.026 517.821H642.556ZM639.21 517.821L639.21 516.197H641.772L640.68 517.107L640.68 510.793H642.556L642.556 517.821H639.21ZM639.21 517.821C639.098 517.821 639.023 517.746 638.986 517.597C638.949 517.447 638.93 517.251 638.93 517.009C638.93 516.757 638.949 516.561 638.986 516.421C639.023 516.271 639.098 516.197 639.21 516.197L639.21 517.821ZM644.026 517.821L644.026 516.197C644.138 516.197 644.213 516.271 644.25 516.421C644.287 516.561 644.306 516.757 644.306 517.009C644.306 517.251 644.287 517.447 644.25 517.597C644.213 517.746 644.138 517.821 644.026 517.821ZM640.68 509.505L640.68 507.909H642.556L642.556 509.505H640.68ZM645.604 517.821L645.604 507.923H647.48L647.48 517.821H645.604ZM644.022 517.821L644.022 516.197H645.604L645.604 517.821H644.022ZM644.022 517.821C643.91 517.821 643.836 517.746 643.798 517.597C643.761 517.447 643.742 517.251 643.742 517.009C643.742 516.757 643.761 516.561 643.798 516.421C643.836 516.271 643.91 516.197 644.022 516.197L644.022 517.821ZM649.726 517.821L649.726 507.923H651.588L651.588 517.821H649.726ZM660.691 521.293C659.879 521.293 659.151 521.143 658.507 520.845C657.873 520.555 657.373 520.149 657.009 519.627C656.645 519.104 656.463 518.511 656.463 517.849C656.463 517.662 656.477 517.415 656.505 517.107C656.533 516.799 656.571 516.453 656.617 516.071C656.673 515.688 656.729 515.301 656.785 514.909C656.851 514.507 656.911 514.12 656.967 513.747L658.815 513.999C658.713 514.624 658.624 515.198 658.549 515.721C658.484 516.234 658.433 516.673 658.395 517.037C658.358 517.401 658.339 517.667 658.339 517.835C658.339 518.208 658.433 518.53 658.619 518.801C658.806 519.071 659.072 519.281 659.417 519.431C659.772 519.589 660.197 519.669 660.691 519.669C661.205 519.669 661.62 519.594 661.937 519.445C662.255 519.295 662.483 519.09 662.623 518.829C662.773 518.567 662.847 518.273 662.847 517.947L662.847 507.923H664.723L664.723 517.947C664.723 518.619 664.546 519.207 664.191 519.711C663.846 520.215 663.37 520.602 662.763 520.873C662.157 521.153 661.466 521.293 660.691 521.293ZM672.888 517.821L672.888 516.197H674.358L674.358 517.821H672.888ZM669.108 521.293C668.763 521.293 668.399 521.265 668.016 521.209C667.643 521.162 667.242 521.097 666.812 521.013L667.092 519.515C667.559 519.571 667.956 519.613 668.282 519.641C668.609 519.669 668.884 519.683 669.108 519.683C669.78 519.683 670.266 519.561 670.564 519.319C670.863 519.076 671.012 518.712 671.012 518.227L671.012 512.081L671.474 512.417H669.724C669.342 512.417 669.034 512.463 668.8 512.557C668.567 512.641 668.394 512.823 668.282 513.103C668.18 513.373 668.128 513.789 668.128 514.349C668.128 514.881 668.175 515.282 668.268 515.553C668.371 515.814 668.539 515.987 668.772 516.071C669.006 516.155 669.323 516.197 669.724 516.197H671.012L671.012 517.821H669.724C668.931 517.821 668.278 517.695 667.764 517.443C667.251 517.191 666.868 516.808 666.616 516.295C666.374 515.781 666.252 515.133 666.252 514.349C666.252 513.565 666.374 512.911 666.616 512.389C666.868 511.857 667.251 511.46 667.764 511.199C668.278 510.928 668.931 510.793 669.724 510.793H672.888L672.888 518.227C672.888 518.861 672.73 519.407 672.412 519.865C672.104 520.331 671.666 520.686 671.096 520.929C670.536 521.171 669.874 521.293 669.108 521.293ZM674.358 517.821L674.358 516.197C674.47 516.197 674.545 516.271 674.582 516.421C674.62 516.561 674.638 516.757 674.638 517.009C674.638 517.251 674.62 517.447 674.582 517.597C674.545 517.746 674.47 517.821 674.358 517.821ZM681.612 517.821L681.612 516.197H683.096L683.096 517.821H681.612ZM674.36 517.821L674.36 516.197H680.38L679.75 516.715L679.75 514.125C679.75 513.565 679.573 513.14 679.218 512.851C678.873 512.561 678.322 512.417 677.566 512.417C677.352 512.417 677.058 512.435 676.684 512.473C676.311 512.501 675.905 512.547 675.466 512.613L675.284 511.129C675.686 511.035 676.092 510.956 676.502 510.891C676.922 510.825 677.333 510.793 677.734 510.793C678.5 510.793 679.172 510.928 679.75 511.199C680.329 511.46 680.782 511.838 681.108 512.333C681.444 512.827 681.612 513.425 681.612 514.125L681.612 517.821H674.36ZM674.36 517.821C674.248 517.821 674.174 517.746 674.136 517.597C674.099 517.447 674.08 517.251 674.08 517.009C674.08 516.757 674.099 516.561 674.136 516.421C674.174 516.271 674.248 516.197 674.36 516.197L674.36 517.821ZM683.096 517.821L683.096 516.197C683.199 516.197 683.269 516.271 683.306 516.421C683.353 516.561 683.376 516.757 683.376 517.009C683.376 517.251 683.353 517.447 683.306 517.597C683.269 517.746 683.199 517.821 683.096 517.821ZM687.185 517.821L687.185 516.197H688.935L688.935 517.821H687.185ZM688.935 517.821L688.935 516.197C689.047 516.197 689.121 516.271 689.159 516.421C689.196 516.561 689.215 516.757 689.215 517.009C689.215 517.251 689.196 517.447 689.159 517.597C689.121 517.746 689.047 517.821 688.935 517.821ZM683.097 517.821L683.097 516.197H686.415L685.323 517.107L685.323 510.793H687.185L687.185 517.821H683.097ZM683.097 517.821C682.985 517.821 682.91 517.746 682.873 517.597C682.835 517.447 682.817 517.251 682.817 517.009C682.817 516.757 682.835 516.561 682.873 516.421C682.91 516.271 682.985 516.197 683.097 516.197L683.097 517.821ZM683.657 509.953L683.657 508.357H685.533L685.533 509.953H683.657ZM685.575 509.953L685.575 508.357H687.451L687.451 509.953H685.575ZM690.517 517.821L690.517 507.923H692.393L692.393 517.821H690.517ZM688.935 517.821L688.935 516.197H690.517L690.517 517.821H688.935ZM688.935 517.821C688.823 517.821 688.748 517.746 688.711 517.597C688.673 517.447 688.655 517.251 688.655 517.009C688.655 516.757 688.673 516.561 688.711 516.421C688.748 516.271 688.823 516.197 688.935 516.197L688.935 517.821ZM694.638 517.821L694.638 507.923H696.5L696.5 517.821H694.638ZM704.847 517.821C704.054 517.821 703.401 517.695 702.887 517.443C702.374 517.191 701.991 516.808 701.739 516.295C701.497 515.781 701.375 515.133 701.375 514.349C701.375 513.565 701.497 512.911 701.739 512.389C701.991 511.857 702.374 511.46 702.887 511.199C703.401 510.928 704.054 510.793 704.847 510.793H708.011L708.011 516.939H706.135L706.135 512.011L706.597 512.417H704.847C704.465 512.417 704.157 512.463 703.923 512.557C703.69 512.641 703.517 512.823 703.405 513.103C703.303 513.373 703.251 513.789 703.251 514.349C703.251 514.881 703.298 515.282 703.391 515.553C703.494 515.814 703.662 515.987 703.895 516.071C704.129 516.155 704.446 516.197 704.847 516.197H709.481L709.481 517.821H704.847ZM709.481 517.821L709.481 516.197C709.593 516.197 709.668 516.271 709.705 516.421C709.743 516.561 709.761 516.757 709.761 517.009C709.761 517.251 709.743 517.447 709.705 517.597C709.668 517.746 709.593 517.821 709.481 517.821ZM703.139 509.953L703.139 508.357H705.015L705.015 509.953H703.139ZM705.057 509.953L705.057 508.357H706.933L706.933 509.953H705.057ZM712.829 517.821L712.829 516.197H714.299L714.299 517.821H712.829ZM709.483 517.821L709.483 516.197H712.045L710.953 517.107L710.953 510.793H712.829L712.829 517.821H709.483ZM709.483 517.821C709.371 517.821 709.297 517.746 709.259 517.597C709.222 517.447 709.203 517.251 709.203 517.009C709.203 516.757 709.222 516.561 709.259 516.421C709.297 516.271 709.371 516.197 709.483 516.197L709.483 517.821ZM714.299 517.821L714.299 516.197C714.411 516.197 714.486 516.271 714.523 516.421C714.561 516.561 714.579 516.757 714.579 517.009C714.579 517.251 714.561 517.447 714.523 517.597C714.486 517.746 714.411 517.821 714.299 517.821ZM710.953 520.803L710.953 519.207H712.829L712.829 520.803H710.953ZM726.042 517.821L726.042 516.197H727.526L727.526 517.821H726.042ZM722.528 517.821C722.145 517.821 721.763 517.751 721.38 517.611C721.007 517.461 720.661 517.242 720.344 516.953L721.492 515.763C721.679 515.912 721.851 516.024 722.01 516.099C722.178 516.164 722.351 516.197 722.528 516.197H725.146L724.18 517.079L724.18 513.971C724.18 513.821 724.161 513.597 724.124 513.299C724.096 512.991 724.049 512.645 723.984 512.263C723.928 511.871 723.858 511.474 723.774 511.073L725.622 510.793C725.687 511.129 725.748 511.507 725.804 511.927C725.869 512.337 725.925 512.729 725.972 513.103C726.019 513.467 726.042 513.756 726.042 513.971L726.042 517.821H722.528ZM714.296 517.821L714.296 516.197H716.34L715.92 516.631L715.92 512.221H717.796L717.796 517.821H714.296ZM717.796 517.821L717.796 516.197H718.93C719.229 516.197 719.457 516.155 719.616 516.071C719.775 515.977 719.882 515.795 719.938 515.525C720.003 515.245 720.036 514.829 720.036 514.279L720.036 511.521H721.912L721.912 514.279C721.912 515.109 721.805 515.786 721.59 516.309C721.385 516.831 721.063 517.214 720.624 517.457C720.185 517.699 719.621 517.821 718.93 517.821H717.796ZM714.296 517.821C714.184 517.821 714.109 517.746 714.072 517.597C714.035 517.447 714.016 517.251 714.016 517.009C714.016 516.757 714.035 516.561 714.072 516.421C714.109 516.271 714.184 516.197 714.296 516.197L714.296 517.821ZM727.526 517.821L727.526 516.197C727.638 516.197 727.713 516.271 727.75 516.421C727.787 516.561 727.806 516.757 727.806 517.009C727.806 517.251 727.787 517.447 727.75 517.597C727.713 517.746 727.638 517.821 727.526 517.821ZM727.53 517.821L727.53 516.197H730.092L729 517.107L729 510.793H730.876L730.876 517.821H727.53ZM727.53 517.821C727.418 517.821 727.344 517.746 727.306 517.597C727.269 517.447 727.25 517.251 727.25 517.009C727.25 516.757 727.269 516.561 727.306 516.421C727.344 516.271 727.418 516.197 727.53 516.197L727.53 517.821ZM729 509.505L729 507.909H730.876L730.876 509.505H729Z" fill="#333333"/>
<rect x="740.249" y="507.821" width="20" height="10" fill="#B5CADD"/>
<path d="M152 356.727L318.701 373.754L483.643 202.031L649.454 389.673L812.878 131.655L996.056 83.2708" stroke="#B5CADD" stroke-width="5" stroke-linecap="round"/>
</svg>
