<svg width="207" height="207" viewBox="0 0 207 207" fill="none" xmlns="http://www.w3.org/2000/svg">
<path d="M175.985 176.54C163.91 188.615 149.023 197.498 132.662 202.391C116.302 207.284 98.9822 208.032 82.2607 204.569C65.5393 201.106 49.9411 193.541 36.8695 182.553C23.798 171.565 13.6631 157.5 7.37696 141.623C1.09078 125.746 -1.14956 108.555 0.857538 91.5971C2.86463 74.6393 9.05618 58.4464 18.8751 44.4755C28.694 30.5046 41.8323 19.1939 57.1077 11.5612C72.3832 3.9285 89.3166 0.21318 106.384 0.749557L103.149 103.704L175.985 176.54Z" fill="#3A73A8"/>
<path d="M103.149 0.69873C121.006 0.69873 138.556 5.34097 154.078 14.17C169.599 22.999 182.559 35.7115 191.686 51.0602C200.812 66.4089 205.791 83.8666 206.135 101.72C206.479 119.574 202.176 137.21 193.647 152.899C185.119 168.588 172.658 181.79 157.488 191.21C142.318 200.631 124.96 205.945 107.116 206.633C89.2721 207.321 71.5561 203.358 55.706 195.133C39.8558 186.908 26.4161 174.704 16.7054 159.719L103.149 103.704L103.149 0.69873Z" fill="#D9A867"/>
<circle cx="103.15" cy="103.702" r="76.0069" fill="white"/>
<path d="M82.3072 117.709C81.2938 117.709 80.2005 117.629 79.0272 117.469C77.8538 117.336 76.7205 117.162 75.6272 116.949C74.5338 116.736 73.6005 116.549 72.8272 116.389L73.3072 112.309C74.0272 112.416 74.8805 112.549 75.8672 112.709C76.8538 112.842 77.8672 112.949 78.9072 113.029C79.9472 113.109 80.8938 113.149 81.7472 113.149C83.1072 113.149 84.1872 112.802 84.9872 112.109C85.7872 111.389 86.1872 110.349 86.1872 108.989C86.1872 108.056 86.0138 107.322 85.6672 106.789C85.3472 106.256 84.8672 105.882 84.2272 105.669C83.6138 105.429 82.8938 105.309 82.0672 105.309C81.4272 105.309 80.7872 105.376 80.1472 105.509C79.5072 105.616 78.9072 105.762 78.3472 105.949C77.7872 106.109 77.3338 106.282 76.9872 106.469L73.3872 105.909L74.0272 90.869H90.5472V95.709H78.3472L77.8272 101.589C78.2005 101.429 78.6672 101.269 79.2272 101.109C79.7872 100.922 80.3872 100.762 81.0272 100.629C81.6938 100.496 82.3338 100.429 82.9472 100.429C84.7872 100.429 86.3472 100.682 87.6272 101.189C88.9072 101.696 89.8805 102.536 90.5472 103.709C91.2405 104.882 91.5872 106.482 91.5872 108.509C91.5872 110.616 91.2005 112.349 90.4272 113.709C89.6805 115.042 88.6138 116.042 87.2272 116.709C85.8672 117.376 84.2272 117.709 82.3072 117.709ZM104.574 117.269V96.789L98.3337 100.389L96.4937 96.429L105.254 90.869H110.014V117.269H104.574ZM125.48 117.709C124.68 117.709 123.787 117.656 122.8 117.549C121.84 117.442 120.894 117.322 119.96 117.189C119.054 117.029 118.267 116.882 117.6 116.749L118.04 112.589C118.6 112.669 119.294 112.762 120.12 112.869C120.974 112.949 121.854 113.016 122.76 113.069C123.667 113.122 124.52 113.149 125.32 113.149C127.214 113.149 128.6 112.602 129.48 111.509C130.387 110.416 130.867 108.762 130.92 106.549C130.36 106.762 129.747 106.962 129.08 107.149C128.44 107.336 127.8 107.482 127.16 107.589C126.547 107.696 125.987 107.749 125.48 107.749C122.6 107.749 120.414 107.069 118.92 105.709C117.454 104.349 116.72 102.216 116.72 99.309C116.72 97.389 117.107 95.7757 117.88 94.469C118.68 93.1357 119.787 92.1357 121.2 91.469C122.64 90.7757 124.32 90.429 126.24 90.429C128.56 90.429 130.454 90.9757 131.92 92.069C133.414 93.1357 134.507 94.6824 135.2 96.709C135.894 98.7357 136.24 101.176 136.24 104.029C136.24 106.669 135.974 108.869 135.44 110.629C134.934 112.389 134.214 113.789 133.28 114.829C132.347 115.869 131.214 116.616 129.88 117.069C128.574 117.496 127.107 117.709 125.48 117.709ZM126.04 103.309C126.6 103.309 127.187 103.256 127.8 103.149C128.414 103.016 129 102.869 129.56 102.709C130.12 102.522 130.587 102.362 130.96 102.229C130.934 100.762 130.774 99.4824 130.48 98.389C130.187 97.2957 129.694 96.4424 129 95.829C128.334 95.2157 127.414 94.909 126.24 94.909C124.854 94.909 123.774 95.309 123 96.109C122.254 96.909 121.88 97.9757 121.88 99.309C121.88 100.696 122.227 101.709 122.92 102.349C123.64 102.989 124.68 103.309 126.04 103.309Z" fill="#333333"/>
</svg>
