<svg width="670" height="471" viewBox="0 0 670 471" fill="none" xmlns="http://www.w3.org/2000/svg">
<path d="M669.866 0.224121H2.17603V470.224H669.866V0.224121Z" fill="white"/>
<path d="M205.804 49.8074C203.121 49.8074 201.079 49.2907 199.679 48.2574C198.279 47.2074 197.579 45.6574 197.579 43.6074C197.579 43.2074 197.604 42.7907 197.654 42.3574C197.704 41.9074 197.763 41.4824 197.829 41.0824C197.913 40.6657 197.988 40.299 198.054 39.9824C198.121 39.6657 198.171 39.4324 198.204 39.2824L201.454 39.9074C201.404 40.174 201.338 40.5157 201.254 40.9324C201.171 41.349 201.096 41.7907 201.029 42.2574C200.963 42.7074 200.929 43.1407 200.929 43.5574C200.929 44.424 201.113 45.1074 201.479 45.6074C201.846 46.0907 202.404 46.4324 203.154 46.6324C203.904 46.8157 204.846 46.9074 205.979 46.9074H212.654V37.2574H216.004V49.8074H205.804ZM203.279 38.1824V35.3324H206.629V38.1824H203.279ZM206.704 38.1824V35.3324H210.054V38.1824H206.704ZM219.777 49.8074V32.1324H223.102V49.8074H219.777ZM238.214 49.8074V46.9074H240.839V49.8074H238.214ZM231.464 56.0074C230.847 56.0074 230.197 55.9574 229.514 55.8574C228.847 55.774 228.13 55.6574 227.364 55.5074L227.864 52.8324C228.697 52.9324 229.405 53.0074 229.989 53.0574C230.572 53.1074 231.064 53.1324 231.464 53.1324C232.664 53.1324 233.53 52.9157 234.064 52.4824C234.597 52.049 234.864 51.399 234.864 50.5324V39.5574L235.689 40.1574H232.564C231.88 40.1574 231.33 40.2407 230.914 40.4074C230.497 40.5574 230.189 40.8824 229.989 41.3824C229.805 41.8657 229.714 42.6074 229.714 43.6074C229.714 44.5574 229.797 45.274 229.964 45.7574C230.147 46.224 230.447 46.5324 230.864 46.6824C231.28 46.8324 231.847 46.9074 232.564 46.9074H234.864V49.8074H232.564C231.147 49.8074 229.98 49.5824 229.064 49.1324C228.147 48.6824 227.464 47.999 227.014 47.0824C226.58 46.1657 226.364 45.0074 226.364 43.6074C226.364 42.2074 226.58 41.0407 227.014 40.1074C227.464 39.1574 228.147 38.449 229.064 37.9824C229.98 37.499 231.147 37.2574 232.564 37.2574H238.214V50.5324C238.214 51.6657 237.93 52.6407 237.364 53.4574C236.814 54.2907 236.03 54.924 235.014 55.3574C234.014 55.7907 232.83 56.0074 231.464 56.0074ZM240.839 49.8074V46.9074C241.039 46.9074 241.172 47.0407 241.239 47.3074C241.305 47.5574 241.339 47.9074 241.339 48.3574C241.339 48.7907 241.305 49.1407 241.239 49.4074C241.172 49.674 241.039 49.8074 240.839 49.8074ZM246.817 49.8074V46.9074H249.442V49.8074H246.817ZM240.842 49.8074V46.9074H245.417L243.467 48.5324V37.2574H246.817V49.8074H240.842ZM240.842 49.8074C240.642 49.8074 240.509 49.674 240.442 49.4074C240.375 49.1407 240.342 48.7907 240.342 48.3574C240.342 47.9074 240.375 47.5574 240.442 47.3074C240.509 47.0407 240.642 46.9074 240.842 46.9074V49.8074ZM249.442 49.8074V46.9074C249.642 46.9074 249.775 47.0407 249.842 47.3074C249.909 47.5574 249.942 47.9074 249.942 48.3574C249.942 48.7907 249.909 49.1407 249.842 49.4074C249.775 49.674 249.642 49.8074 249.442 49.8074ZM243.467 34.9574V32.1074H246.817V34.9574H243.467ZM264.136 49.8074C263.452 49.8074 262.769 49.6824 262.086 49.4324C261.419 49.1657 260.802 48.774 260.236 48.2574L262.286 46.1324C262.619 46.399 262.927 46.599 263.211 46.7324C263.511 46.849 263.819 46.9074 264.136 46.9074H268.811L267.086 48.4824V42.9324C267.086 42.6657 267.052 42.2657 266.986 41.7324C266.936 41.1824 266.852 40.5657 266.736 39.8824C266.636 39.1824 266.511 38.474 266.361 37.7574L269.661 37.2574C269.777 37.8574 269.886 38.5324 269.986 39.2824C270.102 40.0157 270.202 40.7157 270.286 41.3824C270.369 42.0324 270.411 42.549 270.411 42.9324V49.8074H264.136ZM249.436 49.8074V46.9074H253.086L252.336 47.6824V39.8074H255.686V49.8074H249.436ZM255.686 49.8074V46.9074H257.711C258.244 46.9074 258.652 46.8324 258.936 46.6824C259.219 46.5157 259.411 46.1907 259.511 45.7074C259.627 45.2074 259.686 44.4657 259.686 43.4824V38.5574H263.036V43.4824C263.036 44.9657 262.844 46.174 262.461 47.1074C262.094 48.0407 261.519 48.724 260.736 49.1574C259.952 49.5907 258.944 49.8074 257.711 49.8074H255.686ZM249.436 49.8074C249.236 49.8074 249.102 49.674 249.036 49.4074C248.969 49.1407 248.936 48.7907 248.936 48.3574C248.936 47.9074 248.969 47.5574 249.036 47.3074C249.102 47.0407 249.236 46.9074 249.436 46.9074V49.8074ZM284.66 50.0824C284.026 50.0824 283.343 50.0324 282.61 49.9324C281.876 49.849 281.168 49.7407 280.485 49.6074C279.801 49.474 279.218 49.3574 278.735 49.2574L279.035 46.7074C279.485 46.774 280.018 46.8574 280.635 46.9574C281.251 47.0407 281.885 47.1074 282.535 47.1574C283.185 47.2074 283.776 47.2324 284.31 47.2324C285.16 47.2324 285.835 47.0157 286.335 46.5824C286.835 46.1324 287.085 45.4824 287.085 44.6324C287.085 44.049 286.976 43.5907 286.76 43.2574C286.56 42.924 286.26 42.6907 285.86 42.5574C285.476 42.4074 285.026 42.3324 284.51 42.3324C284.11 42.3324 283.71 42.374 283.31 42.4574C282.91 42.524 282.535 42.6157 282.185 42.7324C281.835 42.8324 281.551 42.9407 281.335 43.0574L279.085 42.7074L279.485 33.3074H289.81V36.3324H282.185L281.86 40.0074C282.093 39.9074 282.385 39.8074 282.735 39.7074C283.085 39.5907 283.46 39.4907 283.86 39.4074C284.276 39.324 284.676 39.2824 285.06 39.2824C286.21 39.2824 287.185 39.4407 287.985 39.7574C288.785 40.074 289.393 40.599 289.81 41.3324C290.243 42.0657 290.46 43.0657 290.46 44.3324C290.46 45.649 290.218 46.7324 289.735 47.5824C289.268 48.4157 288.601 49.0407 287.735 49.4574C286.885 49.874 285.86 50.0824 284.66 50.0824ZM302.746 49.8074V46.9074H305.971V49.8074H302.746ZM297.896 56.0074C297.679 56.0074 297.446 55.999 297.196 55.9824C296.946 55.9657 296.687 55.9407 296.421 55.9074L296.546 53.0574C296.812 53.074 297.062 53.0907 297.296 53.1074C297.546 53.124 297.729 53.1324 297.846 53.1324C298.496 53.1324 299.012 52.874 299.396 52.3574C299.796 51.8407 299.996 51.1157 299.996 50.1824V37.2574H303.346V50.1824C303.346 51.3157 303.112 52.324 302.646 53.2074C302.196 54.0907 301.562 54.774 300.746 55.2574C299.929 55.7574 298.979 56.0074 297.896 56.0074ZM305.971 49.8074V46.9074C306.171 46.9074 306.304 47.0407 306.371 47.3074C306.437 47.5574 306.471 47.9074 306.471 48.3574C306.471 48.7907 306.437 49.1407 306.371 49.4074C306.304 49.674 306.171 49.8074 305.971 49.8074ZM305.979 49.8074V46.9074H316.729L315.604 47.8324V43.2074C315.604 42.2074 315.287 41.449 314.654 40.9324C314.037 40.4157 313.054 40.1574 311.704 40.1574C311.32 40.1574 310.795 40.1907 310.129 40.2574C309.462 40.3074 308.737 40.3907 307.954 40.5074L307.629 37.8574C308.345 37.6907 309.07 37.549 309.804 37.4324C310.554 37.3157 311.287 37.2574 312.004 37.2574C313.37 37.2574 314.57 37.499 315.604 37.9824C316.637 38.449 317.445 39.124 318.029 40.0074C318.629 40.8907 318.929 41.9574 318.929 43.2074V49.8074H305.979ZM305.979 49.8074C305.779 49.8074 305.645 49.674 305.579 49.4074C305.512 49.1407 305.479 48.7907 305.479 48.3574C305.479 47.9074 305.512 47.5574 305.579 47.3074C305.645 47.0407 305.779 46.9074 305.979 46.9074V49.8074ZM310.304 35.2824V32.4324H313.654V35.2824H310.304ZM322.682 49.8074V32.1324H326.007V49.8074H322.682ZM321.682 30.3324L320.357 29.3324L321.682 27.3574H323.607C323.84 27.5407 324.115 27.6824 324.432 27.7824C324.749 27.8824 325.074 27.9324 325.407 27.9324C325.74 27.9324 326.057 27.8824 326.357 27.7824C326.674 27.6824 326.94 27.5407 327.157 27.3574L328.207 28.1074C328.007 28.4407 327.749 28.7574 327.432 29.0574C327.132 29.3407 326.774 29.574 326.357 29.7574C325.94 29.924 325.457 30.0074 324.907 30.0074C324.507 30.0074 324.124 29.9574 323.757 29.8574C323.39 29.7407 323.057 29.574 322.757 29.3574L321.682 30.3324ZM342.338 56.0074C341.255 56.0074 340.246 55.849 339.313 55.5324C338.396 55.2324 337.596 54.8074 336.913 54.2574C336.23 53.724 335.688 53.0824 335.288 52.3324C334.905 51.599 334.713 50.799 334.713 49.9324C334.713 49.6157 334.738 49.2074 334.788 48.7074C334.838 48.2074 334.905 47.6324 334.988 46.9824C335.088 46.3324 335.196 45.6407 335.313 44.9074L338.613 45.3574C338.446 46.4074 338.313 47.3407 338.213 48.1574C338.113 48.974 338.063 49.549 338.063 49.8824C338.063 50.5157 338.238 51.074 338.588 51.5574C338.938 52.0407 339.43 52.4157 340.063 52.6824C340.713 52.9657 341.471 53.1074 342.338 53.1074H349.413C350.496 53.1074 351.305 52.8324 351.838 52.2824C352.371 51.7324 352.638 50.9324 352.638 49.8824V48.9324H355.963V49.8824C355.963 51.0824 355.696 52.1407 355.163 53.0574C354.63 53.974 353.871 54.6907 352.888 55.2074C351.921 55.7407 350.763 56.0074 349.413 56.0074H342.338ZM351.538 49.8074C350.771 49.8074 350.03 49.724 349.313 49.5574C348.613 49.3907 347.946 49.0907 347.313 48.6574L349.213 46.2574C349.48 46.4407 349.713 46.5824 349.913 46.6824C350.13 46.7657 350.363 46.824 350.613 46.8574C350.88 46.8907 351.188 46.9074 351.538 46.9074H357.063V49.8074H351.538ZM357.063 49.8074V46.9074C357.246 46.9074 357.371 47.0407 357.438 47.3074C357.521 47.5574 357.563 47.9074 357.563 48.3574C357.563 48.7907 357.521 49.1407 357.438 49.4074C357.371 49.674 357.246 49.8074 357.063 49.8074ZM341.913 61.2574V58.4074H345.263V61.2574H341.913ZM345.338 61.2574V58.4074H348.688V61.2574H345.338ZM357.053 49.8074V46.9074H368.728L367.703 47.7824V39.4324L368.553 40.1574H365.403C364.67 40.1574 364.095 40.249 363.678 40.4324C363.261 40.6157 362.97 40.9574 362.803 41.4574C362.636 41.9407 362.553 42.6324 362.553 43.5324C362.553 44.5157 362.636 45.249 362.803 45.7324C362.97 46.199 363.261 46.5157 363.678 46.6824C364.095 46.8324 364.67 46.9074 365.403 46.9074V49.5074C363.986 49.5074 362.82 49.3074 361.903 48.9074C360.986 48.5074 360.303 47.874 359.853 47.0074C359.42 46.124 359.203 44.9657 359.203 43.5324C359.203 42.1657 359.42 41.0157 359.853 40.0824C360.303 39.149 360.986 38.449 361.903 37.9824C362.82 37.499 363.986 37.2574 365.403 37.2574H371.053V49.8074H357.053ZM357.053 49.8074C356.853 49.8074 356.72 49.674 356.653 49.4074C356.586 49.1407 356.553 48.7907 356.553 48.3574C356.553 47.9074 356.586 47.5574 356.653 47.3074C356.72 47.0407 356.853 46.9074 357.053 46.9074V49.8074ZM364.078 34.9574V32.1074H367.428V34.9574H364.078ZM387.469 49.8074C384.786 49.8074 382.744 49.2907 381.344 48.2574C379.944 47.2074 379.244 45.6574 379.244 43.6074C379.244 43.2074 379.269 42.7907 379.319 42.3574C379.369 41.9074 379.428 41.4824 379.494 41.0824C379.578 40.6657 379.653 40.299 379.719 39.9824C379.786 39.6657 379.836 39.4324 379.869 39.2824L383.119 39.9074C383.069 40.174 383.003 40.5157 382.919 40.9324C382.836 41.349 382.761 41.7907 382.694 42.2574C382.628 42.7074 382.594 43.1407 382.594 43.5574C382.594 44.424 382.778 45.1074 383.144 45.6074C383.511 46.0907 384.069 46.4324 384.819 46.6324C385.569 46.8157 386.511 46.9074 387.644 46.9074H394.319V37.2574H397.669V49.8074H387.469ZM384.944 38.1824V35.3324H388.294V38.1824H384.944ZM388.369 38.1824V35.3324H391.719V38.1824H388.369ZM401.442 49.8074V32.1324H404.767V49.8074H401.442ZM408.029 49.8074V46.9074H417.104L414.829 48.8824V44.6824C414.829 43.499 414.704 42.5824 414.454 41.9324C414.22 41.2824 413.82 40.824 413.254 40.5574C412.704 40.2907 411.945 40.1574 410.979 40.1574H408.954V37.2574H410.979C412.512 37.2574 413.812 37.5074 414.879 38.0074C415.962 38.5074 416.779 39.3074 417.329 40.4074C417.895 41.4907 418.179 42.9157 418.179 44.6824V49.8074H408.029ZM421.681 49.8074V32.1324H425.006V49.8074H421.681ZM433.068 49.8074V46.9074H436.293V49.8074H433.068ZM428.218 56.0074C428.001 56.0074 427.768 55.999 427.518 55.9824C427.268 55.9657 427.009 55.9407 426.743 55.9074L426.868 53.0574C427.134 53.074 427.384 53.0907 427.618 53.1074C427.868 53.124 428.051 53.1324 428.168 53.1324C428.818 53.1324 429.334 52.874 429.718 52.3574C430.118 51.8407 430.318 51.1157 430.318 50.1824V37.2574H433.668V50.1824C433.668 51.3157 433.434 52.324 432.968 53.2074C432.518 54.0907 431.884 54.774 431.068 55.2574C430.251 55.7574 429.301 56.0074 428.218 56.0074ZM436.293 49.8074V46.9074C436.493 46.9074 436.626 47.0407 436.693 47.3074C436.759 47.5574 436.793 47.9074 436.793 48.3574C436.793 48.7907 436.759 49.1407 436.693 49.4074C436.626 49.674 436.493 49.8074 436.293 49.8074ZM436.301 49.8074V46.9074H442.226L440.276 48.5324V37.2574H443.601V49.8074H436.301ZM436.301 49.8074C436.101 49.8074 435.968 49.674 435.901 49.4074C435.834 49.1407 435.801 48.7907 435.801 48.3574C435.801 47.9074 435.834 47.5574 435.901 47.3074C435.968 47.0407 436.101 46.9074 436.301 46.9074V49.8074ZM437.301 55.0074V52.1574H440.651V55.0074H437.301ZM440.726 55.0074V52.1574H444.076V55.0074H440.726ZM446.432 49.8074V46.9074H459.132L457.532 48.5574V32.1324H460.882V49.8074H446.432ZM449.907 46.9074V35.6324H453.232V46.9074H449.907ZM450.082 57.2824C449.765 56.899 449.524 56.5324 449.357 56.1824C449.19 55.8324 449.107 55.4574 449.107 55.0574C449.107 54.4907 449.257 53.974 449.557 53.5074C449.857 53.0574 450.249 52.699 450.732 52.4324C451.215 52.1824 451.749 52.0574 452.332 52.0574C452.649 52.0574 452.974 52.099 453.307 52.1824C453.64 52.2657 453.924 52.3907 454.157 52.5574L453.307 54.0824C453.157 53.999 453.007 53.9407 452.857 53.9074C452.724 53.8907 452.582 53.8824 452.432 53.8824C452.032 53.8824 451.724 53.9824 451.507 54.1824C451.29 54.399 451.182 54.6824 451.182 55.0324C451.182 55.2324 451.224 55.424 451.307 55.6074C451.39 55.7907 451.515 55.9907 451.682 56.2074L450.082 57.2824ZM448.557 57.4824V55.6574H454.607V57.4824H448.557ZM464.967 49.8074V32.1324H468.292V49.8074H464.967Z" fill="#333333"/>
<path d="M553.663 165.329L553.663 157.137L551.167 158.577L550.431 156.993L553.935 154.769H555.839L555.839 165.329H553.663ZM558.442 167.169L559.018 163.073H561.354L560.202 167.169H558.442ZM566.426 165.505C565.711 165.505 565.045 165.42 564.426 165.249C563.818 165.079 563.327 164.78 562.954 164.353C562.581 163.927 562.394 163.34 562.394 162.593C562.394 162.06 562.458 161.633 562.586 161.313C562.725 160.993 562.917 160.721 563.162 160.497C563.407 160.273 563.701 160.06 564.042 159.857C563.53 159.58 563.157 159.26 562.922 158.897C562.687 158.535 562.57 158.023 562.57 157.361C562.57 156.711 562.73 156.183 563.05 155.777C563.381 155.372 563.834 155.073 564.41 154.881C564.997 154.689 565.669 154.593 566.426 154.593C567.183 154.593 567.855 154.684 568.442 154.865C569.039 155.047 569.503 155.345 569.834 155.761C570.175 156.167 570.346 156.705 570.346 157.377C570.346 158.06 570.229 158.577 569.994 158.929C569.759 159.271 569.365 159.585 568.81 159.873C569.183 160.044 569.493 160.241 569.738 160.465C569.994 160.679 570.186 160.945 570.314 161.265C570.442 161.585 570.506 161.996 570.506 162.497C570.506 163.276 570.319 163.884 569.946 164.321C569.573 164.759 569.077 165.068 568.458 165.249C567.85 165.42 567.173 165.505 566.426 165.505ZM566.426 163.761C566.799 163.761 567.125 163.719 567.402 163.633C567.69 163.537 567.909 163.383 568.058 163.169C568.218 162.945 568.298 162.641 568.298 162.257C568.298 161.959 568.239 161.713 568.122 161.521C568.015 161.319 567.861 161.153 567.658 161.025C567.466 160.897 567.253 160.796 567.018 160.721H565.818C565.445 160.839 565.146 161.025 564.922 161.281C564.709 161.527 564.602 161.868 564.602 162.305C564.602 162.657 564.677 162.94 564.826 163.153C564.986 163.367 565.205 163.521 565.482 163.617C565.759 163.713 566.074 163.761 566.426 163.761ZM565.818 159.105H567.018C567.37 158.967 567.647 158.785 567.85 158.561C568.053 158.337 568.154 158.044 568.154 157.681C568.154 157.201 568.005 156.855 567.706 156.641C567.418 156.428 566.997 156.321 566.442 156.321C565.898 156.321 565.482 156.428 565.194 156.641C564.906 156.855 564.762 157.196 564.762 157.665C564.762 158.039 564.853 158.337 565.034 158.561C565.215 158.785 565.477 158.967 565.818 159.105ZM574.901 165.505C574.581 165.505 574.223 165.484 573.829 165.441C573.445 165.399 573.066 165.351 572.693 165.297C572.33 165.233 572.015 165.175 571.749 165.121L571.925 163.457C572.149 163.489 572.426 163.527 572.757 163.569C573.098 163.601 573.45 163.628 573.813 163.649C574.175 163.671 574.517 163.681 574.837 163.681C575.594 163.681 576.149 163.463 576.501 163.025C576.863 162.588 577.055 161.927 577.077 161.041C576.853 161.127 576.607 161.207 576.341 161.281C576.085 161.356 575.829 161.415 575.573 161.457C575.327 161.5 575.103 161.521 574.901 161.521C573.749 161.521 572.874 161.249 572.277 160.705C571.69 160.161 571.397 159.308 571.397 158.145C571.397 157.377 571.551 156.732 571.861 156.209C572.181 155.676 572.623 155.276 573.189 155.009C573.765 154.732 574.437 154.593 575.205 154.593C576.133 154.593 576.89 154.812 577.477 155.249C578.074 155.676 578.511 156.295 578.789 157.105C579.066 157.916 579.205 158.892 579.205 160.033C579.205 161.089 579.098 161.969 578.885 162.673C578.682 163.377 578.394 163.937 578.021 164.353C577.647 164.769 577.194 165.068 576.661 165.249C576.138 165.42 575.551 165.505 574.901 165.505ZM575.125 159.745C575.349 159.745 575.583 159.724 575.829 159.681C576.074 159.628 576.309 159.569 576.533 159.505C576.757 159.431 576.943 159.367 577.093 159.313C577.082 158.727 577.018 158.215 576.901 157.777C576.783 157.34 576.586 156.999 576.309 156.753C576.042 156.508 575.674 156.385 575.205 156.385C574.65 156.385 574.218 156.545 573.909 156.865C573.61 157.185 573.461 157.612 573.461 158.145C573.461 158.7 573.599 159.105 573.877 159.361C574.165 159.617 574.581 159.745 575.125 159.745ZM584.239 165.505C583.557 165.505 582.965 165.415 582.463 165.233C581.962 165.041 581.546 164.737 581.215 164.321C580.895 163.895 580.65 163.34 580.479 162.657C580.319 161.975 580.239 161.137 580.239 160.145C580.239 159.121 580.319 158.252 580.479 157.537C580.65 156.823 580.901 156.252 581.231 155.825C581.562 155.388 581.973 155.073 582.463 154.881C582.965 154.689 583.551 154.593 584.223 154.593C584.917 154.593 585.514 154.689 586.015 154.881C586.517 155.073 586.927 155.388 587.247 155.825C587.578 156.252 587.818 156.823 587.967 157.537C588.127 158.241 588.207 159.111 588.207 160.145C588.207 161.457 588.063 162.508 587.775 163.297C587.498 164.076 587.066 164.641 586.479 164.993C585.893 165.335 585.146 165.505 584.239 165.505ZM584.239 163.649C584.538 163.649 584.794 163.601 585.007 163.505C585.231 163.399 585.418 163.217 585.567 162.961C585.717 162.705 585.823 162.348 585.887 161.889C585.962 161.431 585.999 160.849 585.999 160.145C585.999 159.399 585.962 158.785 585.887 158.305C585.823 157.825 585.722 157.452 585.583 157.185C585.445 156.908 585.263 156.716 585.039 156.609C584.815 156.492 584.549 156.433 584.239 156.433C583.93 156.433 583.663 156.492 583.439 156.609C583.215 156.716 583.029 156.903 582.879 157.169C582.741 157.436 582.634 157.815 582.559 158.305C582.485 158.785 582.447 159.404 582.447 160.161C582.447 160.865 582.485 161.447 582.559 161.905C582.645 162.364 582.762 162.721 582.911 162.977C583.061 163.223 583.242 163.399 583.455 163.505C583.679 163.601 583.941 163.649 584.239 163.649Z" fill="#333333"/>
<path d="M553.588 441.612L553.588 439.452L556.608 436.352C557.182 435.766 557.675 435.252 558.088 434.812C558.502 434.359 558.815 433.932 559.028 433.532C559.255 433.132 559.368 432.706 559.368 432.252C559.368 431.586 559.182 431.139 558.808 430.912C558.435 430.672 557.835 430.552 557.008 430.552C556.675 430.552 556.308 430.572 555.908 430.612C555.508 430.652 555.122 430.699 554.748 430.752C554.388 430.806 554.075 430.859 553.808 430.912L553.668 428.792C553.962 428.712 554.322 428.626 554.748 428.532C555.188 428.439 555.662 428.359 556.168 428.292C556.688 428.212 557.195 428.172 557.688 428.172C559.128 428.172 560.228 428.479 560.988 429.092C561.748 429.692 562.128 430.626 562.128 431.892C562.128 432.586 562.028 433.199 561.828 433.732C561.642 434.266 561.342 434.779 560.928 435.272C560.528 435.752 559.995 436.279 559.328 436.852L556.688 439.372H562.308L562.308 441.612H553.588ZM569.082 441.832C568.228 441.832 567.488 441.719 566.862 441.492C566.235 441.252 565.715 440.872 565.302 440.352C564.902 439.819 564.595 439.126 564.382 438.272C564.182 437.419 564.082 436.372 564.082 435.132C564.082 433.852 564.182 432.766 564.382 431.872C564.595 430.979 564.908 430.266 565.322 429.732C565.735 429.186 566.248 428.792 566.862 428.552C567.488 428.312 568.222 428.192 569.062 428.192C569.928 428.192 570.675 428.312 571.302 428.552C571.928 428.792 572.442 429.186 572.842 429.732C573.255 430.266 573.555 430.979 573.742 431.872C573.942 432.752 574.042 433.839 574.042 435.132C574.042 436.772 573.862 438.086 573.502 439.072C573.155 440.046 572.615 440.752 571.882 441.192C571.148 441.619 570.215 441.832 569.082 441.832ZM569.082 439.512C569.455 439.512 569.775 439.452 570.042 439.332C570.322 439.199 570.555 438.972 570.742 438.652C570.928 438.332 571.062 437.886 571.142 437.312C571.235 436.739 571.282 436.012 571.282 435.132C571.282 434.199 571.235 433.432 571.142 432.832C571.062 432.232 570.935 431.766 570.762 431.432C570.588 431.086 570.362 430.846 570.082 430.712C569.802 430.566 569.468 430.492 569.082 430.492C568.695 430.492 568.362 430.566 568.082 430.712C567.802 430.846 567.568 431.079 567.382 431.412C567.208 431.746 567.075 432.219 566.982 432.832C566.888 433.432 566.842 434.206 566.842 435.152C566.842 436.032 566.888 436.759 566.982 437.332C567.088 437.906 567.235 438.352 567.422 438.672C567.608 438.979 567.835 439.199 568.102 439.332C568.382 439.452 568.708 439.512 569.082 439.512ZM575.815 441.612L575.815 439.452L578.835 436.352C579.408 435.766 579.902 435.252 580.315 434.812C580.728 434.359 581.042 433.932 581.255 433.532C581.482 433.132 581.595 432.706 581.595 432.252C581.595 431.586 581.408 431.139 581.035 430.912C580.662 430.672 580.062 430.552 579.235 430.552C578.902 430.552 578.535 430.572 578.135 430.612C577.735 430.652 577.348 430.699 576.975 430.752C576.615 430.806 576.302 430.859 576.035 430.912L575.895 428.792C576.188 428.712 576.548 428.626 576.975 428.532C577.415 428.439 577.888 428.359 578.395 428.292C578.915 428.212 579.422 428.172 579.915 428.172C581.355 428.172 582.455 428.479 583.215 429.092C583.975 429.692 584.355 430.626 584.355 431.892C584.355 432.586 584.255 433.199 584.055 433.732C583.868 434.266 583.568 434.779 583.155 435.272C582.755 435.752 582.222 436.279 581.555 436.852L578.915 439.372H584.535L584.535 441.612H575.815ZM591.088 441.832C590.595 441.832 590.075 441.806 589.528 441.752C588.995 441.699 588.482 441.632 587.988 441.552C587.508 441.459 587.108 441.379 586.788 441.312L586.908 439.172C587.228 439.212 587.608 439.259 588.048 439.312C588.502 439.366 588.962 439.412 589.428 439.452C589.908 439.479 590.348 439.492 590.748 439.492C591.508 439.492 592.075 439.352 592.448 439.072C592.822 438.792 593.008 438.339 593.008 437.712C593.008 437.286 592.922 436.952 592.748 436.712C592.588 436.459 592.348 436.272 592.028 436.152C591.722 436.032 591.362 435.966 590.948 435.952H588.228L588.228 433.752H590.888C591.195 433.752 591.488 433.686 591.768 433.552C592.062 433.419 592.295 433.226 592.468 432.972C592.655 432.719 592.748 432.412 592.748 432.052C592.748 431.492 592.575 431.099 592.228 430.872C591.895 430.632 591.348 430.512 590.588 430.512C590.188 430.512 589.768 430.532 589.328 430.572C588.888 430.612 588.468 430.659 588.068 430.712C587.668 430.752 587.335 430.799 587.068 430.852L586.948 428.752C587.242 428.672 587.602 428.592 588.028 428.512C588.455 428.419 588.908 428.346 589.388 428.292C589.868 428.226 590.322 428.192 590.748 428.192C591.882 428.192 592.795 428.312 593.488 428.552C594.195 428.779 594.708 429.159 595.028 429.692C595.348 430.212 595.508 430.899 595.508 431.752C595.508 432.219 595.448 432.612 595.328 432.932C595.222 433.252 595.075 433.526 594.888 433.752C594.715 433.979 594.535 434.166 594.348 434.312C594.162 434.446 593.988 434.566 593.828 434.672C594.228 434.859 594.575 435.066 594.868 435.292C595.162 435.519 595.388 435.819 595.548 436.192C595.708 436.566 595.788 437.066 595.788 437.692C595.788 438.692 595.615 439.499 595.268 440.112C594.922 440.712 594.402 441.152 593.708 441.432C593.015 441.699 592.142 441.832 591.088 441.832Z" fill="#3A73A8"/>
<path d="M71.805 441.612L71.805 439.452L74.825 436.352C75.3983 435.766 75.8917 435.252 76.305 434.812C76.7183 434.359 77.0317 433.932 77.245 433.532C77.4717 433.132 77.585 432.706 77.585 432.252C77.585 431.586 77.3983 431.139 77.025 430.912C76.6517 430.672 76.0517 430.552 75.225 430.552C74.8917 430.552 74.525 430.572 74.125 430.612C73.725 430.652 73.3383 430.699 72.965 430.752C72.605 430.806 72.2917 430.859 72.025 430.912L71.885 428.792C72.1783 428.712 72.5383 428.626 72.965 428.532C73.405 428.439 73.8783 428.359 74.385 428.292C74.905 428.212 75.4117 428.172 75.905 428.172C77.345 428.172 78.445 428.479 79.205 429.092C79.965 429.692 80.345 430.626 80.345 431.892C80.345 432.586 80.245 433.199 80.045 433.732C79.8583 434.266 79.5583 434.779 79.145 435.272C78.745 435.752 78.2117 436.279 77.545 436.852L74.905 439.372H80.525L80.525 441.612H71.805ZM87.2983 441.832C86.4449 441.832 85.7049 441.719 85.0783 441.492C84.4516 441.252 83.9316 440.872 83.5183 440.352C83.1183 439.819 82.8116 439.126 82.5983 438.272C82.3983 437.419 82.2983 436.372 82.2983 435.132C82.2983 433.852 82.3983 432.766 82.5983 431.872C82.8116 430.979 83.1249 430.266 83.5383 429.732C83.9516 429.186 84.4649 428.792 85.0783 428.552C85.7049 428.312 86.4383 428.192 87.2783 428.192C88.1449 428.192 88.8916 428.312 89.5183 428.552C90.1449 428.792 90.6583 429.186 91.0583 429.732C91.4716 430.266 91.7716 430.979 91.9583 431.872C92.1583 432.752 92.2583 433.839 92.2583 435.132C92.2583 436.772 92.0783 438.086 91.7183 439.072C91.3716 440.046 90.8316 440.752 90.0983 441.192C89.3649 441.619 88.4316 441.832 87.2983 441.832ZM87.2983 439.512C87.6716 439.512 87.9916 439.452 88.2583 439.332C88.5383 439.199 88.7716 438.972 88.9583 438.652C89.1449 438.332 89.2783 437.886 89.3583 437.312C89.4516 436.739 89.4983 436.012 89.4983 435.132C89.4983 434.199 89.4516 433.432 89.3583 432.832C89.2783 432.232 89.1516 431.766 88.9783 431.432C88.8049 431.086 88.5783 430.846 88.2983 430.712C88.0183 430.566 87.6849 430.492 87.2983 430.492C86.9116 430.492 86.5783 430.566 86.2983 430.712C86.0183 430.846 85.7849 431.079 85.5983 431.412C85.4249 431.746 85.2916 432.219 85.1983 432.832C85.1049 433.432 85.0583 434.206 85.0583 435.152C85.0583 436.032 85.1049 436.759 85.1983 437.332C85.3049 437.906 85.4516 438.352 85.6383 438.672C85.8249 438.979 86.0516 439.199 86.3183 439.332C86.5983 439.452 86.9249 439.512 87.2983 439.512ZM98.5116 441.612L98.5116 431.372L95.3916 433.172L94.4716 431.192L98.8516 428.412H101.232L101.232 441.612H98.5116ZM108.965 441.832C108.565 441.832 108.118 441.806 107.625 441.752C107.145 441.699 106.672 441.639 106.205 441.572C105.752 441.492 105.358 441.419 105.025 441.352L105.245 439.272C105.525 439.312 105.872 439.359 106.285 439.412C106.712 439.452 107.152 439.486 107.605 439.512C108.058 439.539 108.485 439.552 108.885 439.552C109.832 439.552 110.525 439.279 110.965 438.732C111.418 438.186 111.658 437.359 111.685 436.252C111.405 436.359 111.098 436.459 110.765 436.552C110.445 436.646 110.125 436.719 109.805 436.772C109.498 436.826 109.218 436.852 108.965 436.852C107.525 436.852 106.432 436.512 105.685 435.832C104.952 435.152 104.585 434.086 104.585 432.632C104.585 431.672 104.778 430.866 105.165 430.212C105.565 429.546 106.118 429.046 106.825 428.712C107.545 428.366 108.385 428.192 109.345 428.192C110.505 428.192 111.452 428.466 112.185 429.012C112.932 429.546 113.478 430.319 113.825 431.332C114.172 432.346 114.345 433.566 114.345 434.992C114.345 436.312 114.212 437.412 113.945 438.292C113.692 439.172 113.332 439.872 112.865 440.392C112.398 440.912 111.832 441.286 111.165 441.512C110.512 441.726 109.778 441.832 108.965 441.832ZM109.245 434.632C109.525 434.632 109.818 434.606 110.125 434.552C110.432 434.486 110.725 434.412 111.005 434.332C111.285 434.239 111.518 434.159 111.705 434.092C111.692 433.359 111.612 432.719 111.465 432.172C111.318 431.626 111.072 431.199 110.725 430.892C110.392 430.586 109.932 430.432 109.345 430.432C108.652 430.432 108.112 430.632 107.725 431.032C107.352 431.432 107.165 431.966 107.165 432.632C107.165 433.326 107.338 433.832 107.685 434.152C108.045 434.472 108.565 434.632 109.245 434.632Z" fill="#3A73A8"/>
<path d="M192.588 441.612L192.588 439.452L195.608 436.352C196.182 435.766 196.675 435.252 197.088 434.812C197.502 434.359 197.815 433.932 198.028 433.532C198.255 433.132 198.368 432.706 198.368 432.252C198.368 431.586 198.182 431.139 197.808 430.912C197.435 430.672 196.835 430.552 196.008 430.552C195.675 430.552 195.308 430.572 194.908 430.612C194.508 430.652 194.122 430.699 193.748 430.752C193.388 430.806 193.075 430.859 192.808 430.912L192.668 428.792C192.962 428.712 193.322 428.626 193.748 428.532C194.188 428.439 194.662 428.359 195.168 428.292C195.688 428.212 196.195 428.172 196.688 428.172C198.128 428.172 199.228 428.479 199.988 429.092C200.748 429.692 201.128 430.626 201.128 431.892C201.128 432.586 201.028 433.199 200.828 433.732C200.642 434.266 200.342 434.779 199.928 435.272C199.528 435.752 198.995 436.279 198.328 436.852L195.688 439.372H201.308L201.308 441.612H192.588ZM208.082 441.832C207.228 441.832 206.488 441.719 205.862 441.492C205.235 441.252 204.715 440.872 204.302 440.352C203.902 439.819 203.595 439.126 203.382 438.272C203.182 437.419 203.082 436.372 203.082 435.132C203.082 433.852 203.182 432.766 203.382 431.872C203.595 430.979 203.908 430.266 204.322 429.732C204.735 429.186 205.248 428.792 205.862 428.552C206.488 428.312 207.222 428.192 208.062 428.192C208.928 428.192 209.675 428.312 210.302 428.552C210.928 428.792 211.442 429.186 211.842 429.732C212.255 430.266 212.555 430.979 212.742 431.872C212.942 432.752 213.042 433.839 213.042 435.132C213.042 436.772 212.862 438.086 212.502 439.072C212.155 440.046 211.615 440.752 210.882 441.192C210.148 441.619 209.215 441.832 208.082 441.832ZM208.082 439.512C208.455 439.512 208.775 439.452 209.042 439.332C209.322 439.199 209.555 438.972 209.742 438.652C209.928 438.332 210.062 437.886 210.142 437.312C210.235 436.739 210.282 436.012 210.282 435.132C210.282 434.199 210.235 433.432 210.142 432.832C210.062 432.232 209.935 431.766 209.762 431.432C209.588 431.086 209.362 430.846 209.082 430.712C208.802 430.566 208.468 430.492 208.082 430.492C207.695 430.492 207.362 430.566 207.082 430.712C206.802 430.846 206.568 431.079 206.382 431.412C206.208 431.746 206.075 432.219 205.982 432.832C205.888 433.432 205.842 434.206 205.842 435.152C205.842 436.032 205.888 436.759 205.982 437.332C206.088 437.906 206.235 438.352 206.422 438.672C206.608 438.979 206.835 439.199 207.102 439.332C207.382 439.452 207.708 439.512 208.082 439.512ZM214.815 441.612L214.815 439.452L217.835 436.352C218.408 435.766 218.902 435.252 219.315 434.812C219.728 434.359 220.042 433.932 220.255 433.532C220.482 433.132 220.595 432.706 220.595 432.252C220.595 431.586 220.408 431.139 220.035 430.912C219.662 430.672 219.062 430.552 218.235 430.552C217.902 430.552 217.535 430.572 217.135 430.612C216.735 430.652 216.348 430.699 215.975 430.752C215.615 430.806 215.302 430.859 215.035 430.912L214.895 428.792C215.188 428.712 215.548 428.626 215.975 428.532C216.415 428.439 216.888 428.359 217.395 428.292C217.915 428.212 218.422 428.172 218.915 428.172C220.355 428.172 221.455 428.479 222.215 429.092C222.975 429.692 223.355 430.626 223.355 431.892C223.355 432.586 223.255 433.199 223.055 433.732C222.868 434.266 222.568 434.779 222.155 435.272C221.755 435.752 221.222 436.279 220.555 436.852L217.915 439.372H223.535L223.535 441.612H214.815ZM230.308 441.832C229.455 441.832 228.715 441.719 228.088 441.492C227.462 441.252 226.942 440.872 226.528 440.352C226.128 439.819 225.822 439.126 225.608 438.272C225.408 437.419 225.308 436.372 225.308 435.132C225.308 433.852 225.408 432.766 225.608 431.872C225.822 430.979 226.135 430.266 226.548 429.732C226.962 429.186 227.475 428.792 228.088 428.552C228.715 428.312 229.448 428.192 230.288 428.192C231.155 428.192 231.902 428.312 232.528 428.552C233.155 428.792 233.668 429.186 234.068 429.732C234.482 430.266 234.782 430.979 234.968 431.872C235.168 432.752 235.268 433.839 235.268 435.132C235.268 436.772 235.088 438.086 234.728 439.072C234.382 440.046 233.842 440.752 233.108 441.192C232.375 441.619 231.442 441.832 230.308 441.832ZM230.308 439.512C230.682 439.512 231.002 439.452 231.268 439.332C231.548 439.199 231.782 438.972 231.968 438.652C232.155 438.332 232.288 437.886 232.368 437.312C232.462 436.739 232.508 436.012 232.508 435.132C232.508 434.199 232.462 433.432 232.368 432.832C232.288 432.232 232.162 431.766 231.988 431.432C231.815 431.086 231.588 430.846 231.308 430.712C231.028 430.566 230.695 430.492 230.308 430.492C229.922 430.492 229.588 430.566 229.308 430.712C229.028 430.846 228.795 431.079 228.608 431.412C228.435 431.746 228.302 432.219 228.208 432.832C228.115 433.432 228.068 434.206 228.068 435.152C228.068 436.032 228.115 436.759 228.208 437.332C228.315 437.906 228.462 438.352 228.648 438.672C228.835 438.979 229.062 439.199 229.328 439.332C229.608 439.452 229.935 439.512 230.308 439.512Z" fill="#3A73A8"/>
<path d="M314.129 441.612L314.129 439.452L317.149 436.352C317.723 435.766 318.216 435.252 318.629 434.812C319.043 434.359 319.356 433.932 319.569 433.532C319.796 433.132 319.909 432.706 319.909 432.252C319.909 431.586 319.723 431.139 319.349 430.912C318.976 430.672 318.376 430.552 317.549 430.552C317.216 430.552 316.849 430.572 316.449 430.612C316.049 430.652 315.663 430.699 315.289 430.752C314.929 430.806 314.616 430.859 314.349 430.912L314.209 428.792C314.503 428.712 314.863 428.626 315.289 428.532C315.729 428.439 316.203 428.359 316.709 428.292C317.229 428.212 317.736 428.172 318.229 428.172C319.669 428.172 320.769 428.479 321.529 429.092C322.289 429.692 322.669 430.626 322.669 431.892C322.669 432.586 322.569 433.199 322.369 433.732C322.183 434.266 321.883 434.779 321.469 435.272C321.069 435.752 320.536 436.279 319.869 436.852L317.229 439.372H322.849L322.849 441.612H314.129ZM329.623 441.832C328.769 441.832 328.029 441.719 327.403 441.492C326.776 441.252 326.256 440.872 325.843 440.352C325.443 439.819 325.136 439.126 324.923 438.272C324.723 437.419 324.623 436.372 324.623 435.132C324.623 433.852 324.723 432.766 324.923 431.872C325.136 430.979 325.449 430.266 325.863 429.732C326.276 429.186 326.789 428.792 327.403 428.552C328.029 428.312 328.763 428.192 329.603 428.192C330.469 428.192 331.216 428.312 331.843 428.552C332.469 428.792 332.983 429.186 333.383 429.732C333.796 430.266 334.096 430.979 334.283 431.872C334.483 432.752 334.583 433.839 334.583 435.132C334.583 436.772 334.403 438.086 334.043 439.072C333.696 440.046 333.156 440.752 332.423 441.192C331.689 441.619 330.756 441.832 329.623 441.832ZM329.623 439.512C329.996 439.512 330.316 439.452 330.583 439.332C330.863 439.199 331.096 438.972 331.283 438.652C331.469 438.332 331.603 437.886 331.683 437.312C331.776 436.739 331.823 436.012 331.823 435.132C331.823 434.199 331.776 433.432 331.683 432.832C331.603 432.232 331.476 431.766 331.303 431.432C331.129 431.086 330.903 430.846 330.623 430.712C330.343 430.566 330.009 430.492 329.623 430.492C329.236 430.492 328.903 430.566 328.623 430.712C328.343 430.846 328.109 431.079 327.923 431.412C327.749 431.746 327.616 432.219 327.523 432.832C327.429 433.432 327.383 434.206 327.383 435.152C327.383 436.032 327.429 436.759 327.523 437.332C327.629 437.906 327.776 438.352 327.963 438.672C328.149 438.979 328.376 439.199 328.643 439.332C328.923 439.452 329.249 439.512 329.623 439.512ZM336.356 441.612L336.356 439.452L339.376 436.352C339.949 435.766 340.443 435.252 340.856 434.812C341.269 434.359 341.583 433.932 341.796 433.532C342.023 433.132 342.136 432.706 342.136 432.252C342.136 431.586 341.949 431.139 341.576 430.912C341.203 430.672 340.603 430.552 339.776 430.552C339.443 430.552 339.076 430.572 338.676 430.612C338.276 430.652 337.889 430.699 337.516 430.752C337.156 430.806 336.843 430.859 336.576 430.912L336.436 428.792C336.729 428.712 337.089 428.626 337.516 428.532C337.956 428.439 338.429 428.359 338.936 428.292C339.456 428.212 339.963 428.172 340.456 428.172C341.896 428.172 342.996 428.479 343.756 429.092C344.516 429.692 344.896 430.626 344.896 431.892C344.896 432.586 344.796 433.199 344.596 433.732C344.409 434.266 344.109 434.779 343.696 435.272C343.296 435.752 342.763 436.279 342.096 436.852L339.456 439.372H345.076L345.076 441.612H336.356ZM351.949 441.612L351.949 431.372L348.829 433.172L347.909 431.192L352.289 428.412H354.669L354.669 441.612H351.949Z" fill="#3A73A8"/>
<path d="M431.588 441.612L431.588 439.452L434.608 436.352C435.182 435.766 435.675 435.252 436.088 434.812C436.502 434.359 436.815 433.932 437.028 433.532C437.255 433.132 437.368 432.706 437.368 432.252C437.368 431.586 437.182 431.139 436.808 430.912C436.435 430.672 435.835 430.552 435.008 430.552C434.675 430.552 434.308 430.572 433.908 430.612C433.508 430.652 433.122 430.699 432.748 430.752C432.388 430.806 432.075 430.859 431.808 430.912L431.668 428.792C431.962 428.712 432.322 428.626 432.748 428.532C433.188 428.439 433.662 428.359 434.168 428.292C434.688 428.212 435.195 428.172 435.688 428.172C437.128 428.172 438.228 428.479 438.988 429.092C439.748 429.692 440.128 430.626 440.128 431.892C440.128 432.586 440.028 433.199 439.828 433.732C439.642 434.266 439.342 434.779 438.928 435.272C438.528 435.752 437.995 436.279 437.328 436.852L434.688 439.372H440.308L440.308 441.612H431.588ZM447.082 441.832C446.228 441.832 445.488 441.719 444.862 441.492C444.235 441.252 443.715 440.872 443.302 440.352C442.902 439.819 442.595 439.126 442.382 438.272C442.182 437.419 442.082 436.372 442.082 435.132C442.082 433.852 442.182 432.766 442.382 431.872C442.595 430.979 442.908 430.266 443.322 429.732C443.735 429.186 444.248 428.792 444.862 428.552C445.488 428.312 446.222 428.192 447.062 428.192C447.928 428.192 448.675 428.312 449.302 428.552C449.928 428.792 450.442 429.186 450.842 429.732C451.255 430.266 451.555 430.979 451.742 431.872C451.942 432.752 452.042 433.839 452.042 435.132C452.042 436.772 451.862 438.086 451.502 439.072C451.155 440.046 450.615 440.752 449.882 441.192C449.148 441.619 448.215 441.832 447.082 441.832ZM447.082 439.512C447.455 439.512 447.775 439.452 448.042 439.332C448.322 439.199 448.555 438.972 448.742 438.652C448.928 438.332 449.062 437.886 449.142 437.312C449.235 436.739 449.282 436.012 449.282 435.132C449.282 434.199 449.235 433.432 449.142 432.832C449.062 432.232 448.935 431.766 448.762 431.432C448.588 431.086 448.362 430.846 448.082 430.712C447.802 430.566 447.468 430.492 447.082 430.492C446.695 430.492 446.362 430.566 446.082 430.712C445.802 430.846 445.568 431.079 445.382 431.412C445.208 431.746 445.075 432.219 444.982 432.832C444.888 433.432 444.842 434.206 444.842 435.152C444.842 436.032 444.888 436.759 444.982 437.332C445.088 437.906 445.235 438.352 445.422 438.672C445.608 438.979 445.835 439.199 446.102 439.332C446.382 439.452 446.708 439.512 447.082 439.512ZM453.815 441.612L453.815 439.452L456.835 436.352C457.408 435.766 457.902 435.252 458.315 434.812C458.728 434.359 459.042 433.932 459.255 433.532C459.482 433.132 459.595 432.706 459.595 432.252C459.595 431.586 459.408 431.139 459.035 430.912C458.662 430.672 458.062 430.552 457.235 430.552C456.902 430.552 456.535 430.572 456.135 430.612C455.735 430.652 455.348 430.699 454.975 430.752C454.615 430.806 454.302 430.859 454.035 430.912L453.895 428.792C454.188 428.712 454.548 428.626 454.975 428.532C455.415 428.439 455.888 428.359 456.395 428.292C456.915 428.212 457.422 428.172 457.915 428.172C459.355 428.172 460.455 428.479 461.215 429.092C461.975 429.692 462.355 430.626 462.355 431.892C462.355 432.586 462.255 433.199 462.055 433.732C461.868 434.266 461.568 434.779 461.155 435.272C460.755 435.752 460.222 436.279 459.555 436.852L456.915 439.372H462.535L462.535 441.612H453.815ZM464.928 441.612L464.928 439.452L467.948 436.352C468.522 435.766 469.015 435.252 469.428 434.812C469.842 434.359 470.155 433.932 470.368 433.532C470.595 433.132 470.708 432.706 470.708 432.252C470.708 431.586 470.522 431.139 470.148 430.912C469.775 430.672 469.175 430.552 468.348 430.552C468.015 430.552 467.648 430.572 467.248 430.612C466.848 430.652 466.462 430.699 466.088 430.752C465.728 430.806 465.415 430.859 465.148 430.912L465.008 428.792C465.302 428.712 465.662 428.626 466.088 428.532C466.528 428.439 467.002 428.359 467.508 428.292C468.028 428.212 468.535 428.172 469.028 428.172C470.468 428.172 471.568 428.479 472.328 429.092C473.088 429.692 473.468 430.626 473.468 431.892C473.468 432.586 473.368 433.199 473.168 433.732C472.982 434.266 472.682 434.779 472.268 435.272C471.868 435.752 471.335 436.279 470.668 436.852L468.028 439.372H473.648L473.648 441.612H464.928Z" fill="#3A73A8"/>
<path d="M436.663 189.995L436.663 181.803L434.167 183.243L433.431 181.659L436.935 179.435H438.839L438.839 189.995H436.663ZM441.442 191.835L442.018 187.739H444.354L443.202 191.835H441.442ZM449.57 190.171C448.194 190.171 447.186 189.696 446.546 188.747C445.906 187.797 445.586 186.459 445.586 184.731C445.586 183.707 445.687 182.848 445.89 182.155C446.103 181.451 446.397 180.891 446.77 180.475C447.154 180.048 447.607 179.739 448.13 179.547C448.653 179.355 449.229 179.259 449.858 179.259C450.189 179.259 450.546 179.28 450.93 179.323C451.325 179.365 451.709 179.419 452.082 179.483C452.455 179.536 452.77 179.589 453.026 179.643L452.85 181.291C452.626 181.269 452.343 181.243 452.002 181.211C451.671 181.179 451.325 181.152 450.962 181.131C450.599 181.099 450.253 181.083 449.922 181.083C449.197 181.083 448.653 181.312 448.29 181.771C447.927 182.219 447.735 182.864 447.714 183.707C447.821 183.675 447.954 183.637 448.114 183.595C448.285 183.541 448.466 183.488 448.658 183.435C448.861 183.371 449.063 183.323 449.266 183.291C449.469 183.248 449.661 183.227 449.842 183.227C451.026 183.227 451.911 183.504 452.498 184.059C453.095 184.603 453.394 185.461 453.394 186.635C453.394 187.424 453.239 188.08 452.93 188.603C452.621 189.125 452.183 189.52 451.618 189.787C451.053 190.043 450.37 190.171 449.57 190.171ZM449.57 188.379C450.157 188.379 450.594 188.229 450.882 187.931C451.181 187.621 451.33 187.189 451.33 186.635C451.33 186.08 451.181 185.675 450.882 185.419C450.583 185.152 450.162 185.019 449.618 185.019C449.394 185.019 449.159 185.04 448.914 185.083C448.669 185.125 448.439 185.184 448.226 185.259C448.013 185.323 447.837 185.387 447.698 185.451C447.709 186.016 447.773 186.523 447.89 186.971C448.007 187.408 448.199 187.755 448.466 188.011C448.743 188.256 449.111 188.379 449.57 188.379ZM458.317 190.171C457.602 190.171 456.935 190.085 456.317 189.915C455.709 189.744 455.218 189.445 454.845 189.019C454.471 188.592 454.285 188.005 454.285 187.259C454.285 186.725 454.349 186.299 454.477 185.979C454.615 185.659 454.807 185.387 455.053 185.163C455.298 184.939 455.591 184.725 455.933 184.523C455.421 184.245 455.047 183.925 454.813 183.563C454.578 183.2 454.461 182.688 454.461 182.027C454.461 181.376 454.621 180.848 454.941 180.443C455.271 180.037 455.725 179.739 456.301 179.547C456.887 179.355 457.559 179.259 458.317 179.259C459.074 179.259 459.746 179.349 460.333 179.531C460.93 179.712 461.394 180.011 461.725 180.427C462.066 180.832 462.237 181.371 462.237 182.043C462.237 182.725 462.119 183.243 461.885 183.595C461.65 183.936 461.255 184.251 460.701 184.539C461.074 184.709 461.383 184.907 461.629 185.131C461.885 185.344 462.077 185.611 462.205 185.931C462.333 186.251 462.397 186.661 462.397 187.163C462.397 187.941 462.21 188.549 461.837 188.987C461.463 189.424 460.967 189.733 460.349 189.915C459.741 190.085 459.063 190.171 458.317 190.171ZM458.317 188.427C458.69 188.427 459.015 188.384 459.293 188.299C459.581 188.203 459.799 188.048 459.949 187.835C460.109 187.611 460.189 187.307 460.189 186.923C460.189 186.624 460.13 186.379 460.013 186.187C459.906 185.984 459.751 185.819 459.549 185.691C459.357 185.563 459.143 185.461 458.909 185.387H457.709C457.335 185.504 457.037 185.691 456.813 185.947C456.599 186.192 456.493 186.533 456.493 186.971C456.493 187.323 456.567 187.605 456.717 187.819C456.877 188.032 457.095 188.187 457.373 188.283C457.65 188.379 457.965 188.427 458.317 188.427ZM457.709 183.771H458.909C459.261 183.632 459.538 183.451 459.741 183.227C459.943 183.003 460.045 182.709 460.045 182.347C460.045 181.867 459.895 181.52 459.597 181.307C459.309 181.093 458.887 180.987 458.333 180.987C457.789 180.987 457.373 181.093 457.085 181.307C456.797 181.52 456.653 181.861 456.653 182.331C456.653 182.704 456.743 183.003 456.925 183.227C457.106 183.451 457.367 183.632 457.709 183.771ZM468.103 189.995L468.103 188.235H463.303L463.303 186.635L465.703 179.435H468.167L465.495 186.395H468.103L468.231 183.675L470.279 183.643L470.279 186.395H471.255L471.255 188.235H470.279L470.279 189.995H468.103Z" fill="#333333"/>
<path d="M316.663 233.132L316.663 224.94L314.167 226.38L313.431 224.796L316.935 222.572H318.839L318.839 233.132H316.663ZM321.442 234.972L322.018 230.876H324.354L323.202 234.972H321.442ZM329.282 233.308C328.887 233.308 328.471 233.287 328.034 233.244C327.607 233.201 327.197 233.148 326.802 233.084C326.418 233.009 326.098 232.945 325.842 232.892L325.938 231.18C326.194 231.212 326.498 231.249 326.85 231.292C327.213 231.335 327.581 231.372 327.954 231.404C328.338 231.425 328.69 231.436 329.01 231.436C329.618 231.436 330.071 231.324 330.37 231.1C330.669 230.876 330.818 230.513 330.818 230.012C330.818 229.671 330.749 229.404 330.61 229.212C330.482 229.009 330.29 228.86 330.034 228.764C329.789 228.668 329.501 228.615 329.17 228.604H326.994L326.994 226.844H329.122C329.367 226.844 329.602 226.791 329.826 226.684C330.061 226.577 330.247 226.423 330.386 226.22C330.535 226.017 330.61 225.772 330.61 225.484C330.61 225.036 330.471 224.721 330.194 224.54C329.927 224.348 329.49 224.252 328.882 224.252C328.562 224.252 328.226 224.268 327.874 224.3C327.522 224.332 327.186 224.369 326.866 224.412C326.546 224.444 326.279 224.481 326.066 224.524L325.97 222.844C326.205 222.78 326.493 222.716 326.834 222.652C327.175 222.577 327.538 222.519 327.922 222.476C328.306 222.423 328.669 222.396 329.01 222.396C329.917 222.396 330.647 222.492 331.202 222.684C331.767 222.865 332.178 223.169 332.434 223.596C332.69 224.012 332.818 224.561 332.818 225.244C332.818 225.617 332.77 225.932 332.674 226.188C332.589 226.444 332.471 226.663 332.322 226.844C332.183 227.025 332.039 227.175 331.89 227.292C331.741 227.399 331.602 227.495 331.474 227.58C331.794 227.729 332.071 227.895 332.306 228.076C332.541 228.257 332.722 228.497 332.85 228.796C332.978 229.095 333.042 229.495 333.042 229.996C333.042 230.796 332.903 231.441 332.626 231.932C332.349 232.412 331.933 232.764 331.378 232.988C330.823 233.201 330.125 233.308 329.282 233.308ZM338.429 233.132L338.429 224.94L335.933 226.38L335.197 224.796L338.701 222.572H340.605L340.605 233.132H338.429ZM346.791 233.308C346.471 233.308 346.114 233.287 345.719 233.244C345.335 233.201 344.957 233.153 344.583 233.1C344.221 233.036 343.906 232.977 343.639 232.924L343.815 231.26C344.039 231.292 344.317 231.329 344.647 231.372C344.989 231.404 345.341 231.431 345.703 231.452C346.066 231.473 346.407 231.484 346.727 231.484C347.485 231.484 348.039 231.265 348.391 230.828C348.754 230.391 348.946 229.729 348.967 228.844C348.743 228.929 348.498 229.009 348.231 229.084C347.975 229.159 347.719 229.217 347.463 229.26C347.218 229.303 346.994 229.324 346.791 229.324C345.639 229.324 344.765 229.052 344.167 228.508C343.581 227.964 343.287 227.111 343.287 225.948C343.287 225.18 343.442 224.535 343.751 224.012C344.071 223.479 344.514 223.079 345.079 222.812C345.655 222.535 346.327 222.396 347.095 222.396C348.023 222.396 348.781 222.615 349.367 223.052C349.965 223.479 350.402 224.097 350.679 224.908C350.957 225.719 351.095 226.695 351.095 227.836C351.095 228.892 350.989 229.772 350.775 230.476C350.573 231.18 350.285 231.74 349.911 232.156C349.538 232.572 349.085 232.871 348.551 233.052C348.029 233.223 347.442 233.308 346.791 233.308ZM347.015 227.548C347.239 227.548 347.474 227.527 347.719 227.484C347.965 227.431 348.199 227.372 348.423 227.308C348.647 227.233 348.834 227.169 348.983 227.116C348.973 226.529 348.909 226.017 348.791 225.58C348.674 225.143 348.477 224.801 348.199 224.556C347.933 224.311 347.565 224.188 347.095 224.188C346.541 224.188 346.109 224.348 345.799 224.668C345.501 224.988 345.351 225.415 345.351 225.948C345.351 226.503 345.49 226.908 345.767 227.164C346.055 227.42 346.471 227.548 347.015 227.548Z" fill="#333333"/>
<path d="M196.163 219.901L196.163 211.709L193.667 213.149L192.931 211.565L196.435 209.341H198.339L198.339 219.901H196.163ZM200.942 221.741L201.518 217.645H203.854L202.702 221.741H200.942ZM209.822 219.901L209.822 218.141H205.022L205.022 216.541L207.422 209.341H209.886L207.214 216.301H209.822L209.95 213.581L211.998 213.549L211.998 216.301H212.974L212.974 218.141H211.998L211.998 219.901H209.822ZM217.929 219.901L217.929 211.709L215.433 213.149L214.697 211.565L218.201 209.341H220.105L220.105 219.901H217.929ZM226.851 220.077C225.475 220.077 224.467 219.603 223.827 218.653C223.187 217.704 222.867 216.365 222.867 214.637C222.867 213.613 222.969 212.755 223.171 212.061C223.385 211.357 223.678 210.797 224.051 210.381C224.435 209.955 224.889 209.645 225.411 209.453C225.934 209.261 226.51 209.165 227.139 209.165C227.47 209.165 227.827 209.187 228.211 209.229C228.606 209.272 228.99 209.325 229.363 209.389C229.737 209.443 230.051 209.496 230.307 209.549L230.131 211.197C229.907 211.176 229.625 211.149 229.283 211.117C228.953 211.085 228.606 211.059 228.243 211.037C227.881 211.005 227.534 210.989 227.203 210.989C226.478 210.989 225.934 211.219 225.571 211.677C225.209 212.125 225.017 212.771 224.995 213.613C225.102 213.581 225.235 213.544 225.395 213.501C225.566 213.448 225.747 213.395 225.939 213.341C226.142 213.277 226.345 213.229 226.547 213.197C226.75 213.155 226.942 213.133 227.123 213.133C228.307 213.133 229.193 213.411 229.779 213.965C230.377 214.509 230.675 215.368 230.675 216.541C230.675 217.331 230.521 217.987 230.211 218.509C229.902 219.032 229.465 219.427 228.899 219.693C228.334 219.949 227.651 220.077 226.851 220.077ZM226.851 218.285C227.438 218.285 227.875 218.136 228.163 217.837C228.462 217.528 228.611 217.096 228.611 216.541C228.611 215.987 228.462 215.581 228.163 215.325C227.865 215.059 227.443 214.925 226.899 214.925C226.675 214.925 226.441 214.947 226.195 214.989C225.95 215.032 225.721 215.091 225.507 215.165C225.294 215.229 225.118 215.293 224.979 215.357C224.99 215.923 225.054 216.429 225.171 216.877C225.289 217.315 225.481 217.661 225.747 217.917C226.025 218.163 226.393 218.285 226.851 218.285Z" fill="#333333"/>
<path d="M78.7157 209.841L78.7157 201.649L76.2197 203.089L75.4837 201.505L78.9877 199.281H80.8917L80.8917 209.841H78.7157ZM83.4944 211.681L84.0704 207.585H86.4064L85.2544 211.681H83.4944ZM91.5747 210.017C91.1694 210.017 90.7321 209.985 90.2627 209.921C89.7934 209.867 89.3401 209.798 88.9027 209.713C88.4654 209.627 88.0921 209.553 87.7827 209.489L87.9747 207.857C88.2627 207.899 88.6041 207.953 88.9987 208.017C89.3934 208.07 89.7987 208.113 90.2147 208.145C90.6307 208.177 91.0094 208.193 91.3507 208.193C91.8947 208.193 92.3267 208.054 92.6467 207.777C92.9667 207.489 93.1267 207.073 93.1267 206.529C93.1267 206.155 93.0574 205.862 92.9187 205.649C92.7907 205.435 92.5987 205.286 92.3427 205.201C92.0974 205.105 91.8094 205.057 91.4787 205.057C91.2227 205.057 90.9667 205.083 90.7107 205.137C90.4547 205.179 90.2147 205.238 89.9907 205.313C89.7667 205.377 89.5854 205.446 89.4467 205.521L88.0067 205.297L88.2627 199.281H94.8707L94.8707 201.217H89.9907L89.7827 203.569C89.9321 203.505 90.1187 203.441 90.3427 203.377C90.5667 203.302 90.8067 203.238 91.0627 203.185C91.3294 203.131 91.5854 203.105 91.8307 203.105C92.5667 203.105 93.1907 203.206 93.7027 203.409C94.2147 203.611 94.6041 203.947 94.8707 204.417C95.1481 204.886 95.2867 205.526 95.2867 206.337C95.2867 207.179 95.1321 207.873 94.8227 208.417C94.5241 208.95 94.0974 209.35 93.5427 209.617C92.9987 209.883 92.3427 210.017 91.5747 210.017ZM100.481 209.841L100.481 201.649L97.9854 203.089L97.2494 201.505L100.753 199.281H102.657L102.657 209.841H100.481ZM105.788 209.841L105.788 208.113L108.204 205.633C108.663 205.163 109.057 204.753 109.388 204.401C109.719 204.038 109.969 203.697 110.14 203.377C110.321 203.057 110.412 202.715 110.412 202.353C110.412 201.819 110.263 201.462 109.964 201.281C109.665 201.089 109.185 200.993 108.524 200.993C108.257 200.993 107.964 201.009 107.644 201.041C107.324 201.073 107.015 201.11 106.716 201.153C106.428 201.195 106.177 201.238 105.964 201.281L105.852 199.585C106.087 199.521 106.375 199.451 106.716 199.377C107.068 199.302 107.447 199.238 107.852 199.185C108.268 199.121 108.673 199.089 109.068 199.089C110.22 199.089 111.1 199.334 111.708 199.825C112.316 200.305 112.62 201.051 112.62 202.065C112.62 202.619 112.54 203.11 112.38 203.537C112.231 203.963 111.991 204.374 111.66 204.769C111.34 205.153 110.913 205.574 110.38 206.033L108.268 208.049H112.764L112.764 209.841H105.788Z" fill="#333333"/>
<path d="M265.69 82.3204V73.0104H266.586V82.2224C266.586 85.0504 265.116 86.1144 263.338 86.1144C261.63 86.1144 260.02 85.1764 260.02 82.2644C260.02 81.2704 260.146 80.3464 260.37 79.4924L261.294 79.3104C261.042 80.2624 260.916 81.2284 260.916 82.1804C260.916 84.7564 262.246 85.4004 263.464 85.4004C264.64 85.4004 265.69 84.6724 265.69 82.3204ZM269.425 82.8804V73.0104H270.321V82.1664H271.959V82.8804H269.425ZM271.743 82.8804V82.1664H274.683V76.3004H275.565V82.8804H271.743ZM275.425 84.9664C275.425 85.3024 275.145 85.5824 274.809 85.5824C274.473 85.5824 274.207 85.3164 274.207 84.9664C274.207 84.6304 274.473 84.3504 274.809 84.3504C275.145 84.3504 275.425 84.6164 275.425 84.9664ZM273.535 84.9664C273.535 85.3024 273.269 85.5824 272.919 85.5824C272.583 85.5824 272.317 85.3164 272.317 84.9664C272.317 84.6304 272.583 84.3504 272.919 84.3504C273.269 84.3504 273.535 84.6164 273.535 84.9664ZM277.655 86.5064C277.081 86.5064 276.465 86.4084 276.003 86.2544L276.143 85.4984C276.633 85.6804 277.193 85.7924 277.739 85.7924C279.055 85.7924 279.867 85.1344 279.867 83.0764V76.3004H280.749V82.9504C280.749 85.0924 279.937 86.5064 277.655 86.5064ZM292.897 76.3004V82.3764C292.897 84.8824 291.651 86.1144 289.383 86.1144C287.675 86.1144 286.051 85.1764 286.051 82.2644C286.051 81.2704 286.177 80.3464 286.401 79.4924L287.325 79.3104C287.073 80.2624 286.947 81.2284 286.947 82.1804C286.947 84.7564 288.291 85.4004 289.495 85.4004C290.909 85.4004 292.001 84.6724 292.001 82.4184V76.3004H292.897ZM289.551 77.3784C289.215 77.3784 288.935 77.1124 288.935 76.7624C288.935 76.4264 289.215 76.1464 289.551 76.1464C289.887 76.1464 290.167 76.4124 290.167 76.7624C290.167 77.0984 289.887 77.3784 289.551 77.3784ZM297.382 86.4364C296.29 86.4364 295.156 86.1984 295.156 86.1984L295.226 85.4144C295.226 85.4144 296.472 85.7224 297.508 85.7224C299.076 85.7224 300.364 85.1204 300.364 83.3144V82.8804H298.74C296.066 82.8804 295.1 81.6064 295.1 79.5904C295.1 77.7564 296.248 76.1604 298.516 76.1604C299.972 76.1604 301.246 76.6504 301.246 76.6504V82.1664H302.912V82.8804H301.246V83.3144C301.246 84.7564 300.322 86.4364 297.382 86.4364ZM300.364 82.1664V77.2384C300.364 77.2384 299.58 76.8744 298.404 76.8744C296.934 76.8744 296.024 77.8964 296.024 79.4924C296.024 81.3124 296.85 82.1664 298.894 82.1664H300.364ZM302.696 82.8804V82.1664H304.81V76.3004H305.706V82.1664H308.044V82.8804H302.696ZM304.488 84.9664C304.488 85.3024 304.222 85.5824 303.872 85.5824C303.536 85.5824 303.27 85.3164 303.27 84.9664C303.27 84.6304 303.536 84.3504 303.872 84.3504C304.222 84.3504 304.488 84.6164 304.488 84.9664ZM306.378 84.9664C306.378 85.3024 306.098 85.5824 305.762 85.5824C305.426 85.5824 305.16 85.3164 305.16 84.9664C305.16 84.6304 305.426 84.3504 305.762 84.3504C306.098 84.3504 306.378 84.6164 306.378 84.9664ZM307.85 82.8804V82.1664H309.964V73.0104H310.846V82.1664H312.498V82.8804H307.85ZM317.6 82.8804C315.528 82.8804 314.744 82.2784 314.296 81.3964C314.128 82.2224 313.4 82.8804 312.224 82.8804H312.014V82.1664C313.022 82.1664 313.792 81.7604 313.792 79.5904C313.792 77.7564 314.954 76.1604 317.194 76.1604C319.07 76.1604 320.078 77.2244 320.078 79.2404V82.1664H321.632V82.8804H317.6ZM319.196 82.1664V79.4504C319.196 77.5744 318.412 76.8744 317.096 76.8744C315.626 76.8744 314.716 77.8964 314.716 79.5064C314.716 81.3124 315.542 82.1664 317.586 82.1664H319.196ZM321.427 82.8804V82.1664H323.541V73.0104H324.423V82.8804H321.427ZM327.298 82.8804V73.0104H328.194V82.1664H329.832V82.8804H327.298ZM329.616 82.8804V82.1664H331.73V76.3004H332.626V82.8804H329.616ZM331.31 85.5964C330.974 85.5964 330.694 85.3304 330.694 84.9804C330.694 84.6444 330.974 84.3644 331.31 84.3644C331.646 84.3644 331.926 84.6304 331.926 84.9804C331.926 85.3164 331.646 85.5964 331.31 85.5964ZM341.352 86.5064C338.706 86.5064 337.642 85.4424 337.642 84.1404C337.642 82.4744 339.588 81.7044 341.282 80.8644C340.372 79.9684 339.406 79.0024 338.02 78.5124L338.09 77.9104C339.168 77.0704 340.722 76.1324 342.15 76.1324C343.928 76.1324 344.656 77.1544 344.656 78.2324C344.656 79.5204 343.704 80.3324 342.542 80.9904C343.298 81.6624 344.11 82.1664 345.146 82.1664H345.958V82.8804H344.992C343.648 82.8804 342.724 82.2084 341.814 81.3684C340.218 82.1804 338.538 82.8244 338.538 84.0844C338.538 85.0504 339.378 85.7924 341.464 85.7924C342.528 85.7924 343.732 85.5964 343.732 85.5964L343.788 86.2824C343.788 86.2824 342.528 86.5064 341.352 86.5064ZM338.93 78.1484C340.19 78.6244 341.1 79.6184 342.01 80.4864C343.004 79.9404 343.774 79.3104 343.774 78.3584C343.774 77.5324 343.27 76.8324 342.052 76.8324C340.946 76.8324 339.63 77.6444 338.93 78.1484ZM341.856 74.5504C341.52 74.5504 341.24 74.2844 341.24 73.9344C341.24 73.5984 341.52 73.3184 341.856 73.3184C342.192 73.3184 342.472 73.5844 342.472 73.9344C342.472 74.2704 342.192 74.5504 341.856 74.5504ZM345.749 82.8804V82.1664H347.863V73.0104H348.745V82.8804H345.749ZM351.62 82.8804V73.0104H352.516V82.1664H354.154V82.8804H351.62ZM353.938 82.8804V82.1664H356.052V76.3004H356.948V82.1664H358.614V82.8804H353.938ZM355.632 85.5964C355.296 85.5964 355.016 85.3304 355.016 84.9804C355.016 84.6444 355.296 84.3644 355.632 84.3644C355.968 84.3644 356.248 84.6304 356.248 84.9804C356.248 85.3164 355.968 85.5964 355.632 85.5964ZM363.715 82.8804C361.643 82.8804 360.859 82.2784 360.411 81.3964C360.243 82.2224 359.515 82.8804 358.339 82.8804H358.129V82.1664C359.137 82.1664 359.907 81.7604 359.907 79.5904C359.907 77.7564 361.069 76.1604 363.309 76.1604C365.185 76.1604 366.193 77.2244 366.193 79.2404V82.1664H367.747V82.8804H363.715ZM365.311 82.1664V79.4504C365.311 77.5744 364.527 76.8744 363.211 76.8744C361.741 76.8744 360.831 77.8964 360.831 79.5064C360.831 81.3124 361.657 82.1664 363.701 82.1664H365.311ZM367.542 82.8804V82.1664H369.656V73.0104H370.538V82.8804H367.542ZM373.413 82.8804V73.0104H374.309V82.8804H373.413ZM383.12 86.5064C380.474 86.5064 379.41 85.4424 379.41 84.1404C379.41 82.4744 381.356 81.7044 383.05 80.8644C382.14 79.9684 381.174 79.0024 379.788 78.5124L379.858 77.9104C380.936 77.0704 382.49 76.1324 383.918 76.1324C385.696 76.1324 386.424 77.1544 386.424 78.2324C386.424 79.5204 385.472 80.3324 384.31 80.9904C385.066 81.6624 385.878 82.1664 386.914 82.1664H387.726V82.8804H386.76C385.416 82.8804 384.492 82.2084 383.582 81.3684C381.986 82.1804 380.306 82.8244 380.306 84.0844C380.306 85.0504 381.146 85.7924 383.232 85.7924C384.296 85.7924 385.5 85.5964 385.5 85.5964L385.556 86.2824C385.556 86.2824 384.296 86.5064 383.12 86.5064ZM380.698 78.1484C381.958 78.6244 382.868 79.6184 383.778 80.4864C384.772 79.9404 385.542 79.3104 385.542 78.3584C385.542 77.5324 385.038 76.8324 383.82 76.8324C382.714 76.8324 381.398 77.6444 380.698 78.1484ZM387.516 82.8804V82.1664H389.63V76.3004H390.526V82.1664H392.864V82.8804H387.516ZM389.308 84.9664C389.308 85.3024 389.042 85.5824 388.692 85.5824C388.356 85.5824 388.09 85.3164 388.09 84.9664C388.09 84.6304 388.356 84.3504 388.692 84.3504C389.042 84.3504 389.308 84.6164 389.308 84.9664ZM391.198 84.9664C391.198 85.3024 390.918 85.5824 390.582 85.5824C390.246 85.5824 389.98 85.3164 389.98 84.9664C389.98 84.6304 390.246 84.3504 390.582 84.3504C390.918 84.3504 391.198 84.6164 391.198 84.9664ZM397.977 82.8804C395.905 82.8804 395.121 82.2784 394.673 81.3964C394.505 82.2224 393.777 82.8804 392.601 82.8804H392.391V82.1664C393.399 82.1664 394.169 81.7604 394.169 79.5904C394.169 77.7564 395.331 76.1604 397.571 76.1604C399.447 76.1604 400.455 77.2244 400.455 79.2404V82.1664H402.009V82.8804H397.977ZM399.573 82.1664V79.4504C399.573 77.5744 398.789 76.8744 397.473 76.8744C396.003 76.8744 395.093 77.8964 395.093 79.5064C395.093 81.3124 395.919 82.1664 397.963 82.1664H399.573ZM401.803 82.8804V82.1664H407.837C407.921 81.5644 407.963 81.0044 407.963 80.4584C407.963 78.0924 407.151 76.9724 404.659 76.9724C404.113 76.9724 403.679 77.0004 403.147 77.0704V76.3704C403.553 76.3144 404.113 76.2584 404.729 76.2584C407.767 76.2584 408.845 77.6864 408.845 80.3464C408.845 81.0044 408.789 81.8724 408.621 82.8804H401.803ZM405.107 85.5964C404.771 85.5964 404.491 85.3304 404.491 84.9804C404.491 84.6444 404.771 84.3644 405.107 84.3644C405.443 84.3644 405.723 84.6304 405.723 84.9804C405.723 85.3164 405.443 85.5964 405.107 85.5964Z" fill="#163029"/>
<path d="M538.135 172.953L538.135 401.828L608.135 401.828L608.135 172.953L538.135 172.953Z" fill="#062E4A"/>
<path d="M298.135 242.184L298.135 401.828L368.135 401.828L368.135 242.184L298.135 242.184Z" fill="#062E4A"/>
<path d="M178.135 230.706L178.135 401.828L248.135 401.828L248.135 230.706L178.135 230.706Z" fill="#062E4A"/>
<path d="M418.135 197.709L418.135 401.828L488.135 401.828L488.135 197.709L418.135 197.709Z" fill="#062E4A"/>
<path d="M58.135 219.229L58.135 401.828L128.135 401.828L128.135 219.229L58.135 219.229Z" fill="#062E4A"/>
<line y1="401.447" x2="670" y2="401.447" stroke="#EBEFF8" stroke-width="4"/>
</svg>
